<svg xmlns="http://www.w3.org/2000/svg" width="234" height="116" fill="none"><path fill="#EFF2FF" d="m117.4 65.3 1 .7a3 3 0 0 1-2.4 1c-.8 0-1.3.4-2 1l1.2.4-1.9.8c-.6-.5.2-1.4-.7-1.7l-.7 1.6c-.2.5-.4.7-1 .4a8 8 0 0 0-2.2-.6l.9 1.4-3.7 1c-1.1.3-2.2.9-3.7.9 1-.9 1.7-1.7 3-1.2 0-.7-.3-.7-.6-.6L99.4 72l-2 .7c1 .5 2-.3 3.4-.2-1.1.7-2.4.5-3 1.4-.9-.4-2.2.3-2.7-1.2 1-.4 2.4-.4 3.2-1.4-.2-1.3-1 0-1.7-.3l1-.9c0-.3-.2-.7-.1-.8.2-.3.4-.2.6.1.2.3.6.5.8.6l.2-.1c0-.3-.2-.6-.4-1.1l1.4.2c.6-1 2.1-1.5 1.9-3h-.8c0 .5 0 1-.2 1.2-.2.2-.7.2-1 .4-.8.4-1.6.2-2.4 0-.7-.2-1.2.2-1.5.9l-.6.8c0-.4 0-.9-.7-1l.7 1c-.7.9-1.2 1-1.7 0-.3-.4-.6-.4-1-.2v1.2c-.2.3-.6.3-.7-.1 0-.6-.4-.8-.9-.7l-.6.7c-.4 1.2-.5 1.3-1.6.3l-.1.5v.5c-.6.3-1.3.6-2 .4-.2 0-.4 0-.6.2l-1.5.8.7.9-2.7.7v-.2l.7-.4-1-1.3-1 1.3c0 .3.2.5.4.9-.4.3-.6.1-.8-.3a1 1 0 0 0-1.5-.4c-.8.4-1.2.1-1.8-.7v.6l.2.4c-.8.3-.8-.3-.9-.6 0-.3.2-.7.4-.9l1-.7c-1-.3-1.9 0-2.7.3-.7.4-1.3.5-2.1.2a2 2 0 0 0-2.3.3c-.2.2-.7.2-1.1.2-.5 0-1-.3-1.6-.5.3-.7.7-.5 1.1-.3.8.4 1.2.2 1.8-.6-.6-.3-1.2-.5-2-.3h-1.2c-1.1-.1-2.2 0-3.2.8-.3.3-.9.4-1.3.6l-1.2.5c.4.4.9.7 1.2 1.2l-.2.9h-.2l-1.3-1.9-.8.3c-.6.7-1.4.7-2.2 1H59c-1.2-.5-2 .4-3.2.6.2-.4.4-.7.3-1 0-.3-.3-.6-.4-1h-.4l-.1.8c-.8-.2-1.3-.1-1.9.4a2 2 0 0 1-2.1.5c-.1.2-.2.5-.4.6-.5.3-1 .7-1.6.7-1 .2-1.6.6-2 1.6l1 .4-.7.6-.6.7c-.7-.2-1.3-.2-1.6.6l-.4.3c-1-.2-1.5.5-2.2 1-.2.2-.5.2-.8.3l.1 1.7c.9.3 1.4-.8 2.2-.1L42.5 85l.6.4c-1 .8-2.4 1-2.7 2.4 1 .6 1.4-.6 2.3-.6v.7h.1c.7-.2 1.4-.6 2.2-.6.6 0 1.3.3 2 .5-.6 1-1.7 1-2.7 1.1-.3 0-.6 0-.7.2l-1.7 1.5 3.3-.9 1.1 1-1.5.9.8.2c.3.2.6.3.4.7 0 .1-.4.2-.6.1l-1.2-.6c-.5-.3-.9-.2-1.1.2l1.4.7c-.3 1-1.6 1.6-.4 2.6l-1.1.9-.4.2c0 .6-.3.9-.7 1-1 .5-2 1-3 1.3-.3.1-.8-.1-1.4-.3v.8h-.9l-.9.1c-1 .7-2 .9-3 1.2-.4 0-.7.3-1.2.4-.6-.6-1.3-.6-2.1-.1-1 .6-2.1 1-3.2 1.3l.8-.7 1-.7 1-.7 1-.6 1.4-.7-1-.3 1-.8c-2.2.2-3.7 1.5-5.4 2-1.6.7-3 1.8-4.8 2.3l-.2-.2.5-.5 2.2-1c.3-.1.6-.3.2-.6l.8-.2c.7-.1 1.4-.4 1.7-1.3l-1.1.1c-.2-.5.2-.6.4-.8l2-1.3.3-.8-.7.3-2 1c-.2 0-.4 0-.5.2-.5.9-1.5 1-2.3 1.3-1.1.5-2.2 1.2-3.2 1.8l-1.2.3-2.2.2c.4-.3.6-.6.9-.7l3.8-1.8 1-.4c1 0 1.6-.7 2.2-1.8l-1.4.6c-.1-.8.5-1 .9-1.2l1.3-.7c.2-.1.4-.3.4-.5 0-.3.3-.7-.2-.8-.4-.2-.4.2-.5.5v.1c-.8.2-1.5.2-2 .5-.6.3-1.3 0-1.7.7l-1-.1 1-.8c0-.5-.1-.9-.3-1.4H22L20.6 91c-.5.8-.9 1.4-1.7 1-.2-.1-.6.1-.8.3l-2.2 1.4-2.1.6-.8.1.7 1.7c-.5.4-.8 0-1.2 0 .4-.8.2-1.2-.5-1.2l-1.7.1 1-1h-1.2c0-.5.2-.9.4-1.4l-.7-.3c0-.7.3-1 1-1.2a5 5 0 0 0 1.7-.6c1.5-1 3-1.5 4.9-1.7l-.2-1.4c-.6.1-1 1.2-1.6.3-.2.3-.3.7-.5.8l-5.8 2.6-.1-2.2c1 .2 1.9.2 2.6-.6.4-.4 1-.7 1.6-.7.8 0 1.4-.4 2-.9l2.5-1.6-1-2.1c-.8 1-.8 1 0 2l-.7-.1c-.4-.8-1.1-1.3-1.7-2l1.3-1.4-.5-.5c1-.4 1.3-1.6 2.6-1.2l.1-1c-.7-.4-1.3-.3-2 0l-2 .8h-1V79h-1.4l.7-.5c.5-.1 1 0 1.4-.6.4-.5.3-1 .4-1.5l1.6-1.1c.7.2 1.3 0 2-.7.5-.5 1.3-.8 2-1 1.1-.2 2.2-.2 3-.2l3.5-2.4c-.2-.5-.7-.6-1-.3-.6.6-1.4.5-2.2.7l-2.4.7-.8.1-1.6.1.6.7-1.3.2-.2-1.5 1.3-.7v-.2h-1.4c.5-.5 1-.7 1.6-.8l.4.8 1.4-.4-1-.5c1.4-.7 2.8-.8 4-1.4 0-.4 0-.8-.6-.7a15 15 0 0 0-4.7.8c-.9.4-1.9.4-2.9.6.2 0 .4-.2.5-.3l3.7-1.4c.4-.2 1-.1 1.7-.2v-.8c2.2 0 3.7-.8 5.4-1.2.3.5.2 1.2 1 1.4.2 0 .3.4.5.7-1 .5-1.8 1-2.7 1.3-.8.3-1.7.5-2.3 1.2l.1.3 3.3-1.1 1.1-.6c.4-.2.7-.1 1.1.3L26.7 70l1.7 1.3c0-.9.4-1.5 1.2-1.4.6 0 .4.7.4 1.2.6 0 1 0 .9-.6V69c0-.2.3-.4.5-.6l1 2 .5-1c.3-.7.8-.9 1.4-.4.6.5 1 .3 1.6 0l2-1c.6-.3 1.1-.4 1.5-1h.8c-.3 1.2-1.4.9-2 1.4l-1.8 1.2.9 1.4c.3-.1.8-.2 1-.4.4-.8 1-1 2-1-.3-.4-.4-.7-.8-1 .8-.4 1-.3 2 1-.3.7-1 .9-1.7.9.2 1 .7 1.3 1.4 1.1l1.3-.4.4.2-4 2c-.1.4 0 .8-.2 1.1-.1.2-.7 0-1.2 0l-.6 1.1h.8l.3-.1 1 1.1 1.1-1c.4 0 1 .2 1.4-.6.2-.2.8-.3 1.2-.5.4-.1.9-.1 1.2-.7.1-.3.8-.4 1.2-.5l1 1-.6.1-1.7.6v.7H43l-.6-.3c-.4 1-1.2 1.6-2.3 1.8l.6.4c.7-.2 1.6-.1 2.2-.8.2-.2.5-.2.8-.3.7-.1 1.5 0 2-.8h.6c.5-.1.8-.3 1.2-.6.6-.5 1.4-.7 2-1l.7-.5c-.8 0-1.1-.9-2-.6-.2 0-.6-.6-.9-.9.2-.7.6-.5 1-.4.4 0 .8-.2 1.5-.4L49 71a.7.7 0 0 1-.3-.4l.3-.3h1.4l-.9 2.4 1.5-.2.7 1.4.6-1.3c2 .3 2 .3 2.3-.7-1 .5-2 0-3.2-.3l.9-1c.1 1 .6 1.2 1.3.7.5-.3.5-.9.5-1.6l-1.3.3c-.8.3-1.4.2-2-.4.4-.9 1 0 1.5-.1.2-.6.6-.7 1.3-.8.7 0 1.5-.4 2.2-.7 1 0 2-.2 2.8-.9l.5-.2 1.4-.1c.5 1-.8 1-1.1 1.8.8.7 1.5-.5 2.3 0l.4.9c1.1 0 .3-.9.6-1.3h.8V68l-1-.3v-.4l1.8-.8-1.1-.7-.9 1c-.5-.4-1.2-.5-1-1.4.2-.4-.6-.9-.2-1.6.8 0 1.8-.6 2.6.3l-.5.7c0 .4.5.7 1.4 1l.2.5.2.5 1.2-.3.6-1.3-.7-.4c0-.3 0-.7.2-1.3l1.4.2c.8-.7 0-1.3-.2-2 .8-.4 1-.3 1.3.3.1.3.2.8.4.9 1 .4 1 1.2 1 2-1 1-1.6.2-2.4-.5l-.5 1.6c0 .4-1 .6-.4 1.3l2-1.1 2.4-.7-1-.6c.3-.2.5-.5.4-.9l-.4-1.2.7-.7c0-1.4-1.2-.3-1.7-.7.9-1.4 2.4-1.7 3.7-2.5l-1.7-.1-.1-.3c.4-.5 1-.9 1.2-1.4.4-.8 1.1-.9 1.7-1.2.5-.4 1.2-.5 1.8-.7v-.3h-.8c-.7.4-1.3.3-2 .1-.7-.2-1 0-1.4.6l-.3.6-.2.2L70 56l1.3-.8c-.7-.3-1.2-.3-1.8.2-.4.4-.6 1-1 1.6-1-.8-.9-1.8-.6-2.9l.3.6.6.4C69 54 69 54 70.2 54l-.5-.8-.4-.5s0-.2.2-.3l.5.9.3-.3v-1h.3l.8.2c.9.2 1 0 .9-.8l-.2-1 1.2-.6-.3.9c.6 0 1 .1 1.1-.7.2-1 .4-1 1.5-1l.8 1.3-.2.7c.4.2.8.2 1-.3.2-.6.2-1.2-.7-1.5l2.5-.8.1.2-1 .6v.2l1-.2.8 1.5 3.5-1.4h.7c.7.1.8 0 1.3-.9h-1.8c.2-1 1-.7 1.7-.7l-.3-1.2c-.4-.9-.7-1.8-.5-2.8.3-.9-.3-1.5-.8-2.3 1.3-.4 2.3-1.2 3.7-1.2-.2 1-1.3.8-1.8 1.5h1l.4 1.5h-1.5c-.1.3-.3.6-.2 1 0 .7.3 1.5-.3 2.4l1.4-.5c.7.8 0 1.2-.7 1.7 1.9.6 2.9-.8 4.3-1.2l-.7-.6c.4-.2 1-.2 1-.5.4-.6-.5-.6-.7-1v-.2c.4-.4.6-1.3 1.6-.8l-.2 1h.6l.1 1.5 1.8-.4c-.4-.4-.7-.9-1.3-.6l-.6-.4 1.2-1.3-.8-.7.7-.6c-.2-.6-.4-1.2-.8-1.6-.4-.4-1-.6-1.6-1l1.4-1.4H95l.5.2.2-.4c.5 0 .8-.2 1-.7.6-1 1.4-1.3 2.7-1l-.5.6-.8.4c-.4.3-.8.6-.4 1.2.5 0 1-.2 1.2-.7l.4-.4.5.1v.5l-2.3 2.3c-.5-.3.2-1.1-.5-1.1-.4 0-.8.2-1.3.4l.8 2.8.8-.8.6 1.1 1-1.2.6.6c.8-.1.5-.8.8-1.1l1.2-1 .2.6v.7c.7 0 1.1-.2 1.5-.6.4-.4.8-.4 1.3-.3l2.4.4.8-1 .5.8 1-.5c.4-.3.7.8 1-.2h1c.2 0 .4-.1.5-.3l1.2-1.4c-.3-.8-1.3.2-1.7-.6.5-.9 2.2-.8 2-2.4.4-.1 1.2.2 1-.8l-2.4.3c.3-.7 1-.8 1.7-1l-.4-2c.5-.5.5-.5 1.5-.4l-.8 1.3c.8.2 1.2.8 1.4 1.6 0 .4.3.5.6.7.5.2 1.2.3.9 1.2 0 .2.3.5.4.6l-.3 2.6.2.1 1-.7 1 .2-.1-1.2c1.3.3 1.8-1.1 2.8-1.4l1-.3c-.6 1-.3 1.7.2 2.4h-.6c.2 1-.7 1-1.2 1.4l.5.8c.6-1.2 1.6-1 2.6-1.2l1.4-.4c-.2-.6-.5-.8-1-.5l-.8.4c-.6.2-.8 0-.9-.5l.4-.5c-.7-.7-.2-1.5-.3-2.2 0-.6.5-1.2 1.3-1.4 0 1.2 1 1 1.8 1.2-.2-.2-.5-.3-.6-.6-.6-.7-.4-1 .7-1.3v1l1.5.6c.2 0 .4.2.4.3-.3 1 .7 1.3 1 2l-.7-.1c-.7-.2-1.4-.2-2-.8-.5-.4-.7-.2-1.1.8l1.2-.1c-.6.9-.3 1.6.3 2.6-.2-1 0-1.6.7-2.1.5.6.3 1.5 1.3 1.7l.5-.4-.3-1.6 2.4.8c.2-1.2 1.2-1.2 2-1.7.4 1.2-1.4 1-1.1 2 .3.6 1.4.5 1.2 1.6l.9-.3c0-.3 0-.5-.2-.7-.2-.5 0-1 .3-1.3.6-.4.6-.8.2-1.4l-.5-1.4 1.3-.6c0-.5-.2-.6-.7-.5l-1.3.1-1.2 1c-.6.4-1 0-1.6 0h-1.9l.4-.3c.8 0 1-.5 1-1.2l-.1-.9c0-.5.4-.8 1-.8l-.6 1.2 1 .6c.5.3 1.3 0 1.3-.3.3-1 1.1-.8 1.6-1.1l1.4.8v-.8l.6-.5c.2 0 .5.2.6.4 0 .2.2.6 0 .7-.5.8 0 2-1.2 2.6l1 .8-.6.8.1.2.6-.2c.1-.2 0-.6.2-.8l.7-.3c.2 0 .4.4.5.6v1c.2.9.3 1 1.5.6a56 56 0 0 0-1.2-.6l1.7-1.7-.4-.6 1.4-.9c-.5-1.2-1.4.3-2-.6l.2-1.6-1-.3 3.3-.6c-.3-.7-.8-1.2-.1-1.8.1.2.3.6.5.6.5.1 1.1 0 1.3.7l1.6-.2.2-2.1 1.3-.4-.3.9c.8.6 1.6 0 2.5-.2l-.3 1a6 6 0 0 0 3.7-1l-.2-1.4c.4-.3 1-.7 1.9-.4l-1.2.7 1.8 2.1c-1.1.4-1.1.4-2-.2-.4 1.4-1.8.8-2.6 1.4.2.2.7.4 1.2.4-1 .4-1.7 1-2.4 1-1 0-1.2.5-1.4 1.2l-.3.8c.3 0 .6.3.8.2l3.9-.7 1.6-.8c.5-.4 1 .6 1.6-.2l-1-.8 1.3-1c.4 2 .4 2 2 1.8l.1.9h.3c1-1.2 2.4-1.3 3.9-1.3l3.7-.2c1.2-.1 2.4 0 3.7.3l-1.7 1.7 1.6.3-.2-.7 2.1-.9c.7-.2 1.5-.2 2.3-.3l.5.6c.7.8 1.6.8 2.2 0 .4-.6.7-1 1.5-.6-.2 1-1.2 1.2-1.5 2 .4 1 .3 1-.5 1.9-.6.6-1 1.4-1.4 2.2a82 82 0 0 1-1.3-.4c.4 1.3.8 1.6 1.9 1.4l3.2-.5c0 .3.2.5.3.8l1.3.1.1 1-1.7.3.3 1-1.3.1.4-1c-1-.5-2-.3-3-.2h-3l.5.5.4 1.1c0 .2-.3.5-.3.8 0 .2.3.4.6.7l-1-.2-.3 1.2-2.5-1.6-1 2.1c.5.9.5.9-.4 1.7l.3.9-1.4 1c-.5-.6-1-1.3-2-.8-.7-1-2-.1-3-1-.1-.3-.7-.2-1.3-.3l.7-1.3c-.7-.3-1.3-.2-2 0l.6 1-.7.3.2.8-.6.4c.8.3.6 1 .5 1.6.7.4 1.6.1 2 1.1-.2.1-.4.4-.6.4a7 7 0 0 1-1.6-.4c-.5-.2-.8-.5-.6-1.2l-.2-.3-.9-1-.5-1.3.7-.9-.2-.1c-1.4.7-2.9.3-4.4.5l1.7 1.5 2.1.3c-.5 1-1.3.5-2 .7-.3 1-.2 1.3.8 1.9l-.1 1-1.5-.3.8-.3-.4-1.3-.7.6c-.8-.7-1.8 0-2.6 0-.5 0-1 .3-1.4-.3-.3 1-.3 1 .9 1.5.1.7-.4 1-.8 1.4-1 0-1.8-.4-2.2-1.5 0-.3-.5-.4-.9-.7-.5 1-1.2 1.3-2.1.4-.9 1.2-2 1-3.1.8l-1.7.2c0-.4 0-.8.2-1.2 0-.1.3-.2.3-.4v-1c-.1-.2-.6-.2-1-.2l.1 1-.9.6-.2-1.1c-.5 0-1 .2-1.4.3.6.5.8 1.3 1.7 1.2.2 0 .5.4.6.7 0 .1-.2.5-.4.6-.4.2-.8.2-1.3.3 0 .6-.2 1.3-1.2 1-.4.5-.8.3-1.3.3s-1 .4-1.6.6l-.7-.6-1.2 1.5.6 1c-.5.9-1.4.4-2.1.6l-.5-1c-.1-.2-.6-.3-.8-.2-.3.2-.1.5 0 .7l.5.4c-.6.3-.8 0-1-.3l-.6-.8a3 3 0 0 1-1.8.6c-.7 0-1.8 0-2.3 1l.1 1 .8.4c-.5.5-.8 1-1.2 1.6l1.5 1.9c-.6.6-1.1.7-1.7.4l-.8-2.1c-.7.1-1.4.5-2-.2l-1-1.5c-1 0-1 .2-.6 2l-.8.3-.2-.8-.4-.1c-.8 0-1.6 0-2.3.5-.4.2-1 .2-1.5.3-.4 0-.7.1-.9.6-.2.6-.7 1-1 1.7l.7.7-.7.9.1.2c.7-.9 1.5-.5 2.3-.2.3-.6 0-1-.4-1.4-1-1.2-1-1.5.6-1.9l2.8-.7v1h-1.3c-.3.4-.4.9-.5 1.3 0 .4.3.6.7.6.9 0 1.7.2 2.6.3l-1 .5c1 .4 1 .4 1-.5Zm-42.6 4.6-1-.8c-1.4.5-1.5 1-.4 2l1.7-.7-.3-.5c.4 0 .8.4 1.2 0-.5-.5-.8-.1-1.2 0Zm-13.5 1.8c.6 0 1 .3 1.3.2l2.7-.8 4.3-1.6 4-1.6-.3-.8-2 1.2c-.3-.2-.6-.5-1-.1-.1.1-.5.3-.6.2-.7-.2-.8.6-1.3.7H67l-.5.3c-1 .3-1.8 1-2.9 1.1-.7.1-1.6 0-2.2 1.2Zm-2.6-3.4c-1.2-.2-2 .1-3 .7-.8.5-.9.4-.9 1.5l1.5 1.1L56 70l.9-.5c.7.2 1.3.8 2.2.6l-1-1.3.6-.5ZM87 51.8l1-1.3-1.2-1.4c-.5 1.2-1.7 1.1-2.4 1.7 1.2 1.5 1.2 1.5 2.2.6l.4.4Zm85.2-17c-.6-1.3-1.7-.4-2.6-.7l-.1.2 3.6 1.4.4-1 1.6.1v-.3c-1-.3-2-.7-2.9.3Zm-31 .3v.4c.2 0 .4.2.6.1.5 0 .9-.2 1.3-.4.9-.2 1.4-1 1-1.8-.4-.7-.3-1.3-.2-2-1.1-.3-.7 1-1.6 1 1.3.7 1.5 1 1.2 2.4-.9-.6-1.5.3-2.2.3ZM118.9 42l1.6.4v-.6l-1.2-.2.2-1v-.7l.5-.4v-.2l-1.9.5.8 2.2Zm-24.4-.8c1-.5 1-.7.4-1.8l-.2.1c-1.9 1.3-1.3 1.4-.2 2.7h.3l-.3-1Zm65 4v-.3l-1.4-.1c-.3-.4.2-1.2-.8-1l.2.8-1.3.1c0 .7.3 1 .8 1l2.5-.5Zm-51.5 18v.4c.5.5 1.1.8 1.1 1.7l.5.1.2-.4-.2-1 1-.9-2.6.1Zm-30.4-7.5-.4-.1c-.3-.3-.6-.2-.7.2 0 .3.4.8.5.8.6-.1 1.1-.3 1.6-.6.3-.2.4-.6.6-1-1 0-1 0-1.6.7Zm45.9.3-1-.8c-.4-.3-.8 0-1 .3-.2.3-.2.6-.2 1h1c.3 0 .7-.2 1.2-.5Zm-44-1.1c.7.6.7.6 3.2 0 0-.4 0-.8-.6-.7l-2.5.7ZM107 66.1l1 1c1.2-.6 0-1.5.5-2.2-1.2-.2-.7 1-1.5 1.2ZM82.9 53l-.4-1.5-1.2.5.6 1.2 1-.2ZM64.2 68.4l2.3-.4-.3-.5-1.5-.2c-.5.1-.6.5-.5 1Zm29-2.2c-.2-.6-.5-.6-.9-.4l-1.8.8-.3.3v.1l3-.8Zm37.7-12 1-1-.1-.9-.7.1c-.5.4-.6.9-.2 1.7ZM38.7 98l.1.2a4 4 0 0 0 2.6-1v-.5L38.7 98Zm35-40.7c1.3.4 1.6.1 1.6-1.3l-1.6 1.3ZM161.6 46v1.4l.6.1c.3-1.5.3-1.5-.6-1.5Zm-37 9 1.6.3c.2-.5.4-1-.2-1.3l-1.5 1ZM153 36.1l2-1c-1-.3-1.5-.3-2 .1-.2.1 0 .5 0 1Zm-15.3 7-1.1-1.1c-.2-.1-.5 0-.7.1v.4c.5.3 1 .7 1.8.5Zm4.8 7.6 1.2-.7-1.7-1 .5 1.7Zm-58.7 3.4 1.4-.1c-.6-.9-.6-.9-1.4.1ZM74 51.3v1.2c.8-.3.8-.3 0-1.2ZM35.2 71.8c.3-.4 1-.4.7-1l-.3-.2c-.4.2-.7.5-.6 1l.2.2Zm54.3-19.1-.5-.2-.7.3v.3h.9l.3-.4Zm26.1 3.8c-.4-.6-.4-.6-1.2 0h1.2ZM45.7 78.8c-.6 0-.6 0-.8.6.6.1.6.1.8-.6Zm-28.3 4.1c.2.2.3.3.5.3h.6v-.4l-.6-.2c-.2 0-.3.2-.5.3Zm20-10c.8.2.8.2 1.4-.3-.6-.6-1 0-1.4.2ZM105.1 41c-.7 0-.7 0-1 .7l1-.7ZM26.6 66.7c-.5-.3-.8-.5-1.3 0 .4.3.8.5 1.3 0ZM70.3 70l.5.8h.2c.3-.9.3-.9-.7-.8Zm98.8-28H168c.5.7.8.8 1.2 0Zm-28 8.7c-.3-.5-.6-.8-1.1-.6.2.5.4.8 1 .6ZM58 73.6c.5.1.9 0 1.1-.5-.6-.2-.8.3-1.1.6ZM79 71c.2.3.5.4.8 0 0 0 0-.3-.2-.4-.4-.3-.5 0-.7.4Zm69-41.4c-.5-.4-.8-.4-1 .1.4.4.6.4 1-.1Zm23.3 6.9v-.4c-.4.3-.8-.3-1.4.4h1.4ZM22.5 90.7c0 .5 0 .9.5 1 .1-.4 0-.8-.5-1Zm117.2-45.4v-.1h-.1l-.7.1-.2.5 1-.5Zm-47.3-6.2.1.4.9-.4-.1-.3-1 .3Zm-17 32.1-.2.4c.3.3.5.6 1.3.3l-1-.7ZM169.8 44l.1-.4c-.2-.4-.5-.5-1.2 0 .5.1.8.2 1 .4ZM37 71.5l-.5.6.6.3.3-.4c0-.2-.3-.3-.4-.5Zm19.7 1.8-.3.4.7.3a14 14 0 0 0-.4-.6ZM43 94.5l-1.2.3c.5.2.8.4 1.2-.3ZM170 38v.6l.4.1s.2-.2.1-.4l-.4-.3ZM73 64.3l.1.3.7-.3-.1-.2-.7.2Zm31.4 3-.2.5h.4l.2-.2-.4-.3Zm-43.8 5 .1.3.7-.3v-.2l-.8.1Zm59.9-18.1c-.2 0-.3-.2-.4-.1l-.2.2.4.2.2-.3Zm-24.7-12-.1.3.2.2.1-.3-.2-.2ZM75 50.3V50h-.5v.3h.5Zm33-7.8v-.3l-.6.2v.2h.7ZM19.5 84l-.3-.1-.2.2.3.2.2-.3Zm55-29.5-.3-.2-.4.5.2.1.5-.4ZM21.5 70h-.1l.1.7h.2l-.2-.7Zm-1.1 1h-.5l-.2.2.4.1.3-.3Zm124.4-22 .1-.3-.2-.2-.2.2.3.4Zm-57.4 5v-.2l-.4-.2-.1.1.5.3Zm50.6-5.4-.1.3.3.2.1-.2-.3-.3Zm28.7-14.3-.4-.1-.1.1.2.2s.2 0 .3-.2ZM71.9 64.8l.4.1s.2-.2.1-.3l-.2-.2-.3.4Zm-57.3 12h.4v-.3l-.4.3Z"/><path fill="#EFF2FF" d="M162.2 26.7c.2.3.5.5.6.8.2.4.6.5 1 .4.5 0 .9 0 .9-.7 0-.4.3-.6.7-.5l2 1.3-.5 1.4c.5.1 1.2-.3 1.6.4l.4 1.6c-1 .4-1 .4-1.2-.5l-1.4-.3-.3 1c0-.3-.3-.6-.3-.6-1 .4-1.4-.3-2-1l.1 1.6-1.8-.8c0-1 0-1 1.1-1.3l-1.5-1c-.4.9-1.3 1.6-1.4 2.8L159 31l-.5 1-.3-.2c-.2 0-.4-.3-.5-.2-.6.6-1-.3-1.5-.3 0 0-.2-.6 0-.9 0-.2.3-.3.4-.5-.2-.7-1.3-.3-1.3-1.1l1.5-.2c0-1.2-.7-1-1.3-1v-.5c.8-.3 1.2-1 1.8-1.5h.4l-.9 2 1.5-.2-.4.9 3.4-.4c.1-.5 0-1.3 1-1.2Zm2.5 3.4c1.2-.6 1.2-.6 1-1.2-1.2.7-1.2.7-1 1.2ZM78 45.8c.1.5 1 .6.8 1.4-.5-.1-1-.4-1.5-.3-.4.2-.6.8-1 1.2l-1-.5c-.7 1.1-.7 1.1-1.7.4-2.2 1-4.8 1.3-6.9 2.7l-2.4.2 12-4.6-.1-1.3c-1.1 0-3.6.8-4.8 1.7l-.5-.7.3-.2 6.2-2c.2-.1.4 0 .6-.2l.7-.2.1.9c.7.5 1.1-.2 1.7-.6l.8 1c.5-.7.5-.7-.2-1.5-.5-.3-1 .8-1.6 0l2.6-1.4c.4-.2.8-.2 1.1.4l-.7.6 1.3 1-1.4.9.4.2h.7l-1.6 1.7.3 1.7c-1-.4-1.1-1.5-2-2l-.6 1.1-.4-1.7H78c.2-.5 0-1-.5-1.2-.2-.1-.5 0-.8 0l.8 1.7.5-.4Zm131.8-3 1.7-1.1-.9-.7c.2-.9.4-1.9-1.2-2l.3-.3a174.2 174.2 0 0 1 2.6.5c.5 1 1.4 1 2.5 1.4-.6.2-1.3 0-1.3.7 0 .2-.2.4-.1.5.8 1-.1 1.4-.5 1.9l.7 1.5c-.8 1-1.6 0-2.5.4l1 .7-.6.7c-.2.2-.5.5-.5.7 0 .2.5.4.7.5l1 .1c-1 .7-.9 1.6-.8 2.4.1.7.1.7-.5 1.2l.1-.8c-1.1 0-1.9-.9-2.9-1.3l.2-.3 1 .4h1.2c-.5-.9-.5-.9-1.8-.7-.1-.3-.3-.8-.2-.9.4-.5.5-1.2.6-1.8l.2-1.9c0-.2.3-.4.5-.6-.8-.1-.4-.8-.5-1.2Zm-150.4 36c-.4-.3-1.3 0-1.3-1h-1.2c-.3-.5 0-.8.4-1.2.4-.5 1.3-.2 1.6-1 .4 0 .7 0 1-.2.7-.4 1.4-.5 2.3-.8l.2 1.9c-.5 0-.9.2-1.3.3v1.6c1 .2 1.5 0 1.8-.7.3-.6.6-.6 1-.3l.5.4.7.2-1 .6 2.3 1.3c-1 .5-1.2.5-1.9-.1-.6-.6-.7-.5-1.6-.1h-1c-1 2-3.3 1.8-5 2.7 0-.8.6-.7 1-.9l1.7-.7c-.8-.2-1.5.4-1.9-.4.3-.4.5-.8 1.2-.7.6.1.7-.2.5-1l.4.2c.3 0 .6-.1.7-.3.2-.3 0-.6-.4-.7l-.3-.2.4-1.1-1.7.7 1 1.5Z"/><path fill="#EFF2FF" d="M60.3 83.8c-.4.3-.9.6-1.3.7l-3 1.2c-.1-.4 0-.8.5-1l1.6-.6 1.7-1.2 1.2-1.2c.3-.5.8-.5 1.2-.6h1.5c.6.7.6.7-.3 1.4l.4.6c-1.2.6-2.4.5-3.6.7Zm2.4-.6c-.1-.7-.1-.7-1-.8l1 .8Zm-1.5-.2v-.2l-.6.2.1.3.5-.3ZM43.3 64.3c.7 0 .7 0 1.1-.6l.6-.5c.9-.5 1.6-1.2 2.5-1.3l.4-.2c.5-.9 1.4-.6 2.3-.7l-1 1c.3.1.5.4.7.6l-.2.2c-1.2.3-2.4.5-3.4 1.2-.9-.2-1.4.5-2 .8-.6.3-.8.2-1-.5Zm75.6.9 4.7-.8-.7 2.8c-1.4 0-2.3-1-3.1-1.7-.8.3.3 1.2-.7 1.4l-.2-1.7Zm-3.6-37.6v1l1.1.1.2.4c-1.7 1.3-3.7 1.6-5.6 2.3-.4.1-.8 0-1-.6 1.4-1 3-.9 4.4-1.5 0-.6.2-1.2.9-1.7ZM56.4 59.7c.5 0 1 0 1.3-.2l1.4-.8-.4-.4c1-.7 1.2-.7 1.6.7l-.6.4-1.6.6-1 .3c-.3 0-.6 0-.8.2-.8.8-.8.8-2.1.6v-.8c0-.7.4-1 1-.9l1.3.3Zm123.4-25.9 2 .6c-.5.9-.5 1.7.5 2.3-.5.4-.7 1.1-1.4 1.1-.6 0-.2-.7-.4-1l-1.7-.5 1.3-1.2c.3-.6-.8-.7-.3-1.3Zm-124 34.4c-.8-.8-1.6-.8-2.6-.3a19 19 0 0 1-5.3 1.5l.5-.4 3-1c.5-.2.9-.3.8-.8l2.9-.8.7 1.8ZM14.2 98.1l-1.3-1 3-.8 2.6-1.2c.2 1 .2 1-.6 1-.4.1-.8.5-1.1.7-.3.2-.5.5-.8.5-.7 0-1.4 0-1.5 1.1l-.3-.3Zm197.4-61.7c.6.1 1.1.3 1.5-.5.1-.3 1-.2 1.5-.3.1 0 .4.5.3.7 0 .2-.3.4-.5.6l1.4 1c-1.2.2-2.2-.3-3.3-.5-.4 0-.8-.3-1-1ZM185 40c.6 0 1.4 0 2 .2.4 0 .6.4 1 .6-.3.2-.5.5-.8 1h1.2c-1.1.5-2.5.8-3.2.6l.8-1c-.3-.6-1.5-.5-1-1.5Zm-1.2-1.8c0-.3.2-.7.3-.7.6 0 .4-.6.7-1l1 .3.1-.9h-1.7c.6-.7 1.4-.6 2-.4.9.3.8 1.3 1 2l-3.4.7ZM52.7 59.7l.9 1.6c-.6.7-1.1 1.2-2 1-.3-.1-.7.2-1 .3a4.4 4.4 0 0 1 2.2-3Zm34 15.6c0 .4 0 .7-.6.7s-1.3-.2-1.5.6l-2.5-.1-.2-.7c.8-.2 1.6.5 2.4-.1l-.2-.7c1-.5 1.8.3 2.6.3Zm75.8-53.9.7.8-.3.2h-.4l-.2-1c.4-.6.7-1.2 1.2-1.5.4-.3 1-.3 1.7-.5v.5c-.1 1.3-.3 1.4-1.5 1.3l-1.2.2ZM92.8 79.8l-.8.4c-.5.2-1 .6-1.5.5-.8 0-1.5.4-2.2.6l-1-.4c1.9-1.2 3.7-.9 5.5-1.3v.2Zm-38.4-4.3c-1.8.4-3 2-4.7 2.4-.3 0-.5.5-1 1V78a5 5 0 0 1 1.2-.9l3.3-1.6c.4-.2.7-.3 1.2 0Zm33.3-34.2 2.5-1 1 .4-.4.9-.8-.6-1.3 1.3.4.7c-.8-.3-1.5-.7-1.4-1.7ZM54.9 64.5a5.2 5.2 0 0 1-3.9 1.7c0-.8.6-.8 1-1l1.4-.5c.4-.1.7-.9 1.5-.2Zm11.5-8.2-.6.7-2 1-1-.2-.1-.3.4-.3c.6-.4 1.4-.4 1.9-1.1 0-.3.8-.1 1.2-.2l.2.4Zm95.8-29.6c-.5-.3-1-.4-1.6-.2-.9.2-.9.2-2.2-.1l2-.2.2-1.1 1 1 .7-.5.7.1-.2.8-.6.2Z"/><path fill="#EFF2FF" d="M185 40c-.7.2-1.3.7-2.3.4-.5-.1-1.2.3-1.8.2-.8 0-.8-.4-.3-1.4l.4.5c0 .2 0 .3.2.5 1.2-.5 2.5-.3 3.7-.2Zm31.7-8.4-.5-1-.8-.4c.4-.6.8-.5 1.2-.3.6.3 1.5.3 1.7 1.5l-1.6.2Zm-23.2-.3-1-1.6c1.1-.5 2 0 3 .3-.5.9-1.4.6-2 1.3ZM45.8 70.2c-.3-1.4-.3-1.4.9-2.2l-.3-.7.2-.1c.4.3 1 .6 1.6 1.2l-1.6.5c-.4.4.4 1.3-.8 1.3ZM66.7 59v1.7s-.2.2-.3.1c-.6-.7-1.3-.7-2.2-.3.3-1 1.4-1 1.8-1.6l.7.1ZM211 55.2c-.8-.5-1-1.5-2-1l.3-1.6 1.8.9c0 .4 0 1-.2 1.7ZM170.9 30c.6-.6 1.2-.7 1.8-.2 0 .9-.8 1.3-1.3 2.1l-.5-2Zm-1.7-9.6-.1.8-.5 1-.5-1.3-1.3.3.2-1c.2-.4.9-.6 1-.2.3.8.8.4 1.2.4ZM76.8 75.2c-.5-.6-.7-1.2-1.6-1l.6 1c-.7.4-.8-.5-1.3-.5-.4 0-.9.2-1.5.1l.5-.4 2.5-.8c.4 0 .7 0 .8.4v1.2ZM146 54l-2.3.2.3-1.3c1-.2 1.4.3 2 1.2Zm42-.5c-.7.2-1 0-1.4-.4-.2-.4-.8-.4-1.2-.7 1.4-.6 2-.3 2.6 1.1Zm12.8-22.9-3.6.8c1-1.5 1.2-1.5 3.6-.8ZM62 56.7l.5 1.9-1.7-.1.5-.6-.7-.4c.4-.7 1-.4 1.4-.8Zm-8.7 25.5c1-.6 1.4 0 2 .5-.5.8-1.3.5-2.1.8v-1.3Zm35.1-37.4L87 46.2l-.7-1.6 2-.2.1.4ZM132 61.2c-.2.3-.6.7-.7.6-.5-.4-1 .2-1.4.3l-.3-1c.8.2 1.5-.8 2.5.1Zm-74.6 1.6c.2.8-.2 1.5-.9 1.7-.5.2-.8-.1-1-1 .7-.1 1.5.5 2-.7Zm-50.1 23c1.5-.4 2.7-1.4 4.2-1.5-1.3.7-2.6 1.4-4.2 1.5Zm45.5-26.1V59l2.3-1.5c.2.8-.3 1-.7 1.3-.5.4-1 .6-1.6.9Zm125.7-13.5-1-.3.1-1c-.2 0-.4-.2-.7-.5l.4-.1c1.1.4 1.4.9 1.2 2Zm-55.3-17c0-.3.2-.6.3-.6.8 0 1.4-1 2.4-.7-.2.6-.6.9-1.1 1l-1.6.3Zm75.3 5.5c1.3.6.7 1.7 1 2.4l-1.3.4c.7-1 .7-1.7.3-2.8Zm-79.9 29.6.3-1.4c.7 1 1.8.2 2.6 1l-2.9.4ZM43.3 71v-1c0-.2.4-.5.6-.4.3 0 .5.3.7.6l-.5.6-.8.3ZM87 76.8l1.1-1c.3 0 .5.2.8.3-.2 1.3-1.2.6-1.8 1l-.2-.3Zm84.5-48.1c-.7-.3-1.1-.6-1-1.2.3-.6.9-.4 1.5-.2l-.5 1.4Zm-33 3.1-.6-.4c-.4-.2-.8-.4-.6-.9.1-.4.4-.7.9-.6h.4c-.3.4-.6.7-.2 1.2.2.1 0 .5.1.7Zm81.8-6.5c1.4-.4 1.4-.4 2 .4-1.2.5-1.5.4-2-.4Zm-47.7 20.5 1.6-1.6c0 .7-.2 1.2-.3 1.8-.4.2-1 .5-1.3-.2ZM55.7 65.2c.4 0 .9.1 1.2.4.2.1.3.6.2 1-.2.3-.6.2-.9 0-.4-.3-.7-.7-.5-1.4Zm97.7-9.4-2 .5c-.5.1-.5 0-.7-.6l2.6-.1v.2Zm-47.6-21c.3 1.5.3 1.5-1.4 2 .7-.6 1-1.1.9-1.8l.5-.2Zm4.4.2-.1-1.5c0-.5.3-.6 1-.2-.5.4 0 1.3-1 1.7Zm23.1 22c.6-1.1.8-1.1 2.4-.8-.6.5-1.3.7-2.4.8Zm18.8-3.8-1.8-.4c.5-.5.9-1 1.5-.7.2.1.2.5.3 1Zm4.7-30.8c-.1-.2-.3-.5-.2-.6.2-.2.4-.5.7-.6h1.5c-.8.8-1.4 1-2 1.1Zm-15.1 7 .7-1c.3-.4.7-.5 1.3-.1-.7.5-1 1.5-2 1v.1Zm24.1 21.8c-.6-.5-1.4-.7-1.3-1.5 1.3 0 1.3 0 1.3 1.5Zm27.6-14.7-1.3-.5c.3-.7.6-1.1 1.3-1v1.5Zm-29.7-10.3c.1-1 .5-1.2 1.8-.5-.5.7-1.2.4-1.8.5Zm12.6 2.5-.5-.8c.5-.6 1-.7 1.6-.4 0 .8-.7.9-1.1 1.2Zm-125.4 56 1.1-.5c.4.8.4.8-.4 1.3l-.7-.8Zm10.5.3c1-.1 1.8-.8 2.8-.6-.9.9-1.4 1-2.8.6ZM28.5 66.3l1.7-.6c0 .4 0 .8-.2.9-.4.4-.9.3-1.5-.3Zm71-27.3.6 1.2c-.5.3-.9.3-1.1-.2-.3-.4-.2-.8.5-1ZM67 62.2c-.3.7-.6 1.2-1.4.8.3-1 .3-1 1.4-.8ZM220.8 24l-1.5-.3c-.5 0-.6-.4-.5-.8 1-.3 1.5.3 2 1ZM42.5 73.3a6 6 0 0 1-2.2 1.5c0-.8.7-.6 1-.8l1-1c0 .2.1.2.2.3Zm81.8-43-1.2 1.5-.3-.9c.1-.6.6-.7 1.5-.6Zm53.2 7.3c-.3-.1-.8-.2-1-.4-.2-.4 0-.7.6-1l.6 1.1-.2.3Zm3.2-8.4-1.6.7-.6-.1c.1-.2.2-.5.4-.6l1.8-.1v.1ZM140.4 55l-1.5.5c0-.5 0-1 .5-1 .3-.1.7.1 1 .2v.4ZM198 38.4l.3-.3.7-.2.6 1c-.7 0-1.3.2-1.6-.5ZM26.6 65.2l2.9-1.2v.9c-1 0-2 .2-2.9.3Zm76.9-31c.3.5 1 .9.5 1.7-.5-.5-.8-1-.5-1.7ZM134.7 60l1.5-.7.7.5a3 3 0 0 1-2.2.2ZM184 21c-.6 0-1.2 0-1.8.2.3-.9.3-.9 1.8-.3Zm4.8 20 .4-1.4.2 1 .4.5c-.5.3-.5.3-1 0ZM90.7 76.4c-.6 0-1.2.1-1.3-.6 0 0 .2-.4.4-.4.6-.1.8.3.9 1ZM38.3 67c.4-1.1.7-1.2 1.6-.6l-1.6.6ZM91 37c.2-1 .7-1.4 1.7-1l-1.8 1ZM19.4 97.6l-2.2 1-.1-.3c.6-.6 1.4-.8 2.2-.9l.1.2ZM87.9 40l1-.8.2.2-.1.7c-.3.2-.7.2-1 .2V40Zm84.5-13.9-1.2.6v-1c.5-.2.9-.2 1.2.4ZM93.5 74.4l-1.3 1c.2-1 .2-1 1.3-1ZM160 61.5c-.7.2-1.1.1-1.2-.6 1-.2 1-.2 1.1.6Zm-8.4-6.3.3-1.7 1 1.5-1.3.2ZM134.3 61l-1.2-.6c.8-.5 1-.4 1.2.7Zm36.9-40.1c-.5.7-.5.7-1.2.3.3-.4.6-.6 1.2-.3ZM20.5 100.2l1.9-.8c-.2.8-.2.8-2 .8Zm116.8-40.9c.4-.4.8-.5 1.1 0l-.1.5c-.6.3-.8 0-1-.5Zm15.8-36.7c.6-.7.6-.7 1.4-.6-.3.6-.3.6-1.4.6ZM90.6 71.4c.6 0 1.3-.2 1.9-.4-.6.5-1.1 1-1.8.8v-.4Zm63.6-16.9 1.5.7c-1.3.3-1.3.3-1.5-.7ZM171 50l1.4.2c-.3.3-.4.6-.6.6-.6.1-.8-.2-.8-.8ZM70 58.6l.1-1.1.7-.1v.4l-.4.8h-.3Zm121.7-20.9 1.4.2c-1 .8-1.1.8-1.4-.2ZM68.2 72.9l1.1.5-.4.5c-.7.1-.8-.3-.7-1ZM56.5 59.7c0-1 0-1 1.1-1.2 0 .8-.7 1-1.2 1.2Zm123.2-16.9c.3.4.7.6.2 1l-.8-.1c-.3-.5.3-.6.6-.9Zm-149 58.6-2 .8c.6-.5 1-1.2 2-.8Zm145.6-72.7c.2.7-.5.8-.9 1l-.9-.4 1.8-.6Zm-73 10.3c.5 0 .6-1 1.4-.6-.3.7-.8.7-1.4.7Zm80.4-.8c0 1-.2 1-1.3.6l1.4-.6ZM220.8 24l.3-1 1 1.1v.3l-1.3-.5ZM54.7 78c.4-.3.6-1 1.4-.5-.3.7-.7.9-1.4.5ZM95 38.1l-.7-.6 1.2-.5v1l.1-.1-.7.2Zm73.3 10.1c1-.5 1.1-.4 1.5.6l-1.5-.6Zm22.4-6c.6 0 1.2-.4 1.8.2-.7.4-1.2 0-1.8-.2ZM51.8 80l.3-.6.7-.1.2.3a2 2 0 0 1-.6.4h-.6Zm111-29.3h-1.2c.3-.4.3-.6.5-.7.4-.2.7 0 .7.7ZM44.9 83.8c-.3-.5-.4-.8 0-1 .2-.1.6 0 .6.1.3.6-.2.7-.6.9ZM117 64.1c-.7.5-1 .5-1.3 0-.1 0 0-.3 0-.4.4 0 .8.2 1.3.4ZM9.2 87c1-.3 1-.3 1 .6l-1-.7Zm133.3-28.7c-.6.5-1 .7-1.5 0 .5-.5 1-.2 1.5 0Zm54.1-15.1-1.3-.2c.7-.8.8-.8 1.3.2Zm-12.8 10.1h-1.6c.5-.6.5-.6 1.6 0ZM118 31.2l-1 .5-.3-.2c0-.2.1-.5.3-.6.3-.2.7-.3 1 .3ZM67.5 79.4h1.3c-.7.5-.7.5-1.3.2v-.2ZM182.6 34l.5-.5.8.8c-.2 0-.3.2-.4.1-.3 0-.5-.2-1-.4Zm19.2 4.2c-.7-.9-.7-.9.1-1.1l-.1 1.1Zm-50.4-9.8c-.8.5-.8.5-.8-.7l.8.7Zm-65.2 49c-.4 0-.9.2-1.3-.4h1.3v.4Zm26.5-44.9-.5.6-.4-.3.3-.6.6.3Zm13.9-5.3 1.5.3c-.8.4-.9.4-1.5-.3Zm18.6-4.1c-.4.7-.7.8-1.1.2.5-.3.5-.3 1.1-.2ZM64.6 88.3l2-.5v.2l-1.9.6v-.3ZM104.9 33c-.4.8-.8.9-1.2 0h1.2ZM70.6 80.6c.5-.4.5-.4 1.1-.3-.2.5-.5.6-1.1.3Zm-1-22.2c-.3.2-.4.4-.6.4a.6.6 0 0 1-.4-.2l.1-.5.9.3Z"/><path fill="#EFF2FF" d="m169.2 20.4-.3-.3-.1-.5h1.2a21786.7 21786.7 0 0 0-.8.8Zm55.5 3.6-1.4-1c.8-.2.8-.2 1.4 1ZM60.2 65.7l-1-.7.8-.4.2 1Zm158.5-37.6c-.7.6-1 .2-1.1-.4l1.1.4Zm-28.2 21.1c-.9-.4-.7-1-1-1.5.9.3.7.9 1 1.5ZM8.7 87.4l-.4.5c-.2 0-.3-.2-.5-.3l.3-.4.6.2ZM195 35.3c-.6.3-.9.2-1-.2l.2-.4.9.6Zm-74.2-5c.1-.7.4-.9 1-1 0 .7-.5.8-1 1ZM82 78.5c-.3.7-.7.4-1 .1l1-.1Zm-67.7 6.1c-.4 0-.7.2-1 .3v-.3l.9-.2v.2Zm-3.5 1.3 1-.4v.2l-1 .4V86Zm39.2-.4-.2.7-.4-.2.4-.6.3.1Zm50.7-47.6-.3-1 1 .4-.7.6ZM43.5 67.6l.8.5-.8 1v-1.5Zm117.1-46.8h.5l.4.6c-.6.2-.7-.1-1-.6Zm-29 15.1 1-.4c-.1.5-.3.7-1 .4Zm28.9-13.5-.3.4-.5-.4.3-.3.5.3ZM47.6 81.6c-.2 1-.6.7-1 .4l1-.4Zm109.1-59.3c0 .5 0 .9-.6.9-.2-.6.2-.8.7-.8Zm-70 53-.4-.7v-.1l1.3.7-1 .1h.1Zm-74.3 2.1.7-.5c0 .7 0 .7-.7.5ZM50 67l-.4.5-.4-.2.3-.4h.6Zm117.4-40.6.8-.3c0 .7 0 .7-.8.3ZM59.6 56l-1 .8c0-.7 0-1 1-.8ZM116 68.2c.8-.2 1.3-.3 1.8.3l-1.8-.3Zm-.7-35.9.5-1c.3.8.3.8-.5 1Zm59.9 11.2-.4-.5.2-.4.4.4-.2.5Zm32.4.5 1 .2-.2.3c-.5.3-.8.2-.8-.6Zm-11.5-20.7 1-.4v.3l-.8.4-.2-.3ZM56.9 81.4c0-.8.3-.7.8-.4l-.8.4Zm31.3-8.9 1-.4v.2l-.9.5-.1-.3Zm37.3-9.9h1.3c-.5.5-.7.5-1.3 0ZM76 76.7l-.9.2c.3-.6.5-.7.9-.5v.3Zm-52.2 23c-.2-.6-.3-1.1.7-1.2l-.7 1.2Zm156-65.9v-.2l.2-.6.3.2-.3.5-.3.1Zm-78.5 1.4-1 .6c-.3-.3-.3-.6 0-.6h1ZM42.9 65.7c-.8.3-1 0-1-.7l1 .7Zm99.4-10.9h-1c.3-.6.3-.6 1 0ZM91.6 34.5a3491.8 3491.8 0 0 1-.7.7l.4-.8.3.1ZM78.3 78.2c-.6.5-.9.5-1.1-.4l1.1.4Zm134.5-18.4-.8-.2v-.4l1 .2-.2.4ZM30.5 67.6l1-.4c.2.3-.2.4-1 .4ZM186 38.7l-.7.6c-.3-.7-.3-.7.6-.6Zm-1.5-12h-1.2c.6-.6.6-.6 1.2 0ZM29.1 68.3l.4-.4h.7l-.8.6-.3-.2Zm127.6-9.6-1-.2.1-.3c.4-.1.7-.2.9.5ZM87.3 72.9l-.4.4h-.4c0-.2 0-.4.2-.5h.6ZM174 42.2l-.7-.1v-.2h.7v.3ZM73.4 76.1l-.7.1V76l.7-.2v.3Zm27.9-40.9.7.6c-.5.3-.5.3-.7-.6ZM48 64.7l-.4.5-.4-.2s0-.2.2-.3h.6Zm1.2 17.1-.4-.4.4-.3.3.2-.3.5Zm16.2-20.7-.8.2.8-.3v.1Zm148.6 1 .6-.4.2.2-.5.5-.3-.3Zm-47.4-36.6 1-.2c-.1.5-.3.7-1 .2Zm56.9-1.2.6-.2v.3l-.6.1v-.2ZM84 78.1l-.8.1V78l.4-.2h.5l-.2.3ZM52 87l1.1-.2c-.3.5-.5.6-1 .2Zm14.9-13-.4.3-.2-.2.2-.3.4.3Zm-2.2.2.6.3v.2l-.7-.1.1-.4Zm104.7-47.9-.6-.2v-.2h.7v.4Zm-42.9 3.2v.6h-.3l.1-.6h.2Zm62.9 4.8.3.1v.3h-.4v-.4Zm-20.1 11.9-.8-.4c.5-.5.7-.2 1 0l-.2.4ZM191 29.8l.5-.3.1.2-.6.4v-.3ZM57 78.4l.4.2-.2.3s-.2 0-.3-.2l.2-.3ZM215.2 32l-.3.4-.4-.1.2-.4h.5ZM67.7 83.3l-.4.4-.3-.1c0-.2 0-.4.2-.4h.5Zm-.7-6.5.6.1v.3H67v-.4ZM15.6 98.7l-.8.6c0-.5 0-.8.8-.6ZM167 22.3l-.3.6h-.2a77.6 77.6 0 0 1 .5-.6Zm40 16-.2-.4h.1l.3.3-.2.1ZM64.7 81h.2l-.1.2-.2-.1v-.2ZM32 63.4c-.2 0-.3 0-.3-.2l.1-.2.3.1-.1.3Zm161.8-43.3h-.5V20h.5v.1Zm-127 61.7-.2.3h-.4l.1-.4h.5ZM173 25.4l.3.5s0 .2-.2.2h-.3l.2-.7ZM68.5 81.6l-.2.3-.2-.2.1-.3.3.2ZM174 43.3h-.4V43h.5v.3ZM33.4 64.6l.3-.2.1.1-.3.3-.1-.2Zm54.2 13.7h-.5V78h.5v.2Zm-52.7-9.8.5-.1-.5.2v-.1ZM46 73.6l-.2-.2.2-.2.2.3-.2.1ZM7.5 81.8l-.8.2v-.2a1981.7 1981.7 0 0 1 .8 0Z"/></svg>