<svg xmlns="http://www.w3.org/2000/svg" width="375" height="284" fill="none">
  <g clip-path="url(#a)">
    <path fill="#E0D6FF" d="M43.5 155.7c.2 1 .5 1.9.8 1.8.2 0 .3-1 0-2-.1-1-.5-1.8-.7-1.8-.3 0-.3 1-.1 2Zm121.5-50c.5.9 1.5 1.3 2.3 1 .7-.4 1-1.5.4-2.5-.5-1-1.5-1.4-2.2-1-.8.4-1 1.5-.5 2.5Z"/>
    <path fill="#7E92F1" d="M198 54.4c0-1.9-.6-3.3-1.2-3.3s-1 1.5-1 3.4c.2 1.9.7 3.3 1.3 3.3.6 0 1-1.5 1-3.4Zm56 178c-.6 1.7-.1 3.5 1.2 4 1.2.5 2.8-.5 3.5-2.3.6-1.7.2-3.5-1.1-4s-2.8.6-3.5 2.3Z"/>
    <path fill="#E26F56" d="M303 174.2c2-1.9 2.1-5 .3-6.8a4.8 4.8 0 0 0-6.8 0c-2 1.9-2 5-.2 6.8a4.8 4.8 0 0 0 6.8 0Z"/>
    <path fill="#E0D6FF" d="M77.6 77.9c2-2.8 2.4-6.2.6-7.4-1.7-1.2-4.7 0-6.8 2.9-2 2.8-2.4 6-.6 7.3 1.6 1.2 4.7 0 6.8-2.9Zm265.1 188.3c-.2 4.4 2 8 5 8.1 3 .2 5.7-3.2 6-7.5.2-4.3-2-8-5-8.1-3.1-.1-5.7 3.2-6 7.6ZM20.5 110.5c2.2-4.6.7-9.9-3.2-11.8-4-1.8-9 .4-11.2 5-2.2 4.7-.7 10 3.2 11.8 4 1.9 9-.3 11.2-5Z"/>
    <path fill="#324CD3" d="M194.2 233.5c-.3 5 .8 9.3 2.4 9.4 1.5 0 2.9-4 3.1-9.2.2-5.1-.8-9.3-2.3-9.4-1.6 0-3 4-3.2 9.2Z"/>
    <path fill="#7E92F1" d="M326 15c-1.1-5-5-8.3-8.7-7.5-3.7.9-5.8 5.6-4.6 10.6 1.2 5 5.2 8.3 8.8 7.4 3.7-.9 5.7-5.6 4.6-10.6Z"/>
    <path fill="#E26F56" d="M263.1 76.8c2.2-4.6.7-10-3.5-12s-9.4 0-11.6 4.7c-2.2 4.6-.7 10 3.5 12s9.4 0 11.6-4.7Z"/>
    <path fill="#7E92F1" d="M166.4 215.5c1.4 5.7 6.1 9.5 10.5 8.5 4.4-1.1 6.8-6.7 5.5-12.4-1.4-5.7-6.2-9.5-10.6-8.4-4.4 1-6.8 6.6-5.4 12.4v-.1Z"/>
    <path fill="#E26F56" d="M71 213.4c5.7-3.4 9-8.5 7.3-11.4-1.7-3-7.8-2.6-13.6.8-5.7 3.5-9 8.6-7.2 11.5 1.7 3 7.8 2.5 13.5-.9Zm308 54.9c6.7-.4 12-2 11.9-3.4-.1-1.4-5.6-2.2-12.3-1.8-6.6.5-12 2-11.9 3.4.1 1.5 5.6 2.2 12.3 1.8Z"/>
    <path fill="#324CD3" d="M135 284.7c5.7 4.8 12.2 6.6 14.4 4 2.2-2.6-.7-8.6-6.4-13.4-5.6-4.9-12-6.7-14.2-4.1-2.3 2.6.6 8.6 6.3 13.5Z"/>
    <path fill="#E0D6FF" d="M70.8 203.3c5-6.5 6.5-13.8 3.2-16.4-3.2-2.6-10 .6-15 7.1s-6.5 13.8-3.3 16.4c3.3 2.5 10-.7 15.1-7.1Z"/>
    <path fill="#7E92F1" d="M327.5 188.5c3.5 7.5 12 10.9 18.8 7.6 6.8-3.2 9.5-11.9 6-19.3s-12-10.8-18.7-7.6c-6.9 3.2-9.6 11.9-6 19.3Z"/>
    <path fill="#324CD3" d="M339.5 74.4c7.8 2.9 15.8.4 18-5.5 2.1-5.8-2.4-13-10.1-15.7-7.7-2.8-15.7-.4-17.9 5.5-2.1 5.8 2.4 13 10 15.7Z"/>
  </g>
  <defs>
    <clipPath id="a">
      <path fill="#fff" d="M0 0h375v284H0z"/>
    </clipPath>
  </defs>
</svg>
