<svg xmlns="http://www.w3.org/2000/svg" width="1320" height="743" fill="none"><path fill="#2243DA" d="M55.5 112s.2 0 .3-.2c0 0 0-.2-.2-.2h-.3c0 .2 0 .3.2.3Z"/><path fill="#4D6DFB" d="m132.2 352.6-.1-.3v.6-.3Z"/><path fill="#2243DA" d="m170.4 298.1.3-.3-.3-.2c-.2 0-.3.2-.3.3l.3.2Z"/><path fill="#E0D6FF" d="m208.7 53.5.2-.1-.2-.1-.3.1.3.1Z"/><path fill="#2243DA" d="M247 466s.2.2.2 0v-.2h-.4l.1.3ZM285.2 475l.3-.1s0-.2-.2-.2h-.3c0 .2.1.3.2.3ZM323.6 133.6l.2-.3h-.3l-.2.3h.3Z"/><path fill="#2346E6" d="m400 223.7.2.2v-.5l-.1.3ZM74.3 456.1c.6.3 1.3.2 1.5-.3.2-.4-.1-1-.7-1.3-.6-.4-1.3-.2-1.5.3-.2.4.1 1 .7 1.3ZM113.1 340.1c.7-.2 1-.6 1-.8 0-.2-.6-.2-1.3 0-.6.3-1 .6-1 .8 0 .2.7.2 1.3 0Z"/><path fill="#2243DA" d="M151 398.5c.6.3 1.2.3 1.4 0 .1-.3-.2-.8-.8-1.1-.6-.3-1.3-.3-1.4 0-.2.3.2.8.8 1Z"/><path fill="#E0D6FF" d="M228.1 2.9c.5-.5.8-1 .6-1.2-.1-.1-.6.1-1.1.6-.5.5-.7 1-.6 1.2.2.1.7-.2 1.1-.7Z"/><path fill="#2243DA" d="M266.2 132.1c.6 0 1.2-.5 1.1-1.1 0-.6-.6-1-1.2-1-.7 0-1.2.6-1.2 1.1 0 .6.6 1 1.3 1Z"/><path fill="#E26F56" d="M304.4 169.4c.7 0 1.2-.1 1.2-.3 0-.1-.5-.3-1.2-.3s-1.2.1-1.2.3c0 .1.5.3 1.2.3Z"/><path fill="#2346E6" d="M343.5 65c.4-.5.5-1.2 0-1.6-.3-.4-1-.3-1.5.2s-.5 1.2-.1 1.6c.4.4 1.1.3 1.6-.2Z"/><path fill="#4D6DFB" d="M381.3 161.5c.6-.4.9-1 .7-1.2-.1-.2-.7-.1-1.3.3-.6.4-.9.9-.7 1.1.2.3.8.2 1.3-.2Z"/><path fill="#E26F56" d="M418.6 247.5c-.2.7 0 1.2.4 1.3.4.1.8-.3 1-1 .1-.6 0-1.2-.5-1.3-.3-.1-.8.4-1 1Z"/><path fill="#2346E6" d="M15.9 66.2c.3 1 1.2 1.8 2 1.6.7-.2 1-1.3.7-2.4-.3-1.2-1.2-1.9-2-1.6-.7.2-1 1.3-.7 2.4Z"/><path fill="#2243DA" d="M55.9 281c.9-.8 1.5-1.5 1.3-1.8-.2-.2-1 .1-2 .8-1 .8-1.5 1.5-1.3 1.7.1.3 1 0 2-.8Z"/><path fill="#E0D6FF" d="M94.7 197a2 2 0 1 0-1.8-3.8 2 2 0 1 0 1.8 3.8Z"/><path fill="#E26F56" d="M131.2 23.4c1 .6 2.2.4 2.7-.5s.1-2-.9-2.6c-1-.6-2.2-.4-2.7.5-.5.8-.1 2 .9 2.6Z"/><path fill="#2243DA" d="M169.4 175.2c.7.9 1.8 1.2 2.3.8.6-.5.5-1.6-.3-2.5-.7-.9-1.8-1.2-2.3-.8-.6.5-.4 1.6.3 2.5Z"/><path fill="#E0D6FF" d="M210 90.4c-.1-1.1-.8-2-1.5-2-.7.1-1.2 1-1 2.2 0 1.2.7 2 1.4 2s1.2-1 1-2.2Z"/><path fill="#4D6DFB" d="M323.2 241c1.2.2 2.2-.4 2.4-1.4.2-1-.6-2-1.7-2.2-1.2-.2-2.2.4-2.4 1.4-.2 1 .6 2 1.7 2.2Z"/><path fill="#E26F56" d="M361.7 352.7c1.1.3 2 .4 2.2.1 0-.2-.8-.7-2-1-1-.4-2-.4-2-.2-.1.3.7.7 1.8 1Z"/><path fill="#2346E6" d="M399.6 457.8c1.1.4 2.2.2 2.5-.5.3-.7-.3-1.7-1.4-2.1-1.1-.4-2.2-.2-2.5.5-.3.7.3 1.6 1.4 2ZM439 367.7c1.1-.4 1.8-1.5 1.4-2.5-.3-1-1.5-1.4-2.5-1-1.2.3-1.8 1.4-1.4 2.4.3 1 1.4 1.4 2.6 1Z"/><path fill="#4D6DFB" d="M-4 578c-.6 1.6 0 3.2 1.2 3.6 1.2.3 2.6-.7 3.1-2.3.5-1.6 0-3.2-1.3-3.6-1.2-.4-2.6.7-3 2.3Z"/><path fill="#2346E6" d="M35 145.1c1 1.4 2.4 2 3.2 1.5.8-.6.6-2.2-.4-3.5-1-1.4-2.4-2-3.2-1.5-.8.6-.6 2.2.4 3.5Z"/><path fill="#E0D6FF" d="M74 458.6c1 1.4 2.2 2.2 2.6 1.9.4-.3-.1-1.7-1.2-3-1-1.3-2.2-2.2-2.6-1.9-.4.3.1 1.7 1.2 3Z"/><path fill="#2346E6" d="M113.6 163.9c-.6-1.6-1.4-2.8-1.7-2.6-.4 0-.1 1.5.5 3 .6 1.6 1.3 2.8 1.7 2.7.3-.1 0-1.5-.5-3.1ZM150.3 284.9c.1 1.6.7 3 1.3 3 .5-.2.8-1.5.7-3.2-.2-1.7-.8-3-1.3-3-.6 0-.9 1.5-.7 3.2ZM227.4 55.6c1.6.4 3.2 0 3.4-.8.3-.9-.9-2-2.5-2.4-1.6-.5-3.1-.2-3.4.7-.2 1 .9 2 2.5 2.5ZM264.7 89.7c0 1.7.6 3 1.4 3 .8 0 1.5-1.3 1.5-3s-.6-3-1.4-3c-.8 0-1.5 1.3-1.5 3ZM305.4 492.6c1.5-.8 2.3-2.2 1.7-3.3-.6-1-2.2-1.1-3.7-.3s-2.2 2.3-1.7 3.3c.5 1 2.2 1.1 3.7.3Z"/><path fill="#E0D6FF" d="M341.6 482.5c1 1.4 2.3 2.1 3 1.6.5-.4.2-1.9-.8-3.2-1-1.4-2.3-2.1-2.9-1.7-.6.5-.3 2 .7 3.3Z"/><path fill="#2346E6" d="M382.6 75.2c1-1.4 1-3 .1-3.6-.8-.6-2.3 0-3.3 1.4s-1 3-.1 3.6c.8.6 2.3 0 3.3-1.4Z"/><path fill="#4D6DFB" d="M420.1 76.6c.4-1.6.4-3 0-3.2-.5 0-1.2 1.1-1.6 2.8-.4 1.6-.4 3 0 3.2.5.1 1.2-1.1 1.6-2.8Z"/><path fill="#2243DA" d="M15 388.2c.3 2.2 1.7 3.7 3 3.5 1.2-.2 2-2.2 1.6-4.3-.4-2.2-1.7-3.7-3-3.5-1.3.2-2 2.1-1.6 4.3Z"/><path fill="#4D6DFB" d="M58 220c1.2-1.9 1-4-.4-5-1.3-.8-3.4 0-4.5 1.9-1.2 1.8-1 4 .4 5 1.3.7 3.4 0 4.5-2Z"/><path fill="#E0D6FF" d="M97 306.3c-.3-2.1-2-3.7-3.7-3.4-1.8.3-3 2.2-2.6 4.4.3 2.2 2 3.7 3.7 3.4 1.8-.2 3-2.2 2.6-4.4Z"/><path fill="#4D6DFB" d="M135.5 402.7c.8-2 0-4.2-2-5-1.8-.7-4 .4-4.7 2.4-.8 2 0 4.3 2 5 1.8.7 3.9-.4 4.7-2.4Z"/><path fill="#2346E6" d="M173.4 205.4c-.2-2.1-1.7-3.8-3.3-3.7-1.6.1-2.8 2-2.7 4.1.2 2.2 1.7 3.9 3.3 3.8 1.6-.2 2.8-2 2.7-4.2Z"/><path fill="#2243DA" d="M209.4 217.9c1.6-1.6 2.5-3.1 2-3.5-.3-.4-2 .5-3.5 2s-2.4 3.1-2 3.5c.4.4 2-.5 3.5-2Z"/><path fill="#4D6DFB" d="M245.3 614.4c-.3 2.2.3 4 1.2 4.1 1 .1 2-1.5 2.2-3.7.2-2.2-.3-4-1.3-4.1-1-.2-1.9 1.5-2.1 3.7Z"/><path fill="#2346E6" d="M285.1 590c2.2.3 4-.5 4.1-1.5.1-1-1.5-2-3.7-2.3-2.2-.2-4 .5-4.2 1.6 0 1 1.6 2 3.8 2.3Z"/><path fill="#E0D6FF" d="M320.4 158c-.3 2.1.8 4 2.6 4.3 1.7.3 3.4-1.2 3.7-3.4.4-2.2-.8-4.1-2.5-4.4-1.8-.3-3.5 1.3-3.8 3.5Z"/><path fill="#2346E6" d="M364.2 549.3c.2-2.2-.6-4-1.9-4.2-1.3-.2-2.5 1.5-2.8 3.6-.2 2.2.6 4 2 4.2 1.2.2 2.4-1.5 2.7-3.6Z"/><path fill="#4D6DFB" d="M398.7 231.3c.4 2.1 1.4 3.7 2.2 3.6.8-.2 1.1-2 .7-4.2-.4-2.1-1.4-3.8-2.2-3.6-.8.2-1.2 2-.7 4.2Z"/><path fill="#2243DA" d="M437.2 297.5c2 .9 4.2.2 4.9-1.5.6-1.6-.4-3.7-2.5-4.5-2-.9-4.2-.2-4.8 1.5-.7 1.7.3 3.7 2.4 4.5Z"/><path fill="#4D6DFB" d="M2.5 579.3c.9-2.6-.4-5.3-2.8-6.1-2.4-.9-5 .6-6 3.1-.8 2.6.4 5.4 2.9 6.2 2.4.8 5-.6 5.9-3.2Z"/><path fill="#2243DA" d="M36.5 243c2.7-.1 4.9-.9 4.8-1.7 0-.8-2.3-1.4-5-1.2-2.7.2-4.8 1-4.8 1.8s2.3 1.4 5 1.2Z"/><path fill="#E0D6FF" d="M76 659.6c2.5-1.3 3.8-3.5 3-5-.8-1.4-3.3-1.5-5.7-.2-2.4 1.3-3.7 3.5-3 5 .8 1.3 3.4 1.5 5.8.2Z"/><path fill="#4D6DFB" d="M116 504c1.5-2.3 1.3-5-.4-6-1.7-1.1-4.3-.2-5.7 2.1-1.5 2.3-1.2 5 .5 6.1 1.7 1.1 4.2.1 5.6-2.2Z"/><path fill="#E26F56" d="M156 3.3a4.9 4.9 0 0 0-6-3.6 4.9 4.9 0 0 0-3.4 6 4.8 4.8 0 0 0 5.9 3.5 4.9 4.9 0 0 0 3.4-5.9Z"/><path fill="#2243DA" d="M187 283.4c1 2.5 3 4 4.4 3.5 1.4-.5 1.7-3 .7-5.6-1-2.5-3-4-4.4-3.5-1.4.6-1.7 3-.6 5.6Z"/><path fill="#E0D6FF" d="M227.8 75.6c2.8 0 5-.9 5-2s-2.2-2-5-2c-2.6 0-4.8.8-4.8 2 0 1 2.2 2 4.8 2Z"/><path fill="#2243DA" d="M300.8 149.7c-.5 2.6.7 5.1 2.7 5.5 2 .4 4-1.5 4.5-4.1.5-2.7-.7-5.2-2.7-5.5-2-.4-4 1.4-4.5 4ZM339.9 649c-.3 2.8.8 5 2.3 5.2 1.6.2 3-1.9 3.3-4.6.3-2.7-.7-5-2.3-5.1-1.6-.2-3 1.9-3.3 4.6Z"/><path fill="#E26F56" d="M379.5 536.3c2.3 1.6 4.7 1.9 5.5.7.8-1.1-.3-3.3-2.5-4.9-2.2-1.5-4.7-1.8-5.5-.7-.8 1.2.3 3.4 2.5 5Z"/><path fill="#4D6DFB" d="M416.4 542.1c1 2.5 3.2 4 4.8 3.3 1.6-.7 2-3.3 1-5.8-1.1-2.4-3.3-3.9-4.9-3.2-1.6.7-2 3.3-1 5.7Z"/><path fill="#2346E6" d="M17.6 30.7c3.1-1 5.4-2.3 5.2-3-.2-.7-2.9-.4-6 .6-3 1-5.3 2.3-5 3 .2.6 2.8.4 5.8-.6ZM56.7 428.8c3-1.5 4.7-3.7 4-5-.6-1.3-3.5-1.3-6.4.1-2.9 1.5-4.6 3.7-4 5 .7 1.3 3.6 1.3 6.4-.1Z"/><path fill="#E0D6FF" d="M95.9 717.2c-.6-3.2-1.9-5.6-3-5.4-1.1.2-1.6 3-1.1 6 .5 3.2 1.9 5.6 3 5.5 1-.2 1.6-3 1-6.1Z"/><path fill="#4D6DFB" d="M127.8 284.9c1.4 2.9 4.4 4.4 6.7 3.3 2.4-1.1 3.3-4.4 2-7.3-1.4-2.9-4.4-4.4-6.8-3.3-2.4 1.1-3.2 4.4-1.9 7.3ZM168.3 210.2c-1.1 3-1 5.8.2 6.2 1.1.5 3-1.6 4-4.7 1.1-3 1-5.8-.1-6.2-1.2-.4-3 1.7-4.1 4.7Z"/><path fill="#E26F56" d="M203.4 173.9c-.8 3 .9 6.2 3.8 7 3 .8 6-1.1 6.9-4.2.8-3.1-1-6.3-4-7-2.9-.8-6 1-6.7 4.2Z"/><path fill="#2346E6" d="M246.8 483.3c3.2.3 5.8-.2 6-1.2 0-1-2.5-2-5.7-2.3-3.1-.3-5.8.2-5.9 1.1 0 1 2.4 2 5.6 2.4Z"/><path fill="#2243DA" d="M281.7 424.5c-.7 3.1.4 6 2.4 6.5 2 .4 4-1.8 4.8-5 .6-3-.4-6-2.4-6.4-2-.4-4.1 1.8-4.8 5Z"/><path fill="#2346E6" d="M319.7 633.1c-.2 3.3 1.5 5.9 3.7 6 2.1 0 4-2.5 4-5.7.2-3.2-1.5-5.8-3.7-6-2.1 0-4 2.6-4 5.7Z"/><path fill="#4D6DFB" d="M359.7 527.8c.1 3.3 1.2 5.8 2.4 5.8 1.1 0 2-2.7 1.9-6-.1-3.1-1.2-5.7-2.4-5.6-1.2 0-2 2.6-1.9 5.8Z"/><path fill="#2243DA" d="M442.2 617.4c1.5-2.9 1-6-1.1-7.1-2-1.1-5 .3-6.4 3.1-1.5 2.9-1 6 1 7.2 2.1 1 5-.4 6.5-3.2Z"/><path fill="#2346E6" d="M3.5 654.2C3 650.6 0 648-3 648.5s-5 3.9-4.3 7.5c.6 3.7 3.5 6.2 6.5 5.7s4.9-3.8 4.3-7.5ZM33.2 319.6c.8 3.6 3 6.2 4.7 5.8 1.8-.4 2.6-3.6 1.7-7.2-.8-3.6-2.9-6.2-4.6-5.8-1.8.4-2.6 3.6-1.8 7.2Z"/><path fill="#4D6DFB" d="M77 325c.8-3.5.5-6.7-.8-7-1.2-.3-3 2.4-3.8 6-.8 3.5-.5 6.7.7 7 1.3.3 3-2.4 3.8-6Z"/><path fill="#2243DA" d="M118.3 489.7c-1-3.5-4.2-5.8-7.1-5-3 .8-4.5 4.4-3.5 8 1 3.5 4.2 5.7 7 5 3-.9 4.6-4.4 3.6-8Z"/><path fill="#E0D6FF" d="M156.7 547.3c1.9-3.2 1-7.2-2-9-3-1.7-7-.6-8.9 2.6-1.8 3.2-1 7.2 2.1 9 3 1.7 7 .6 8.8-2.6ZM184 593.7c0 3.7 2.5 6.7 5.6 6.7 3 0 5.6-3 5.6-6.7s-2.5-6.7-5.6-6.7c-3.1 0-5.6 3-5.6 6.7Z"/><path fill="#E26F56" d="M232.7 500.8c1.9-3.1 1.2-7-1.5-8.6-2.6-1.6-6.3-.3-8.2 2.9-1.9 3.2-1.2 7 1.4 8.6 2.7 1.6 6.4.3 8.3-2.9ZM270.8 503.4c-.2-3.7-2.5-6.6-5.1-6.4-2.6.1-4.5 3.3-4.3 7 .3 3.6 2.6 6.5 5.2 6.3 2.6-.1 4.4-3.3 4.2-7Z"/><path fill="#E0D6FF" d="M298.4 288c.6 3.7 3.8 6.3 7 5.7 3.4-.5 5.6-3.9 5-7.5-.5-3.7-3.7-6.2-7-5.7-3.3.6-5.5 4-5 7.6Z"/><path fill="#2346E6" d="M341.5 202.6c3.5.9 7-.7 7.7-3.5.7-2.8-1.6-5.8-5.2-6.7-3.6-1-7 .7-7.8 3.5-.7 2.8 1.7 5.8 5.3 6.7Z"/><path fill="#E0D6FF" d="M383.7 415.6c.2-3.7-.9-6.7-2.4-6.8-1.5-.1-2.8 2.8-3 6.5-.2 3.7.9 6.8 2.3 6.9 1.5 0 2.9-2.9 3-6.6Z"/><path fill="#4D6DFB" d="M20.5 239.8c3.7-2 5.2-6.3 3.4-9.5-1.8-3.3-6.2-4.3-9.9-2.2-3.7 2-5.2 6.3-3.4 9.5 1.8 3.3 6.2 4.3 10 2.2Z"/><path fill="#E26F56" d="M59.8 739c1.7-3.8 1.2-7.8-1.1-8.8-2.3-1-5.6 1.2-7.3 5-1.8 3.8-1.3 7.8 1 8.8 2.4 1 5.6-1.2 7.4-5Z"/><path fill="#2243DA" d="M96.5 432.8c3.8-1.8 5.7-5.7 4.2-8.9-1.5-3.1-5.7-4.2-9.5-2.4-3.8 1.8-5.7 5.7-4.2 8.9s5.7 4.2 9.5 2.4ZM138.6 434.3c.8-4.1-1.4-8-5-8.8-3.5-.7-7.1 2-8 6.2-.8 4 1.5 8 5 8.7 3.6.7 7.1-2 8-6.2ZM177.2 311.2c.2-4.2-2.6-7.7-6.4-8-3.7-.1-7 3.1-7.2 7.3-.2 4.1 2.7 7.7 6.4 8 3.8.1 7-3.1 7.2-7.3Z"/><path fill="#E26F56" d="M211.2 455.4c-1.1-4-3.1-7-4.5-6.6-1.4.3-1.6 4-.5 8s3.2 7 4.5 6.6c1.4-.4 1.6-4 .5-8ZM249 626c-1.4-3.9-3.3-6.8-4.4-6.5-1 .4-.9 3.9.5 7.9 1.3 4 3.3 6.9 4.3 6.5 1-.4.9-3.9-.5-7.8Z"/><path fill="#2346E6" d="M287.9 495c.6-4.1 0-7.7-1.4-8-1.4-.2-3.1 3-3.8 7.1-.7 4.1 0 7.7 1.3 8 1.5.2 3.2-3 3.9-7.1Z"/><path fill="#E26F56" d="M320.6 752c2.6 3.1 6.1 4.6 7.8 3.2 1.7-1.4.8-5-1.8-8.3-2.7-3.2-6.2-4.7-7.9-3.3-1.6 1.4-.8 5.1 1.9 8.3Z"/><path fill="#4D6DFB" d="M364.7 119.6c1.3-4 1.1-7.6-.5-8.1-1.6-.6-4 2.3-5.2 6.2-1.3 4-1.1 7.7.5 8.2 1.5.5 3.9-2.3 5.2-6.3Z"/><path fill="#2243DA" d="M399.1 196.6c3.2 2.8 6.2 4.5 6.7 3.8.6-.6-1.5-3.4-4.6-6.1-3.2-2.8-6.2-4.5-6.7-3.9-.6.7 1.5 3.4 4.6 6.2Z"/><path fill="#4D6DFB" d="M-7.7 284.6c-1 4.5.7 8.8 4 9.5 3.2.8 6.6-2.3 7.6-6.9 1-4.6-.7-8.9-4-9.6-3.2-.7-6.6 2.4-7.6 7Z"/><path fill="#E0D6FF" d="M38 343.6c2-4.2 3-8 2.1-8.4-.9-.5-3.3 2.6-5.3 6.8-2 4.3-3 8-2 8.5.9.4 3.2-2.7 5.3-6.9ZM69.4 326c3.4 3.3 8.6 3.4 11.5.3 2.9-3.1 2.4-8.2-1-11.4-3.4-3.2-8.5-3.3-11.4-.3-2.9 3.1-2.5 8.2 1 11.4Z"/><path fill="#2243DA" d="M147.3 477.5c1.8 4.3 5 7 7.2 6.2 2.2-1 2.6-5.2.8-9.5s-5-7-7.3-6.2c-2.2 1-2.5 5.2-.7 9.5ZM191.3 336.6c3.8-2.8 6-6.1 5-7.4-.9-1.3-4.7-.1-8.5 2.7-3.7 2.8-6 6-5 7.4 1 1.3 4.7 0 8.5-2.7Z"/><path fill="#4D6DFB" d="M231.3 275.4c3-3.7 3.7-7.9 1.8-9.4-1.9-1.5-5.8.2-8.7 3.9-2.9 3.6-3.7 7.9-1.8 9.4 2 1.5 5.8-.2 8.7-4Z"/><path fill="#2346E6" d="M346.7 235.8c2.2-4.1 2.3-8.4.1-9.6-2.2-1.2-5.8 1-8 5.2-2.3 4-2.4 8.4-.2 9.6 2.2 1.2 5.8-1.2 8-5.2Z"/><path fill="#E26F56" d="M376.3 355.6c.6 4.7 3.2 8.2 5.8 7.8 2.6-.3 4.2-4.3 3.6-9-.6-4.6-3.2-8.1-5.8-7.8-2.6.4-4.2 4.4-3.6 9Z"/><path fill="#2243DA" d="M419.4 213c4.7 0 8.4-3.2 8.3-7 0-3.7-3.9-6.7-8.6-6.6-4.7.1-8.4 3.2-8.3 7 0 3.8 4 6.7 8.6 6.6Z"/><path fill="#FFFDD6" fill-rule="evenodd" d="M50 208.5c1.6-3.5-.6-8-4.9-9.9-4.3-1.9-9.1-.6-10.7 3-1.6 3.6.7 8 5 10 4.3 1.8 9 .5 10.6-3Zm-11-.7v-7.1l.9.3c.4.2.6-.5.2-.7l-1.9-.8-.4-.2c2-1 4.5-1 7 0 1.8.8 3.2 2.1 4 3.6-.5-.3-1.4-.3-1.7.5-.2.4 0 .9 0 1.4v.3c.2.5.1 1-.2 1.7-.4 1-2.5 2.8-2.5 2.8V203l.7.2c.4.1.7-.7.3-.8l-1.9-.8-1.8-.8c-.3-.2-.7.5-.4.7l.7.4v2.6l-3 3.2Zm9-.2-3.3 3-1.2 1c2.5 0 4.7-1.3 5.7-3.4.4-1 .6-2 .4-3.1-.5 1.5-1.2 2.2-1.5 2.5ZM37 209c-2-2-2.6-4.6-1.6-7 .4-.8.9-1.4 1.6-2v9Zm5 2.6V206a979.1 979.1 0 0 1-4 3.7 8 8 0 0 0 4 1.7ZM265.7 351.7c2.3-5.2-1-11.8-7.3-14.6-6.3-2.8-13.4-.8-15.7 4.4-2.3 5.2 1 11.7 7.3 14.5 6.3 2.9 13.3.9 15.7-4.3Zm-16.3-1.2v-10.4l1.3.5c.6.2 1-.8.4-1l-2.8-1.1-.6-.3c2.8-1.5 6.6-1.6 10.2 0 2.7 1.1 4.8 3 6 5.3-.7-.5-2-.5-2.6.6-.2.6 0 1.3.1 2.1v.4c.2.7.1 1.5-.3 2.6-.6 1.4-3.7 4-3.7 4v-9.5c.6.3 1 .3 1 .3.6.2 1-1 .5-1.2l-2.8-1.1-2.6-1.3c-.6-.3-1.2.8-.6 1.1l1 .6v3.8l-4.5 4.6Zm13.3-.2a1024 1024 0 0 0-4.9 4.4l-1.7 1.5c3.7 0 7-2 8.3-5 .6-1.5.8-3 .6-4.6-.6 2.3-1.7 3.2-2.3 3.7Zm-16.4 2c-2.8-3-3.8-7-2.3-10.3a7.7 7.7 0 0 1 2.3-3v13.3Zm7.5 3.7v-8l-3.5 3.3-2.3 2.2a11.9 11.9 0 0 0 5.8 2.5Z" clip-rule="evenodd"/><path fill="#2243DA" d="M127.2 374c3.7 3.6 8.8 4.4 11.5 1.7 2.6-2.7 1.9-7.8-1.7-11.4-3.6-3.7-8.8-4.5-11.5-1.8-2.6 2.6-2 7.8 1.7 11.4Z"/><path fill="#4D6DFB" d="M166.5 371.8c4.2 2.9 9.5 2.6 11.6-.7 2.2-3.2.5-8.2-3.7-11-4.3-2.9-9.5-2.6-11.7.7-2.2 3.2-.5 8.2 3.8 11ZM210 523c4-3 6.8-6.4 6-7.3-.7-1-4.6.8-8.6 4-4 3-6.8 6.4-6 7.3.7 1 4.6-.8 8.6-4ZM239.2 690.8c.3 5 4 9 8.3 8.8 4.3-.2 7.5-4.5 7.2-9.7-.2-5.1-4-9.1-8.2-8.9-4.3.3-7.6 4.6-7.3 9.8Z"/><path fill="#E26F56" d="M286.9 401.8c3.8-3.4 6.3-7 5.4-8-.9-1-4.7 1-8.6 4.4-3.8 3.4-6.3 7-5.4 8 1 1 4.8-1 8.6-4.4Z"/><path fill="#2346E6" d="M409 271.8a9.2 9.2 0 0 0-11.5-6.3 9.3 9.3 0 0 0 5.3 17.9 9.3 9.3 0 0 0 6.1-11.6ZM432 545.6c-.9 5 1.3 9.6 4.9 10.2 3.6.6 7.1-3 8-8 .8-5.1-1.4-9.7-5-10.3-3.5-.6-7 3-7.9 8v.1Z"/><path fill="#2243DA" d="M-9.2 399.4c-1 5.5 1.6 10.5 5.7 11.1 4 .7 8-3.3 9-8.8.8-5.5-1.7-10.5-5.8-11.1-4-.7-8 3.3-9 8.8Z"/><path fill="#4D6DFB" d="M31.3 261.5c-.9 5.6.7 10.4 3.5 10.8 2.8.4 5.8-3.7 6.7-9.2.8-5.5-.8-10.4-3.5-10.8-2.9-.4-5.8 3.7-6.7 9.2Z"/><path fill="#2346E6" d="M75 367.5c5.6-1 9.9-2.7 9.7-3.8-.2-1.2-4.8-1.3-10.3-.3-5.5 1-9.8 2.7-9.7 3.8.3 1.2 4.9 1.3 10.4.3Z"/><path fill="#4D6DFB" d="M156 267.6c.4-5.6-1.5-10.3-4.2-10.4-2.6-.2-5 4.3-5.3 9.8-.3 5.6 1.6 10.3 4.2 10.4 2.7.2 5-4.3 5.4-9.8ZM233.8 466.1a10.1 10.1 0 1 0 0 0ZM269.3 498c3.4-4.4 4.8-9 3-10.4-1.7-1.4-5.9 1-9.4 5.5-3.4 4.4-4.8 9-3 10.4 1.7 1.4 6-1 9.4-5.5Z"/><path fill="#2243DA" d="M344.7 617.5c3.5-4.4 5.5-8.6 4.4-9.5-1.1-1-4.9 1.9-8.4 6.3-3.5 4.3-5.5 8.5-4.3 9.4 1 1 4.8-1.9 8.3-6.2Z"/><path fill="#4D6DFB" d="M372.7 733c1.8 5.3 6.9 8.4 11.5 6.8 4.5-1.5 6.8-7 5.1-12.3-1.8-5.4-6.9-8.4-11.5-6.9-4.5 1.5-6.8 7-5.1 12.4Z"/><path fill="#2346E6" d="M427.3 746.2c.7-5.5-2.3-10.5-6.8-11-4.4-.6-8.6 3.5-9.3 9-.7 5.6 2.4 10.5 6.8 11 4.5.6 8.7-3.4 9.3-9Z"/><path fill="#FFFDD6" fill-rule="evenodd" d="M312.3 276.7c-3.3-4.4-9.3-5.5-13.4-2.5-4.2 3.1-5 9.2-1.7 13.6s9.3 5.5 13.4 2.4c4.2-3 4.9-9.1 1.7-13.5Zm-6 11-8-5.4.8-.7c.4-.3-.3-1.1-.7-.8l-1.7 1.4-.4.3a8 8 0 0 1 9.2-8.8c-.6.2-1 1.2-.4 2.1.4.5 1 .8 1.7 1l.2.2a5 5 0 0 1 1.9 1.6c.9 1.2 1.9 4.8 1.9 4.8l-7.2-5c.4-.3.5-.6.5-.6.3-.3-.4-1.2-.8-1l-1.7 1.5-1.8 1.2c-.4.2.3 1.3.7 1l.7-.4 3 2 2 5.6Zm4-9.6 1.8 5.8.6 2a9 9 0 0 0-1.3-8.6c-.9-1.2-2-2.2-3.3-2.8 1.6 1.7 2 2.9 2.2 3.6Zm-3.7 12.7a9 9 0 0 1-8.5-3.7c-.8-1-1.3-2-1.6-3.2l2.1 1.4 8 5.5Zm5.1-3.4-6-4a1679.6 1679.6 0 0 1 2.4 7 7.5 7.5 0 0 0 3.7-2.9ZM327.7 468.2c-4.4-2.9-9.8-2.5-11.9.7-2.1 3.3-.2 8.3 4.3 11.2 4.4 2.9 9.8 2.6 11.9-.7 2.1-3.3.2-8.3-4.3-11.2Zm-.3 10-8.7-2.7.4-.7c.1-.3-.8-.8-1-.5l-.8 1.4-.2.4c-1.4-2.3-1.6-4.7-.4-6.6a5.5 5.5 0 0 1 4.2-2.4c-.3.4-.3 1.2.7 1.8.5.4 1 .5 1.7.6h.3a6 6 0 0 1 2.2 1c1.2.7 3.5 3.4 3.5 3.4l-8-2.6c.3-.3.3-.5.3-.5.1-.4-.9-1-1-.6l-.9 1.4c-.3.6-1 1.4-1 1.4-.2.3.8 1 1 .6l.4-.5 3.3 1 4 4.2Zm-.7-8.5 3.9 4.3 1.3 1.5c-.2-2.3-2-5-4.6-6.6a11 11 0 0 0-3.8-1.6c2 1 2.8 2 3.2 2.4Zm2.2 11c-2.3 1-5.6.6-8.4-1.2-1-.7-2-1.5-2.6-2.3l2.3.7 8.7 2.8Zm2.9-3.7-6.7-2.2 2.9 3.1 2 2c.4-.2.8-.6 1.1-1.1.4-.6.6-1.2.7-1.8Z" clip-rule="evenodd"/><path fill="#2243DA" d="m474.6 466.3.2.2c.1-.1.1-.2 0-.4h-.3v.2Z"/><path fill="#2346E6" d="m551.3 147.3.2-.2h-.3l-.1.2h.2Z"/><path fill="#4D6DFB" d="m589.6 300.9.2-.1h-.5.3ZM666 301.8s.4 0 .4-.2c0-.1 0-.3-.2-.3-.1 0-.3 0-.3.2 0 .1 0 .2.2.3Z"/><path fill="#2243DA" d="M742.9 101v-.3h-.3c-.1.2-.1.3 0 .4h.3Z"/><path fill="#4D6DFB" d="M819.4 177.6s.2-.3 0-.4l-.2.1v.3h.2Z"/><path fill="#E26F56" d="M857.5 294.2h.3v-.4c-.2-.1-.4 0-.4 0v.4Z"/><path fill="#2243DA" d="m934.2 136.4.2-.2-.2.1-.2.2.2-.1ZM1049 112s.2 0 .3-.2c0 0-.1-.2-.3-.2h-.2c0 .2 0 .3.2.3Z"/><path fill="#4D6DFB" d="m1125.7 352.6-.1-.3v.6-.3Z"/><path fill="#2243DA" d="m1164 298.1.2-.3-.4-.2-.2.3.3.2Z"/><path fill="#E0D6FF" d="m1202.2 53.5.2-.1-.2-.1-.3.1.3.1Z"/><path fill="#2243DA" d="M1240.4 466s.3.2.3 0l-.1-.2h-.3l.1.3ZM1278.7 475l.3-.1s0-.2-.2-.2h-.3c0 .2.1.3.2.3ZM1317.1 133.6l.2-.3h-.3l-.2.3h.3Z"/><path fill="#4D6DFB" d="M492.8 178.7c0 .7.5 1.2 1 1.2.7 0 1.2-.6 1.1-1.3 0-.6-.5-1.2-1-1.1-.7 0-1.2.5-1.1 1.2Z"/><path fill="#E26F56" d="M531.2 96.6c.3.6 1 .8 1.6.5.5-.3.6-1 .3-1.6-.4-.6-1-.8-1.6-.5-.5.3-.7 1-.3 1.6Z"/><path fill="#4D6DFB" d="M569.7 327.1c.4.5 1 .6 1.5.3.4-.4.4-1 0-1.6-.4-.5-1.1-.6-1.5-.3-.5.4-.5 1.1 0 1.6Z"/><path fill="#2243DA" d="M608.9 141c.6-.1 1-.6 1-1-.1-.4-.7-.7-1.4-.5-.6.1-1 .6-1 1 .1.5.7.7 1.4.5ZM684.8 222c-.1.6 0 1.2.3 1.3.3 0 .6-.5.8-1.1 0-.7-.1-1.3-.4-1.3-.3 0-.6.4-.7 1v.1ZM723.8 279.4c.5-.3 1-.7.8-1 0-.1-.6 0-1.2.4-.6.3-1 .7-.9.9.1.2.7 0 1.3-.3Z"/><path fill="#E0D6FF" d="M837.6 385.1c.3.6 1 .9 1.4.6.5-.2.6-.9.3-1.5s-1-.8-1.4-.6c-.5.3-.6 1-.3 1.5Z"/><path fill="#2243DA" d="M953.8 141.9c.4-.6.6-1.2.3-1.4-.3-.2-.9 0-1.3.5-.4.6-.5 1.2-.2 1.4.2.2.8 0 1.2-.5Z"/><path fill="#2346E6" d="M991.3 439c0 .6.3 1.1.4 1.1.2 0 .3-.5.2-1.2 0-.7-.2-1.2-.4-1.2s-.3.6-.2 1.3ZM1067.8 456.1c.6.3 1.3.2 1.5-.3.2-.4-.1-1-.7-1.3-.6-.4-1.3-.2-1.5.3-.2.4.1 1 .7 1.3ZM1106.6 340.1c.7-.2 1-.6 1-.8 0-.2-.7-.2-1.3 0-.6.3-1 .6-1 .8 0 .2.7.2 1.3 0Z"/><path fill="#2243DA" d="M1144.5 398.5c.6.3 1.2.3 1.3 0 .2-.3-.1-.8-.8-1.1-.5-.3-1.2-.3-1.3 0-.2.3.2.8.8 1Z"/><path fill="#E0D6FF" d="M1221.6 2.9c.5-.5.8-1 .6-1.2-.2-.1-.7.1-1.1.6-.5.5-.8 1-.6 1.2.2.1.7-.2 1.1-.7Z"/><path fill="#2243DA" d="M1259.7 132.1c.6 0 1.1-.5 1.1-1.1 0-.6-.6-1-1.3-1-.6 0-1.1.6-1 1.1 0 .6.5 1 1.2 1Z"/><path fill="#E26F56" d="M1297.9 169.4c.7 0 1.2-.1 1.2-.3 0-.1-.5-.3-1.2-.3s-1.2.1-1.2.3c0 .1.5.3 1.2.3Z"/><path fill="#E0D6FF" d="M474.6 32.8c1.1.2 2.1 0 2.2-.5 0-.4-.8-1-2-1.1-1.1-.2-2.1 0-2.2.5 0 .4.8 1 2 1.1Z"/><path fill="#2346E6" d="M551.6 311.8c1.1-.3 1.9-1 1.7-1.6-.1-.7-1.2-.9-2.3-.6-1.1.3-1.9 1-1.7 1.7.1.6 1.2.8 2.3.5Z"/><path fill="#4D6DFB" d="M588.5 189c.2 1.2.7 2 1.3 2 .6 0 1-1 .8-2.2-.1-1.1-.7-2-1.3-2-.6.1-1 1.1-.8 2.3ZM627.6 222c1 .5 2 .7 2.1.4.2-.2-.5-1-1.5-1.5-1-.6-2-.8-2.2-.5-.1.2.6 1 1.6 1.5Z"/><path fill="#E0D6FF" d="M664.6 86.4c-.3 1.2.2 2.2 1.1 2.4.9.2 1.8-.6 2-1.7.3-1.1-.2-2.2-1.1-2.3-.9-.2-1.8.5-2 1.7Z"/><path fill="#2346E6" d="M705.4 7.8c.8-.9 1-2 .4-2.4-.5-.5-1.5-.2-2.3.7-.7.9-1 2-.4 2.4.5.5 1.5.1 2.3-.7ZM779.8 189.4c-.1 1.1.3 2.2 1 2.2.6.1 1.2-.7 1.4-1.9.1-1.1-.3-2.2-1-2.2-.6-.1-1.2.8-1.4 1.9Z"/><path fill="#E26F56" d="M821 17.7a2 2 0 0 0-.5-2.9c-1-.6-2.2-.3-2.9.7-.6 1-.4 2.2.5 2.9 1 .6 2.2.3 2.9-.7Z"/><path fill="#2346E6" d="M858.3 353c0-1.1-.4-2-.8-2s-.6 1-.6 2.1c0 1.2.4 2.1.8 2 .4 0 .6-.9.6-2ZM894.5 516.4c-.4 1-.2 2.2.6 2.5.8.3 1.8-.4 2.2-1.4.4-1.1.2-2.2-.6-2.6-.9-.3-1.8.4-2.2 1.5Z"/><path fill="#E26F56" d="M935.6 301.1c.7-.9.6-2.1-.2-2.7-.7-.5-2-.2-2.6.7-.7 1-.6 2.2.2 2.7.7.6 1.9.3 2.6-.7Z"/><path fill="#2243DA" d="M974.2 150.9c-.4-1.1-1.4-1.8-2.4-1.5-1 .4-1.4 1.5-1 2.6.3 1.1 1.4 1.8 2.3 1.5 1-.3 1.5-1.5 1-2.6Z"/><path fill="#2346E6" d="M1009.3 66.2c.4 1 1.3 1.8 2 1.6.8-.2 1.1-1.3.8-2.4-.3-1.2-1.2-1.9-2-1.6-.7.2-1 1.3-.8 2.4Z"/><path fill="#2243DA" d="M1049.4 281c.9-.8 1.5-1.5 1.3-1.8-.2-.2-1 .1-2 .8-1 .8-1.5 1.5-1.4 1.7.2.3 1.1 0 2-.8Z"/><path fill="#E0D6FF" d="M1088.2 197c1-.4 1.5-1.7 1-2.7a2 2 0 0 0-2.8-1 2 2 0 1 0 1.8 3.8Z"/><path fill="#E26F56" d="M1124.7 23.4c1 .6 2.2.4 2.7-.5s.1-2-.9-2.6c-1-.6-2.2-.4-2.7.5-.5.8-.1 2 .9 2.6Z"/><path fill="#2243DA" d="M1162.9 175.2c.7.9 1.8 1.2 2.3.8.6-.5.5-1.6-.3-2.5-.7-.9-1.8-1.2-2.3-.8-.6.5-.5 1.6.3 2.5Z"/><path fill="#E0D6FF" d="M1203.5 90.4c-.1-1.1-.8-2-1.5-2-.7.1-1.2 1-1 2.2 0 1.2.7 2 1.3 2 .8 0 1.3-1 1.2-2.2Z"/><path fill="#4D6DFB" d="M1316.7 241c1.2.2 2.2-.4 2.4-1.4.2-1-.6-2-1.8-2.2-1-.2-2.1.4-2.3 1.4-.2 1 .6 2 1.7 2.2Z"/><path fill="#2243DA" d="M453.5 236.1c-.6 1.6-.2 3.2 1 3.6 1 .5 2.5-.5 3-2 .7-1.6.3-3.3-.8-3.7-1.2-.4-2.6.5-3.2 2.1Z"/><path fill="#2346E6" d="M493.2 61.8c-.5 1.7-.5 3-.1 3.2.4 0 1-1.2 1.5-2.8.4-1.7.4-3 0-3.1-.3-.1-1 1.1-1.4 2.7Z"/><path fill="#4D6DFB" d="M531.5 496.3c1.1 1.3 2.3 2 2.7 1.7.4-.4-.3-1.6-1.4-2.9-1.2-1.2-2.4-2-2.7-1.6-.4.3.2 1.6 1.4 2.8Z"/><path fill="#2243DA" d="M569.2 311c-.2 1.6 0 3 .8 3.2.6 0 1.4-1.2 1.6-2.9.3-1.6 0-3-.7-3.2-.7 0-1.4 1.2-1.7 2.9Z"/><path fill="#4D6DFB" d="M609.6 143.3c.2-1.7 0-3.1-.4-3.2-.5 0-1 1.3-1.3 3-.2 1.6 0 3 .4 3.1.4 0 1-1.2 1.3-2.9Z"/><path fill="#E26F56" d="M761 603.4c1.3 1.1 2.7 1.6 3.2 1 .5-.5-.2-1.9-1.4-3-1.3-1.1-2.7-1.6-3.2-1-.5.5.1 1.9 1.4 3Z"/><path fill="#2243DA" d="M802.1 128.6c.8-1.5.6-3.2-.5-3.8-1-.5-2.6.2-3.4 1.7-.8 1.5-.5 3.2.5 3.7 1.1.6 2.6-.1 3.4-1.7Z"/><path fill="#E26F56" d="M840.3 116.1c1.2-1.2 1.3-3 .3-4s-2.8-.8-4 .4c-1.1 1.2-1.3 3-.3 4s2.8.8 4-.3ZM878.8 410.2a3 3 0 0 0 .1-4.3 3 3 0 0 0-4.2 0 3 3 0 0 0-.1 4.3 3 3 0 0 0 4.2 0Z"/><path fill="#4D6DFB" d="M915.1 400.9c1.7-.2 3-.8 3-1.3-.1-.5-1.5-.7-3.2-.5-1.7.2-3 .7-3 1.3.2.5 1.6.7 3.2.5ZM951.4 87.8a3 3 0 0 0 4.3-.3 3 3 0 0 0-.5-4.3 3 3 0 0 0-4.3.4 3 3 0 0 0 .5 4.2ZM989.4 578c-.5 1.6.1 3.2 1.3 3.6 1.2.3 2.6-.7 3-2.3.6-1.6 0-3.2-1.2-3.6-1.2-.4-2.6.7-3 2.3Z"/><path fill="#2346E6" d="M1028.5 145.1c1 1.4 2.4 2 3.2 1.5.8-.6.6-2.2-.4-3.5-1-1.4-2.4-2-3.2-1.5-.8.6-.6 2.2.4 3.5Z"/><path fill="#E0D6FF" d="M1067.5 458.6c1 1.4 2.1 2.2 2.5 1.9.5-.3 0-1.7-1-3s-2.3-2.2-2.7-1.9c-.4.3.1 1.7 1.2 3Z"/><path fill="#2346E6" d="M1107 163.9c-.5-1.6-1.3-2.8-1.6-2.6-.4 0-.2 1.5.5 3 .5 1.6 1.3 2.8 1.7 2.7.3-.1 0-1.5-.5-3.1ZM1143.7 284.9c.2 1.6.8 3 1.4 3 .5-.2.8-1.5.7-3.2-.2-1.7-.8-3-1.3-3-.6 0-1 1.5-.8 3.2ZM1220.9 55.6c1.6.4 3.1 0 3.4-.8.3-.9-.9-2-2.5-2.4-1.6-.5-3.2-.2-3.4.7-.3 1 .9 2 2.5 2.5ZM1258.2 89.7c0 1.7.6 3 1.4 3 .8 0 1.5-1.3 1.5-3s-.6-3-1.4-3c-.8 0-1.5 1.3-1.5 3ZM1298.9 492.6c1.5-.8 2.3-2.2 1.7-3.3-.6-1-2.2-1.1-3.7-.3s-2.3 2.3-1.7 3.3c.5 1 2.2 1.1 3.7.3Z"/><path fill="#E26F56" d="M477.2 102.2c1-1.9.8-4-.6-4.8-1.4-.8-3.3.2-4.4 2-1 2-.8 4.2.6 4.9 1.3.8 3.3-.2 4.4-2Z"/><path fill="#2346E6" d="M510.7 252.6c0 2.1 1 4 2.2 4 1.3 0 2.3-1.8 2.3-4s-1-4-2.2-4c-1.2 0-2.2 1.8-2.3 4Z"/><path fill="#E26F56" d="M588.8 600.5c-.2 2.2 0 4 .5 4 .4 0 1-1.7 1.1-3.8.2-2.2 0-4-.5-4s-1 1.7-1.1 3.8Z"/><path fill="#2243DA" d="M626.3 172.4c-.6 2.1-.2 4 .7 4.2.8.2 2-1.3 2.5-3.5.5-2.1.2-4-.7-4.2-.9-.2-2 1.3-2.5 3.5Z"/><path fill="#E0D6FF" d="M669.4 264.3c-.7-2-2.6-3.3-4.4-2.8-1.8.6-2.7 2.7-2 4.8.6 2 2.5 3.3 4.3 2.8 1.7-.5 2.7-2.7 2-4.8Z"/><path fill="#E26F56" d="M704.6 179.5c2.1 0 3.8-1.5 3.8-3-.1-1.7-2-2.9-4.1-2.7-2.2 0-3.9 1.4-3.8 3 0 1.7 2 2.9 4 2.7Z"/><path fill="#E0D6FF" d="M744 577.3c.7-2 .7-3.9 0-4.1-.6-.3-1.7 1.2-2.5 3.3-.7 2-.8 3.9-.2 4.1.7.2 1.8-1.2 2.6-3.3ZM783 367.7c1.2-1.7 1.4-3.8.3-4.6-1-.7-3 0-4.2 1.8-1.3 1.8-1.5 3.8-.4 4.6 1 .8 3 0 4.2-1.8ZM818.8 399.7c2 .6 4 .3 4.3-.7.3-1-1.1-2.4-3.2-3-2-.7-4-.3-4.3.7-.3 1 1.1 2.3 3.2 3ZM854.5 628.5c-.5 2.1.6 4.2 2.3 4.5 1.7.4 3.4-1 3.9-3.2.4-2.1-.6-4.1-2.3-4.5-1.7-.3-3.4 1-3.9 3.2Z"/><path fill="#2346E6" d="M899.4 137.7c-.2-2.2-2-3.8-4-3.5-2 .2-3.3 2.2-3 4.3.2 2.2 2 3.8 4 3.5 2-.2 3.3-2.2 3-4.3ZM935.7 638.2c1.4-1.7 1.8-3.6 1-4.3-.9-.6-2.7.2-4 1.9-1.4 1.7-1.8 3.6-1 4.3.9.7 2.6-.2 4-1.9ZM972.9 407.6c2-.5 3.6-1.7 3.4-2.6-.2-1-2.2-1.3-4.3-.8-2 .6-3.6 1.7-3.4 2.6.2 1 2.1 1.3 4.3.8Z"/><path fill="#2243DA" d="M1008.4 388.2c.4 2.2 1.7 3.7 3 3.5 1.3-.2 2-2.2 1.7-4.3-.4-2.2-1.8-3.7-3-3.5-1.3.2-2 2.1-1.7 4.3Z"/><path fill="#4D6DFB" d="M1051.5 220c1.2-1.9 1-4-.4-5-1.3-.8-3.4 0-4.6 1.9-1.1 1.8-1 4 .5 5 1.3.7 3.4 0 4.5-2Z"/><path fill="#E0D6FF" d="M1090.5 306.3c-.3-2.1-2-3.7-3.8-3.4-1.7.3-2.8 2.2-2.5 4.4.3 2.2 2 3.7 3.7 3.4 1.8-.2 2.9-2.2 2.6-4.4Z"/><path fill="#4D6DFB" d="M1129 402.7c.8-2-.1-4.2-2-5-1.8-.7-4 .4-4.7 2.4-.8 2 0 4.3 1.9 5 1.8.7 4-.4 4.8-2.4Z"/><path fill="#2346E6" d="M1166.8 205.4c-.1-2.1-1.6-3.8-3.2-3.7-1.6.1-2.8 2-2.7 4.1.2 2.2 1.6 3.9 3.3 3.8 1.6-.2 2.8-2 2.6-4.2Z"/><path fill="#2243DA" d="M1203 217.9c1.5-1.6 2.4-3.1 2-3.5-.4-.4-2 .5-3.6 2-1.5 1.5-2.5 3.1-2 3.5.4.4 2-.5 3.5-2Z"/><path fill="#4D6DFB" d="M1238.7 614.4c-.2 2.2.3 4 1.3 4.1 1 .1 2-1.5 2.2-3.7.2-2.2-.3-4-1.3-4.1-1-.2-2 1.5-2.2 3.7Z"/><path fill="#2346E6" d="M1278.6 590c2.2.3 4-.5 4.1-1.5.1-1-1.6-2-3.8-2.3-2.1-.2-4 .5-4 1.6-.2 1 1.5 2 3.7 2.3Z"/><path fill="#E0D6FF" d="M1313.9 158c-.4 2.1.8 4 2.6 4.3 1.7.3 3.4-1.2 3.7-3.4.4-2.2-.8-4.1-2.5-4.4-1.8-.3-3.5 1.3-3.8 3.5Z"/><path fill="#4D6DFB" d="M453.8 125.8c2.4 1.2 5.2.7 6.1-1.2 1-1.9-.2-4.4-2.6-5.6-2.4-1.3-5.2-.7-6.1 1.2-1 1.8.2 4.4 2.6 5.6Z"/><path fill="#2346E6" d="M495 308.8c1.6-2.1 2.5-4.2 1.9-4.6-.6-.5-2.4.9-4.1 3-1.7 2.1-2.6 4.2-2 4.7.6.4 2.4-1 4.1-3ZM530.4 652.2c1.2 2.4 3.1 4 4 3.4 1-.5.8-2.9-.5-5.2-1.3-2.4-3-4-4-3.4-1 .5-.8 2.9.5 5.2ZM571.4 567c2.6-.6 4.3-3 3.8-5.5s-3-4-5.7-3.5c-2.7.6-4.4 3-3.9 5.5.5 2.4 3 4 5.8 3.5Z"/><path fill="#4D6DFB" d="M609.4 65.7a4.9 4.9 0 0 0 4.2-5.4A4.9 4.9 0 0 0 608 56a4.9 4.9 0 0 0-4.1 5.5 4.9 4.9 0 0 0 5.5 4.1Z"/><path fill="#2346E6" d="M649.5 371c2-1.8 2.5-4.5 1.2-6-1.4-1.6-4.1-1.3-6.1.5s-2.6 4.5-1.2 6c1.3 1.6 4 1.3 6.1-.5Z"/><path fill="#2243DA" d="M688.2 199.5c-.5-2.7-2.2-4.6-3.8-4.3-1.6.2-2.4 2.6-2 5.3.5 2.7 2.2 4.6 3.8 4.3 1.6-.3 2.4-2.7 2-5.3Z"/><path fill="#E0D6FF" d="M724.5 213.5c2-1.8 3.2-3.8 2.7-4.3-.5-.6-2.5.4-4.5 2.2-2 1.8-3.2 3.8-2.8 4.3.5.6 2.6-.4 4.6-2.2Z"/><path fill="#E26F56" d="M802.9 537.7c1.6-2.2 1.7-4.8.2-6-1.5-1.1-4-.3-5.7 1.8-1.6 2.2-1.7 4.8-.2 6 1.4 1.1 4 .3 5.7-1.9ZM836.8 229.6c1.4 2.4 3.2 3.8 4.1 3.3 1-.5.6-2.8-.8-5.2-1.4-2.3-3.2-3.8-4.1-3.3-1 .6-.5 2.9.8 5.2Z"/><path fill="#E0D6FF" d="M878.2 30.4c-.5-2.6-1.6-4.7-2.4-4.5-.8.1-1 2.4-.5 5 .5 2.7 1.6 4.8 2.4 4.6.8-.1 1-2.4.5-5Z"/><path fill="#E26F56" d="M917 269c1.9-2 2.6-4.3 1.5-5.4-1-1.2-3.4-.5-5.4 1.4-2 1.8-2.7 4.3-1.6 5.4 1 1 3.5.4 5.4-1.4Z"/><path fill="#E0D6FF" d="M949.9 537.5c-.2 2.7 1.3 5 3.2 5.1 1.8 0 3.5-2 3.6-4.7.2-2.7-1.2-5-3.1-5-1.9-.2-3.5 2-3.7 4.7Z"/><path fill="#4D6DFB" d="M996 579.3c.8-2.6-.4-5.3-2.8-6.1-2.4-.9-5 .6-6 3.1-.8 2.6.4 5.4 2.8 6.2 2.5.8 5.1-.6 6-3.2Z"/><path fill="#2243DA" d="M1030 243c2.7-.1 4.8-.9 4.8-1.7 0-.8-2.3-1.4-5-1.2-2.7.2-4.8 1-4.8 1.8s2.3 1.4 5 1.2Z"/><path fill="#E0D6FF" d="M1069.6 659.6c2.4-1.3 3.7-3.5 2.9-5-.8-1.4-3.3-1.5-5.7-.2-2.4 1.3-3.7 3.5-3 5 .8 1.3 3.4 1.5 5.8.2Z"/><path fill="#4D6DFB" d="M1109.6 504c1.4-2.3 1.2-5-.5-6-1.7-1.1-4.3-.2-5.7 2.1-1.5 2.3-1.3 5 .4 6.1 1.8 1.1 4.3.1 5.7-2.2Z"/><path fill="#E26F56" d="M1149.4 3.3a4.9 4.9 0 0 0-5.9-3.6 4.9 4.9 0 0 0-3.4 6 4.8 4.8 0 0 0 5.9 3.5 4.9 4.9 0 0 0 3.4-5.9Z"/><path fill="#2243DA" d="M1180.5 283.4c1 2.5 3 4 4.4 3.5 1.4-.5 1.7-3 .6-5.6-1-2.5-3-4-4.3-3.5-1.4.6-1.7 3-.7 5.6Z"/><path fill="#E0D6FF" d="M1221.3 75.6c2.8 0 5-.9 5-2s-2.3-2-5-2-4.9.8-4.9 2c0 1 2.2 2 5 2Z"/><path fill="#2243DA" d="M1294.3 149.7c-.5 2.6.7 5.1 2.6 5.5 2 .4 4-1.5 4.6-4.1.5-2.7-.7-5.2-2.7-5.5-2-.4-4 1.4-4.5 4Z"/><path fill="#2346E6" d="M509.1 562.9c.4 3.1 2.4 5.5 4.6 5.2 2.1-.2 3.6-3 3.2-6.2-.4-3.2-2.4-5.6-4.6-5.3-2.1.3-3.6 3-3.2 6.3Z"/><path fill="#4D6DFB" d="M553.3 604.2c1.8-2.6 2.4-5.4 1.4-6.1-1.1-.8-3.5.7-5.4 3.3-1.9 2.6-2.5 5.3-1.4 6.1 1 .8 3.5-.7 5.4-3.3Z"/><path fill="#2243DA" d="M593.3 534.6c.9-3 0-6-2-6.6-2.1-.6-4.5 1.4-5.4 4.5-1 3 0 6 2 6.6 2.1.6 4.5-1.4 5.4-4.5Z"/><path fill="#E0D6FF" d="M631.6 234.3c1.7-2.7 1.3-6-.7-7.2-2.1-1.3-5.1 0-6.8 2.7-1.7 2.7-1.3 6 .8 7.2 2 1.3 5 0 6.7-2.7Z"/><path fill="#E26F56" d="M667.3 361.8c.4-3.2.3-5.8-.4-5.9-.6 0-1.5 2.4-2 5.6-.4 3.2-.2 5.8.4 5.9.7 0 1.5-2.4 2-5.6Z"/><path fill="#2243DA" d="M703.9 605.9c3.2.3 6-1.4 6.3-4 .3-2.4-2-4.8-5.3-5.2-3.1-.3-6 1.4-6.2 4-.3 2.4 2 4.8 5.2 5.2ZM778.4 688.8c2.6 1.8 6 1.6 7.4-.5 1.4-2.1.5-5.3-2.1-7.1-2.7-1.8-6-1.6-7.4.5-1.5 2.1-.5 5.3 2 7Z"/><path fill="#E26F56" d="M823.2 66c-.6-3.1-2.7-5.4-4.9-5-2.1.4-3.4 3.2-3 6.4.6 3.2 2.8 5.4 5 5 2.1-.3 3.4-3.2 3-6.4Z"/><path fill="#4D6DFB" d="M855.9 465c-.2 3.3.5 5.9 1.4 6 1 0 1.9-2.6 2-5.8.1-3.2-.5-5.8-1.5-5.9-1 0-1.8 2.6-2 5.8Z"/><path fill="#E0D6FF" d="M898.7 420.5c2.5-1.9 3.4-5.1 1.8-7.1-1.5-2-4.8-2.2-7.4-.3-2.5 2-3.4 5.1-1.9 7.2 1.6 2 4.9 2.2 7.5.2Z"/><path fill="#2346E6" d="M938.3 328.4c-.7-3.1-3.2-5.2-5.5-4.7-2.3.6-3.6 3.6-2.8 6.7.7 3 3.2 5.2 5.5 4.6 2.3-.6 3.5-3.5 2.8-6.6Z"/><path fill="#E26F56" d="M977.2 368.7c1.4-2.8.4-6.2-2.2-7.5-2.6-1.2-5.9 0-7.3 3-1.3 2.8-.4 6.2 2.2 7.5 2.6 1.2 5.9 0 7.3-3Z"/><path fill="#2346E6" d="M1011.1 30.7c3.1-1 5.4-2.3 5.2-3-.3-.7-3-.4-6 .6s-5.3 2.3-5 3c.1.6 2.8.4 5.8-.6ZM1050.2 428.8c2.9-1.5 4.7-3.7 4-5-.6-1.3-3.5-1.3-6.4.1-2.9 1.5-4.7 3.7-4 5 .7 1.3 3.5 1.3 6.4-.1Z"/><path fill="#E0D6FF" d="M1089.3 717.2c-.5-3.2-1.8-5.6-3-5.4-1 .2-1.5 3-1 6 .5 3.2 1.9 5.6 3 5.5 1-.2 1.6-3 1-6.1Z"/><path fill="#4D6DFB" d="M1121.3 284.9c1.4 2.9 4.4 4.4 6.7 3.3 2.4-1.1 3.3-4.4 2-7.3-1.4-2.9-4.4-4.4-6.8-3.3-2.4 1.1-3.2 4.4-1.9 7.3ZM1161.8 210.2c-1.1 3-1 5.8.2 6.2 1.1.5 3-1.6 4-4.7 1.1-3 1-5.8-.2-6.2-1.1-.4-3 1.7-4 4.7Z"/><path fill="#E26F56" d="M1196.9 173.9c-.8 3 .9 6.2 3.8 7 3 .8 6-1.1 6.8-4.2.8-3.1-.9-6.3-3.8-7-3-.8-6 1-6.8 4.2Z"/><path fill="#2346E6" d="M1240.3 483.3c3.2.3 5.8-.2 6-1.2 0-1-2.5-2-5.7-2.3-3.2-.3-5.8.2-6 1.1 0 1 2.5 2 5.7 2.4Z"/><path fill="#2243DA" d="M1275.2 424.5c-.7 3.1.4 6 2.3 6.5 2 .4 4.2-1.8 4.8-5 .7-3-.4-6-2.3-6.4-2-.4-4.2 1.8-4.8 5Z"/><path fill="#2346E6" d="M1313.2 633.1c-.2 3.3 1.5 5.9 3.7 6 2.1 0 4-2.5 4-5.7.2-3.2-1.5-5.8-3.7-6-2.1 0-4 2.6-4 5.7ZM461.2 106.2c.9-3.6-1-7.2-4.1-7.9-3.1-.7-6.4 1.6-7.2 5.3-.8 3.5 1 7 4.2 7.8 3.1.7 6.3-1.6 7.1-5.2Z"/><path fill="#E26F56" d="M565.7 367.4c1.2 3.5 4.4 5.6 7 4.6 2.6-1 3.8-4.5 2.5-8-1.3-3.5-4.4-5.5-7-4.6-2.7 1-3.8 4.6-2.5 8Z"/><path fill="#2243DA" d="M641.2 620.5c-1 3.5.7 7.2 3.8 8.2 3.2 1 6.7-1.1 7.8-4.6 1-3.6-.6-7.2-3.8-8.2-3.2-1-6.7 1-7.8 4.6Z"/><path fill="#E26F56" d="M681.2 591.5c2 3.1 5.3 4.6 7.6 3.2 2.2-1.4 2.5-5 .6-8.2-1.9-3.2-5.3-4.6-7.6-3.2-2.2 1.4-2.5 5-.6 8.2Z"/><path fill="#4D6DFB" d="M725.7 573c0-3.7-1-6.7-2.1-6.7-1.2 0-2.1 3-2.1 6.7 0 3.6 1 6.6 2.1 6.6 1.2 0 2.1-3 2.1-6.6Z"/><path fill="#2346E6" d="M767.3 716.9c1.7-3.4.6-7.2-2.5-8.8-3-1.5-6.8 0-8.4 3.3-1.6 3.3-.5 7.2 2.5 8.7 3 1.5 6.8 0 8.4-3.2ZM794.8 271.5c-.4 3.7 1.8 6.9 4.7 7.2 3 .2 5.7-2.5 6-6.2.4-3.7-1.8-6.9-4.7-7.2-3-.3-5.7 2.5-6 6.2ZM841.4 266c-.5-3.7-2.1-6.5-3.8-6.3-1.6.2-2.6 3.4-2 7 .4 3.7 2 6.5 3.7 6.3 1.6-.2 2.6-3.3 2-7Z"/><path fill="#E26F56" d="M873.5 670.2c.4 3.7 2 6.5 3.9 6.3 1.8-.2 3-3.3 2.6-7-.4-3.6-2.2-6.5-4-6.3-1.7.2-2.9 3.3-2.5 7Z"/><path fill="#2346E6" d="M910 529.8c1 3.5 3.9 5.9 6.6 5.2 2.8-.6 4.3-4.1 3.4-7.7-.8-3.6-3.8-6-6.6-5.2-2.7.6-4.2 4.1-3.4 7.7Z"/><path fill="#4D6DFB" d="M953.1 594.4c3.7.4 6.8.1 6.9-.7 0-.8-2.9-1.8-6.5-2.2-3.7-.4-6.8 0-6.8.7-.1.8 2.8 1.8 6.4 2.2ZM728.5 657.8c3.7.4 6.7.1 6.8-.7 0-.8-2.8-1.8-6.5-2.2-3.7-.4-6.7 0-6.8.7 0 .8 2.8 1.8 6.5 2.2Z"/><path fill="#2346E6" d="M997 654.2c-.6-3.6-3.5-6.2-6.5-5.7s-5 3.9-4.3 7.5c.6 3.7 3.5 6.2 6.5 5.7s4.9-3.8 4.3-7.5ZM1026.7 319.6c.8 3.6 2.9 6.2 4.7 5.8 1.8-.4 2.6-3.6 1.7-7.2-.8-3.6-2.9-6.2-4.6-5.8-1.8.4-2.6 3.6-1.8 7.2Z"/><path fill="#4D6DFB" d="M1070.4 325c.8-3.5.5-6.7-.7-7-1.2-.3-3 2.4-3.8 6-.8 3.5-.5 6.7.7 7 1.3.3 3-2.4 3.8-6Z"/><path fill="#2243DA" d="M1111.8 489.7c-1-3.5-4.2-5.8-7.1-5-3 .8-4.5 4.4-3.5 8 1 3.5 4.2 5.7 7 5 3-.9 4.5-4.4 3.6-8Z"/><path fill="#E0D6FF" d="M1150.2 547.3c1.9-3.2 1-7.2-2-9-3-1.7-7-.6-8.9 2.6-1.8 3.2-1 7.2 2 9 3.1 1.7 7 .6 9-2.6ZM1177.5 593.7c0 3.7 2.5 6.7 5.5 6.7 3.1 0 5.6-3 5.7-6.7 0-3.7-2.5-6.7-5.6-6.7-3.1 0-5.6 3-5.6 6.7Z"/><path fill="#E26F56" d="M1226.2 500.8c1.9-3.1 1.2-7-1.5-8.6-2.7-1.6-6.3-.3-8.2 2.9-2 3.2-1.3 7 1.4 8.6 2.7 1.6 6.4.3 8.3-2.9ZM1264.3 503.4c-.2-3.7-2.5-6.6-5.1-6.4-2.6.1-4.5 3.3-4.3 7 .3 3.7 2.5 6.5 5.1 6.3 2.7-.1 4.5-3.3 4.3-7Z"/><path fill="#E0D6FF" d="M1292 288c.5 3.7 3.6 6.3 7 5.7 3.3-.5 5.5-3.9 4.9-7.5-.6-3.7-3.7-6.2-7-5.7-3.3.6-5.5 4-5 7.6Z"/><path fill="#2346E6" d="M478.4 176.2c3.4-2.4 4.6-6.7 2.6-9.7-2-3-6.5-3.5-10-1.2-3.4 2.4-4.6 6.7-2.6 9.7 2 3 6.5 3.5 10 1.2Z"/><path fill="#2243DA" d="M516.5 166.2c3-2.8 4-6.8 2-8.8-2-2-6-1.4-9 1.5s-4 6.8-2 8.9c2 2 6 1.3 9-1.6Z"/><path fill="#2346E6" d="M554.3 300c.6-4-.2-7.6-1.8-7.9-1.7-.2-3.5 2.9-4.2 7-.6 4.2.2 7.7 1.8 8 1.7.3 3.5-2.9 4.2-7Z"/><path fill="#2243DA" d="M582.6 486.4c1.2 4 5.3 6.3 9.2 5.1 3.8-1.1 6-5.3 4.8-9.3a7.4 7.4 0 0 0-9.2-5.2 7.4 7.4 0 0 0-4.8 9.4ZM625.5 707.5c4 1.3 8.3-.8 9.6-4.7a7.5 7.5 0 0 0-4.9-9.4c-4-1.3-8.3.8-9.5 4.7a7.5 7.5 0 0 0 4.9 9.4Z"/><path fill="#2346E6" d="M659.1 617a7.5 7.5 0 0 0 5 9.2c4 1 8-1.3 9-5.4 1.2-4-1-8.1-5-9.2-3.8-1-7.9 1.3-9 5.3Z"/><path fill="#E0D6FF" d="M706.5 111.8c3.6-2 5.7-5.4 4.5-7.4-1.2-2-5-1.9-8.7.2-3.6 2.1-5.6 5.4-4.4 7.4 1.1 2 5 2 8.6-.2ZM744.2 235.2c3-2.9 4.9-6 4-6.8-.8-1-4 .7-7 3.6-3 2.8-4.8 5.9-4 6.8.8.9 4-.8 7-3.6Z"/><path fill="#E26F56" d="M854.4 203.8c-.2 4.2 1 7.7 2.8 7.8 1.7 0 3.3-3.2 3.5-7.4.3-4.2-1-7.7-2.7-7.7-1.7-.1-3.3 3.2-3.6 7.3ZM893.4 619.7c3.6 2.2 7.6 2.1 9 0 1.3-2.3-.5-5.9-4-8-3.7-2.2-7.7-2.2-9 0-1.3 2.2.5 5.8 4 8Z"/><path fill="#2243DA" d="M928.9 603.1c2.6 3.4 7 4.2 10 2 2.8-2.3 3.1-6.9.6-10.1-2.6-3.4-7-4.2-10-2-2.9 2.3-3.2 6.8-.6 10.1Z"/><path fill="#E26F56" d="M972.6 538.8c4.1-.3 7.5-1.2 7.4-2.1 0-1-3.5-1.4-7.6-1.1-4.2.3-7.6 1.2-7.5 2.1 0 1 3.5 1.4 7.7 1.1Z"/><path fill="#4D6DFB" d="M1014 239.8c3.7-2 5.2-6.3 3.4-9.5-1.8-3.3-6.2-4.3-9.9-2.2-3.7 2-5.2 6.3-3.4 9.5 1.8 3.3 6.2 4.3 10 2.2Z"/><path fill="#E26F56" d="M1053.3 739c1.7-3.8 1.2-7.8-1.1-8.8-2.4-1-5.6 1.2-7.4 5-1.7 3.8-1.2 7.8 1.1 8.8 2.3 1 5.6-1.2 7.3-5Z"/><path fill="#2243DA" d="M1090 432.8c3.8-1.8 5.7-5.7 4.2-8.9-1.5-3.1-5.8-4.2-9.6-2.4-3.7 1.8-5.6 5.7-4.1 8.9s5.7 4.2 9.5 2.4ZM1132 434.3c.9-4.1-1.3-8-4.9-8.8-3.5-.7-7.1 2-8 6.2-.8 4 1.5 8 5 8.7 3.6.7 7.1-2 8-6.2ZM1170.7 311.2c.2-4.2-2.7-7.7-6.4-8-3.7-.1-7 3.1-7.2 7.3-.2 4.1 2.7 7.7 6.4 8 3.7.1 7-3.1 7.2-7.3Z"/><path fill="#E26F56" d="M1204.7 455.4c-1.2-4-3.2-7-4.5-6.6-1.4.3-1.6 4-.5 8s3.1 7 4.5 6.6c1.4-.4 1.6-4 .5-8ZM1242.4 626c-1.3-3.9-3.3-6.8-4.3-6.5-1 .4-.9 3.9.5 7.9 1.3 4 3.3 6.9 4.3 6.5 1-.4.8-3.9-.5-7.8Z"/><path fill="#2346E6" d="M1281.4 495c.6-4.1 0-7.7-1.4-8-1.5-.2-3.2 3-3.8 7.1-.7 4.1-.1 7.7 1.3 8 1.4.2 3.2-3 3.9-7.1Z"/><path fill="#E26F56" d="M1314 752c2.7 3.1 6.2 4.6 7.9 3.2 1.7-1.4.8-5-1.9-8.3-2.7-3.2-6.1-4.7-7.8-3.3-1.7 1.4-.9 5.1 1.8 8.3Z"/><path fill="#E0D6FF" d="M502.1 335a8.5 8.5 0 1 0-10 6.5c4.5 1 9-2 10-6.5Z"/><path fill="#4D6DFB" d="M614.9 624.3c1.7-4.3.3-9-3-10.3-3.5-1.4-7.6 1-9.3 5.4-1.8 4.4-.4 9 3 10.4 3.4 1.3 7.6-1.1 9.3-5.5Z"/><path fill="#2243DA" d="M649 147.2c2.1-4.2 3-8 2-8.5-1-.6-3.7 2.3-5.9 6.4-2.2 4.1-3.1 8-2 8.5 1 .6 3.6-2.3 5.8-6.4Z"/><path fill="#4D6DFB" d="M680.7 332.7c3.5 3.1 8.4 3.3 11 .4 2.5-2.9 1.7-7.8-1.8-10.8-3.5-3.1-8.4-3.3-11-.4-2.5 2.9-1.7 7.7 1.8 10.8ZM420.1 674c1.6 4.3 4.3 7.4 6 6.8 1.7-.7 1.8-4.7.2-9.1-1.6-4.4-4.3-7.5-6-6.9-1.7.6-1.8 4.7-.2 9.1Z"/><path fill="#2346E6" d="M741.3 705.7c4.4 1.5 9-.1 10-3.6 1.2-3.4-1.5-7.4-6-8.8-4.4-1.5-9 .1-10 3.6-1.2 3.4 1.5 7.4 6 8.8Z"/><path fill="#2243DA" d="M796 527c1.3 4.5 4 7.6 6.4 7 2.3-.6 3.1-4.7 2-9.2-1.3-4.6-4.1-7.7-6.4-7.1-2.3.6-3.2 4.7-2 9.2ZM839.4 700.6c4.6-.6 8-4.4 7.5-8.4-.6-4-4.8-6.7-9.4-6-4.6.5-8 4.3-7.5 8.3.6 4 4.8 6.7 9.4 6Z"/><path fill="#4D6DFB" d="M912.5 531.6c3.6 3 7.6 4.2 9 2.6 1.4-1.6-.4-5.4-4-8.4-3.5-3-7.6-4.2-9-2.6-1.3 1.6.5 5.4 4 8.4ZM985.7 284.6c-1 4.5.8 8.8 4 9.5 3.3.8 6.7-2.3 7.7-6.9 1-4.6-.7-8.9-4-9.6-3.2-.7-6.6 2.4-7.7 7Z"/><path fill="#E0D6FF" d="M1031.5 343.6c2-4.2 3-8 2-8.4-.8-.5-3.2 2.6-5.2 6.8-2 4.3-3 8-2 8.5.9.4 3.2-2.7 5.3-6.9ZM1063 326c3.3 3.3 8.4 3.4 11.3.3 3-3.1 2.5-8.2-.9-11.4-3.4-3.2-8.5-3.3-11.4-.3-2.9 3.1-2.5 8.2 1 11.4Z"/><path fill="#2243DA" d="M1140.8 477.5c1.8 4.3 5 7 7.2 6.2 2.2-1 2.5-5.2.8-9.5-1.8-4.3-5-7-7.3-6.2-2.2 1-2.5 5.2-.7 9.5ZM1184.8 336.6c3.8-2.8 6-6.1 5-7.4-1-1.3-4.7-.1-8.5 2.7-3.8 2.8-6 6-5 7.4.9 1.3 4.7 0 8.5-2.7Z"/><path fill="#4D6DFB" d="M1224.8 275.4c2.9-3.7 3.7-7.9 1.8-9.4-1.9-1.5-5.8.2-8.7 3.9-3 3.6-3.7 7.9-1.8 9.4 2 1.5 5.8-.2 8.7-4ZM515 512c2.2-4.6 3.2-8.8 2.1-9.3-1-.6-3.8 2.7-6 7.3-2.4 4.6-3.4 8.8-2.3 9.3s3.9-2.7 6.1-7.3Z"/><path fill="#2243DA" d="M587.3 278.3c4.8 1.8 9.8.4 11-3.1 1.3-3.5-1.6-7.8-6.4-9.5-4.9-1.8-9.8-.4-11 3.1-1.4 3.5 1.6 7.7 6.4 9.5ZM831.8 622c4.2-3 6-7.7 4.1-10.3-1.9-2.8-6.8-2.5-11 .5s-6 7.5-4.1 10.2c1.9 2.7 6.8 2.5 11-.5Z"/><path fill="#2346E6" d="M849.8 460.6c2.2 4.6 7.5 6.7 11.8 4.7 4.2-2 6-7.4 3.7-12-2.2-4.7-7.4-6.8-11.7-4.8-4.3 2-6 7.4-3.8 12ZM903.6 196.7c-1.7-4.9-6.5-7.7-10.7-6.2-4.3 1.4-6.4 6.5-4.7 11.4 1.6 4.8 6.4 7.6 10.6 6.2 4.3-1.4 6.4-6.6 4.8-11.4ZM931.7 348c4.8 1.7 9.9.2 11.2-3.4 1.4-3.7-1.4-8.2-6.3-10-4.8-1.7-9.8-.2-11.1 3.5-1.4 3.7 1.4 8.1 6.3 9.9ZM967.5 439.5c2.3 4.6 6.3 7.3 9 6 2.8-1.4 3.2-6.2 1-10.8-2.3-4.6-6.4-7.3-9.1-6-2.8 1.4-3.2 6.2-.9 10.8Z"/><path fill="#FFFDD6" fill-rule="evenodd" d="M1043.5 208.5c1.6-3.5-.6-8-5-9.9-4.2-1.9-9-.6-10.6 3-1.6 3.6.6 8 5 10 4.3 1.8 9 .5 10.6-3Zm-11-.7v-7.1l.8.3c.5.2.7-.5.3-.7l-1.9-.8c-.1 0-.3 0-.4-.2 2-1 4.5-1 7 0 1.8.8 3.2 2.1 4 3.6-.5-.3-1.4-.3-1.7.5-.2.4 0 .9 0 1.4v.3c.2.5.1 1-.2 1.7-.4 1-2.5 2.8-2.5 2.8V203l.7.2c.4.1.7-.7.3-.8l-1.9-.8-1.8-.8c-.4-.2-.8.5-.4.7l.7.4v2.6l-3 3.2Zm9-.2-3.3 3-1.2 1c2.5 0 4.7-1.3 5.7-3.4.4-1 .5-2 .4-3.1a4.7 4.7 0 0 1-1.6 2.5Zm-11.1 1.3c-2-2-2.6-4.6-1.6-7 .4-.8.9-1.4 1.6-2v9Zm5 2.6V206l-2.3 2.2-1.6 1.5a8 8 0 0 0 4 1.7ZM884.5 550.2c.8-1.8-2-4.8-6.4-6.7-4.3-1.9-8.4-2-9.2-.2-.8 1.8 2 4.8 6.4 6.7 4.3 2 8.4 2 9.2.2Zm-10.3-2.5-1.3-4.1.9.4c.4.1.5-.3 0-.4l-1.8-.8-.4-.2c1.6-.2 4 .2 6.4 1.3a15 15 0 0 1 4.4 2.8c-.5-.2-1.4-.4-1.5 0-.1.2 0 .5.3.8v.2c.2.3.3.6.1 1-.2.4-1.8 1.1-1.8 1.1l-1.1-3.8.6.3c.4.1.5-.3.2-.5l-2-.7-1.7-.9c-.4-.2-.6.2-.3.4l.8.3.5 1.6-2.3 1.2Zm8.3 1.6-2.5 1.2-1 .3c2.4.5 4.2.1 4.6-1 .3-.4.2-1-.2-1.7 0 .9-.6 1.1-.9 1.2Zm-10-1.3c-2.1-1.5-3.2-3.2-2.7-4.3.1-.4.5-.7 1-1l.4 1.2 1.3 4.1Zm5.1 2.4-1-3.1-1.7.8-1.2.6a15.9 15.9 0 0 0 3.9 1.7Z" clip-rule="evenodd"/><path fill="#2243DA" d="M1120.7 374c3.6 3.6 8.8 4.4 11.4 1.7 2.7-2.7 2-7.8-1.6-11.4-3.7-3.7-8.8-4.5-11.5-1.8-2.7 2.6-2 7.8 1.7 11.4Z"/><path fill="#4D6DFB" d="M1160 371.8c4.2 2.9 9.4 2.6 11.6-.7 2.2-3.2.5-8.2-3.7-11-4.3-2.9-9.5-2.6-11.7.7-2.2 3.2-.5 8.2 3.8 11ZM1203.5 523c4-3 6.8-6.4 6-7.3-.7-1-4.6.8-8.6 4-4 3-6.8 6.4-6 7.3.7 1 4.6-.8 8.6-4ZM1232.7 690.8c.3 5 4 9 8.3 8.8 4.3-.2 7.5-4.5 7.2-9.7-.2-5.1-4-9.1-8.2-8.9-4.3.3-7.6 4.6-7.3 9.8Z"/><path fill="#E26F56" d="M1280.4 401.8c3.8-3.4 6.2-7 5.4-8-.9-1-4.8 1-8.6 4.4-3.8 3.4-6.3 7-5.4 8 .9 1 4.8-1 8.6-4.4Z"/><path fill="#2346E6" d="M457 579.7c5.5-1 9.3-5.4 8.6-9.8-.8-4.5-6-7.3-11.4-6.4-5.5 1-9.4 5.4-8.6 9.8.8 4.5 5.8 7.3 11.4 6.4Z"/><path fill="#2243DA" d="M494.3 595.1c5.6-.4 10-4 9.7-8.2-.3-4.2-5-7.3-10.6-6.9-5.6.4-10 4-9.7 8.2.3 4.2 5 7.3 10.6 7Z"/><path fill="#E0D6FF" d="M510.4 709c3.9 4 8.5 5.9 10.4 4 1.9-1.7.2-6.4-3.6-10.5-4-4-8.6-5.9-10.4-4-1.9 1.7-.3 6.4 3.6 10.5Z"/><path fill="#4D6DFB" d="M571.3 695.2c5.3-1.8 9.2-4.4 8.7-5.9-.5-1.4-5.2-1.1-10.5.7s-9.2 4.4-8.7 5.9c.5 1.4 5.2 1.1 10.5-.7Z"/><path fill="#2243DA" d="M765.7 739.2c-1-5.6-3.3-9.8-5.4-9.4-2.1.3-3 5-2.2 10.6.9 5.5 3.3 9.7 5.4 9.4 2-.4 3-5.1 2.2-10.6Z"/><path fill="#4D6DFB" d="M949.7 692.8c5.2 2.2 11 .2 13-4.5 2-4.6-.6-10.2-5.7-12.4-5.2-2.2-11-.2-13 4.5-2 4.6.6 10.2 5.7 12.4Z"/><path fill="#2243DA" d="M984.3 399.4c-1 5.5 1.6 10.5 5.7 11.1 4 .7 8-3.3 9-8.8.8-5.5-1.8-10.5-5.8-11.1-4-.7-8 3.3-9 8.8Z"/><path fill="#4D6DFB" d="M1024.8 261.5c-.9 5.6.7 10.4 3.5 10.8 2.8.4 5.8-3.7 6.7-9.2.8-5.5-.8-10.4-3.5-10.8-2.9-.4-5.8 3.7-6.7 9.2Z"/><path fill="#2346E6" d="M1068.6 367.5c5.5-1 9.8-2.7 9.6-3.8-.2-1.2-4.8-1.3-10.4-.3-5.5 1-9.8 2.7-9.6 3.8.3 1.2 4.9 1.3 10.4.3Z"/><path fill="#4D6DFB" d="M1149.5 267.6c.4-5.6-1.5-10.3-4.2-10.4-2.6-.2-5 4.3-5.3 9.8-.3 5.6 1.5 10.3 4.2 10.4 2.7.2 5-4.3 5.3-9.8ZM1227.3 466.1a10.1 10.1 0 1 0 0 0ZM1262.8 498c3.4-4.4 4.8-9 3-10.4-1.7-1.4-6 1-9.4 5.5-3.4 4.4-4.8 9-3 10.4 1.7 1.4 6-1 9.4-5.5Z"/><path fill="#FFFDD6" fill-rule="evenodd" d="M1305.7 276.7c-3.2-4.4-9.2-5.5-13.4-2.5-4.1 3.1-4.8 9.2-1.6 13.6 3.3 4.4 9.3 5.5 13.4 2.4 4.2-3 4.9-9.1 1.6-13.5Zm-6 11-8-5.4 1-.7c.3-.3-.4-1.1-.8-.8l-1.7 1.4-.4.3a8 8 0 0 1 9.2-8.8c-.7.2-1 1.2-.4 2.1.4.5 1 .8 1.6 1l.3.2a5 5 0 0 1 1.9 1.7c.9 1.1 1.9 4.7 1.9 4.7l-7.2-5c.4-.3.5-.6.5-.6.3-.3-.4-1.2-.8-1l-1.7 1.5-1.8 1.2c-.4.3.3 1.3.7 1l.7-.4 3 2 2 5.6Zm4-9.6h.1l1.8 5.8.6 2a9 9 0 0 0-1.3-8.6c-.9-1.2-2-2.2-3.3-2.8 1.6 1.7 2 2.9 2.2 3.6Zm-3.6 12.7a9 9 0 0 1-8.5-3.7c-.8-1-1.3-2-1.6-3.2l2.1 1.4 8 5.5Zm5.1-3.4-6-4 1.4 4 1 3 1.9-1c.7-.6 1.3-1.2 1.7-2ZM960.5 430.8a7.9 7.9 0 1 0-14.4-6.4 7.9 7.9 0 0 0 14.4 6.4Zm-10.4 0 .4-7.7.9.3c.4 0 .7-.7.3-.8l-1.7-.7-.4-.2a7 7 0 0 1 6.6-.5c1.7.7 3 2 3.6 3.6-.5-.3-1.3-.3-1.7.6-.2.5-.1 1 0 1.5v.3c0 .5 0 1.1-.4 2-.5 1-2.6 3-2.6 3l.5-6.9c.4.2.6.1.6.1.4.2.7-.7.4-.9l-1.8-.6-1.6-.9c-.4-.1-.8.7-.4.9l.6.4-.2 2.8-3.1 3.6Zm8.6-1v.1l-3.4 3.5-1.2 1.2a7 7 0 0 0 5.6-4.2c.5-1.1.7-2.2.6-3.4-.5 1.8-1.2 2.5-1.6 2.9Zm-10.7 2.3a7 7 0 0 1-1-7.4c.4-.9 1-1.7 1.6-2.3l-.1 2-.5 7.7Zm4.6 2.4.4-5.8-2.4 2.5-1.6 1.8c.4.4 1 .7 1.5 1l2.1.5ZM780.8 205.4c-.8-1.8-3.7-2.2-6.5-1-2.7 1.4-4.3 3.8-3.5 5.6.9 1.8 3.8 2.2 6.5.9 2.7-1.3 4.3-3.7 3.5-5.5Zm-5.3 4.5-3-2.1.5-.3c.3-.1 0-.5-.2-.4l-1.1.6-.3.2a6 6 0 0 1 3-3c1.2-.6 2.4-.8 3.4-.7-.3.1-.7.5-.5.9 0 .2.3.3.6.4h.1l.7.7c.2.5 0 2 0 2l-2.7-2 .3-.3c.3-.1 0-.5-.2-.4l-1.1.6-1.2.5c-.3.1-.1.5.1.4l.5-.2 1.1.8v2.3Zm4-4-.2 2.4-.1.8c1.1-1 1.5-2.4 1-3.5-.2-.5-.6-.8-1.1-1 .5.6.4 1 .4 1.4Zm-4.4 5.3c-1.7.2-3.2-.3-3.7-1.5-.2-.4-.3-.8-.2-1.3l.8.6 3 2.2Zm3.3-1.4-2.3-1.7v1.7l-.2 1.2a6.6 6.6 0 0 0 2.5-1.2ZM888.8 353.9c.2-2.8-6.3-5.5-14.4-6-8.2-.6-15 1.1-15.2 3.9-.2 2.7 6.3 5.4 14.5 6 8.1.6 14.9-1.2 15-4Zm-18.3 1.4-4.7-5 1.8.1c.7 0 .6-.5 0-.5l-3.6-.2h-.9c2.5-1.1 6.6-1.6 11.2-1.3 3.5.2 6.6.9 8.9 1.8-1-.1-2.5 0-2.5.6 0 .3.5.6 1 1l.2.1c.5.4.8.8.8 1.3 0 .8-2.3 2.4-2.3 2.4l-4.2-4.5h1.3c.7 0 .7-.6 0-.6l-3.6-.2-3.4-.3c-.8 0-1 .5-.2.6l1.4.1 1.7 1.8-2.9 2.8Zm14.5-1.7-3.4 2.6-1.2 1c4-.5 6.6-1.8 6.7-3.5.1-.7-.4-1.5-1.4-2.2.4 1.2-.3 1.8-.7 2Zm-17 2.8c-4.4-1-7.2-2.8-7.1-4.5 0-.7.4-1.2 1.2-1.7l1.2 1.3 4.7 5Zm9.7.9-3.5-3.7-2.3 1.9-1.6 1.3a33.6 33.6 0 0 0 7.4.5ZM1321.2 468.2c-4.4-2.9-9.8-2.5-12 .7-2 3.3-.1 8.3 4.3 11.2 4.5 2.9 9.9 2.6 12-.7 2.1-3.3.2-8.3-4.3-11.2Zm-.3 10-8.7-2.7.3-.7c.2-.3-.7-.8-.9-.5l-.8 1.4-.2.4c-1.4-2.3-1.6-4.7-.4-6.6a5.5 5.5 0 0 1 4.2-2.4c-.4.4-.3 1.2.6 1.8.6.4 1.2.5 1.8.6h.3a6 6 0 0 1 2.2 1 27 27 0 0 1 3.5 3.4l-8-2.6c.3-.3.2-.5.2-.5.2-.4-.8-1-1-.6l-.8 1.4c-.3.6-1 1.4-1 1.4-.2.3.8 1 1 .6l.4-.5 3.3 1 4 4.2Zm-.7-8.5 3.9 4.3 1.3 1.5c-.2-2.3-2-5-4.6-6.6a11 11 0 0 0-3.8-1.6c2 1 2.8 2 3.2 2.4Zm2.2 11c-2.3 1-5.6.6-8.4-1.2-1-.7-2-1.5-2.7-2.3l2.4.7 8.7 2.8Zm2.9-3.7-6.7-2.2 2.9 3.1 2 2c.4-.2.8-.6 1-1.1.5-.6.7-1.2.8-1.8Z" clip-rule="evenodd"/></svg>