<svg xmlns="http://www.w3.org/2000/svg" width="1320" height="550" fill="none">
  <g clip-path="url(#a)">
    <path fill="#7E92F1" d="M117.75 75.7s-.15-.4-.2-.4c-.1 0-.1.2-.05.45 0 .2.15.4.25.4s.1-.2.05-.45h-.05Z"/>
    <path fill="#E0D6FF" d="M331.47 30.7c.2 1.04.54 1.88.79 1.83.25 0 .3-.94.1-1.97-.2-1.04-.55-1.88-.8-1.83-.24 0-.29.94-.1 1.97Z"/>
    <path fill="#7E92F1" d="M698.77 66.75c.1 1.04.4 1.88.65 1.88s.4-.89.3-1.97c-.1-1.1-.4-1.93-.65-1.88-.25 0-.4.89-.3 1.97ZM821.06 94.2c1 .44 2.03.24 2.38-.5.34-.74-.15-1.68-1.1-2.17-.98-.5-2.02-.25-2.37.49-.34.74.15 1.68 1.1 2.18Zm-278.99 13.2c-.65 1.73-.2 3.5 1.08 4 1.24.5 2.82-.54 3.52-2.27.64-1.73.2-3.51-1.1-4-1.28-.5-2.81.54-3.5 2.27ZM210.12 56.07c2.67-.5 4.5-2.52 4.15-4.55-.34-2.02-2.81-3.26-5.48-2.81-2.67.49-4.5 2.52-4.16 4.55.35 2.02 2.82 3.26 5.5 2.81Z"/>
    <path fill="#E26F56" d="M330.48 329.67c2.03 1.78 4.3 2.52 5.1 1.63.79-.89-.2-3.06-2.23-4.84-2.03-1.78-4.3-2.52-5.1-1.63-.79.89.2 3.06 2.23 4.84Zm188.4-308.9a4.84 4.84 0 0 0 .2-6.83 4.82 4.82 0 0 0-6.78 0 4.78 4.78 0 0 0-.2 6.78 4.82 4.82 0 0 0 6.78 0v.05Z"/>
    <path fill="#324CD3" d="M913.4 319.05c-.8 2.57.14 5.14 2.07 5.73 1.93.6 4.1-1.04 4.9-3.6.79-2.58-.15-5.15-2.08-5.75-1.93-.59-4.16 1.04-4.9 3.62Z"/>
    <path fill="#E0D6FF" d="M820.52 98.2c1.63 2.13 3.51 3.46 4.15 2.97.65-.5-.14-2.67-1.77-4.8-1.64-2.12-3.52-3.46-4.16-2.97-.64.5.15 2.67 1.78 4.8Z"/>
    <path fill="#7E92F1" d="M1190.6 152.55c2.37-1.29 3.61-3.61 2.72-5.25-.89-1.58-3.51-1.83-5.89-.54-2.37 1.29-3.61 3.61-2.72 5.24.84 1.58 3.51 1.83 5.84.55h.05Z"/>
    <path fill="#E0D6FF" d="M1248.45 136.38c1.58 2.17 3.71 3.36 4.7 2.62.99-.75.49-3.07-1.09-5.25-1.58-2.17-3.71-3.36-4.7-2.62-.98.75-.49 3.07 1.09 5.25Z"/>
    <path fill="#E26F56" d="M55.1 325.13c-.3 3.46.05 6.33.79 6.38.74.04 1.53-2.72 1.83-6.19.3-3.46-.05-6.33-.8-6.38-.73-.04-1.53 2.73-1.82 6.19Z"/>
    <path fill="#E0D6FF" d="M303.18 287.99c1.19-3.27 1.34-6.23.25-6.63-1.04-.4-2.87 1.98-4.05 5.24-1.2 3.27-1.34 6.23-.3 6.63 1.04.4 2.87-1.98 4.05-5.24h.05Zm5 95.71c-.74 3.41.89 6.68 3.6 7.22 2.73.6 5.55-1.68 6.29-5.1.74-3.4-.9-6.67-3.61-7.21-2.72-.6-5.54 1.68-6.28 5.09Z"/>
    <path fill="#7E92F1" d="M438.03 399.27c2.18-2.72 2.87-5.79 1.48-6.87-1.33-1.1-4.2.24-6.38 2.96-2.17 2.72-2.86 5.79-1.48 6.88 1.34 1.08 4.2-.25 6.38-2.97ZM669.25 16.56c3.41-.84 5.84-2.67 5.5-4.15-.35-1.48-3.42-1.98-6.78-1.19-3.42.84-5.84 2.67-5.5 4.16.36 1.48 3.42 1.97 6.78 1.18Z"/>
    <path fill="#324CD3" d="M918.87 8.8c1.29-3.26-.1-6.82-3.02-7.96-2.96-1.14-6.37.54-7.61 3.76-1.29 3.26.1 6.82 3.02 7.96 2.96 1.14 6.38-.55 7.66-3.81l-.05.05Zm175.55 338.48c-.4 3.46.49 6.43 2.03 6.58 1.53.2 3.06-2.48 3.46-5.99.39-3.46-.5-6.43-2.03-6.57-1.53-.2-3.07 2.47-3.46 5.98Z"/>
    <path fill="#7E92F1" d="M1158.16 308.36c3.46.3 6.43-.84 6.57-2.52.15-1.68-2.52-3.31-6.03-3.66-3.46-.3-6.43.84-6.58 2.52-.14 1.73 2.53 3.37 6.04 3.66Zm126.44-65.22c.39-3.46-.94-6.48-3.02-6.72-2.07-.25-4.05 2.37-4.45 5.83-.39 3.46.94 6.48 3.02 6.72 2.08.25 4.05-2.37 4.45-5.83ZM27.26 271.42c4.25-.89 7.02-4.8 6.18-8.75-.8-3.96-4.9-6.48-9.15-5.59-4.25.9-7.02 4.8-6.18 8.76.79 3.95 4.9 6.47 9.15 5.58Z"/>
    <path fill="#E26F56" d="M397.43 224.6c2.62-3.41 2.82-7.72.45-9.55-2.38-1.83-6.48-.54-9.1 2.87-2.62 3.46-2.82 7.72-.45 9.55 2.38 1.82 6.48.54 9.1-2.92v.05Z"/>
    <path fill="#E0D6FF" d="M630.73 141.22c-.25 4.35 2.03 7.96 5.04 8.11 3.02.15 5.64-3.21 5.89-7.52.25-4.35-2.03-7.96-5.05-8.1-3.01-.15-5.63 3.2-5.88 7.56v-.05Z"/>
    <path fill="#324CD3" d="M923.87 321.17c1.39-4.1-.59-8.5-4.45-9.79-3.85-1.33-8.1.94-9.49 5.05-1.38 4.1.6 8.5 4.45 9.79 3.86 1.33 8.11-.94 9.5-5.05Z"/>
    <path fill="#E0D6FF" d="M823.93 419.47c3.8-2.07 5.89-5.59 4.65-7.9-1.24-2.28-5.34-2.48-9.15-.4-3.8 2.07-5.88 5.58-4.65 7.9 1.24 2.28 5.34 2.48 9.15.4Z"/>
    <path fill="#324CD3" d="M887.87 170.8c2.32-3.67 1.97-8.02-.8-9.75-2.72-1.73-6.82-.15-9.1 3.51-2.32 3.66-1.97 8.01.75 9.75 2.72 1.73 6.82.14 9.1-3.52h.05Z"/>
    <path fill="#E26F56" d="M1309.12 222.47c3.57 2.47 7.52 2.97 8.81 1.09 1.28-1.88-.5-5.4-4.06-7.87-3.56-2.47-7.51-2.96-8.8-1.08-1.29 1.88.54 5.39 4.05 7.86Z"/>
    <path fill="#324CD3" d="M482.19 108.49c-.25 5.1.84 9.3 2.37 9.4 1.53.04 2.92-4.06 3.17-9.15.2-5.15-.85-9.3-2.38-9.4-1.53-.05-2.92 4-3.11 9.15h-.05Z"/>
    <path fill="#E0D6FF" d="M550.63 37.28c4.1-3.07 5.44-8.2 3.01-11.47-2.42-3.27-7.76-3.46-11.87-.4-4.1 3.07-5.43 8.21-3.01 11.47 2.42 3.27 7.76 3.47 11.87.4Z"/>
    <path fill="#7E92F1" d="M792.97 50.44c4.6-2.28 7.47-5.84 6.38-7.97-1.03-2.12-5.63-2.02-10.23.25-4.6 2.28-7.47 5.84-6.38 7.96 1.04 2.13 5.64 2.03 10.23-.24Z"/>
    <path fill="#E0D6FF" d="M855.53 511.65c-.84-5.05-2.97-8.9-4.75-8.6-1.78.29-2.57 4.64-1.73 9.69.84 5.04 2.97 8.9 4.75 8.6 1.78-.3 2.57-4.65 1.73-9.7Z"/>
    <path fill="#7E92F1" d="M1110.95 133.66c5.1.54 9.35-.25 9.5-1.78.15-1.53-3.86-3.16-8.95-3.7-5.1-.55-9.35.24-9.5 1.77-.14 1.49 3.86 3.17 8.95 3.71Zm102.44 243.58c-.2 5.15 2.47 9.35 5.94 9.5 3.46.1 6.37-3.96 6.52-9.05.2-5.1-2.47-9.35-5.93-9.5-3.46-.1-6.38 3.96-6.53 9.05Z"/>
    <path fill="#324CD3" d="M1277.43 208.87c.2 5.14 1.88 9.2 3.76 9.15 1.88-.05 3.26-4.25 3.06-9.4-.2-5.09-1.88-9.2-3.76-9.15-1.87.06-3.26 4.26-3.06 9.4Z"/>
    <path fill="#E0D6FF" d="M81.45 45.84c3.27 4.94 8.36 7.31 11.42 5.29 3.07-2.03 2.92-7.62-.3-12.56-3.2-4.95-8.35-7.32-11.42-5.3-3.06 2.03-2.91 7.67.3 12.56Z"/>
    <path fill="#E26F56" d="M202.9 310.63c3.07 5.05 8.5 7.37 12.11 5.15 3.62-2.23 4.1-8.11 1.04-13.16-3.06-5.04-8.5-7.36-12.11-5.14-3.61 2.23-4.1 8.11-1.04 13.15Z"/>
    <path fill="#324CD3" d="M274.1 281.01c0-5.88-1.53-10.68-3.4-10.68-1.89 0-3.42 4.8-3.42 10.69 0 5.88 1.53 10.68 3.41 10.68 1.88 0 3.42-4.8 3.42-10.69Z"/>
    <path fill="#7E92F1" d="M340.62 511.1c2.62-5.29.89-11.52-3.96-13.94s-10.88-.1-13.5 5.2c-2.62 5.28-.89 11.51 3.96 13.94 4.84 2.42 10.88.1 13.5-5.2Z"/>
    <path fill="#E26F56" d="M510.37 436.49c.6 5.88 3.37 10.43 6.23 10.13 2.87-.3 4.7-5.29 4.1-11.17-.59-5.89-3.35-10.44-6.22-10.14-2.87.3-4.7 5.29-4.1 11.18Z"/>
    <path fill="#7E92F1" d="M566.99 128.8c1.38 5.74 6.13 9.5 10.53 8.46 4.4-1.08 6.82-6.62 5.44-12.36-1.38-5.73-6.13-9.5-10.53-8.4-4.4 1.08-6.83 6.62-5.44 12.36v-.05Z"/>
    <path fill="#324CD3" d="M855.39 345.35c5.88.65 10.73.15 10.88-1.13.14-1.29-4.5-2.87-10.39-3.51-5.88-.65-10.73-.15-10.88 1.13-.14 1.29 4.5 2.87 10.39 3.51Z"/>
    <path fill="#7E92F1" d="M932.5 406.2c-1-5.84-5.64-9.9-10.44-9.1-4.8.79-7.86 6.18-6.88 12.01 1 5.84 5.7 9.9 10.44 9.1 4.75-.79 7.81-6.18 6.87-12.01Z"/>
    <path fill="#E0D6FF" d="M952.9 239.97c2.96-5.09 1.53-11.52-3.32-14.34-4.85-2.82-11.17-.99-14.14 4.1-2.97 5.1-1.53 11.53 3.31 14.35 4.85 2.82 11.18.99 14.14-4.1Zm43.51 74.18c0 5.88 4.01 10.73 8.95 10.73 4.95 0 8.95-4.8 9-10.69 0-5.88-4.01-10.68-8.95-10.73-4.95 0-8.95 4.8-8.95 10.69h-.05Z"/>
    <path fill="#E26F56" d="M1074.34 165.7c3.02-5.1 1.98-11.27-2.32-13.8-4.31-2.52-10.19-.49-13.21 4.6-3.01 5.1-1.97 11.28 2.33 13.8 4.3 2.52 10.18.44 13.2-4.6ZM153.06 491.2c-.4-5.89-4.06-10.44-8.2-10.19-4.16.25-7.18 5.3-6.83 11.18.4 5.88 4.05 10.48 8.2 10.18 4.16-.3 7.18-5.29 6.83-11.17Z"/>
    <path fill="#E0D6FF" d="M1315.75 29.42c.3-5.89-1.38-10.78-3.76-10.93-2.37-.15-4.55 4.55-4.84 10.48-.3 5.89 1.38 10.78 3.71 10.93 2.37.15 4.55-4.55 4.84-10.48h.05Z"/>
    <path fill="#7E92F1" d="M167.6 351.33c-1.79 6.43 1.82 13.06 8 14.79 6.24 1.73 12.71-2.13 14.5-8.56 1.77-6.43-1.84-13.05-8.02-14.78-6.23-1.73-12.7 2.08-14.49 8.55Z"/>
    <path fill="#E26F56" d="M365.64 99.1c5.73-3.42 9.05-8.56 7.26-11.48-1.73-2.92-7.8-2.52-13.54.9-5.74 3.4-9 8.55-7.27 11.46 1.73 2.92 7.81 2.53 13.55-.89ZM160.15 243.37c5.74 3.5 12.11 3.46 14.24-.05 2.18-3.56-.74-9.25-6.43-12.71-5.73-3.51-12.11-3.46-14.24.05-2.17 3.56.74 9.25 6.43 12.7ZM666.98 143.3c6.67-.45 12.01-1.98 11.91-3.41-.1-1.44-5.58-2.23-12.26-1.78-6.67.44-12.01 1.98-11.92 3.41.1 1.43 5.6 2.22 12.27 1.78Zm130.84 403.2c2.77-6.07 1.98-12.4-1.73-14.09-3.7-1.68-8.95 1.88-11.72 8.02-2.77 6.08-1.98 12.4 1.73 14.09 3.71 1.68 8.95-1.88 11.72-8.01Zm242.11-453.49c-1.78-6.43-5-11.17-7.17-10.58-2.18.6-2.53 6.33-.75 12.76 1.78 6.48 5 11.17 7.17 10.58 2.18-.6 2.53-6.33.75-12.76Zm60.37 272.91c-2.12-6.33-5.24-11.02-6.97-10.43-1.68.6-1.34 6.18.79 12.51s5.29 11.03 6.97 10.43c1.68-.59 1.34-6.18-.79-12.5Z"/>
    <path fill="#7E92F1" d="M1207.75 83.68c1.09-6.58.1-12.26-2.18-12.66-2.32-.4-5.04 4.65-6.13 11.28-1.09 6.62-.1 12.26 2.18 12.66 2.27.4 5.04-4.65 6.13-11.28Z"/>
    <path fill="#324CD3" d="M96.88 363.15c2.77-6.97.54-14.34-4.9-16.52-5.44-2.17-12.11 1.73-14.83 8.7-2.77 6.98-.54 14.35 4.9 16.52 5.43 2.18 12.11-1.73 14.83-8.7Zm168.82 63.79c2.57 7.02 6.87 11.92 9.6 10.93 2.71-.99 2.86-7.52.34-14.54-2.57-7.02-6.88-11.92-9.6-10.93-2.71 1-2.86 7.52-.34 14.54Z"/>
    <path fill="#7E92F1" d="M238.04 169.74c7.13 2.32 14.34-.25 16.13-5.74 1.78-5.49-2.53-11.82-9.65-14.14-7.12-2.33-14.34.24-16.12 5.73-1.78 5.5 2.52 11.82 9.64 14.15Z"/>
    <path fill="#324CD3" d="M423.04 159.66c5.68 4.85 12.11 6.68 14.33 4.1 2.23-2.61-.64-8.65-6.32-13.5-5.7-4.84-12.12-6.67-14.3-4.1-2.22 2.63.65 8.66 6.33 13.5h-.04Z"/>
    <path fill="#E0D6FF" d="M368.45 80.45c5.05-6.48 6.48-13.8 3.22-16.37-3.27-2.57-10.04.65-15.08 7.12-5.05 6.48-6.48 13.8-3.22 16.37 3.27 2.57 10.04-.64 15.08-7.12Z"/>
    <path fill="#7E92F1" d="M472.55 101.27c3.5 7.42 11.91 10.83 18.74 7.56 6.82-3.2 9.54-11.86 6.03-19.28-3.51-7.42-11.92-10.83-18.74-7.62-6.82 3.22-9.54 11.87-6.03 19.34ZM660.7 67.64c3.6 7.37 10.09 11.62 14.49 9.5 4.4-2.13 5-9.9 1.38-17.26-3.6-7.37-10.09-11.62-14.49-9.5-4.4 2.13-5 9.9-1.38 17.26Z"/>
    <path fill="#324CD3" d="M1038.1 201.25c6.47-5.04 10.83-10.33 9.64-11.87-1.19-1.53-7.42 1.34-13.9 6.34-6.47 5.04-10.83 10.33-9.64 11.86 1.19 1.53 7.42-1.33 13.9-6.33Zm46.68 268.12c.44 8.2 6.32 14.53 13.2 14.19 6.87-.35 12.06-7.32 11.62-15.53-.45-8.2-6.33-14.58-13.2-14.19-6.88.35-12.07 7.32-11.62 15.53Z"/>
    <path fill="#E26F56" d="M1160.98 7.37c6.18-5.44 10.03-11.13 8.65-12.71-1.38-1.58-7.57 1.48-13.7 6.92-6.13 5.44-10.04 11.13-8.6 12.71 1.38 1.58 7.56-1.48 13.7-6.92h-.05Z"/>
    <path fill="#324CD3" d="M27.2 476.49c8.46-2.87 14.7-7.07 13.9-9.4-.8-2.27-8.26-1.82-16.76 1.04-8.46 2.87-14.69 7.07-13.95 9.4.8 2.27 8.31 1.83 16.77-1.04h.04Zm605.07-3.91c8.2 3.52 17.45.35 20.66-7.07 3.17-7.41-.88-16.32-9.1-19.83-8.2-3.5-17.45-.4-20.66 7.07-3.17 7.42.89 16.32 9.1 19.83Zm443.8-362.41a16.2 16.2 0 0 0 3.56-22.6 16.18 16.18 0 0 0-26.16 19.09 16.18 16.18 0 0 0 22.6 3.51Zm101.21 140.14c5.49-7.02 7.72-14.53 4.9-16.7-2.82-2.18-9.54 1.72-15.08 8.8-5.49 7.06-7.67 14.53-4.9 16.7 2.82 2.18 9.55-1.72 15.08-8.8Zm120.92 286.56c2.82 8.5 11.02 13.4 18.34 10.97 7.32-2.42 10.98-11.27 8.21-19.78-2.82-8.5-11.03-13.4-18.34-10.97-7.32 2.42-10.98 11.27-8.21 19.78Z"/>
    <path fill="#E0D6FF" d="M99.16 195.42c3.31 1.04 6.43.5 6.97-1.1.5-1.62-1.83-3.75-5.14-4.79-3.31-1.04-6.43-.5-6.92 1.09-.5 1.63 1.83 3.76 5.14 4.8h-.05Z"/>
  </g>
  <defs>
    <clipPath id="a">
      <path fill="#fff" d="M0 0h1320v550H0z"/>
    </clipPath>
  </defs>
</svg>
