<svg xmlns="http://www.w3.org/2000/svg" width="1295" height="240" fill="none"><path fill="#7E92F1" d="M103.75 177.7s-.15-.4-.2-.4c-.1 0-.1.2-.05.45 0 .2.15.4.25.4s.1-.2.05-.45h-.05Z"/><path fill="#324CD3" d="M899.63 30.64s-.15-.4-.2-.4c-.1 0-.1.2-.05.45 0 .25.15.4.2.4.1 0 .1-.2.05-.45Z"/><path fill="#E0D6FF" d="M317.47 132.7c.2 1.04.54 1.88.79 1.83.25 0 .3-.94.1-1.97-.2-1.04-.55-1.88-.8-1.83-.24 0-.29.94-.1 1.98Zm121.54-50.04c.5.94 1.54 1.39 2.28 1 .74-.4.94-1.5.44-2.43-.5-.94-1.53-1.39-2.27-.99-.74.4-.94 1.48-.45 2.42Z"/><path fill="#7E92F1" d="M684.77 168.75c.1 1.04.4 1.88.65 1.88s.4-.89.3-1.97c-.1-1.1-.4-1.93-.65-1.88-.25 0-.4.89-.3 1.97Zm122.29 27.45c1 .44 2.03.24 2.38-.5.34-.74-.15-1.68-1.1-2.17-.98-.5-2.02-.25-2.37.49-.34.74.15 1.68 1.1 2.18Zm62.06-185.54c1.04-.34 1.73-.93 1.59-1.23-.1-.35-1.04-.3-2.03.05-1 .34-1.73.94-1.63 1.23.1.35 1.03.3 2.02-.05h.05ZM472.05 31.38c-.1-1.88-.65-3.31-1.24-3.31-.6 0-.99 1.53-.94 3.41.1 1.88.64 3.36 1.24 3.31.59 0 .99-1.53.94-3.4Zm56.02 178.02c-.65 1.73-.2 3.5 1.08 4 1.24.5 2.82-.54 3.52-2.27.64-1.73.2-3.51-1.1-4-1.28-.5-2.81.54-3.5 2.27Z"/><path fill="#E26F56" d="M1266.64 30.74c1.78.54 3.32.64 3.42.25.1-.4-1.24-1.14-3.02-1.63-1.78-.55-3.31-.65-3.41-.25-.1.4 1.23 1.14 3.01 1.63Z"/><path fill="#7E92F1" d="M196.12 158.07c2.67-.5 4.5-2.52 4.15-4.54-.34-2.03-2.81-3.27-5.48-2.82-2.67.5-4.5 2.52-4.16 4.54.35 2.03 2.82 3.27 5.5 2.82Z"/><path fill="#E26F56" d="M504.88 122.77a4.84 4.84 0 0 0 .2-6.83 4.82 4.82 0 0 0-6.78 0 4.78 4.78 0 0 0-.2 6.78 4.82 4.82 0 0 0 6.78 0v.05Z"/><path fill="#324CD3" d="M1080.05 57.04c2.67-.34 4.74-1.23 4.65-2.07-.1-.8-2.38-1.19-5.05-.84-2.67.34-4.75 1.23-4.65 2.07.1.8 2.38 1.19 5.05.84Z"/><path fill="#E0D6FF" d="M806.52 200.2c1.63 2.13 3.51 3.46 4.15 2.97.65-.5-.14-2.67-1.77-4.8-1.64-2.13-3.52-3.46-4.16-2.97-.64.5.15 2.67 1.78 4.8Zm427.93 38.18c1.58 2.17 3.71 3.36 4.7 2.62.99-.75.49-3.07-1.09-5.25-1.58-2.17-3.71-3.36-4.7-2.62-.98.75-.49 3.07 1.09 5.25ZM351.59 54.87c2.07-2.82 2.37-6.13.64-7.37-1.73-1.23-4.75 0-6.82 2.87-2.08 2.82-2.38 6.08-.65 7.32 1.68 1.24 4.75 0 6.83-2.87v.05Z"/><path fill="#7E92F1" d="M779.8 114.72c3.42-.85 5.84-2.67 5.5-4.16-.35-1.48-3.42-1.98-6.78-1.19-3.41.84-5.83 2.67-5.49 4.16.35 1.48 3.42 1.98 6.78 1.19Z"/><path fill="#324CD3" d="M904.87 110.8c1.29-3.26-.1-6.82-3.02-7.96-2.96-1.14-6.37.54-7.61 3.76-1.29 3.26.1 6.82 3.02 7.96 2.96 1.13 6.38-.55 7.66-3.81l-.05.05Z"/><path fill="#7E92F1" d="M138.16 60.06c3.22-2.91 4.1-7.22 1.93-9.64-2.17-2.42-6.53-2.03-9.74.9-3.21 2.86-4.1 7.21-1.93 9.63 2.18 2.43 6.53 2.03 9.8-.89h-.06Z"/><path fill="#E0D6FF" d="M616.73 243.22c-.25 4.35 2.03 7.96 5.04 8.11 3.02.15 5.64-3.21 5.89-7.52.25-4.35-2.03-7.96-5.05-8.1-3.01-.15-5.63 3.2-5.88 7.56v-.05Z"/><path fill="#E26F56" d="M166.7 45.38c.7-5.1.44-9.3-.6-9.45-1.03-.15-2.42 3.86-3.16 8.9-.7 5.1-.44 9.3.6 9.45 1.03.15 2.42-3.86 3.16-8.9Z"/><path fill="#E0D6FF" d="M294.52 87.5c2.18-4.64.7-9.88-3.26-11.76-4-1.88-9 .4-11.18 5-2.17 4.64-.69 9.88 3.27 11.76 4 1.88 9-.34 11.17-5Z"/><path fill="#324CD3" d="M468.19 210.49c-.25 5.1.84 9.3 2.37 9.4 1.53.04 2.92-4.06 3.17-9.15.2-5.15-.85-9.3-2.38-9.4-1.53-.05-2.92 4-3.11 9.15h-.05Z"/><path fill="#E0D6FF" d="M923.08 220.05c4.1-3.07 5.43-8.21 3.01-11.47-2.42-3.27-7.76-3.47-11.87-.4-4.1 3.07-5.44 8.21-3.01 11.47 2.42 3.27 7.76 3.47 11.87.4Z"/><path fill="#E26F56" d="M537.1 53.8c2.23-4.6.7-10-3.51-12.02-4.15-2.03-9.35.05-11.57 4.7-2.23 4.6-.7 9.98 3.5 12.01 4.16 2.03 9.36-.05 11.58-4.7Z"/><path fill="#7E92F1" d="M778.97 152.44c4.6-2.28 7.47-5.84 6.38-7.97-1.03-2.12-5.63-2.02-10.23.25-4.6 2.28-7.47 5.84-6.38 7.96 1.04 2.13 5.64 2.03 10.23-.24Zm317.98 83.22c5.1.54 9.35-.25 9.5-1.78.15-1.53-3.86-3.16-8.95-3.7-5.1-.55-9.35.24-9.5 1.77-.14 1.49 3.86 3.17 8.95 3.71Z"/><path fill="#E26F56" d="M4.16 54.38c2.02 5.53 7.07 8.85 11.27 7.31 4.2-1.53 5.98-7.26 4-12.8-2.02-5.54-7.06-8.85-11.27-7.32-4.2 1.53-5.98 7.27-4 12.8Z"/><path fill="#E0D6FF" d="M67.45 147.84c3.27 4.94 8.36 7.31 11.42 5.29 3.07-2.03 2.92-7.62-.3-12.56-3.2-4.95-8.35-7.32-11.42-5.3-3.06 2.03-2.91 7.67.3 12.56Z"/><path fill="#7E92F1" d="M552.99 230.8c1.38 5.74 6.13 9.5 10.53 8.46 4.4-1.08 6.82-6.62 5.44-12.36-1.38-5.73-6.13-9.5-10.53-8.4-4.4 1.08-6.83 6.62-5.44 12.36v-.05Z"/><path fill="#E0D6FF" d="M1301.75 131.42c.3-5.89-1.38-10.78-3.76-10.93-2.37-.15-4.55 4.55-4.84 10.48-.3 5.89 1.38 10.78 3.71 10.93 2.37.15 4.55-4.55 4.84-10.48h.05Z"/><path fill="#E26F56" d="M351.64 201.1c5.73-3.42 9.05-8.56 7.26-11.48-1.73-2.92-7.8-2.52-13.54.9-5.74 3.4-9 8.55-7.27 11.46 1.73 2.92 7.81 2.53 13.55-.89Zm301.34 44.2c6.67-.45 12.01-1.98 11.91-3.41-.1-1.44-5.58-2.23-12.26-1.78-6.67.44-12.01 1.98-11.92 3.41.1 1.43 5.6 2.22 12.27 1.78Zm372.95-50.29c-1.78-6.43-5-11.17-7.17-10.58-2.18.6-2.53 6.33-.75 12.76 1.78 6.47 5 11.17 7.17 10.58 2.18-.6 2.53-6.33.75-12.76Z"/><path fill="#7E92F1" d="M1193.75 185.68c1.09-6.58.1-12.26-2.18-12.66-2.32-.4-5.04 4.65-6.13 11.28-1.09 6.62-.1 12.26 2.18 12.66 2.27.4 5.04-4.65 6.13-11.28Z"/><path fill="#E0D6FF" d="M10.34 101.35c6.33 4 12.11 6.18 12.9 4.9.8-1.29-3.7-5.54-10.03-9.55-6.33-4-12.12-6.18-12.9-4.9-.8 1.3 3.7 5.55 10.03 9.55Zm738.72-85.1c3.26-6.77 4.75-12.76 3.31-13.45-1.43-.69-5.24 4.2-8.45 10.98-3.27 6.73-4.75 12.76-3.27 13.45 1.44.7 5.24-4.2 8.46-10.93l-.05-.05Zm-394.61 166.2c5.05-6.48 6.48-13.8 3.22-16.37-3.27-2.57-10.04.65-15.08 7.13-5.05 6.47-6.48 13.8-3.22 16.36 3.27 2.57 10.04-.64 15.08-7.12Z"/><path fill="#7E92F1" d="M458.55 203.27c3.5 7.42 11.91 10.83 18.74 7.56 6.82-3.2 9.54-11.86 6.03-19.28-3.51-7.42-11.92-10.83-18.74-7.62-6.82 3.22-9.54 11.87-6.03 19.34Zm130.94-180c7.71 2.82 15.72.4 17.9-5.49 2.17-5.88-2.33-12.95-10.04-15.77-7.71-2.82-15.73-.4-17.85 5.49-2.18 5.88 2.32 12.96 10.04 15.77h-.05ZM192.36 237.8c3.6 7.37 10.08 11.63 14.49 9.5 4.4-2.13 4.99-9.89 1.38-17.26-3.6-7.37-10.09-11.62-14.49-9.5-4.4 2.13-5 9.9-1.38 17.27Z"/><path fill="#324CD3" d="M954.42 61.4c6.83 4.6 15.18 4.06 18.7-1.14 3.5-5.19.78-13.15-6.04-17.7-6.82-4.55-15.18-4.05-18.7 1.14-3.5 5.19-.78 13.15 6.04 17.7Z"/><path fill="#E26F56" d="M1146.98 109.37c6.18-5.44 10.03-11.13 8.65-12.71-1.38-1.58-7.57 1.48-13.7 6.92-6.13 5.44-10.04 11.13-8.6 12.71 1.38 1.58 7.56-1.48 13.7-6.92h-.05Z"/><path fill="#7E92F1" d="M991.29 129.2c-1.44 8.86 2.67 16.82 9.14 17.86 6.48 1.03 12.86-5.3 14.29-14.1 1.44-8.85-2.67-16.81-9.14-17.85-6.48-1.04-12.86 5.3-14.3 14.1ZM808.3 54.48c8.8-1.59 15.68-4.3 15.38-6.14-.35-1.83-7.71-2.02-16.52-.44-8.8 1.58-15.67 4.3-15.38 6.13.35 1.83 7.72 2.03 16.52.45Z"/><path fill="#324CD3" d="M1062.07 212.17a16.2 16.2 0 0 0 3.56-22.6 16.18 16.18 0 0 0-26.16 19.09 16.18 16.18 0 0 0 22.6 3.51ZM188.1-1.16c5.65 4.95 13.46 5.2 17.51.6 4.06-4.6 2.77-12.37-2.82-17.31-5.63-4.95-13.45-5.2-17.5-.6-4.06 4.6-2.77 12.37 2.82 17.31Z"/></svg>