<svg xmlns="http://www.w3.org/2000/svg" width="1920" height="650" fill="none"><path fill="#7E92F1" d="M352.6 17.42s-.19-.48-.25-.48c-.12 0-.12.24-.06.54 0 .23.18.47.3.47s.12-.24.06-.53h-.06ZM1054.79 6.6c.12 1.25.48 2.27.78 2.27.3 0 .47-1.08.35-2.39-.11-1.31-.47-2.33-.77-2.27-.3 0-.48 1.07-.36 2.39Zm147.79 33.16c1.19.54 2.45.3 2.87-.6.42-.89-.18-2.02-1.32-2.62-1.19-.6-2.45-.3-2.87.6-.41.9.18 2.03 1.32 2.62ZM865.4 55.72c-.78 2.1-.24 4.24 1.32 4.84 1.49.6 3.4-.66 4.24-2.75.77-2.1.24-4.24-1.32-4.84-1.55-.6-3.4.66-4.24 2.75Zm965.87-12.78c2.09.83 4.24.41 4.78-.96.54-1.38-.66-3.17-2.75-4-2.09-.84-4.18-.42-4.78.95-.54 1.38.66 3.17 2.75 4Z"/><path fill="#324CD3" d="M166.13 117.46c2.22 2.39 4.55 3.82 5.26 3.16.72-.65-.47-3.1-2.69-5.56-2.2-2.39-4.6-3.82-5.26-3.16-.71.66.48 3.1 2.7 5.56Z"/><path fill="#E26F56" d="M609.69 324.35c2.45 2.15 5.2 3.04 6.15 1.97.96-1.08-.24-3.7-2.69-5.86-2.45-2.15-5.2-3.04-6.15-1.97-.96 1.08.24 3.7 2.69 5.86Z"/><path fill="#324CD3" d="M1314.16 311.5c-.95 3.11.18 6.22 2.51 6.94 2.33.71 4.96-1.26 5.92-4.37.96-3.1-.18-6.21-2.51-6.93-2.33-.72-5.02 1.26-5.92 4.36Z"/><path fill="#E0D6FF" d="M1201.92 44.6c1.98 2.57 4.25 4.19 5.02 3.6.78-.6-.18-3.24-2.15-5.8-1.97-2.58-4.24-4.19-5.02-3.6-.77.6.18 3.24 2.15 5.8Z"/><path fill="#7E92F1" d="M1649.18 110.28c2.87-1.55 4.36-4.36 3.29-6.33-1.08-1.92-4.25-2.21-7.12-.66-2.86 1.55-4.36 4.36-3.28 6.33 1.01 1.92 4.24 2.22 7.05.66h.06Z"/><path fill="#E0D6FF" d="M1719.1 90.74c1.91 2.63 4.48 4.06 5.68 3.17 1.19-.9.59-3.7-1.32-6.34-1.91-2.63-4.48-4.06-5.68-3.16-1.19.9-.59 3.7 1.32 6.33Z"/><path fill="#E26F56" d="M276.88 318.85c-.36 4.19.06 7.65.95 7.71.9.06 1.85-3.28 2.21-7.47.36-4.18-.06-7.65-.95-7.7-.9-.07-1.86 3.28-2.21 7.46Z"/><path fill="#E0D6FF" d="M576.7 273.97c1.43-3.95 1.61-7.53.3-8-1.26-.49-3.47 2.38-4.9 6.33-1.44 3.94-1.62 7.53-.36 8 1.25.48 3.46-2.39 4.9-6.33h.06Zm6.04 115.67c-.9 4.13 1.07 8.07 4.36 8.73 3.29.71 6.7-2.03 7.59-6.16.9-4.12-1.08-8.07-4.36-8.72-3.3-.72-6.7 2.03-7.6 6.15Z"/><path fill="#7E92F1" d="M739.67 408.46c2.63-3.29 3.46-7 1.79-8.3-1.61-1.32-5.08.3-7.71 3.58-2.63 3.29-3.47 7-1.8 8.3 1.62 1.32 5.09-.3 7.72-3.58Z"/><path fill="#324CD3" d="M1532.94 345.63c-.48 4.18.6 7.76 2.45 7.94 1.86.24 3.71-2.98 4.19-7.23.47-4.18-.6-7.76-2.45-7.94-1.86-.24-3.71 2.98-4.19 7.23Z"/><path fill="#7E92F1" d="M1609.97 298.6c4.19.35 7.77-1.02 7.95-3.05.18-2.04-3.05-4-7.29-4.43-4.18-.35-7.77 1.02-7.95 3.05-.18 2.1 3.05 4.07 7.29 4.42Zm152.81-78.83c.48-4.18-1.13-7.83-3.64-8.13-2.51-.3-4.9 2.87-5.38 7.05-.48 4.19 1.14 7.83 3.65 8.13 2.51.3 4.9-2.87 5.37-7.05ZM164.04 438.07c2.46 4.6 6.04 7.54 7.9 6.52 1.9-1.02 1.43-5.56-1.08-10.16-2.45-4.6-5.98-7.53-7.9-6.51-1.84 1.01-1.37 5.55 1.08 10.15Zm79.19-184.12c5.14-1.07 8.49-5.8 7.47-10.58-.96-4.78-5.92-7.82-11.06-6.75-5.14 1.08-8.48 5.8-7.47 10.58.96 4.78 5.92 7.83 11.06 6.75Z"/><path fill="#E26F56" d="M690.6 197.36c3.17-4.12 3.4-9.32.54-11.53-2.87-2.22-7.83-.66-11 3.46-3.16 4.19-3.4 9.33-.53 11.54 2.87 2.2 7.82.65 11-3.53v.06Z"/><path fill="#E0D6FF" d="M972.55 96.6c-.3 5.25 2.45 9.62 6.1 9.8 3.64.17 6.81-3.89 7.11-9.09.3-5.26-2.45-9.62-6.1-9.8-3.64-.18-6.8 3.89-7.1 9.15v-.06Z"/><path fill="#324CD3" d="M1326.83 314.08c1.68-4.96-.71-10.28-5.38-11.84-4.66-1.6-9.8 1.14-11.47 6.1s.72 10.28 5.38 11.83c4.66 1.62 9.8-1.13 11.47-6.1Z"/><path fill="#E0D6FF" d="M1206.05 432.88c4.6-2.51 7.11-6.76 5.61-9.56-1.49-2.75-6.45-3-11.05-.48-4.6 2.5-7.11 6.75-5.62 9.56 1.49 2.75 6.45 2.99 11.06.48Z"/><path fill="#324CD3" d="M1283.31 132.34c2.81-4.43 2.4-9.69-.95-11.78-3.29-2.09-8.25-.18-11 4.25-2.81 4.42-2.39 9.68.9 11.77 3.29 2.1 8.25.18 10.99-4.24h.06Zm514.78 342.58c-.54 5.2 1.49 9.68 4.54 9.98 2.99.3 5.85-3.7 6.39-8.9.48-5.2-1.49-9.69-4.54-9.98-2.99-.3-5.86 3.7-6.39 8.9Z"/><path fill="#E26F56" d="M1792.43 194.79c4.3 2.99 9.08 3.58 10.63 1.31 1.56-2.27-.59-6.51-4.9-9.5-4.3-2.99-9.08-3.59-10.64-1.31-1.55 2.27.66 6.5 4.91 9.5Z"/><path fill="#324CD3" d="M1863.6 205.96c2.09 4.78 6.28 7.6 9.39 6.28 3.1-1.38 3.94-6.34 1.85-11.12-2.09-4.78-6.28-7.59-9.38-6.27-3.11 1.31-3.95 6.33-1.86 11.11Z"/><path fill="#7E92F1" d="M122.93 246c.77 6.16 4.72 10.7 8.9 10.16 4.13-.48 6.88-5.91 6.16-12.07-.78-6.16-4.72-10.7-8.9-10.16-4.13.54-6.88 5.92-6.1 12.07h-.06Z"/><path fill="#324CD3" d="M208.27 325.9c3.58-5.01 4.78-10.33 2.69-11.83-2.1-1.5-6.7 1.38-10.34 6.4-3.59 5.02-4.78 10.34-2.69 11.83 2.1 1.5 6.7-1.37 10.34-6.4ZM793.03 57.04c-.3 6.15 1.02 11.23 2.87 11.35 1.85.06 3.53-4.9 3.83-11.05.24-6.22-1.02-11.24-2.87-11.36-1.86-.06-3.53 4.84-3.77 11.06h-.06Z"/><path fill="#E0D6FF" d="M1244.23 544.27c-1.01-6.1-3.58-10.75-5.73-10.4-2.15.36-3.11 5.62-2.09 11.72 1.01 6.1 3.58 10.75 5.73 10.4 2.15-.36 3.11-5.62 2.09-11.72Z"/><path fill="#7E92F1" d="M1552.93 87.46c6.15.66 11.29-.3 11.47-2.15.18-1.86-4.66-3.83-10.82-4.48-6.15-.66-11.29.3-11.47 2.15-.18 1.79 4.66 3.82 10.82 4.48Zm123.8 294.38c-.24 6.22 2.99 11.3 7.17 11.47 4.18.12 7.71-4.78 7.89-10.93.24-6.16-2.99-11.3-7.17-11.48-4.19-.12-7.71 4.78-7.89 10.94Z"/><path fill="#324CD3" d="M1754.12 178.35c.24 6.22 2.27 11.12 4.54 11.06 2.27-.06 3.95-5.14 3.71-11.35-.24-6.16-2.27-11.12-4.55-11.06-2.27.06-3.94 5.14-3.7 11.35Z"/><path fill="#E0D6FF" d="M173.13 10.9c-1.44-7-5.2-12.13-8.3-11.47-3.12.65-4.5 6.87-3.06 13.86 1.5 7 5.2 12.13 8.31 11.48 3.1-.66 4.48-6.88 3.05-13.87Z"/><path fill="#E26F56" d="M455.5 301.34c3.7 6.1 10.28 8.9 14.64 6.22 4.37-2.7 4.96-9.8 1.26-15.9s-10.28-8.9-14.64-6.22c-4.37 2.7-4.96 9.8-1.26 15.9Z"/><path fill="#324CD3" d="M541.56 265.54c0-7.1-1.86-12.9-4.13-12.9-2.27 0-4.12 5.8-4.12 12.9 0 7.11 1.85 12.91 4.12 12.91s4.13-5.8 4.13-12.9Z"/><path fill="#7E92F1" d="M621.94 543.62c3.17-6.4 1.07-13.93-4.78-16.86-5.86-2.92-13.15-.12-16.32 6.28s-1.07 13.92 4.78 16.85c5.86 2.93 13.15.12 16.32-6.27Z"/><path fill="#E26F56" d="M827.1 453.44c.71 7.1 4.06 12.6 7.53 12.25 3.46-.36 5.67-6.4 4.96-13.5-.72-7.12-4.07-12.62-7.53-12.26-3.47.36-5.68 6.4-4.96 13.5Z"/><path fill="#7E92F1" d="M895.52 81.6c1.67 6.93 7.4 11.47 12.73 10.21 5.32-1.31 8.24-8 6.57-14.94-1.67-6.93-7.41-11.47-12.73-10.16-5.32 1.32-8.25 8.01-6.57 14.95v-.06Z"/><path fill="#324CD3" d="M1244.06 343.3c7.11.78 12.97.18 13.15-1.37.18-1.56-5.44-3.47-12.55-4.25-7.11-.77-12.97-.18-13.15 1.38-.18 1.55 5.44 3.46 12.55 4.24Z"/><path fill="#7E92F1" d="M1337.25 416.83c-1.2-7.05-6.82-11.95-12.61-11-5.8.96-9.5 7.48-8.31 14.53 1.2 7.05 6.87 11.95 12.61 11 5.74-.96 9.44-7.48 8.31-14.53Z"/><path fill="#E0D6FF" d="M1361.9 215.94c3.59-6.15 1.86-13.92-4-17.33-5.86-3.4-13.51-1.2-17.09 4.96-3.59 6.16-1.85 13.93 4 17.33 5.86 3.4 13.51 1.2 17.09-4.96Zm52.6 89.64c0 7.12 4.84 12.97 10.81 12.97 5.98 0 10.82-5.8 10.88-12.9 0-7.12-4.84-12.91-10.82-12.97-5.97 0-10.82 5.8-10.82 12.9h-.05Z"/><path fill="#E26F56" d="M1508.68 126.18c3.64-6.15 2.39-13.62-2.81-16.67-5.2-3.05-12.31-.6-15.96 5.56-3.64 6.15-2.39 13.62 2.81 16.67 5.2 3.05 12.31.54 15.96-5.56ZM395.27 519.56c-.48-7.11-4.9-12.61-9.92-12.31-5.02.3-8.67 6.4-8.25 13.5.48 7.11 4.9 12.67 9.92 12.31 5.02-.35 8.67-6.4 8.25-13.5Z"/><path fill="#7E92F1" d="M412.83 350.53c-2.15 7.77 2.21 15.77 9.68 17.87 7.53 2.09 15.36-2.57 17.51-10.34 2.15-7.77-2.2-15.78-9.68-17.87-7.53-2.1-15.36 2.5-17.5 10.34Z"/><path fill="#E26F56" d="M652.17 45.68c6.94-4.12 10.94-10.33 8.79-13.86-2.1-3.53-9.44-3.05-16.38 1.07-6.93 4.13-10.87 10.34-8.78 13.87 2.1 3.53 9.44 3.05 16.38-1.08ZM403.84 220.04c6.93 4.25 14.64 4.19 17.2-.06 2.64-4.3-.89-11.17-7.76-15.35-6.93-4.25-14.64-4.19-17.21.06-2.63 4.3.9 11.17 7.77 15.35ZM1016.36 99.1c8.07-.53 14.52-2.38 14.4-4.11-.12-1.74-6.75-2.7-14.82-2.16s-14.52 2.4-14.4 4.13c.12 1.73 6.75 2.69 14.82 2.15Zm158.13 487.3c3.35-7.35 2.39-15-2.09-17.03-4.48-2.03-10.82 2.27-14.16 9.68-3.35 7.36-2.39 15 2.09 17.04 4.48 2.03 10.82-2.27 14.16-9.69Zm292.6-548.07c-2.16-7.77-6.04-13.5-8.67-12.79-2.63.72-3.05 7.65-.9 15.42 2.16 7.83 6.04 13.5 8.67 12.8 2.63-.73 3.05-7.66.9-15.43Zm72.96 329.83c-2.57-7.65-6.33-13.33-8.42-12.61-2.04.72-1.62 7.47.95 15.12 2.57 7.65 6.4 13.33 8.43 12.6 2.03-.7 1.61-7.46-.96-15.11Z"/><path fill="#7E92F1" d="M1669.91 27.06c1.31-7.95.12-14.82-2.63-15.3-2.81-.48-6.1 5.61-7.41 13.62-1.32 8.01-.12 14.82 2.63 15.3 2.75.48 6.09-5.62 7.41-13.62Z"/><path fill="#E26F56" d="M1678.46 611.38c5.2 6.22 11.95 9.09 15.18 6.4 3.23-2.7 1.55-9.86-3.59-16.08-5.2-6.21-11.95-9.08-15.18-6.4-3.16 2.7-1.61 9.87 3.59 16.08Z"/><path fill="#324CD3" d="M1897.67 662c5.97 5.44 14.64 5.68 19.36.54 4.72-5.2 3.7-13.8-2.27-19.24-5.98-5.44-14.64-5.68-19.36-.48-4.73 5.2-3.71 13.8 2.27 19.24V662ZM25.64 9.4c8.12-3.94 11.95-12.78 8.6-19.83-3.4-7-12.73-9.5-20.86-5.56-8.12 3.94-12 12.79-8.6 19.84 3.4 7 12.73 9.5 20.92 5.56h-.06Z"/><path fill="#E0D6FF" d="M170.5 6.66c5.26-7.35 8.13-14.28 6.45-15.48-1.67-1.2-7.23 3.82-12.49 11.24-5.26 7.35-8.13 14.28-6.45 15.47 1.67 1.2 7.23-3.82 12.49-11.23Z"/><path fill="#324CD3" d="M327.37 364.8c3.35-8.42.66-17.32-5.92-19.95-6.57-2.63-14.64 2.09-17.92 10.51-3.35 8.43-.66 17.33 5.91 19.96 6.58 2.63 14.64-2.09 17.93-10.51Zm204.03 77.1c3.1 8.49 8.3 14.4 11.59 13.2 3.29-1.19 3.47-9.08.42-17.56-3.1-8.49-8.3-14.4-11.6-13.2-3.28 1.19-3.46 9.08-.41 17.56Z"/><path fill="#7E92F1" d="M497.98 131.06c8.6 2.8 17.33-.3 19.48-6.94 2.15-6.63-3.05-14.28-11.66-17.09-8.6-2.8-17.33.3-19.48 6.94-2.15 6.63 3.05 14.28 11.66 17.09Z"/><path fill="#324CD3" d="M721.54 118.89c6.88 5.85 14.65 8.06 17.34 4.95 2.69-3.16-.78-10.45-7.65-16.31-6.88-5.86-14.64-8.07-17.27-4.96-2.7 3.17.77 10.46 7.64 16.32h-.06Z"/><path fill="#7E92F1" d="M1566.53 615.87c3.94 8.12 10.16 13.26 13.86 11.47 3.77-1.8 3.59-9.86-.3-17.99-3.94-8.13-10.16-13.26-13.86-11.47-3.77 1.8-3.59 9.86.3 18.05v-.06Z"/><path fill="#E0D6FF" d="M53.54 506.63c9.45 3.04 18.41 1.43 20.02-3.53 1.62-5.02-4.72-11.53-14.16-14.58-9.44-3.05-18.4-1.44-20.02 3.52-1.61 5.02 4.72 11.54 14.16 14.58Z"/><path fill="#324CD3" d="M134.22 147.7c4.43-8.9 6.34-16.92 4.25-18-2.1-1.07-7.41 5.33-11.84 14.17-4.42 8.9-6.33 16.91-4.24 17.99 2.1 1.01 7.41-5.32 11.83-14.17Z"/><path fill="#7E92F1" d="M221.47 666.96a17.94 17.94 0 0 0-11.41-22.65 17.95 17.95 0 0 0-22.65 11.48 17.86 17.86 0 0 0 11.41 22.65 17.95 17.95 0 0 0 22.65-11.48Zm359.77.06c9.08-4 13.38-14.16 9.62-22.64-3.77-8.5-14.16-12.08-23.25-8.07-9.08 4-13.38 14.16-9.62 22.65 3.76 8.48 14.16 12.07 23.25 8.06Z"/><path fill="#E0D6FF" d="M655.58 23.15c6.1-7.83 7.83-16.67 3.88-19.78-3.94-3.1-12.13.78-18.22 8.6-6.1 7.84-7.83 16.68-3.89 19.79 3.95 3.1 12.13-.78 18.23-8.6Z"/><path fill="#7E92F1" d="M781.38 48.31c4.25 8.97 14.4 13.1 22.65 9.15 8.25-3.89 11.54-14.35 7.3-23.31-4.25-8.96-14.4-13.09-22.66-9.2-8.24 3.88-11.53 14.34-7.29 23.36Zm227.39-40.64c4.37 8.9 12.19 14.05 17.51 11.48 5.32-2.57 6.04-11.96 1.68-20.86-4.37-8.9-12.2-14.04-17.51-11.47-5.32 2.57-6.04 11.95-1.68 20.85Z"/><path fill="#324CD3" d="M1241.07 658.3c9.92-.6 17.63-6.28 17.21-12.73-.42-6.4-8.72-11.12-18.65-10.52-9.92.6-17.62 6.27-17.21 12.73.36 6.4 8.73 11.11 18.65 10.51Zm223.8-489.15c7.83-6.1 13.09-12.5 11.66-14.34-1.44-1.86-8.97 1.6-16.79 7.64-7.83 6.1-13.09 12.5-11.66 14.35 1.44 1.85 8.97-1.62 16.79-7.65Zm56.42 324.03c.54 9.92 7.65 17.57 15.95 17.15 8.31-.42 14.59-8.85 14.05-18.77-.54-9.92-7.65-17.63-15.96-17.15-8.3.42-14.58 8.85-14.04 18.77Z"/><path fill="#7E92F1" d="M1893.84 212.66c-1.67 9.8 2.57 18.64 9.44 19.78 6.88 1.13 13.75-5.86 15.42-15.66 1.68-9.8-2.57-18.65-9.44-19.84-6.87-1.14-13.75 5.85-15.42 15.66v.06ZM22.17 278.51c10.64-1.85 18.1-10.34 16.61-18.94-1.5-8.6-11.35-14.1-21.99-12.31C6.15 249.1-1.26 257.6.18 266.2c1.5 8.6 11.3 14.17 21.99 12.31Z"/><path fill="#E0D6FF" d="M160.94 484.03c7.47 7.77 16.43 11.36 20.08 7.9 3.58-3.48.42-12.56-7.05-20.39s-16.5-11.35-20.08-7.89c-3.59 3.47-.42 12.55 7.05 20.38Z"/><path fill="#324CD3" d="M243.17 501.78c10.22-3.46 17.75-8.54 16.79-11.35-.96-2.75-9.98-2.21-20.26 1.25-10.22 3.47-17.75 8.55-16.85 11.36.95 2.75 10.04 2.21 20.26-1.26h.06Zm945.13-272.53c9.92 4.24 21.09.42 24.98-8.54 3.82-8.97-1.08-19.73-11-23.97-9.92-4.24-21.1-.48-24.98 8.55-3.83 8.96 1.08 19.72 11 23.96Zm236.3 427.67c10.75.84 19.84-2.57 20.2-7.59.36-5.02-8.01-9.74-18.83-10.51-10.75-.84-19.84 2.57-20.2 7.59-.36 5.02 8.07 9.74 18.83 10.51Zm86.17-597.85a19.58 19.58 0 0 0 4.3-27.31 19.56 19.56 0 0 0-31.61 23.07 19.56 19.56 0 0 0 27.31 4.24Zm122.32 169.37c6.63-8.48 9.32-17.57 5.92-20.2-3.41-2.63-11.54 2.1-18.23 10.64-6.64 8.55-9.27 17.57-5.92 20.2 3.41 2.63 11.54-2.1 18.23-10.64Z"/><path fill="#7E92F1" d="M1725.14 351.55c6.75-8.43 10.57-16.62 8.42-18.35-2.09-1.74-9.38 3.7-16.13 12.13-6.76 8.43-10.58 16.61-8.43 18.35 2.09 1.73 9.38-3.7 16.14-12.13Z"/><path fill="#324CD3" d="M1779.22 574.75c3.41 10.28 13.33 16.2 22.17 13.27 8.85-2.93 13.27-13.63 9.92-23.9-3.4-10.28-13.33-16.2-22.17-13.27-8.84 2.92-13.27 13.62-9.92 23.9Z"/><path fill="#7E92F1" d="M1884.82 600.4c1.31-10.7-4.54-20.33-13.15-21.4-8.61-1.08-16.67 6.75-17.99 17.45-1.31 10.75 4.54 20.32 13.15 21.4 8.6 1.07 16.67-6.76 17.99-17.46Z"/><path fill="#E0D6FF" d="M699.66 195.42c3.31 1.04 6.43.5 6.97-1.1.5-1.62-1.83-3.75-5.14-4.79-3.31-1.04-6.43-.5-6.92 1.09-.5 1.63 1.83 3.76 5.14 4.8h-.05Z"/></svg>