<svg xmlns="http://www.w3.org/2000/svg" width="964" height="147" fill="none"><path fill="#2346E6" d="M52 42.7v-.1l-.1.1Z"/><path fill="#4D6DFB" d="M70.6 117.4h.1-.2ZM107.8 117.8h.2l-.1-.2h-.2l.1.2Z"/><path fill="#2243DA" d="M145.2 20.2V20h-.2v.2h.2Z"/><path fill="#4D6DFB" d="M182.4 57.4v-.2h-.1v.2h.1Z"/><path fill="#E26F56" d="M201 114.1c.1 0 0-.1 0-.2h-.1v.2Z"/><path fill="#2243DA" d="m238.2 37.4.1-.1-.2.1h.1ZM294 25.5h.2v-.2h-.2v.2Z"/><path fill="#4D6DFB" d="M331.4 142.5c-.1 0-.1 0 0 0v.2-.2Z"/><path fill="#2243DA" d="m350 116 .1-.1s0-.1-.2 0v.1ZM424.5 36s.1 0 0-.1h-.1c0 .1 0 .1.1 0Z"/><path fill="#4D6DFB" d="M23.5 58c0 .3.3.5.5.5.3 0 .6-.2.6-.6 0-.3-.3-.6-.6-.5-.3 0-.5.2-.5.6Z"/><path fill="#E26F56" d="M42.2 18c.2.3.5.4.8.2.2-.1.3-.5.1-.7a.6.6 0 0 0-.8-.3c-.2.2-.3.5-.1.8Z"/><path fill="#4D6DFB" d="M60.9 130.1c.2.3.6.3.8.2.2-.2.1-.5 0-.8-.3-.2-.6-.3-.8-.1-.2.2-.2.5 0 .7Z"/><path fill="#2243DA" d="M80 39.6c.3 0 .5-.3.5-.5s-.4-.3-.7-.2c-.3 0-.5.3-.5.5s.4.3.7.2ZM116.9 79c0 .3 0 .6.2.6.1 0 .3-.2.3-.5l-.1-.6c-.2 0-.3.2-.4.5ZM135.9 107l.4-.5-.6.1c-.3.2-.5.4-.4.5l.6-.2ZM247.8 40c.2-.2.2-.5.1-.6-.1-.1-.4 0-.6.2-.2.3-.3.6-.1.7.1.1.4 0 .6-.3Z"/><path fill="#2346E6" d="M322.1 136.5c.3-.1.5-.3.5-.4h-.6c-.3.1-.6.3-.5.4h.6Z"/><path fill="#2243DA" d="M396.6 35.3c.3 0 .5-.3.5-.6 0-.2-.3-.4-.6-.4s-.6.2-.5.5c0 .3.3.5.6.5Z"/><path fill="#E26F56" d="m415.2 53.4.5-.1-.5-.2c-.4 0-.6.1-.6.2l.6.1Z"/><path fill="#2346E6" d="M434.2 2.7c.2-.3.2-.6 0-.8-.2-.2-.5-.2-.8 0-.2.3-.2.6 0 .8.2.2.5.2.8 0ZM52.1 122.7c.6-.1 1-.5.9-.8-.1-.3-.6-.4-1.2-.3-.5.2-.9.5-.8.8 0 .3.6.5 1.1.3Z"/><path fill="#4D6DFB" d="M70 63c.2.5.4 1 .7 1 .3 0 .5-.6.4-1.1 0-.6-.3-1-.6-1s-.5.5-.4 1ZM89 79c.6.2 1 .4 1.1.2 0-.1-.2-.5-.7-.7-.5-.3-1-.4-1-.3-.2.2.2.5.7.8Z"/><path fill="#E0D6FF" d="M107 13c0 .6.2 1.1.6 1.2.4.1.9-.2 1-.8.1-.5-.1-1-.5-1.1-.5-.1-.9.2-1 .8Z"/><path fill="#2346E6" d="M163.1 63.2c0 .5.2 1 .5 1s.6-.3.7-.9c0-.5-.1-1-.5-1-.3-.1-.6.3-.7.9ZM201.3 142.8c0-.6-.2-1-.4-1s-.3.4-.3 1 .2 1 .4 1 .3-.5.3-1Z"/><path fill="#E26F56" d="M239 117.5c.2-.4.2-1-.2-1.3-.3-.3-1-.1-1.2.3-.4.5-.3 1 0 1.3.4.3 1 .2 1.3-.3Z"/><path fill="#2243DA" d="M257.7 44.4c-.2-.5-.7-.8-1.2-.7-.4.2-.7.7-.5 1.3.2.5.7.8 1.2.7.4-.2.7-.7.5-1.3Z"/><path fill="#2346E6" d="M274.8 3.2c.2.6.6.9 1 .8.3-.1.5-.6.3-1.2-.1-.5-.5-.9-1-.8-.3.1-.5.7-.3 1.2Z"/><path fill="#2243DA" d="M294.3 107.7c.4-.4.7-.7.6-.9 0 0-.5.1-1 .5-.4.3-.7.7-.6.8 0 .1.5 0 1-.4Z"/><path fill="#E0D6FF" d="M313.2 66.9c.5-.3.7-.9.4-1.4a1 1 0 0 0-1.3-.4 1 1 0 1 0 .9 1.8Z"/><path fill="#2243DA" d="M349.5 56.2c.3.5.9.7 1.1.4.3-.2.2-.7-.1-1.2-.4-.4-.9-.6-1.2-.3-.2.2-.2.7.2 1.1Z"/><path fill="#E0D6FF" d="M369.2 15c0-.5-.3-1-.7-1-.3 0-.6.5-.5 1.1 0 .6.3 1 .7 1 .3 0 .6-.5.5-1Z"/><path fill="#E26F56" d="M443 142.6c.6.1 1 .2 1 0 .1 0-.3-.3-.8-.4-.6-.2-1-.2-1-.1-.1.1.3.3.8.5Z"/><path fill="#2243DA" d="M4.4 85.9c-.3.7 0 1.5.5 1.7.5.2 1.2-.2 1.5-1 .3-.7 0-1.5-.5-1.7-.5-.2-1.2.2-1.5 1Z"/><path fill="#2346E6" d="M23.7 1.1c-.2.8-.2 1.5 0 1.5.1 0 .5-.5.7-1.3.2-.8.2-1.5 0-1.5s-.5.5-.7 1.3Z"/><path fill="#2243DA" d="M60.7 122.3c-.1.8 0 1.5.4 1.6.3 0 .6-.6.8-1.4 0-.8 0-1.5-.4-1.6-.3 0-.7.6-.8 1.4Z"/><path fill="#4D6DFB" d="M80.3 40.7c.1-.8 0-1.5-.2-1.5s-.5.6-.6 1.4c-.1.8 0 1.5.2 1.5s.5-.6.6-1.4Z"/><path fill="#2243DA" d="M174 33.6c.4-.8.3-1.6-.3-1.9-.5-.2-1.2.1-1.6.9-.4.7-.3 1.5.2 1.8.6.3 1.3-.1 1.7-.8Z"/><path fill="#E26F56" d="M192.5 27.5c.6-.6.7-1.4.2-2-.5-.4-1.4-.3-2 .2-.5.6-.6 1.5 0 2 .4.5 1.3.4 1.8-.2Z"/><path fill="#4D6DFB" d="M246.6 13.7c.6.6 1.6.5 2-.1.6-.6.5-1.6-.2-2-.6-.6-1.5-.5-2 0-.5.7-.4 1.6.2 2.1Z"/><path fill="#2346E6" d="M284 41.6c.6.7 1.3 1 1.7.7.3-.2.3-1-.2-1.7-.5-.6-1.2-1-1.6-.7-.4.3-.3 1 .2 1.7ZM322.3 50.7c-.3-.7-.6-1.3-.8-1.2-.2 0 0 .7.2 1.5.3.7.7 1.3.9 1.3.1-.1 0-.8-.3-1.6ZM340.2 109.6c0 .8.3 1.5.6 1.4.3 0 .4-.7.4-1.5-.1-.8-.4-1.5-.7-1.4-.3 0-.4.7-.3 1.5ZM395.8 14.7c0 .8.3 1.5.7 1.5.4 0 .7-.7.7-1.5 0-.9-.3-1.5-.6-1.5-.4 0-.7.6-.8 1.5ZM453.2 7.6c.4-.7.5-1.5 0-1.8-.4-.2-1 0-1.6.7-.4.7-.5 1.5 0 1.8.4.3 1.1 0 1.6-.7Z"/><path fill="#4D6DFB" d="M471.5 8.3c.2-.8.1-1.5 0-1.6-.3 0-.7.6-.9 1.4-.2.8-.1 1.5 0 1.5.3 0 .7-.5.9-1.3Z"/><path fill="#E26F56" d="M16 20.8c.4-1 .3-2-.4-2.4-.6-.4-1.6 0-2.1 1s-.4 2 .3 2.4c.6.3 1.6-.1 2.1-1Z"/><path fill="#2346E6" d="M32.2 93.9c0 1 .5 1.9 1.1 2 .6 0 1.1-1 1.1-2s-.4-2-1-2-1.1 1-1.2 2Z"/><path fill="#2243DA" d="M88.4 54.9c-.2 1 0 2 .4 2 .4.1 1-.6 1.2-1.7.3-1 .1-2-.3-2-.5-.1-1 .6-1.3 1.7Z"/><path fill="#E0D6FF" d="M109.4 99.6c-.3-1-1.3-1.6-2.1-1.4-.9.3-1.3 1.4-1 2.4.3 1 1.2 1.6 2 1.3 1-.2 1.4-1.3 1.1-2.3Z"/><path fill="#E26F56" d="M126.5 58.4c1-.1 2-.8 1.9-1.5 0-.8-1-1.4-2-1.4-1 .1-1.9.8-1.9 1.6 0 .7 1 1.3 2 1.3Z"/><path fill="#2346E6" d="M221.3 38c-.1-1-1-1.8-2-1.7-.9.1-1.5 1-1.4 2.1.1 1 1 1.8 2 1.7.9-.1 1.5-1 1.4-2V38Z"/><path fill="#4D6DFB" d="M295.3 78c.6-.9.5-2-.2-2.4-.6-.4-1.7 0-2.2 1-.6.8-.5 1.9.2 2.3.7.4 1.7 0 2.2-.9Z"/><path fill="#E0D6FF" d="M314.3 120c-.2-1-1-1.8-1.9-1.6-.8.1-1.4 1-1.2 2.1.1 1 1 1.8 1.8 1.7.9-.1 1.4-1.1 1.3-2.2Z"/><path fill="#2346E6" d="M351.4 71c0-1.1-.8-2-1.6-1.9-.8 0-1.3 1-1.3 2 .1 1.1.8 2 1.6 1.9.8 0 1.4-1 1.3-2Z"/><path fill="#2243DA" d="M369 77c.7-.7 1.2-1.5 1-1.7-.2-.2-1 .3-1.8 1-.7.7-1.2 1.5-1 1.7.2.2 1-.2 1.8-1Z"/><path fill="#4D6DFB" d="M4.6 32.2c1.1.6 2.5.3 3-.6.4-.9-.2-2-1.4-2.7-1.1-.6-2.5-.3-3 .6-.4.9.2 2.1 1.4 2.7Z"/><path fill="#2346E6" d="M24.5 121.3c.9-1 1.3-2.1 1-2.3-.3-.2-1.2.4-2 1.5-.8 1-1.2 2-1 2.2.3.3 1.2-.4 2-1.4Z"/><path fill="#4D6DFB" d="M80.2 3a2.4 2.4 0 0 0 2-2.7 2.4 2.4 0 0 0-2.6-2 2.4 2.4 0 0 0-2 2.7 2.4 2.4 0 0 0 2.6 2Z"/><path fill="#2243DA" d="M118.5 68c-.2-1.2-1-2.2-1.8-2-.7 0-1.2 1.3-1 2.6.3 1.3 1.1 2.2 1.9 2 .8 0 1.2-1.3 1-2.6Z"/><path fill="#E0D6FF" d="M136.2 74.9c1-1 1.6-1.9 1.4-2.1-.3-.3-1.3.2-2.3 1-1 1-1.5 1.9-1.3 2.2.3.2 1.2-.3 2.2-1.1Z"/><path fill="#E26F56" d="M190.9 82.7c.6 1.2 1.5 1.9 2 1.6.4-.2.2-1.4-.4-2.5-.7-1.1-1.6-1.9-2-1.6-.5.3-.3 1.4.4 2.5ZM229.8 101.9c1-1 1.3-2.1.8-2.7-.5-.5-1.7-.2-2.6.7-1 1-1.3 2.1-.8 2.6.5.6 1.7.3 2.6-.6Z"/><path fill="#2243DA" d="M284.8 89.3c1.4-.1 2.4-.5 2.4-1 0-.3-1.1-.6-2.5-.5-1.3.1-2.3.5-2.3 1 0 .3 1.1.6 2.5.5ZM358 108.9c.6 1.2 1.5 2 2.2 1.7.7-.3.8-1.5.3-2.7-.5-1.2-1.4-2-2.1-1.7-.7.2-.8 1.5-.3 2.7Z"/><path fill="#E0D6FF" d="M378 7.8c1.2 0 2.3-.4 2.3-1 0-.5-1-1-2.4-1-1.3 0-2.4.5-2.4 1s1.1 1 2.4 1ZM91 85c.8-1.3.7-2.9-.3-3.5-1-.6-2.5 0-3.3 1.3-.8 1.3-.7 3 .4 3.5 1 .6 2.4 0 3.2-1.3Z"/><path fill="#E26F56" d="M108.4 147c.2-1.5.1-2.8-.2-2.8-.3 0-.7 1.1-1 2.7-.1 1.5 0 2.8.2 2.8.4 0 .8-1.1 1-2.7ZM184.2 3.1C184 1.6 183 .5 182 .7c-1 .2-1.7 1.6-1.5 3.1.3 1.5 1.4 2.6 2.4 2.5 1-.2 1.7-1.6 1.4-3.2Z"/><path fill="#2346E6" d="M240.3 130.8c-.4-1.5-1.6-2.5-2.7-2.3-1.2.3-1.8 1.7-1.4 3.2.3 1.5 1.6 2.6 2.7 2.3 1-.3 1.7-1.7 1.3-3.2Z"/><path fill="#E26F56" d="M259.1 150.4c.7-1.4.3-3-1-3.7-1.3-.6-2.9 0-3.5 1.5-.7 1.4-.3 3 1 3.6 1.3.6 2.9 0 3.5-1.4Z"/><path fill="#4D6DFB" d="M329.3 109.6c.6 1.4 2 2.1 3.2 1.6 1.2-.5 1.6-2.1 1-3.5-.7-1.4-2.2-2.1-3.3-1.6-1.2.5-1.6 2-1 3.5ZM349 73.3c-.6 1.5-.5 2.8 0 3 .6.2 1.5-.8 2-2.3.5-1.4.5-2.8 0-3-.6-.2-1.5.8-2 2.3Z"/><path fill="#E26F56" d="M366 55.6c-.4 1.5.5 3 1.9 3.4 1.4.4 3-.5 3.3-2 .4-1.5-.4-3-1.9-3.4-1.4-.4-2.9.5-3.3 2ZM59 149.8c.6 1.6 2.1 2.7 3.4 2.2 1.3-.5 1.8-2.2 1.2-4-.6-1.6-2.1-2.6-3.4-2.1-1.3.4-1.8 2.2-1.2 3.9Z"/><path fill="#2346E6" d="M170.4 103c-.1 1.9.9 3.4 2.3 3.6 1.5.1 2.8-1.2 3-3 .1-1.8-1-3.4-2.4-3.5-1.4-.1-2.7 1.2-2.9 3ZM193 100.4c-.1-1.8-1-3.1-1.7-3-.8 0-1.3 1.6-1 3.4.2 1.8 1 3.1 1.8 3 .7 0 1.2-1.6 1-3.4ZM283.2 126.5c.4 1.8 1.4 3 2.3 2.8.9-.2 1.3-1.7.9-3.5-.4-1.7-1.5-3-2.3-2.8-.9.2-1.3 1.8-.9 3.5Z"/><path fill="#4D6DFB" d="M304.5 129.1c.4-1.7.3-3.2-.3-3.4-.6-.1-1.5 1.2-1.9 3-.4 1.7-.3 3.2.4 3.3.6.2 1.4-1.1 1.8-2.9Z"/><path fill="#E0D6FF" d="M412.3 111.2c.2 1.7 1.8 3 3.4 2.7 1.6-.2 2.7-1.9 2.4-3.7-.3-1.7-1.8-3-3.4-2.7-1.6.2-2.7 1.9-2.4 3.7Z"/><path fill="#2243DA" d="M80.8 30.6c1.5-1.4 2-3.3 1-4.3-.9-1-2.9-.6-4.3.8-1.5 1.4-2 3.3-1 4.3s2.9.6 4.3-.8Z"/><path fill="#2346E6" d="M53.4 117c.3-2 0-3.7-.8-3.9-.9-.1-1.8 1.4-2 3.4-.4 2 0 3.8.8 4 .8 0 1.7-1.5 2-3.5Z"/><path fill="#E0D6FF" d="M127.5 25.4c1.7-1 2.7-2.6 2.1-3.6-.5-1-2.4-1-4.2.1-1.7 1-2.7 2.6-2.1 3.6.5 1 2.4 1 4.2 0ZM145.8 85.4c1.5-1.4 2.4-2.8 2-3.3-.4-.4-2 .4-3.4 1.8-1.5 1.4-2.4 2.8-2 3.3.4.4 2-.4 3.4-1.8Z"/><path fill="#E26F56" d="M199.4 70.2c0 2 .5 3.7 1.4 3.7.8 0 1.6-1.5 1.7-3.6.1-2-.5-3.7-1.3-3.7-.9 0-1.7 1.6-1.8 3.6Z"/><path fill="#4D6DFB" d="M277 87.7c1.8-1 2.6-3 1.7-4.7-.9-1.5-3-2-4.8-1-1.8 1-2.5 3-1.7 4.6 1 1.6 3 2 4.9 1Z"/><path fill="#2243DA" d="M353.3 122.4c0-2-1.3-3.7-3.1-3.9-1.8 0-3.4 1.5-3.5 3.6-.1 2 1.3 3.7 3 3.8 1.9.1 3.5-1.5 3.6-3.5Z"/><path fill="#4D6DFB" d="M444.5 29.2c.6-2 .5-3.7-.2-4-.8-.2-2 1.2-2.6 3-.6 2-.5 3.8.2 4 .8.3 2-1 2.6-3Z"/><path fill="#E0D6FF" d="M28 134c.5-2.3-.9-4.5-3.1-5a4.1 4.1 0 0 0-1.7 8.1c2.2.5 4.4-1 4.8-3.1Z"/><path fill="#2243DA" d="M99.5 42.6c1-2 1.5-3.9 1-4.1-.5-.3-1.8 1.1-2.9 3.1-1 2-1.5 3.9-1 4.2.5.2 1.8-1.2 2.9-3.2Z"/><path fill="#4D6DFB" d="M115 132.9c1.6 1.5 4 1.6 5.2.2 1.3-1.4.9-3.8-.8-5.3-1.7-1.5-4.1-1.6-5.3-.2-1.3 1.4-.9 3.8.8 5.3ZM263.3 109.4c-.5 2.3.4 4.4 2 4.7 1.5.4 3.2-1.1 3.7-3.4.5-2.2-.4-4.3-2-4.6-1.5-.4-3.2 1.1-3.7 3.4Z"/><path fill="#E0D6FF" d="M285.6 138.2c1-2 1.4-4 1-4.1-.5-.2-1.6 1.3-2.6 3.3-1 2-1.4 3.9-1 4.1.5.2 1.6-1.3 2.6-3.3ZM300.9 129.6c1.6 1.6 4.1 1.6 5.5.1 1.4-1.5 1.2-4-.4-5.5-1.7-1.6-4.2-1.6-5.6-.1-1.4 1.5-1.2 4 .5 5.5Z"/><path fill="#2243DA" d="M360.1 134.8c1.9-1.4 3-3 2.5-3.6-.5-.7-2.3 0-4.2 1.3-1.8 1.3-2.9 3-2.4 3.6.4.6 2.3 0 4.1-1.3Z"/><path fill="#4D6DFB" d="M379.6 105c1.4-1.8 1.8-3.8.9-4.6-1-.7-2.8.1-4.3 2-1.4 1.7-1.8 3.7-.8 4.5.9.7 2.8-.1 4.2-2Z"/><path fill="#E26F56" d="M450.1 144c.3 2.3 1.6 4 2.8 3.8 1.3-.2 2-2.1 1.8-4.4-.3-2.2-1.6-4-2.8-3.8-1.3.2-2 2.2-1.8 4.4Z"/><path fill="#2243DA" d="M69.5 106.4c2.3.9 4.7.2 5.3-1.5.7-1.7-.8-3.8-3.1-4.6-2.3-.9-4.8-.2-5.4 1.5-.6 1.7.8 3.8 3.2 4.6Z"/><path fill="#2346E6" d="M223.3 66.7c-.8-2.4-3-3.7-5.2-3-2 .7-3 3.2-2.3 5.5.8 2.4 3.2 3.7 5.2 3 2.1-.6 3.1-3.1 2.3-5.5ZM237 140.3c2.4.9 4.8.1 5.5-1.7.6-1.8-.7-4-3-4.8-2.4-.8-4.9 0-5.5 1.7-.7 1.8.7 4 3 4.8Z"/><path fill="#FFFDD6" fill-rule="evenodd" d="M291.4 72.5c.8-1.8-.3-4-2.4-4.9-2-.9-4.4-.2-5.2 1.5-.7 1.7.3 3.9 2.4 4.8 2.1 1 4.5.3 5.2-1.4ZM286 72v-3.5l.5.2c.2 0 .3-.3.1-.3l-1-.4-.1-.1a4 4 0 0 1 3.4 0c.8.4 1.5 1 2 1.7-.3-.1-.7-.1-1 .3l.1.7-.1 1c-.2.4-1.2 1.3-1.2 1.3v-3.2l.3.1c.2 0 .4-.3.2-.4l-1-.3-.8-.5c-.2 0-.4.3-.2.4l.3.2v1.3L286 72Zm4.5 0-1.7 1.4-.6.5a3 3 0 0 0 2.8-1.7c.2-.5.3-1 .2-1.5-.2.7-.6 1-.7 1.2Zm-5.5.6c-1-1-1.2-2.3-.8-3.4.2-.4.5-.8.8-1v4.4Zm2.5 1.2v-2.6l-1.2 1-.7.8a4 4 0 0 0 1.9.8ZM396.3 142.1c1.1-2.5-.4-5.7-3.5-7-3.1-1.5-6.5-.5-7.6 2-1.2 2.6.4 5.8 3.5 7.1 3 1.4 6.5.4 7.6-2.1Zm-8-.6v-5l.7.2c.3.1.5-.4.2-.5l-1.3-.5-.3-.2c1.3-.7 3.2-.8 5 0 1.3.6 2.3 1.5 2.8 2.6-.3-.2-1-.2-1.2.3v1.2c.1.4.1.8-.1 1.3-.3.7-1.8 2-1.8 2v-4.7l.5.2c.3 0 .5-.5.2-.6l-1.3-.6-1.3-.6c-.3-.1-.6.4-.3.6l.5.2v2l-2.2 2.1Zm6.6 0-2.4 2-.9.8c1.9 0 3.4-1 4-2.5.4-.7.5-1.4.4-2.2-.3 1.1-.8 1.6-1.1 1.8Zm-8 .9c-1.4-1.4-1.8-3.4-1.1-5 .2-.6.6-1 1.1-1.5v6.4Zm3.6 1.8v-3.9l-1.7 1.6-1.1 1a5.7 5.7 0 0 0 2.8 1.3Z" clip-rule="evenodd"/><path fill="#2243DA" d="M329 153c1.7 1.7 4.2 2 5.5.8 1.3-1.3 1-3.8-.8-5.6-1.7-1.8-4.2-2.1-5.6-.8-1.3 1.3-.9 3.8.9 5.5Z"/><path fill="#4D6DFB" d="M348 151.9c2.1 1.4 4.7 1.2 5.7-.3 1.1-1.6.3-4-1.8-5.4-2-1.4-4.6-1.3-5.7.3-1 1.6-.2 4 1.9 5.4ZM282.3 98.2c-.4 2.7.4 5 1.7 5.3 1.4.2 2.8-1.8 3.2-4.5.5-2.7-.3-5-1.7-5.2-1.3-.3-2.8 1.7-3.2 4.4ZM343 101.2c.1-2.7-.8-5-2-5-1.4-.1-2.5 2-2.7 4.7-.1 2.7.8 5 2 5 1.4.1 2.5-2 2.7-4.7Z"/><path fill="#2346E6" d="M535.3 42.7v-.1l-.2.1h.2Z"/><path fill="#4D6DFB" d="M553.9 117.4h.1-.2ZM591.1 117.8h.1v-.2h-.2l.1.2Z"/><path fill="#2243DA" d="M628.5 20.2V20h-.2v.2h.2Z"/><path fill="#4D6DFB" d="M665.7 57.4v-.2h-.1v.2h.1Z"/><path fill="#E26F56" d="M684.2 114.1h.2v-.2h-.2v.2Z"/><path fill="#2243DA" d="m721.5 37.4.1-.1-.2.1h.1ZM777.4 25.5h.1l-.1-.2h-.1v.2Z"/><path fill="#4D6DFB" d="M814.7 142.5h-.1v.2-.2Z"/><path fill="#2243DA" d="M833.3 116s.1 0 0-.1c0 0 0-.1 0 0h-.2c0 .1.1.2.2.1ZM907.8 36s.1 0 0-.1h-.1c0 .1 0 .1 0 0Z"/><path fill="#2346E6" d="M945 79.8v.1-.2.1Z"/><path fill="#E26F56" d="M525.5 18c.1.3.5.4.7.2.3-.1.4-.5.2-.7a.6.6 0 0 0-.8-.3c-.2.2-.3.5-.1.8Z"/><path fill="#2243DA" d="M563.3 39.6c.3 0 .5-.3.5-.5s-.4-.3-.7-.2c-.3 0-.5.3-.5.5s.4.3.7.2ZM600.2 79c0 .3 0 .6.2.6.1 0 .3-.2.3-.5s0-.6-.2-.6c-.1 0-.3.2-.3.5ZM619.2 107l.4-.5-.6.1-.5.5c.1 0 .4 0 .7-.2ZM731 40c.3-.2.3-.5.2-.6-.1-.1-.4 0-.6.2-.2.3-.3.6-.1.7 0 .1.4 0 .6-.3Z"/><path fill="#2346E6" d="M805.4 136.5c.3-.1.5-.3.5-.4h-.6c-.3.1-.6.3-.5.4h.6Z"/><path fill="#2243DA" d="M879.9 35.3c.3 0 .5-.3.5-.6 0-.2-.3-.4-.6-.4s-.6.2-.6.5.3.5.7.5Z"/><path fill="#E26F56" d="m898.5 53.4.5-.1-.5-.2c-.4 0-.6.1-.6.2l.6.1Z"/><path fill="#2346E6" d="M917.5 2.7c.2-.3.2-.6 0-.8-.2-.2-.6-.2-.8 0-.2.3-.2.6 0 .8.2.2.5.2.8 0Z"/><path fill="#4D6DFB" d="M935.9 49.6c.2-.2.4-.5.3-.6l-.6.1c-.3.2-.5.5-.4.6.1.1.4 0 .7-.1Z"/><path fill="#E26F56" d="M954 91.4c0 .3 0 .6.2.7.2 0 .4-.2.5-.5 0-.3 0-.6-.2-.7-.2 0-.4.2-.5.5Z"/><path fill="#4D6DFB" d="M553.4 63c0 .6.3 1 .6 1s.4-.6.4-1.1c0-.6-.4-1-.6-1-.3 0-.5.5-.4 1.1ZM572.4 79c.5.2 1 .4 1 .2 0-.1-.3-.5-.7-.7-.5-.3-1-.4-1-.3-.2.2.2.5.7.8Z"/><path fill="#E0D6FF" d="M590.4 13c-.1.6 0 1.1.5 1.2.4.1.9-.2 1-.8.1-.5-.1-1-.5-1.1-.5-.1-1 .2-1 .8Z"/><path fill="#2346E6" d="M646.4 63.2c0 .5.1 1 .5 1 .3 0 .6-.3.7-.9 0-.5-.2-1-.5-1-.3-.1-.6.3-.7.9ZM684.6 142.8c0-.6-.2-1-.4-1s-.3.4-.3 1 .2 1 .4 1 .3-.5.3-1Z"/><path fill="#E26F56" d="M722.2 117.5c.3-.4.3-1 0-1.3-.5-.3-1-.1-1.4.3-.3.5-.3 1 .1 1.3.4.3 1 .2 1.3-.3Z"/><path fill="#2243DA" d="M741 44.4c-.2-.5-.7-.8-1.2-.7-.4.2-.7.7-.5 1.3.2.5.7.8 1.1.7.5-.2.8-.7.6-1.3Z"/><path fill="#2346E6" d="M758 3.2c.2.6.7.9 1 .8.4-.1.6-.6.4-1.2-.1-.5-.6-.9-1-.8-.3.1-.5.7-.3 1.2Z"/><path fill="#2243DA" d="M777.5 107.7c.5-.4.8-.7.7-.9-.1 0-.5.1-1 .5-.4.3-.7.7-.6.8 0 .1.5 0 1-.4Z"/><path fill="#E0D6FF" d="M796.4 66.9c.6-.3.8-.9.5-1.4a1 1 0 0 0-1.3-.4 1 1 0 1 0 .9 1.8Z"/><path fill="#2243DA" d="M832.8 56.2c.3.5.8.7 1.1.4.3-.2.2-.7-.1-1.2-.4-.4-1-.6-1.2-.3-.3.2-.2.7.2 1.1Z"/><path fill="#E0D6FF" d="M852.5 15c0-.5-.4-1-.7-1-.3 0-.6.5-.5 1.1 0 .6.3 1 .7 1 .3 0 .6-.5.5-1Z"/><path fill="#4D6DFB" d="M907.6 88.3c.6 0 1-.3 1.2-.7 0-.5-.3-1-.9-1-.5-.2-1 .1-1.1.6-.1.5.3 1 .8 1Z"/><path fill="#E26F56" d="M926.3 142.6c.6.1 1 .2 1 0 .1 0-.3-.3-.9-.4-.5-.2-1-.2-1-.1l1 .5Z"/><path fill="#2346E6" d="M507 1.1c-.2.8-.2 1.5 0 1.5.1 0 .5-.5.7-1.3.2-.8.2-1.5 0-1.5s-.5.5-.7 1.3Z"/><path fill="#4D6DFB" d="M563.6 40.7c.1-.8 0-1.5-.2-1.5s-.5.6-.6 1.4c-.1.8 0 1.5.2 1.5s.5-.6.6-1.4Z"/><path fill="#2243DA" d="M657.3 33.6c.3-.8.2-1.6-.3-1.9-.5-.2-1.2.1-1.6.9-.4.7-.3 1.5.2 1.8.6.3 1.3-.1 1.7-.8Z"/><path fill="#E26F56" d="M675.8 27.5c.6-.6.7-1.4.2-2-.5-.4-1.4-.3-2 .2-.5.6-.6 1.5-.1 2s1.4.4 2-.2Z"/><path fill="#4D6DFB" d="M729.9 13.7c.6.6 1.6.5 2-.1.6-.6.5-1.6-.2-2-.6-.6-1.5-.5-2 0-.6.7-.4 1.6.2 2.1Z"/><path fill="#2346E6" d="M767.4 41.6c.5.7 1.1 1 1.5.7.4-.2.4-1-.1-1.7-.5-.6-1.2-1-1.6-.7-.4.3-.3 1 .2 1.7ZM805.6 50.7c-.3-.7-.6-1.3-.8-1.2-.2 0 0 .7.2 1.5.3.7.7 1.3.9 1.3.1-.1 0-.8-.3-1.6ZM823.5 109.6c0 .8.3 1.5.6 1.4.3 0 .4-.7.4-1.5-.1-.8-.4-1.5-.7-1.4-.3 0-.4.7-.3 1.5ZM879.1 14.7c0 .8.3 1.5.7 1.5.4 0 .7-.7.7-1.5 0-.9-.3-1.5-.7-1.5-.3 0-.6.6-.7 1.5ZM936.5 7.6c.4-.7.5-1.5 0-1.8-.4-.2-1.1 0-1.6.7-.4.7-.5 1.5 0 1.8.4.3 1.1 0 1.6-.7Z"/><path fill="#4D6DFB" d="M954.7 8.3c.2-.8.2-1.5 0-1.6-.2 0-.6.6-.8 1.4-.2.8-.1 1.5 0 1.5.3 0 .6-.5.8-1.3Z"/><path fill="#E26F56" d="M499.2 20.8c.5-1 .4-2-.3-2.4-.6-.4-1.6 0-2.1 1s-.4 2 .3 2.4c.6.3 1.6-.1 2-1h.1Z"/><path fill="#2243DA" d="M571.7 54.9c-.2 1 0 2 .4 2 .4.1 1-.6 1.2-1.7.3-1 .1-2-.3-2-.5-.1-1 .6-1.3 1.7Z"/><path fill="#E0D6FF" d="M592.7 99.6c-.3-1-1.3-1.6-2.1-1.4-.9.3-1.3 1.4-1 2.4.3 1 1.2 1.6 2 1.3 1-.2 1.4-1.3 1-2.3Z"/><path fill="#E26F56" d="M609.8 58.4c1-.1 1.9-.8 1.9-1.5 0-.8-1-1.4-2-1.4-1 .1-1.9.8-1.9 1.6 0 .7 1 1.3 2 1.3Z"/><path fill="#2346E6" d="M704.6 38c-.1-1-1-1.8-2-1.7-.9.1-1.6 1-1.4 2.1.1 1 1 1.8 2 1.7.9-.1 1.5-1 1.4-2V38Z"/><path fill="#4D6DFB" d="M778.6 78c.6-.9.5-2-.2-2.4-.7-.4-1.7 0-2.2 1-.6.8-.5 1.9.2 2.3.6.4 1.6 0 2.2-.9Z"/><path fill="#E0D6FF" d="M797.6 120c-.2-1-1-1.8-1.9-1.6-.8.1-1.4 1-1.2 2.1.1 1 1 1.8 1.8 1.7.8-.1 1.4-1.1 1.3-2.2Z"/><path fill="#2346E6" d="M834.7 71c0-1.1-.8-2-1.6-1.9-.8 0-1.4 1-1.3 2 .1 1.1.8 2 1.6 1.9.8 0 1.4-1 1.3-2Z"/><path fill="#2243DA" d="M852.3 77c.7-.7 1.2-1.5 1-1.7-.3-.2-1 .3-1.8 1-.7.7-1.2 1.5-1 1.7.2.2 1-.2 1.8-1Z"/><path fill="#E0D6FF" d="M906.2 47.9c-.1 1 .4 2 1.3 2.1.8.1 1.6-.6 1.8-1.7.2-1-.4-2-1.2-2.1-.9-.1-1.7.6-1.9 1.7Z"/><path fill="#4D6DFB" d="M944.3 83.5c.2 1 .7 1.8 1 1.8.5-.1.6-1 .4-2-.2-1.1-.7-1.9-1-1.8-.4 0-.6 1-.4 2Z"/><path fill="#2243DA" d="M963 115.8c1 .4 2 0 2.4-.8.3-.8-.2-1.8-1.2-2.2-1-.4-2 0-2.3.8-.4.8.1 1.8 1.1 2.2Z"/><path fill="#4D6DFB" d="M487.9 32.2c1.1.6 2.5.3 3-.6.4-.9-.2-2-1.4-2.7-1.2-.6-2.5-.3-3 .6-.4.9.2 2.1 1.4 2.7ZM563.5 3a2.4 2.4 0 0 0 2-2.7 2.4 2.4 0 0 0-2.6-2 2.4 2.4 0 0 0-2 2.7 2.4 2.4 0 0 0 2.6 2Z"/><path fill="#2243DA" d="M601.8 68c-.2-1.2-1-2.2-1.8-2-.8 0-1.2 1.3-1 2.6.3 1.3 1.1 2.2 1.9 2 .7 0 1.2-1.3 1-2.6Z"/><path fill="#E0D6FF" d="M619.5 74.9c1-1 1.6-1.9 1.4-2.1-.3-.3-1.3.2-2.3 1-1 1-1.5 1.9-1.3 2.2.2.2 1.2-.3 2.2-1.1Z"/><path fill="#E26F56" d="M674.2 82.7c.6 1.2 1.5 1.9 2 1.6.4-.2.2-1.4-.5-2.5-.6-1.1-1.5-1.9-2-1.6-.4.3-.2 1.4.5 2.5ZM713.1 101.9c1-1 1.3-2.1.8-2.7-.5-.5-1.7-.2-2.7.7-.9 1-1.3 2.1-.7 2.6.5.6 1.7.3 2.6-.6Z"/><path fill="#2243DA" d="M768.1 89.3c1.4-.1 2.4-.5 2.4-1 0-.3-1.2-.6-2.5-.5-1.3.1-2.3.5-2.3 1 0 .3 1.1.6 2.4.5ZM841.4 108.9c.5 1.2 1.4 2 2 1.7.8-.3.9-1.5.4-2.7-.5-1.2-1.4-2-2.1-1.7-.7.2-.8 1.5-.3 2.7Z"/><path fill="#E0D6FF" d="M861.2 7.8c1.3 0 2.4-.4 2.4-1 0-.5-1-1-2.4-1-1.3 0-2.4.5-2.4 1s1 1 2.4 1Z"/><path fill="#2243DA" d="M896.7 43.8c-.3 1.3.3 2.5 1.3 2.7 1 .2 2-.7 2.2-2 .2-1.3-.3-2.5-1.3-2.7-1-.2-2 .7-2.2 2Z"/><path fill="#E0D6FF" d="M574.3 85c.8-1.3.7-2.9-.3-3.5-1-.6-2.5 0-3.3 1.3-.8 1.3-.7 3 .3 3.5 1 .6 2.5 0 3.3-1.3Z"/><path fill="#E26F56" d="M591.7 147c.2-1.5.1-2.8-.2-2.8-.3 0-.7 1.1-1 2.7-.2 1.5 0 2.8.2 2.8.3 0 .8-1.1 1-2.7ZM667.5 3.1c-.2-1.5-1.3-2.6-2.3-2.4-1.1.2-1.7 1.6-1.5 3.1.3 1.5 1.3 2.6 2.4 2.5 1-.2 1.7-1.6 1.4-3.2Z"/><path fill="#2346E6" d="M723.5 130.8c-.3-1.5-1.5-2.5-2.6-2.3-1.2.3-1.8 1.7-1.4 3.2.3 1.5 1.5 2.6 2.7 2.3 1-.3 1.7-1.7 1.3-3.2Z"/><path fill="#E26F56" d="M742.4 150.4c.7-1.4.2-3-1-3.7-1.3-.6-2.9 0-3.6 1.5-.6 1.4-.2 3 1.1 3.6 1.3.6 2.9 0 3.5-1.4Z"/><path fill="#4D6DFB" d="M812.6 109.6c.6 1.4 2 2.1 3.2 1.6 1.2-.5 1.6-2.1 1-3.5-.7-1.4-2.2-2.1-3.3-1.6-1.2.5-1.6 2-1 3.5ZM832.2 73.3c-.5 1.5-.5 2.8.1 3 .6.2 1.5-.8 2-2.3.5-1.4.5-2.8 0-3-.7-.2-1.6.8-2 2.3Z"/><path fill="#E26F56" d="M849.3 55.6c-.4 1.5.4 3 1.9 3.4 1.4.4 2.9-.5 3.3-2 .4-1.5-.4-3-1.9-3.4-1.4-.4-3 .5-3.3 2Z"/><path fill="#2346E6" d="M491.4 22.7c.5-1.8-.5-3.5-2-3.8-1.5-.4-3 .7-3.4 2.5-.5 1.7.5 3.5 2 3.8 1.5.3 3-.8 3.4-2.5Z"/><path fill="#E26F56" d="M542.2 149.8c.7 1.6 2.2 2.7 3.5 2.2 1.3-.5 1.8-2.2 1.2-4-.6-1.6-2.2-2.6-3.4-2.1-1.3.4-1.9 2.2-1.3 3.9Z"/><path fill="#2346E6" d="M653.7 103c-.2 1.9.9 3.4 2.3 3.6 1.5.1 2.8-1.2 3-3 0-1.8-1-3.4-2.4-3.5-1.4-.1-2.7 1.2-3 3h.1ZM676.4 100.4c-.2-1.8-1-3.1-1.9-3-.7 0-1.2 1.6-1 3.4.2 1.8 1 3.1 1.9 3 .7 0 1.2-1.6 1-3.4ZM766.5 126.5c.4 1.8 1.4 3 2.3 2.8.9-.2 1.3-1.7.8-3.5-.3-1.7-1.4-3-2.2-2.8-.9.2-1.3 1.8-.9 3.5Z"/><path fill="#4D6DFB" d="M787.8 129.1c.4-1.7.2-3.2-.4-3.4-.6-.1-1.4 1.2-1.8 3-.4 1.7-.3 3.2.3 3.3.6.2 1.5-1.1 1.9-2.9Z"/><path fill="#E0D6FF" d="M895.5 111.2c.3 1.7 1.9 3 3.5 2.7 1.6-.2 2.6-1.9 2.4-3.7-.3-1.7-1.8-3-3.4-2.7-1.7.2-2.7 1.9-2.5 3.7Z"/><path fill="#2346E6" d="M916.5 69.6c1.7.4 3.4-.4 3.7-1.7.4-1.4-.8-2.9-2.5-3.3-1.8-.4-3.4.3-3.8 1.7-.3 1.4.8 2.8 2.6 3.3Z"/><path fill="#E0D6FF" d="M610.8 25.4c1.7-1 2.7-2.6 2.1-3.6-.5-1-2.4-1-4.2.1-1.7 1-2.7 2.6-2.1 3.6.5 1 2.4 1 4.2 0ZM629.1 85.4c1.5-1.4 2.4-2.8 2-3.3-.4-.4-2 .4-3.4 1.8-1.5 1.4-2.4 2.8-2 3.3.4.4 2-.4 3.4-1.8Z"/><path fill="#E26F56" d="M682.7 70.2c0 2 .5 3.7 1.4 3.7.8 0 1.6-1.5 1.7-3.6.1-2-.5-3.7-1.3-3.7-.9 0-1.7 1.6-1.8 3.6Z"/><path fill="#4D6DFB" d="M760.4 87.7c1.7-1 2.5-3 1.6-4.7-.9-1.5-3-2-4.8-1-1.8 1-2.5 3-1.7 4.6 1 1.6 3 2 4.9 1Z"/><path fill="#2243DA" d="M836.6 122.4c0-2-1.3-3.7-3.1-3.9-1.9 0-3.4 1.5-3.5 3.6-.1 2 1.3 3.7 3 3.8 1.9.1 3.5-1.5 3.6-3.5Z"/><path fill="#4D6DFB" d="M927.8 29.2c.6-2 .5-3.7-.3-4-.7-.2-1.9 1.2-2.5 3-.6 2-.5 3.8.2 4 .8.3 2-1 2.6-3Z"/><path fill="#2243DA" d="M944.5 66.6c1.5 1.4 3 2.2 3.3 2 .3-.4-.7-1.7-2.3-3-1.5-1.4-3-2.3-3.2-2-.3.4.7 1.7 2.2 3Z"/><path fill="#E0D6FF" d="M511.3 134c.5-2.3-.9-4.5-3.1-5a4.1 4.1 0 0 0-1.8 8.1c2.3.5 4.5-.9 5-3.1Z"/><path fill="#4D6DFB" d="M598.2 132.9c1.7 1.5 4.1 1.6 5.3.2 1.3-1.4.9-3.8-.8-5.3-1.7-1.5-4.1-1.6-5.3-.2-1.3 1.4-.9 3.8.8 5.3ZM746.6 109.4c-.5 2.3.4 4.4 2 4.7 1.5.4 3.2-1.1 3.7-3.4.5-2.2-.4-4.3-2-4.6-1.5-.4-3.2 1.1-3.7 3.4Z"/><path fill="#E0D6FF" d="M768.9 138.2c1-2 1.4-4 1-4.1-.5-.2-1.6 1.3-2.6 3.3-1 2-1.4 3.9-1 4.1.4.2 1.6-1.3 2.6-3.3ZM784.1 129.6c1.7 1.6 4.2 1.6 5.6.1 1.4-1.5 1.2-4-.5-5.5-1.6-1.6-4.1-1.6-5.5-.1-1.4 1.5-1.2 4 .4 5.5Z"/><path fill="#2243DA" d="M843.4 134.8c1.9-1.4 3-3 2.5-3.6-.5-.7-2.3 0-4.2 1.3-1.8 1.3-3 3-2.4 3.6.4.6 2.3 0 4.1-1.3Z"/><path fill="#4D6DFB" d="M862.9 105c1.4-1.8 1.8-3.8.9-4.6-1-.7-2.9.1-4.3 2-1.4 1.7-1.8 3.7-.8 4.5.9.7 2.8-.1 4.2-2Z"/><path fill="#2346E6" d="M919 85.7c1.1-2 1.1-4 0-4.7-1-.5-2.7.6-3.9 2.6-1 2-1 4 0 4.7 1 .5 2.8-.6 3.9-2.6Z"/><path fill="#E26F56" d="M933.4 144c.3 2.3 1.6 4 2.8 3.8 1.3-.2 2-2.1 1.8-4.4-.3-2.2-1.6-4-2.8-3.8-1.3.2-2 2.2-1.8 4.4Z"/><path fill="#2243DA" d="M954.4 74.7c2.3 0 4-1.6 4-3.4 0-1.9-1.9-3.3-4.2-3.3-2.2 0-4 1.6-4 3.4 0 1.9 2 3.3 4.2 3.3Z"/><path fill="#2346E6" d="M706.6 66.7c-.8-2.4-3.1-3.7-5.2-3-2 .7-3 3.2-2.3 5.5.8 2.4 3.2 3.7 5.2 3 2-.6 3.1-3.1 2.3-5.5ZM720.3 140.3c2.4.9 4.8.1 5.5-1.7.6-1.8-.7-4-3-4.8-2.4-.8-4.9 0-5.5 1.7-.7 1.8.7 4 3 4.8Z"/><path fill="#FFFDD6" fill-rule="evenodd" d="M774.7 72.5c.8-1.8-.3-4-2.4-4.9-2-.9-4.4-.2-5.2 1.5-.8 1.7.3 3.9 2.4 4.8 2.1 1 4.4.3 5.2-1.4Zm-5.4-.4v-3.5l.5.2c.2 0 .3-.3 0-.3l-.8-.4-.2-.1a4 4 0 0 1 3.4 0c.8.4 1.5 1 2 1.7-.3-.1-.8-.1-1 .3l.1.7-.1 1C773 72 772 73 772 73v-3.2l.3.1c.2 0 .4-.3.2-.4l-1-.3-.8-.5c-.2 0-.4.3-.2.4l.3.2v1.3l-1.5 1.5Zm4.4 0-1.6 1.4-.6.5a3 3 0 0 0 2.8-1.7c.2-.5.3-1 .2-1.5-.2.7-.6 1-.8 1.2Zm-5.4.6c-1-1-1.3-2.3-.8-3.4.2-.4.5-.8.8-1v4.4Zm2.5 1.2v-2.6l-1.2 1-.8.8a4 4 0 0 0 2 .8Z" clip-rule="evenodd"/><path fill="#2243DA" d="M812.3 153c1.7 1.7 4.2 2 5.5.8 1.3-1.3 1-3.8-.8-5.6-1.8-1.8-4.3-2.1-5.6-.8-1.3 1.3-1 3.8.9 5.5Z"/><path fill="#4D6DFB" d="M831.3 151.9c2.1 1.4 4.7 1.2 5.7-.3 1.1-1.6.3-4-1.8-5.4-2-1.4-4.6-1.3-5.7.3-1 1.6-.2 4 1.8 5.4Z"/><path fill="#2346E6" d="M949.3 103.2a4.5 4.5 0 0 0-5.6-3 4.5 4.5 0 0 0 2.6 8.7 4.5 4.5 0 0 0 3-5.6Z"/><path fill="#4D6DFB" d="M765.6 98.2c-.4 2.7.3 5 1.7 5.3 1.4.2 2.8-1.8 3.2-4.5.5-2.7-.3-5-1.7-5.2-1.3-.3-2.8 1.7-3.2 4.4ZM826.3 101.2c.1-2.7-.8-5-2-5-1.4-.1-2.5 2-2.7 4.7-.1 2.7.8 5 2 5 1.4.1 2.5-2 2.7-4.7Z"/><path fill="#FFFDD6" fill-rule="evenodd" d="M902.3 105.6c-1.6-2.1-4.5-2.7-6.5-1.2-2 1.5-2.4 4.5-.8 6.6 1.5 2.1 4.5 2.7 6.5 1.2 2-1.5 2.3-4.4.8-6.6Zm-3 5.4-3.8-2.6.4-.4c.1-.1-.2-.5-.4-.4l-.8.7-.2.1a4 4 0 0 1 4.5-4.3c-.3.2-.5.6-.2 1.1l.8.5h.1c.3.2.6.4 1 .9.4.6.9 2.3.9 2.3l-3.6-2.4.3-.3c.2-.2-.2-.6-.4-.5l-.8.7-.9.6c-.2.1.1.6.3.5l.4-.2 1.4 1 1 2.7Zm2-4.7.9 2.8c0 .4.2.7.3 1 .5-1.3.3-3-.6-4.2-.5-.6-1-1-1.6-1.4a4 4 0 0 1 1 1.8Zm-1.8 6.2c-1.5.2-3.1-.4-4.1-1.8-.4-.5-.7-1-.8-1.6l1 .7 3.9 2.7Zm2.5-1.6-3-2 .8 2 .4 1.3c.4 0 .7-.2 1-.4l.8-1ZM646.9 71c-.4-1-1.8-1.1-3.1-.5-1.4.6-2.1 1.8-1.7 2.7.4.8 1.8 1 3.1.4s2.1-1.8 1.7-2.7Zm-2.6 2.1-1.5-1 .3-.1c.1-.1 0-.3 0-.2l-.6.3h-.2c.2-.5.8-1 1.5-1.4.6-.3 1.2-.4 1.7-.3-.2 0-.4.2-.3.4l.3.2c.2 0 .3.2.4.3v1l-1.4-1 .2-.1c.2 0 0-.3 0-.2l-.6.3-.6.2c-.1 0 0 .3 0 .2h.3l.5.3v1.1Zm2-1.9-.1 1.2v.4c.5-.6.7-1.2.4-1.7 0-.3-.3-.5-.5-.6.2.3.2.6.2.7Zm-2.2 2.6c-.8 0-1.5-.2-1.8-.7a1 1 0 0 1 0-.7l.3.3 1.5 1Zm1.6-.7-1-.8-.1.8v.5a3.2 3.2 0 0 0 1.1-.5ZM699.4 143.2c.1-1.4-3-2.7-7-3-4-.2-7.2.6-7.3 2-.1 1.3 3 2.6 7 2.9 4 .2 7.2-.6 7.3-2Zm-8.8.6-2.3-2.3h.8c.4 0 .3-.3 0-.3h-1.7l-.4-.1c1.1-.5 3.1-.8 5.4-.6 1.7.1 3.2.4 4.3.9-.5 0-1.2 0-1.2.3l.5.5h.1c.2.2.4.4.4.7 0 .3-1.1 1-1.1 1l-2-2h.5c.4 0 .4-.4 0-.4h-1.7l-1.7-.2c-.3 0-.4.2 0 .3h.6l.9 1-1.4 1.2Zm7-.8-1.7 1.3-.6.5c2-.3 3.3-.9 3.3-1.7 0-.4-.2-.7-.6-1 .1.5-.2.8-.4 1Zm-8.3 1.4c-2.1-.5-3.5-1.3-3.4-2.2 0-.3.2-.6.5-.8l.6.6 2.3 2.4Zm4.8.4-1.8-1.8a590 590 0 0 1-1.8 1.6 16.5 16.5 0 0 0 3.6.2Z" clip-rule="evenodd"/></svg>