<svg xmlns="http://www.w3.org/2000/svg" width="620" height="120" fill="none">
  <path fill="#324CD3" d="M435.48 17.39s-.09-.24-.12-.24c-.05 0-.05.12-.03.27 0 .14.1.23.12.23.06 0 .06-.12.03-.26Z"/>
  <path fill="#E0D6FF" d="M106.26 77.58c.11.62.32 1.11.46 1.08.15 0 .18-.55.06-1.16-.11-.62-.32-1.11-.46-1.08-.15 0-.18.55-.06 1.16Zm71.69-29.51c.29.55.9.81 1.34.58.44-.23.55-.87.26-1.43-.3-.55-.9-.81-1.34-.58-.44.23-.56.87-.26 1.43Z"/>
  <path fill="#7E92F1" d="M380.88 115.03c.59.26 1.2.15 1.4-.3.2-.43-.08-.98-.64-1.28-.58-.29-1.2-.14-1.4.3-.2.43.09.99.64 1.28Z"/>
  <path fill="#3858E9" d="M433.83 60.67c.56.29 1.14.29 1.29 0 .14-.3-.18-.76-.76-1.05-.55-.3-1.14-.3-1.28 0-.15.29.17.76.75 1.05Z"/>
  <path fill="#7E92F1" d="M197.43 17.82c-.06-1.1-.38-1.95-.73-1.95s-.58.9-.56 2.01c.06 1.11.38 1.99.73 1.96.35 0 .59-.9.56-2.02ZM90.4 84.4c1.57-.3 2.65-1.49 2.45-2.68-.2-1.2-1.67-1.93-3.24-1.67-1.58.3-2.65 1.5-2.45 2.69.2 1.2 1.66 1.92 3.24 1.66Z"/>
  <path fill="#3858E9" d="M69.34 65.74c.52 1.52 1.42 2.57 2 2.36.6-.2.68-1.6.15-3.09-.5-1.51-1.4-2.56-2-2.36-.6.2-.65 1.6-.15 3.1Z"/>
  <path fill="#E26F56" d="M327.77 104.84a2.85 2.85 0 0 0 .12-4.02 2.84 2.84 0 0 0-4 0 2.82 2.82 0 0 0-.12 4 2.84 2.84 0 0 0 4 0v.03Z"/>
  <path fill="#324CD3" d="M236.93 62.94c1.57-.2 2.8-.73 2.74-1.22-.06-.47-1.4-.7-2.98-.5-1.57.2-2.8.73-2.74 1.23.06.46 1.4.7 2.98.5Z"/>
  <path fill="#E0D6FF" d="M380.56 117.4c.97 1.25 2.07 2.03 2.45 1.74.38-.29-.08-1.57-1.05-2.83-.96-1.25-2.07-2.04-2.45-1.75-.38.3.1 1.58 1.05 2.83ZM126.38 31.68c1.23-1.66 1.4-3.62.38-4.35-1.02-.73-2.8 0-4.02 1.7-1.23 1.66-1.4 3.58-.38 4.31.99.73 2.8 0 4.02-1.7v.04Z"/>
  <path fill="#7E92F1" d="M450.57 88.93c1.91.8 3.7.79 4.06-.03.36-.83-.92-2.14-2.79-2.95-1.9-.8-3.7-.79-4.06.04-.35.82.92 2.13 2.8 2.94Z"/>
  <path fill="#3858E9" d="M485.57 73.89c.36 2.04 1.64 3.5 2.83 3.3 1.23-.2 1.93-2.02 1.58-4.06-.35-2.04-1.63-3.5-2.83-3.3-1.22.21-1.92 2.02-1.55 4.06h-.03Z"/>
  <path fill="#324CD3" d="M419.2 64.66c.75-1.92-.07-4.02-1.79-4.7-1.75-.66-3.76.33-4.49 2.22-.76 1.93.06 4.03 1.78 4.7 1.75.67 3.76-.32 4.52-2.25l-.03.03Z"/>
  <path fill="#E26F56" d="M156.58 26.57c.41-3 .26-5.48-.35-5.57-.61-.09-1.43 2.28-1.86 5.25-.41 3-.27 5.48.34 5.57.62.09 1.43-2.27 1.87-5.25Z"/>
  <path fill="#E0D6FF" d="M92.72 50.93c1.29-2.75.41-5.84-1.92-6.95-2.36-1.1-5.3.24-6.6 2.95-1.28 2.74-.4 5.83 1.93 6.94 2.37 1.11 5.31-.2 6.6-2.94Z"/>
  <path fill="#324CD3" d="M118.97 92.71c.14 3-.5 5.49-1.4 5.54-.9.03-1.72-2.39-1.87-5.4-.12-3.02.5-5.47 1.4-5.53.9-.03 1.72 2.36 1.84 5.4h.03Z"/>
  <path fill="#E0D6FF" d="M221.38 81.46c2.42-1.8 3.2-4.84 1.78-6.77-1.43-1.92-4.58-2.04-7-.23-2.42 1.8-3.2 4.84-1.78 6.77 1.43 1.92 4.58 2.04 7 .23Z"/>
  <path fill="#E26F56" d="M456.12 55.54c1.3-2.7.4-5.89-2.07-7.08-2.45-1.2-5.52.03-6.83 2.77-1.31 2.71-.4 5.89 2.07 7.09 2.45 1.2 5.51-.03 6.83-2.78Z"/>
  <path fill="#7E92F1" d="M493.2 56.6c2.71-1.34 4.4-3.44 3.76-4.7-.61-1.25-3.32-1.2-6.04.15-2.71 1.34-4.4 3.44-3.76 4.7.61 1.25 3.32 1.19 6.04-.15Z"/>
  <path fill="#E26F56" d="M177.7 97.17c-3.38-2.01-5.33-5.04-4.28-6.76 1.02-1.73 4.6-1.5 8 .52 3.38 2.01 5.3 5.05 4.28 6.77-1.02 1.72-4.6 1.48-8-.53Z"/>
  <path fill="#3858E9" d="M408.49 93.07c3.56-1.7 5.34-5.46 3.94-8.43-1.4-2.97-5.43-4-9.01-2.3-3.56 1.69-5.34 5.45-3.94 8.42 1.4 2.98 5.42 4 9.01 2.3Z"/>
  <path fill="#E26F56" d="M494.17 98.08c-.7-2.47-1.96-4.29-2.81-4.06-.85.23-.99 2.43-.3 4.9.7 2.48 1.97 4.29 2.82 4.06.86-.23 1-2.43.3-4.9Z"/>
  <path fill="#E0D6FF" d="M254.6 18.7c2.03-3.86 2.95-7.27 2.06-7.66-.9-.4-3.27 2.4-5.27 6.26-2.03 3.83-2.95 7.27-2.03 7.66.9.4 3.26-2.4 5.27-6.23l-.03-.03Zm-78.56 67.48c-2.97-3.82-3.81-8.14-1.89-9.66 1.92-1.51 5.92.38 8.9 4.2 2.97 3.82 3.82 8.14 1.9 9.66-1.93 1.51-5.93-.38-8.9-4.2Z"/>
  <path fill="#7E92F1" d="M333.27 101.65c2.4.84 4.88.12 5.56-1.63.68-1.74-.72-3.84-3.12-4.67-2.4-.84-4.88-.12-5.54 1.63-.68 1.74.72 3.84 3.12 4.67h-.02Z"/>
  <path fill="#E0D6FF" d="M287.53 106.96c3.7 1.56 7.46 1.05 8.4-1.15.95-2.2-1.33-5.26-5.03-6.82-3.7-1.57-7.46-1.06-8.4 1.14-.95 2.2 1.33 5.26 5.03 6.83ZM451.76 34.3c3.42 3.43 8.23 4.16 10.77 1.66 2.53-2.51 1.83-7.35-1.58-10.8-3.41-3.44-8.25-4.2-10.79-1.66-2.54 2.51-1.84 7.35 1.6 10.8Z"/>
  <path fill="#E26F56" d="M535.85 50.74c3.64-3.2 5.92-6.56 5.1-7.5-.82-.93-4.46.88-8.08 4.09-3.62 3.2-5.92 6.56-5.07 7.5.81.93 4.46-.88 8.08-4.09h-.03Z"/>
  <path fill="#3858E9" d="M148.08 63.09c-.73-5.22-3.76-9.13-6.77-8.7-3.03.42-4.87 5-4.17 10.22.73 5.22 3.77 9.12 6.77 8.72 3-.41 4.87-5 4.17-10.21v-.03Z"/>
  <path fill="#E0D6FF" d="M455.43 82.67c-3.8 3.69-4.65 8.9-1.95 11.67 2.7 2.77 7.95 2.02 11.72-1.65 3.8-3.68 4.65-8.9 1.95-11.67-2.7-2.77-7.95-2.01-11.72 1.65Z"/>
  <path fill="#7E92F1" d="M355.75 22.5c5.19-.92 9.24-2.53 9.07-3.6-.2-1.09-4.55-1.2-9.74-.27-5.2.93-9.25 2.54-9.07 3.62.2 1.08 4.55 1.2 9.74.26Z"/>
  <path fill="#324CD3" d="M507.95 104.75a6.5 6.5 0 1 0-7.63-10.5 6.5 6.5 0 0 0 7.63 10.5Z"/>
</svg>
