<svg xmlns="http://www.w3.org/2000/svg" width="149" height="150" fill="none"><path fill="#7B90FF" d="M74.5 136.5A61.57 61.57 0 0 1 13 75a61.57 61.57 0 0 1 61.5-61.5A61.57 61.57 0 0 1 136 75a61.57 61.57 0 0 1-61.5 61.5Zm0-117.88A56.44 56.44 0 0 0 18.12 75a56.44 56.44 0 0 0 56.38 56.38A56.44 56.44 0 0 0 130.88 75 56.44 56.44 0 0 0 74.5 18.62Z"/><path fill="#3858E9" d="M75 123.5c-27.02 0-49-21.76-49-48.5s21.98-48.5 49-48.5 49 21.76 49 48.5-21.98 48.5-49 48.5Zm0-91.9c-24.18 0-43.84 19.47-43.84 43.4S50.82 118.4 75 118.4c24.17 0 43.84-19.47 43.84-43.4S99.17 31.6 75 31.6Z"/><path fill="#C7D1FF" fill-rule="evenodd" d="M74.5 5.64a69.36 69.36 0 1 0 0 138.72 69.36 69.36 0 0 0 0-138.72ZM0 75a74.5 74.5 0 1 1 149 0A74.5 74.5 0 0 1 0 75Z" clip-rule="evenodd"/><path fill="#3858E9" d="M77.62 84.56c.67-3.9 1.41-4.86 5.87-7.88 7.2-4.86 9.51-8.1 9.51-13.63 0-7.95-7.28-13.55-17.61-13.55C65.36 49.5 58 55.76 58 64.3c0 5.3 3.12 9.21 7.36 9.21 4.23 0 6.98-2.5 6.98-6.33 0-3.24-2.08-5.38-5.2-5.38-.9 0-1.7.15-3.27.66.45-3.53 3.64-5.96 7.73-5.96 4.46 0 7.88 2.94 7.88 6.77 0 2.5-1.27 5.6-3.5 8.47-4.08 5.23-4.08 5.23-4.9 7.3a9.98 9.98 0 0 0-.82 4.12c0 .3 0 .81.08 1.4h7.28Zm-3.64 4.57a6.18 6.18 0 1 0 .07 12.37 6.14 6.14 0 0 0 6.17-6.19 6.16 6.16 0 0 0-6.24-6.18Z"/></svg>