<svg width="14" height="13" viewBox="0 0 14 13" fill="none" xmlns="http://www.w3.org/2000/svg">
<path fill-rule="evenodd" clip-rule="evenodd" d="M12.5002 5.5C12.5002 7.70914 10.7094 9.5 8.50024 9.5C6.29111 9.5 4.50024 7.70914 4.50024 5.5C4.50024 3.29086 6.29111 1.5 8.50024 1.5C10.7094 1.5 12.5002 3.29086 12.5002 5.5ZM14.0002 5.5C14.0002 8.53757 11.5378 11 8.50024 11C7.10328 11 5.82796 10.4792 4.85786 9.62113L1.4941 12.5644L0.506348 11.4355L3.8794 8.48413C3.32317 7.6246 3.00024 6.60001 3.00024 5.5C3.00024 2.46243 5.46268 0 8.50024 0C11.5378 0 14.0002 2.46243 14.0002 5.5Z" fill="#1E1E1E"/>
</svg>
