<svg xmlns="http://www.w3.org/2000/svg" width="207" height="159" fill="none"><path fill="#fff" d="M192.516 148.016c-14.644 14.645-38.388 14.645-53.033 0-14.644-14.644-14.644-38.388 0-53.032 14.645-14.645 38.389-14.645 53.033 0 14.645 14.644 14.645 38.388 0 53.032Z"/><path fill="#E26F56" d="M190.782 146.247c-13.668 13.668-35.829 13.668-49.498 0-13.668-13.669-13.668-35.829 0-49.498 13.669-13.668 35.83-13.668 49.498 0 13.668 13.669 13.668 35.829 0 49.498Z"/><path fill="#fff" d="M179.453 118.581c-3.043-3.042-7.52-3.837-11.433-2.422a7.508 7.508 0 0 0 1.542-4.393v-.011a6.959 6.959 0 0 0-7.132-7.132 7.495 7.495 0 0 0-5.177 2.222 7.502 7.502 0 0 0-2.211 4.873l.765.017a6.71 6.71 0 0 1 1.977-4.359 6.7 6.7 0 0 1 4.632-1.988 6.226 6.226 0 0 1 6.381 6.379v.011c-.034 1.873-.875 3.669-2.307 4.931-1.776 1.563-3.735 1.705-5.054 1.675l-5.076-.116-2.615-.06-1.175-1.175 4.339.099 4.595.105c1.217.027 2.8-.104 4.246-1.377a5.572 5.572 0 0 0 1.9-4.061 5.128 5.128 0 0 0-5.255-5.255 5.524 5.524 0 0 0-3.813 1.64 5.526 5.526 0 0 0-1.629 3.58l.763.017c.151-2.438 2.202-4.426 4.665-4.471a4.395 4.395 0 0 1 4.504 4.505 4.773 4.773 0 0 1-1.629 3.48c-1.238 1.091-2.632 1.203-3.706 1.179l-4.596-.105-5.168-.118-1.184-1.185 4.538.104 6.478.148c.915.021 1.975-.067 2.898-.879a3.585 3.585 0 0 0 1.222-2.611 3.293 3.293 0 0 0-3.379-3.378c-1.848.034-3.388 1.527-3.498 3.359l.763.017c.086-1.424 1.283-2.585 2.721-2.611a2.564 2.564 0 0 1 2.628 2.628 2.787 2.787 0 0 1-.951 2.03c-.423.373-1.001.712-2.36.681l-6.478-.148-5.367-.123-.551.551 11.157 11.157a11.192 11.192 0 0 0-.025 1.627L148.44 115.66l-.551.551 12.652 12.651c.138.799.365 1.582.681 2.334l-14.16-14.16-.551.551 16.968 16.968c4.245 4.244 11.28 4.115 15.684-.289 4.403-4.403 4.532-11.439.288-15.683l.002-.002Zm-24.924.411 1.785.041 5.076.116a9.559 9.559 0 0 0 2.3-.199 11.525 11.525 0 0 0-3.138 6.066l-6.023-6.024Zm9.503 15.01c-3.952-3.951-3.832-10.502.268-14.601 4.1-4.1 10.65-4.221 14.602-.269s3.831 10.502-.269 14.602c-4.099 4.1-10.65 4.22-14.601.268Z"/><path fill="#fff" d="M178.076 119.958c-3.513-3.512-9.335-3.405-12.98.239-3.644 3.644-3.751 9.466-.238 12.979 3.512 3.513 9.335 3.406 12.979-.238 3.644-3.645 3.751-9.467.239-12.98Zm-12.668 12.667c-3.219-3.219-3.121-8.557.219-11.897 3.34-3.341 8.678-3.439 11.898-.219 3.22 3.22 3.122 8.558-.219 11.898-3.34 3.34-8.678 3.438-11.898.218Z"/><path fill="#fff" d="M176.699 121.335c-2.781-2.781-7.391-2.696-10.276.189-2.884 2.885-2.969 7.495-.188 10.275 2.78 2.781 7.39 2.696 10.275-.188 2.885-2.885 2.97-7.495.189-10.276Zm-9.745.72a6.8 6.8 0 0 1 2.269-1.502l-3.945 8.227c-.73-2.257-.165-4.884 1.676-6.725Zm-.169 9.194a6.18 6.18 0 0 1-1.084-1.468l5.439-2.729-2.568 5.355a.628.628 0 0 0-.025.073 6.163 6.163 0 0 1-1.763-1.231h.001Zm7.518-6.269c.288.258.564.474.564.474.274.215.618-.187.359-.416 0 0-.795-.674-1.269-1.149a27.186 27.186 0 0 1-1.134-1.254c-.23-.259-.646.1-.416.359 0 0 .201.262.431.521l-1.302 2.714-4.079 2.095 3.444-6.746c.288.258.563.474.563.474.274.214.618-.187.359-.417 0 0-.794-.674-1.268-1.148a10.186 10.186 0 0 1-.256-.266c2.07-.45 4.283.099 5.849 1.665a6.23 6.23 0 0 1 1.814 4.219l-.013-.014c-.445-.445-1.164-.358-1.596.074-.388.388-.5.931-.658 1.549-.141.485-.342 1.089-.924 1.671-.402.402-1.019.72-1.866 1.175l-2.019 1.116 3.417-6.696Zm3.34 3.386a6.782 6.782 0 0 1-1.664 2.714c-1.715 1.715-4.111 2.323-6.256 1.808l5.503-2.751c.929-.413 1.552-.863 2.029-1.34.145-.145.274-.288.388-.431ZM156.18 96.442l-.14-2.071.023-.01 1.233 1.633.592-.237-.226-3.164-.663.266.254 2.165-.025.01-1.254-1.763-.569.228.204 2.18-.024.009-1.205-1.778-.663.267 1.871 2.503.592-.238ZM163.579 92.87c.012.332.083.611.216.836.134.224.31.39.53.499.22.108.466.153.738.134.269-.02.511-.097.723-.235.213-.138.378-.328.496-.57a1.81 1.81 0 0 0 .161-.863c-.011-.333-.083-.612-.217-.836a1.244 1.244 0 0 0-.532-.498 1.422 1.422 0 0 0-.735-.133 1.503 1.503 0 0 0-.726.235 1.39 1.39 0 0 0-.495.57c-.118.242-.17.53-.16.863l.001-.001Zm.994-.953a.756.756 0 0 1 .406-.143.713.713 0 0 1 .413.086.698.698 0 0 1 .281.318c.069.144.108.323.115.539.007.215-.019.399-.078.551a.779.779 0 0 1-.26.356.752.752 0 0 1-.406.143.713.713 0 0 1-.413-.086.703.703 0 0 1-.282-.318 1.36 1.36 0 0 1-.114-.538c-.008-.216.019-.4.078-.552a.778.778 0 0 1 .26-.356ZM172.437 94.802l.28-1.057.456.105.281 1.186.69.158-.321-1.303.031-.006a.895.895 0 0 0 .454-.242c.123-.123.21-.284.262-.482.052-.197.055-.378.011-.543a.83.83 0 0 0-.272-.423 1.26 1.26 0 0 0-.541-.252l-1.166-.267-.788 2.983.625.144h-.002Zm1.074-2.37c.12.027.215.067.285.122.07.054.116.119.136.196a.498.498 0 0 1-.008.264.505.505 0 0 1-.123.232.386.386 0 0 1-.216.108.808.808 0 0 1-.311-.019l-.424-.097.239-.904.422.097ZM179.877 97.608c.265.152.526.23.78.232.255.002.493-.067.715-.209.221-.14.416-.35.582-.628.166-.277.256-.544.273-.802a1.215 1.215 0 0 0-.164-.71 1.544 1.544 0 0 0-.584-.548l-.933-.535-1.595 2.669.926.531Zm1.283-2.197a.982.982 0 0 1 .359.325.627.627 0 0 1 .087.42 1.37 1.37 0 0 1-.204.532 1.426 1.426 0 0 1-.375.438.674.674 0 0 1-.419.133.996.996 0 0 1-.465-.147l-.351-.201 1.017-1.702.351.202ZM186.43 101.406l.364.39c.158.168.324.282.499.34.176.059.35.066.525.02.174-.045.337-.139.487-.28.151-.141.256-.298.314-.467a.916.916 0 0 0 .021-.524 1.175 1.175 0 0 0-.298-.518l-.808-.866-2.273 2.13.433.464.736-.69v.001Zm1.436-.759a.65.65 0 0 1 .161.267.415.415 0 0 1-.01.254.574.574 0 0 1-.158.229.581.581 0 0 1-.238.142.418.418 0 0 1-.257-.005.61.61 0 0 1-.254-.176l-.294-.315.758-.71.292.313v.001ZM191.007 107.65l.206.417-.724 1.02.31.631.788-1.13.024.019c.142.111.298.17.467.179.17.009.346-.034.529-.128.182-.095.322-.216.419-.362a.894.894 0 0 0 .151-.494 1.284 1.284 0 0 0-.148-.582l-.525-1.067-2.755 1.432.282.572.976-.507Zm1.492-.291a.75.75 0 0 1 .086.299.4.4 0 0 1-.063.238.542.542 0 0 1-.205.174.51.51 0 0 1-.254.065.355.355 0 0 1-.217-.091.768.768 0 0 1-.18-.248l-.191-.389.834-.433.19.385ZM193.248 116.567l-.243-1.39.721-.151.223 1.281.525-.111-.223-1.281.718-.15.242 1.384.525-.11-.351-2.018-3.016.633.354 2.023.525-.11ZM195.852 123.424a1.44 1.44 0 0 0-.05-.605.959.959 0 0 0-.277-.435.767.767 0 0 0-.466-.184.703.703 0 0 0-.56.182 1.47 1.47 0 0 0-.36.588l-.12.326a1.794 1.794 0 0 1-.121.276.503.503 0 0 1-.138.167.256.256 0 0 1-.179.047.289.289 0 0 1-.187-.081.416.416 0 0 1-.112-.199.771.771 0 0 1-.016-.289.85.85 0 0 1 .085-.294.495.495 0 0 1 .176-.199.473.473 0 0 1 .264-.069l.069-.624a1.018 1.018 0 0 0-.568.119 1 1 0 0 0-.382.401 1.735 1.735 0 0 0-.184.635 1.63 1.63 0 0 0 .042.646.87.87 0 0 0 .271.428.809.809 0 0 0 .468.178.832.832 0 0 0 .344-.044.809.809 0 0 0 .276-.171c.082-.076.153-.168.215-.275.062-.108.115-.227.159-.358l.096-.269a1.64 1.64 0 0 1 .074-.184.8.8 0 0 1 .093-.15.355.355 0 0 1 .117-.097.246.246 0 0 1 .146-.024.273.273 0 0 1 .169.07c.046.042.081.1.102.175a.731.731 0 0 1 .015.271.639.639 0 0 1-.14.361.391.391 0 0 1-.296.132l-.068.618a.867.867 0 0 0 .494-.111c.148-.084.269-.208.366-.371.096-.164.156-.359.181-.585l.002-.002ZM190.688 131.252a.875.875 0 0 0 .139.492c.09.136.221.237.394.303a.816.816 0 0 0 .34.053.79.79 0 0 0 .31-.089c.098-.052.192-.121.281-.207a2.14 2.14 0 0 0 .251-.303l.166-.235c.039-.058.079-.11.122-.158a.75.75 0 0 1 .13-.119.351.351 0 0 1 .137-.062.249.249 0 0 1 .146.017.279.279 0 0 1 .141.116c.033.054.05.12.049.198a.764.764 0 0 1-.061.266.655.655 0 0 1-.234.312.387.387 0 0 1-.319.046l-.237.581c.17.061.336.071.501.031a.98.98 0 0 0 .451-.26 1.47 1.47 0 0 0 .335-.517c.085-.209.126-.41.121-.601a.97.97 0 0 0-.141-.5.755.755 0 0 0-.392-.308.683.683 0 0 0-.584.021c-.18.094-.349.25-.505.47l-.205.284a1.884 1.884 0 0 1-.191.234.502.502 0 0 1-.178.124.257.257 0 0 1-.183-.004.294.294 0 0 1-.155-.131.437.437 0 0 1-.051-.224.81.81 0 0 1 .066-.285.868.868 0 0 1 .162-.263.45.45 0 0 1 .493-.137l.24-.587a.988.988 0 0 0-.573-.042.983.983 0 0 0-.475.283c-.14.146-.257.334-.351.565a1.666 1.666 0 0 0-.14.638v-.002ZM147.516 99.934a.323.323 0 0 0 .075.168.326.326 0 0 0 .242.117c.1.004.187-.026.26-.088a.361.361 0 0 0 .13-.247.33.33 0 0 0-.078-.257.334.334 0 0 0-.243-.12.357.357 0 0 0-.262.088.353.353 0 0 0-.107.155.397.397 0 0 0-.018.184h.001ZM144.537 105.932l-1.858-2.58-.407.576.432.577-.648.918-.698-.2-.407.575 3.096.828.49-.694Zm-1.976-.365.456-.645.716.958-.014.02-1.158-.333ZM138.647 113.382l.009-.026 2.252-.696.187-.543-2.89-.9-.212.618 1.818.567-.007.022-2.257.705-.184.534 2.89.9.212-.615-1.818-.566ZM137.253 121.665l.001-.027 1.98-1.307.025-.567-3.057-.022-.028.647 1.924.013-.001.022-1.982 1.318-.025.559 3.057.021.028-.643-1.922-.014ZM139.728 127.562l-2.988.765.139.627 2.988-.766-.139-.626ZM140.065 135.43l-.013-.025 1.734-1.779-.327-.628-2.244 2.414.379.728 3.205-.57-.326-.626-2.408.486ZM143.57 141.775l1.421 1.45.387-.381-.976-.996.531-.521.899.918.387-.381-.898-.918.53-.519.971.991.388-.38-1.416-1.445-2.224 2.182ZM151.902 146.664a.873.873 0 0 0 .498-.112c.149-.086.277-.219.38-.398.103-.177.156-.352.158-.525a.837.837 0 0 0-.144-.485 1.24 1.24 0 0 0-.447-.392l-1.038-.577-1.562 2.686.557.31.553-.952.406.226-.055 1.23.613.342.049-1.356.031.004.001-.001Zm-.306-1.716.375.209c.107.06.187.125.239.196a.367.367 0 0 1 .077.228.522.522 0 0 1-.079.255.51.51 0 0 1-.181.192.379.379 0 0 1-.235.046.791.791 0 0 1-.29-.102l-.378-.211.472-.813ZM159.802 149.393a.744.744 0 0 0-.119-.293 1.023 1.023 0 0 0-.233-.242 1.898 1.898 0 0 0-.325-.198l-.249-.124a1.478 1.478 0 0 1-.168-.095.683.683 0 0 1-.131-.107.33.33 0 0 1-.075-.126.242.242 0 0 1 .002-.148.298.298 0 0 1 .1-.159.384.384 0 0 1 .192-.083.71.71 0 0 1 .27.016.58.58 0 0 1 .331.178.369.369 0 0 1 .078.308l.599.135a.85.85 0 0 0-.019-.501.894.894 0 0 0-.301-.403 1.386 1.386 0 0 0-.546-.244 1.473 1.473 0 0 0-.607-.017c-.19.038-.35.113-.482.226a.843.843 0 0 0-.268.442c-.058.22-.032.412.079.574.11.164.282.304.516.421l.301.155c.101.05.185.1.251.149a.447.447 0 0 1 .14.156.248.248 0 0 1 .014.181.324.324 0 0 1-.114.177.453.453 0 0 1-.217.088.782.782 0 0 1-.289-.016.782.782 0 0 1-.277-.116.453.453 0 0 1-.164-.196.465.465 0 0 1-.021-.27l-.605-.137a1 1 0 0 0 .014.575c.061.168.17.309.328.422.158.114.355.198.594.252.241.055.456.064.647.03a.951.951 0 0 0 .474-.222.885.885 0 0 0 .262-.443.821.821 0 0 0 .018-.345ZM166.291 147.962l-.971 3.122.693-.045.208-.711 1.104-.071.245.681.693-.044-1.138-2.986-.834.054Zm.448.67.408 1.132-.776.05.345-1.18.023-.002ZM175.475 147.856a.895.895 0 0 0 .257-.446.992.992 0 0 0-.038-.537.993.993 0 0 0-.287-.451.844.844 0 0 0-.464-.197 1.33 1.33 0 0 0-.601.09l-1.148.417.952 2.871.614-.223-.337-1.018.449-.164.888.818.679-.247-.987-.891.023-.022Zm-1.502-.852.414-.151a.78.78 0 0 1 .312-.056.37.37 0 0 1 .225.086c.06.051.105.124.137.22.031.094.039.18.021.258a.386.386 0 0 1-.126.206.828.828 0 0 1-.277.154l-.417.152-.289-.869ZM182.364 144.211l-.183-2.255-.601.428.16 1.476-.024.017-1.316-.652-.601.429 2.033.937.606.873.532-.379-.606-.874ZM187.069 139.573c.073.062.16.089.259.079a.365.365 0 0 0 .328-.298.378.378 0 0 0-.01-.183.33.33 0 0 0-.362-.229.359.359 0 0 0-.244.128.352.352 0 0 0-.089.262.33.33 0 0 0 .118.241Z"/><path fill="#33F078" d="M126.5 64.783c0-.35.147-.686.404-.921l1.957-1.805a1.247 1.247 0 0 0 .133-1.7c-1.447-1.787-2.379-3.73-2.485-6.309-.096-2.413.588-4.785 2.021-6.724 2.048-2.767 5.158-4.324 8.51-4.324a10.47 10.47 0 0 1 7.9 3.574c.459.52 1.244.543 1.768.092A14.85 14.85 0 0 1 156.444 43h34.317a1.38 1.38 0 0 1 1.378 1.382v7.202c0 .76.615 1.382 1.377 1.382h1.755a1.38 1.38 0 0 0 1.378-1.382v-7.202c0-.76.615-1.382 1.377-1.382h7.096a1.38 1.38 0 0 1 1.378 1.382V70.23c0 .124-.018.249-.051.368l-1.157 4.205c-.032.12-.05.244-.05.368v1.446c0 .76-.616 1.382-1.378 1.382h-76.115a1.252 1.252 0 0 1-1.249-1.253V64.783Z"/><path fill="#000" d="M130.188 72.029 129 75.452h.779l.256-.78h1.241l.255.78h.779l-1.186-3.423h-.936Zm.031 2.078.424-1.296h.026l.422 1.296h-.872ZM138.969 74.182h-.031l-1.485-2.153h-.638v3.423h.727v-2.154h.026l1.496 2.154h.628V72.03h-.723v2.153ZM146.536 74.182h-.03l-1.485-2.153h-.638v3.423h.728v-2.154h.024l1.497 2.154h.628V72.03h-.724v2.153ZM152.678 72.029h-.727v3.423h.727V72.03ZM158.854 74.63h-.032l-.831-2.601h-.808l1.187 3.423h.938l1.186-3.423h-.807l-.833 2.6ZM165.725 74.038h1.471v-.596h-1.471v-.816h1.591v-.597h-2.318v3.423h2.325v-.596h-1.598v-.818ZM174.001 74.109a.954.954 0 0 0 .427-.375c.098-.164.148-.359.148-.587 0-.227-.048-.422-.145-.59a.975.975 0 0 0-.421-.39 1.481 1.481 0 0 0-.666-.137h-1.357v3.423h.728v-1.214h.53l.652 1.214h.803l-.731-1.332c.011-.004.022-.007.032-.012Zm-1.287-1.488h.49c.14 0 .256.02.348.06.092.041.162.101.207.179a.577.577 0 0 1 .067.287.54.54 0 0 1-.067.283.423.423 0 0 1-.206.17.919.919 0 0 1-.346.057h-.493V72.62ZM181.499 73.807c-.092-.081-.2-.15-.326-.205a2.183 2.183 0 0 0-.413-.134l-.308-.073a1.78 1.78 0 0 1-.212-.061.82.82 0 0 1-.175-.085.405.405 0 0 1-.118-.119.285.285 0 0 1-.04-.16.32.32 0 0 1 .065-.197.421.421 0 0 1 .187-.136.82.82 0 0 1 .301-.05.69.69 0 0 1 .415.112.42.42 0 0 1 .173.314h.697a.957.957 0 0 0-.164-.538 1.06 1.06 0 0 0-.447-.363 1.59 1.59 0 0 0-.669-.13 1.64 1.64 0 0 0-.671.13 1.123 1.123 0 0 0-.465.363.89.89 0 0 0-.166.543c-.001.254.082.455.25.604.167.148.397.259.687.329l.375.093c.125.03.231.064.318.1a.528.528 0 0 1 .198.134.288.288 0 0 1 .068.194.34.34 0 0 1-.076.22.5.5 0 0 1-.212.148.878.878 0 0 1-.322.053.938.938 0 0 1-.337-.057.533.533 0 0 1-.237-.172.515.515 0 0 1-.099-.287h-.704c.006.247.066.453.181.62.115.167.275.293.481.376.205.085.447.127.724.127.278 0 .52-.042.719-.126.198-.084.35-.203.456-.356a.949.949 0 0 0 .161-.544.861.861 0 0 0-.292-.667h-.003ZM187.29 72.029l-1.188 3.423h.78l.255-.78h1.242l.254.78h.779l-1.185-3.423h-.937Zm.032 2.078.423-1.296h.027l.422 1.296h-.872ZM195.933 74.109a.965.965 0 0 0 .427-.375c.098-.164.148-.359.148-.587 0-.227-.048-.422-.145-.59a.983.983 0 0 0-.422-.39 1.48 1.48 0 0 0-.665-.137h-1.357v3.423h.727v-1.214h.531l.652 1.214h.803l-.731-1.332.032-.012Zm-1.288-1.488h.49c.141 0 .257.02.349.06.092.041.161.101.206.179a.567.567 0 0 1 .068.287.531.531 0 0 1-.068.283.417.417 0 0 1-.205.17.922.922 0 0 1-.346.057h-.494V72.62ZM203.186 72.029l-.785 1.475h-.033l-.784-1.475h-.815l1.255 2.213v1.21h.721v-1.21L204 72.029h-.814ZM156.487 47.64c-5.69 0-10.32 4.606-10.32 10.269 0 5.662 4.63 10.269 10.32 10.269s10.32-4.607 10.32-10.27c0-5.662-4.63-10.269-10.32-10.269Zm0 19.682c-5.216 0-9.46-4.223-9.46-9.413s4.244-9.414 9.46-9.414c5.216 0 9.46 4.224 9.46 9.414 0 5.19-4.244 9.413-9.46 9.413Z"/><path fill="#000" d="M156.487 49.779c-4.504 0-8.17 3.647-8.17 8.13 0 4.482 3.666 8.13 8.17 8.13 4.505 0 8.17-3.648 8.17-8.13 0-4.483-3.665-8.13-8.17-8.13Zm-7.31 8.13c0-1.042.223-2.033.621-2.93l3.468 9.458c-2.419-1.187-4.089-3.667-4.089-6.528Zm7.31 7.274c-.717 0-1.41-.106-2.066-.298l2.194-6.346 2.258 6.155a.63.63 0 0 0 .038.076 7.31 7.31 0 0 1-2.425.414l.001-.001Zm1.012-10.711c.442-.023.84-.07.84-.07.396-.046.35-.625-.046-.602 0 0-1.189.093-1.958.093-.722 0-1.934-.093-1.934-.093-.397-.023-.443.58-.047.603 0 0 .375.046.771.069l1.144 3.12-1.607 4.797-2.674-7.917c.443-.023.84-.07.84-.07.395-.046.349-.625-.047-.602 0 0-1.19.093-1.958.093-.124 0-.268-.002-.422-.007a7.316 7.316 0 0 1 6.086-3.251c1.876 0 3.59.707 4.886 1.869l-.021-.001c-.722 0-1.233.625-1.233 1.297 0 .603.349 1.112.721 1.714.28.487.606 1.113.606 2.017 0 .625-.242 1.35-.559 2.362l-.733 2.436-2.655-7.857Zm5.447.036a7.19 7.19 0 0 1 .851 3.4c0 2.666-1.448 5-3.603 6.266l2.228-6.413c.419-1.042.559-1.876.559-2.617 0-.225-.012-.437-.035-.636ZM187.551 45.5h-.86v24.817h.86V45.5Z"/><path fill="#000" d="M156.486 45.5c-4.928 0-9.198 2.86-11.222 7a8.114 8.114 0 0 0-2.309-4.61l-.009-.01c-3.184-3.169-8.368-3.169-11.553.002A8.055 8.055 0 0 0 129 53.63c0 2.058.764 3.999 2.157 5.503l.633-.58a7.203 7.203 0 0 1-1.93-4.923c0-1.943.76-3.77 2.141-5.143 2.85-2.836 7.488-2.836 10.336-.002l.009.008a7.258 7.258 0 0 1 2.125 5.624c-.172 2.595-1.645 4.227-2.737 5.228l-4.205 3.853-2.166 1.986h-1.904l3.595-3.294 3.807-3.49c1.007-.923 2.183-2.255 2.323-4.367a5.972 5.972 0 0 0-1.75-4.632c-2.347-2.335-6.166-2.335-8.513 0a5.936 5.936 0 0 0-1.76 4.237 5.93 5.93 0 0 0 1.58 4.047l.633-.58a5.123 5.123 0 0 1 .156-7.098 5.183 5.183 0 0 1 7.297 0 5.122 5.122 0 0 1 1.5 3.97c-.12 1.81-1.158 2.98-2.048 3.796a6577.996 6577.996 0 0 1-3.807 3.489l-4.282 3.922h-1.92l3.76-3.444 5.367-4.918c.758-.695 1.545-1.588 1.635-2.935a3.843 3.843 0 0 0-1.125-2.978 3.854 3.854 0 0 0-2.736-1.128c-1.034 0-2.006.4-2.737 1.128a3.842 3.842 0 0 0-.113 5.328l.633-.579a2.987 2.987 0 0 1 .088-4.143 3.024 3.024 0 0 1 4.257 0 2.99 2.99 0 0 1 .875 2.317c-.041.617-.234 1.33-1.36 2.362l-5.367 4.918-4.447 4.07v.857h18.074c.401.458.834.887 1.298 1.283H129v.856h20.495c.758.513 1.576.945 2.441 1.284H129v.855h27.487c6.875 0 12.469-5.566 12.469-12.408 0-2.716-.881-5.23-2.373-7.274h7.587v19.682h.86V50.635h1.289v19.682h.86V50.635h1.29v19.682h.86V50.635h5.213v19.682h.86V45.5h-28.916Zm-19.854 19.683 1.479-1.356 4.206-3.853c.539-.494 1.161-1.13 1.701-1.941a12.306 12.306 0 0 0 2.372 7.15h-9.758Zm19.855 4.279c-6.402 0-11.609-5.183-11.609-11.553 0-6.37 5.207-11.553 11.609-11.553s11.61 5.182 11.61 11.553c0 6.37-5.208 11.553-11.61 11.553Zm28.054-19.683h-18.642c-.4-.459-.834-.888-1.297-1.284h19.939v1.284Zm0-2.14h-21.062a12.531 12.531 0 0 0-2.442-1.283h23.504v1.283ZM203.994 45.5h-.86v24.817h.86V45.5ZM201.844 45.5h-.86v24.817h.86V45.5ZM198.834 55.341h-9.133V45.5h-.86v24.817h.86v-9.841h9.133v9.841h.86V45.5h-.86v9.841Zm0 4.28h-9.133v-1.284h9.133v1.283Zm0-2.14h-9.133v-1.284h9.133v1.284Z"/><path fill="#fff" d="M126.5 21.783c0-.35.147-.686.404-.921l1.957-1.805a1.247 1.247 0 0 0 .133-1.7c-1.447-1.787-2.379-3.73-2.485-6.309-.096-2.413.588-4.785 2.021-6.724C130.578 1.557 133.688 0 137.04 0a10.47 10.47 0 0 1 7.9 3.574c.459.52 1.244.543 1.768.092A14.85 14.85 0 0 1 156.444 0h34.317a1.38 1.38 0 0 1 1.378 1.382v7.202c0 .76.615 1.382 1.377 1.382h1.755a1.38 1.38 0 0 0 1.378-1.382V1.382c0-.76.615-1.382 1.377-1.382h7.096a1.38 1.38 0 0 1 1.378 1.382V27.23c0 .124-.018.249-.051.368l-1.157 4.205c-.032.12-.05.244-.05.368v1.446c0 .76-.616 1.382-1.378 1.382h-76.115a1.252 1.252 0 0 1-1.249-1.253V21.783Z"/><path fill="#000" d="M130.188 29.029 129 32.452h.779l.256-.78h1.241l.255.78h.779l-1.186-3.423h-.936Zm.031 2.078.424-1.296h.026l.422 1.296h-.872ZM138.969 31.182h-.031l-1.485-2.153h-.638v3.423h.727v-2.154h.026l1.496 2.154h.628V29.03h-.723v2.153ZM146.536 31.182h-.03l-1.485-2.153h-.638v3.423h.728v-2.154h.024l1.497 2.154h.628V29.03h-.724v2.153ZM152.678 29.029h-.727v3.423h.727V29.03ZM158.854 31.63h-.032l-.831-2.601h-.808l1.187 3.423h.938l1.186-3.423h-.807l-.833 2.6ZM165.725 31.038h1.471v-.596h-1.471v-.816h1.591v-.597h-2.318v3.423h2.325v-.596h-1.598v-.818ZM174.001 31.108a.954.954 0 0 0 .427-.374c.098-.164.148-.359.148-.587 0-.227-.048-.422-.145-.59a.975.975 0 0 0-.421-.39 1.481 1.481 0 0 0-.666-.137h-1.357v3.423h.728v-1.214h.53l.652 1.214h.803l-.731-1.332c.011-.004.022-.007.032-.012Zm-1.287-1.487h.49c.14 0 .256.02.348.06.092.041.162.101.207.179a.577.577 0 0 1 .067.288.54.54 0 0 1-.067.282.423.423 0 0 1-.206.17.919.919 0 0 1-.346.057h-.493V29.62ZM181.499 30.807c-.092-.081-.2-.15-.326-.205a2.183 2.183 0 0 0-.413-.134l-.308-.073a1.78 1.78 0 0 1-.212-.061.82.82 0 0 1-.175-.085.405.405 0 0 1-.118-.119.285.285 0 0 1-.04-.16.32.32 0 0 1 .065-.197.421.421 0 0 1 .187-.136.82.82 0 0 1 .301-.05.69.69 0 0 1 .415.112.42.42 0 0 1 .173.314h.697a.957.957 0 0 0-.164-.538 1.06 1.06 0 0 0-.447-.363 1.59 1.59 0 0 0-.669-.13 1.64 1.64 0 0 0-.671.13 1.123 1.123 0 0 0-.465.363.89.89 0 0 0-.166.543c-.001.254.082.455.25.604.167.148.397.259.687.329l.375.093c.125.03.231.064.318.1a.528.528 0 0 1 .198.134.288.288 0 0 1 .068.194.34.34 0 0 1-.076.22.5.5 0 0 1-.212.148.878.878 0 0 1-.322.053.938.938 0 0 1-.337-.057.533.533 0 0 1-.237-.172.515.515 0 0 1-.099-.287h-.704c.006.247.066.453.181.62.115.167.275.292.481.376.205.085.447.127.724.127.278 0 .52-.042.719-.126.198-.084.35-.203.456-.356a.949.949 0 0 0 .161-.544.861.861 0 0 0-.292-.667h-.003ZM187.29 29.029l-1.188 3.423h.78l.255-.78h1.242l.254.78h.779l-1.185-3.423h-.937Zm.032 2.078.423-1.296h.027l.422 1.296h-.872ZM195.933 31.108a.965.965 0 0 0 .427-.374c.098-.164.148-.359.148-.587 0-.227-.048-.422-.145-.59a.983.983 0 0 0-.422-.39 1.48 1.48 0 0 0-.665-.137h-1.357v3.423h.727v-1.214h.531l.652 1.214h.803l-.731-1.332.032-.012Zm-1.288-1.487h.49c.141 0 .257.02.349.06.092.041.161.101.206.179a.567.567 0 0 1 .068.288.531.531 0 0 1-.068.282.417.417 0 0 1-.205.17.922.922 0 0 1-.346.057h-.494V29.62ZM203.186 29.029l-.785 1.474h-.033l-.784-1.474h-.815l1.255 2.213v1.21h.721v-1.21L204 29.029h-.814ZM156.487 4.64c-5.69 0-10.32 4.606-10.32 10.269 0 5.662 4.63 10.269 10.32 10.269s10.32-4.607 10.32-10.27c0-5.662-4.63-10.269-10.32-10.269Zm0 19.682c-5.216 0-9.46-4.223-9.46-9.413s4.244-9.414 9.46-9.414c5.216 0 9.46 4.223 9.46 9.414 0 5.19-4.244 9.413-9.46 9.413Z"/><path fill="#000" d="M156.487 6.779c-4.504 0-8.17 3.647-8.17 8.13 0 4.482 3.666 8.13 8.17 8.13 4.505 0 8.17-3.648 8.17-8.13 0-4.483-3.665-8.13-8.17-8.13Zm-7.31 8.13c0-1.042.223-2.033.621-2.93l3.468 9.458c-2.419-1.187-4.089-3.667-4.089-6.528Zm7.31 7.274c-.717 0-1.41-.105-2.066-.298l2.194-6.346 2.258 6.155a.63.63 0 0 0 .038.076 7.31 7.31 0 0 1-2.425.414l.001-.001Zm1.012-10.711c.442-.023.84-.07.84-.07.396-.046.35-.625-.046-.602 0 0-1.189.093-1.958.093-.722 0-1.934-.093-1.934-.093-.397-.023-.443.58-.047.603 0 0 .375.046.771.069l1.144 3.12-1.607 4.798-2.674-7.918c.443-.023.84-.07.84-.07.395-.046.349-.625-.047-.602 0 0-1.19.093-1.958.093-.124 0-.268-.002-.422-.007a7.316 7.316 0 0 1 6.086-3.251c1.876 0 3.59.707 4.886 1.869l-.021-.001c-.722 0-1.233.625-1.233 1.297 0 .603.349 1.112.721 1.714.28.487.606 1.113.606 2.017 0 .625-.242 1.35-.559 2.362l-.733 2.436-2.655-7.857Zm5.447.036a7.19 7.19 0 0 1 .851 3.4c0 2.666-1.448 5-3.603 6.266l2.228-6.412c.419-1.043.559-1.877.559-2.618 0-.225-.012-.437-.035-.636ZM187.551 2.5h-.86v24.817h.86V2.5Z"/><path fill="#000" d="M156.486 2.5c-4.928 0-9.198 2.86-11.222 7a8.114 8.114 0 0 0-2.309-4.61l-.009-.01c-3.184-3.169-8.368-3.169-11.553.002A8.055 8.055 0 0 0 129 10.63c0 2.058.764 3.999 2.157 5.503l.633-.58a7.203 7.203 0 0 1-1.93-4.923c0-1.943.76-3.77 2.141-5.143 2.85-2.836 7.488-2.836 10.336-.002l.009.008a7.258 7.258 0 0 1 2.125 5.624c-.172 2.594-1.645 4.226-2.737 5.228l-4.205 3.853-2.166 1.986h-1.904l3.595-3.294 3.807-3.49c1.007-.923 2.183-2.255 2.323-4.367a5.972 5.972 0 0 0-1.75-4.632c-2.347-2.335-6.166-2.335-8.513 0a5.936 5.936 0 0 0-1.76 4.237 5.93 5.93 0 0 0 1.58 4.046l.633-.579a5.123 5.123 0 0 1 .156-7.098 5.183 5.183 0 0 1 7.297 0 5.122 5.122 0 0 1 1.5 3.97c-.12 1.81-1.158 2.98-2.048 3.796a6577.996 6577.996 0 0 1-3.807 3.489l-4.282 3.922h-1.92l3.76-3.444 5.367-4.918c.758-.695 1.545-1.588 1.635-2.935a3.842 3.842 0 0 0-1.125-2.978 3.854 3.854 0 0 0-2.736-1.128c-1.034 0-2.006.4-2.737 1.128a3.842 3.842 0 0 0-.113 5.328l.633-.579a2.987 2.987 0 0 1 .088-4.143 3.024 3.024 0 0 1 4.257 0 2.99 2.99 0 0 1 .875 2.317c-.041.617-.234 1.33-1.36 2.362l-5.367 4.918-4.447 4.07v.857h18.074c.401.458.834.887 1.298 1.283H129v.856h20.495c.758.513 1.576.945 2.441 1.284H129v.855h27.487c6.875 0 12.469-5.566 12.469-12.408 0-2.716-.881-5.23-2.373-7.274h7.587v19.682h.86V7.635h1.289v19.682h.86V7.635h1.29v19.682h.86V7.635h5.213v19.682h.86V2.5h-28.916Zm-19.854 19.683 1.479-1.356 4.206-3.853c.539-.494 1.161-1.13 1.701-1.941a12.306 12.306 0 0 0 2.372 7.15h-9.758Zm19.855 4.279c-6.402 0-11.609-5.183-11.609-11.553 0-6.37 5.207-11.553 11.609-11.553s11.61 5.182 11.61 11.553c0 6.37-5.208 11.553-11.61 11.553Zm28.054-19.683h-18.642c-.4-.459-.834-.888-1.297-1.284h19.939V6.78Zm0-2.14h-21.062a12.53 12.53 0 0 0-2.442-1.283h23.504v1.283ZM203.994 2.5h-.86v24.817h.86V2.5ZM201.844 2.5h-.86v24.817h.86V2.5ZM198.834 12.341h-9.133V2.5h-.86v24.817h.86v-9.841h9.133v9.841h.86V2.5h-.86v9.841Zm0 4.28h-9.133v-1.284h9.133v1.283Zm0-2.14h-9.133v-1.284h9.133v1.284Z"/><path fill="#fff" d="M1.41 35c-.453 0-.884-.223-1.148-.6a1.456 1.456 0 0 1-.186-1.298l1.217-3.586a.252.252 0 0 0-.06-.258l-.71-.7a1.091 1.091 0 0 1-.322-.772v-5.784c0-.3.125-.588.34-.791l2.698-2.53a.593.593 0 0 0 .19-.422.622.622 0 0 0-.16-.434l-.366-.396a10.471 10.471 0 0 1-2.698-7.037c0-2.779 1.065-5.388 2.996-7.348a10.05 10.05 0 0 1 7.225-3.04c2.736 0 5.298 1.08 7.225 3.04.397.403.767.85 1.096 1.322a.6.6 0 0 0 .495.261c.151 0 .29-.057.393-.169C22.385 1.626 26.179 0 30.049 0c8.04 0 14.586 6.656 14.586 14.835 0 4.55-2.018 8.79-5.54 11.625a.61.61 0 0 0-.2.688c.03.093.166.396.551.396h4.236c.223 0 .45.058.635.185.692.48.858 1.303.499 1.948l-1.425 2.571a.265.265 0 0 0-.03.12v1.552c0 .596-.472 1.076-1.058 1.076H1.41V35Z"/><path fill="#3858E9" d="M3.682 29.029 2.5 32.452h.775l.255-.78h1.235l.254.78h.775l-1.18-3.423H3.68Zm.031 2.078.422-1.296h.026l.42 1.296h-.868ZM8.932 31.182h-.03L7.424 29.03H6.79v3.423h.724v-2.154h.025l1.489 2.154h.626V29.03h-.721v2.153ZM12.976 31.182h-.03l-1.478-2.153h-.635v3.423h.724v-2.154h.024l1.49 2.154h.625V29.03h-.72v2.153ZM15.6 29.029h-.724v3.423h.724V29.03ZM18.257 31.63h-.031l-.827-2.601h-.804l1.181 3.423h.933l1.18-3.423h-.802l-.83 2.6ZM21.608 31.038h1.464v-.596h-1.464v-.816h1.582v-.597h-2.306v3.423h2.313v-.596h-1.59v-.818ZM26.355 31.108a.955.955 0 0 0 .426-.374c.097-.163.147-.359.147-.587 0-.227-.048-.422-.145-.59a.974.974 0 0 0-.419-.39 1.467 1.467 0 0 0-.662-.137h-1.35v3.423h.723v-1.214h.528l.649 1.214h.8l-.728-1.332c.01-.004.022-.007.032-.012Zm-1.28-1.487h.487c.14 0 .255.02.347.06.091.041.16.101.205.179a.572.572 0 0 1 .068.288.537.537 0 0 1-.068.282.418.418 0 0 1-.204.17.908.908 0 0 1-.344.057h-.491V29.62v.001ZM30.33 30.807c-.092-.081-.2-.15-.325-.205a2.181 2.181 0 0 0-.41-.134l-.308-.073a1.781 1.781 0 0 1-.21-.061.8.8 0 0 1-.174-.085.398.398 0 0 1-.118-.119.272.272 0 0 1-.04-.16c0-.074.022-.14.065-.197a.423.423 0 0 1 .187-.136.81.81 0 0 1 .299-.05c.174 0 .312.038.413.112.1.074.159.18.172.314h.694a.966.966 0 0 0-.164-.538 1.054 1.054 0 0 0-.444-.363 1.58 1.58 0 0 0-.666-.13c-.254 0-.472.044-.668.13-.196.086-.35.208-.462.363a.89.89 0 0 0-.166.543c-.001.254.082.455.249.604.166.148.395.259.683.329l.373.093c.126.03.23.064.317.1a.523.523 0 0 1 .197.134.29.29 0 0 1 .068.194.342.342 0 0 1-.076.22.497.497 0 0 1-.211.148.869.869 0 0 1-.32.053.93.93 0 0 1-.336-.057.528.528 0 0 1-.235-.172.519.519 0 0 1-.1-.287h-.7c.007.247.066.453.18.62.115.167.274.292.479.376.204.084.445.127.721.127.277 0 .517-.042.715-.126.197-.084.349-.203.454-.356a.952.952 0 0 0 .16-.544.857.857 0 0 0-.291-.667h-.002ZM32.604 29.029l-1.181 3.423h.775l.254-.78h1.236l.253.78h.776l-1.18-3.423h-.934.001Zm.032 2.078.421-1.296h.027l.42 1.296h-.869.001ZM37.717 31.108a.954.954 0 0 0 .425-.374 1.12 1.12 0 0 0 .147-.587c0-.227-.048-.422-.144-.59a.974.974 0 0 0-.42-.39 1.468 1.468 0 0 0-.662-.137h-1.35v3.423h.724v-1.214h.528l.648 1.214h.8l-.728-1.332.033-.012h-.001Zm-1.281-1.487h.487c.14 0 .255.02.347.06.092.041.161.101.205.179a.572.572 0 0 1 .068.288.538.538 0 0 1-.068.282.419.419 0 0 1-.204.17.907.907 0 0 1-.344.057h-.491V29.62v.001ZM40.667 30.503h-.034l-.78-1.474h-.81l1.248 2.213v1.21h.718v-1.21l1.248-2.213h-.81l-.78 1.474ZM29.853 2.5c-4.904 0-9.153 2.86-11.167 7a8.132 8.132 0 0 0-2.299-4.61l-.008-.01c-3.17-3.169-8.328-3.169-11.497.002A8.072 8.072 0 0 0 2.5 10.63c0 2.058.76 3.999 2.146 5.503l.63-.58a7.222 7.222 0 0 1-1.92-4.923c0-1.943.756-3.77 2.13-5.143 2.837-2.836 7.452-2.836 10.286-.002l.009.008a7.275 7.275 0 0 1 2.114 5.624c-.17 2.594-1.636 4.226-2.723 5.228l-4.184 3.853-2.156 1.986H6.937l3.577-3.294c1.263-1.163 2.527-2.326 3.789-3.49 1.003-.923 2.173-2.255 2.312-4.367A5.993 5.993 0 0 0 14.874 6.4a5.997 5.997 0 0 0-8.472 0 5.95 5.95 0 0 0-1.751 4.237c0 1.513.556 2.94 1.572 4.046l.63-.579a5.14 5.14 0 0 1 .155-7.098 5.14 5.14 0 0 1 7.262 0 5.136 5.136 0 0 1 1.492 3.97c-.119 1.81-1.152 2.98-2.038 3.796l-3.788 3.489-4.261 3.922H3.764l3.741-3.444 5.341-4.918c.755-.695 1.538-1.588 1.627-2.935a3.853 3.853 0 0 0-3.842-4.106c-1.029 0-1.996.4-2.723 1.128a3.855 3.855 0 0 0-.112 5.328l.629-.579a2.998 2.998 0 0 1 .088-4.143 2.995 2.995 0 0 1 5.106 2.317c-.04.617-.233 1.33-1.353 2.362l-5.34 4.918-4.426 4.07v.857h17.986c.399.458.83.887 1.291 1.283H2.5v.856h20.395c.755.513 1.568.945 2.43 1.284H2.5v.855h27.353c6.842 0 12.409-5.566 12.409-12.408S36.695 2.5 29.853 2.5ZM10.095 22.183l1.472-1.356 4.185-3.853c.536-.494 1.156-1.13 1.693-1.941a12.345 12.345 0 0 0 2.36 7.15h-9.71Zm19.758 4.279c-6.37 0-11.553-5.183-11.553-11.553 0-6.37 5.183-11.553 11.553-11.553 6.37 0 11.553 5.182 11.553 11.553 0 6.37-5.182 11.553-11.553 11.553Z"/><path fill="#3858E9" d="M29.853 4.64c-5.663 0-10.27 4.606-10.27 10.269 0 5.662 4.607 10.269 10.27 10.269 5.663 0 10.27-4.607 10.27-10.27 0-5.662-4.607-10.269-10.27-10.269Zm0 19.682c-5.19 0-9.413-4.223-9.413-9.413s4.223-9.414 9.413-9.414 9.414 4.223 9.414 9.414c0 5.19-4.224 9.413-9.414 9.413Z"/><path fill="#3858E9" d="M29.853 6.779c-4.482 0-8.13 3.647-8.13 8.13 0 4.482 3.648 8.13 8.13 8.13 4.483 0 8.13-3.648 8.13-8.13 0-4.483-3.647-8.13-8.13-8.13Zm-7.274 8.13c0-1.042.222-2.033.618-2.93l3.451 9.458a7.283 7.283 0 0 1-4.07-6.528h.001Zm7.274 7.274a7.26 7.26 0 0 1-2.056-.298l2.184-6.346 2.246 6.155a.578.578 0 0 0 .039.076 7.246 7.246 0 0 1-2.414.414l.001-.001Zm1.007-10.711c.44-.023.836-.07.836-.07.394-.046.348-.625-.046-.602 0 0-1.183.093-1.948.093-.718 0-1.925-.093-1.925-.093-.395-.023-.44.58-.046.603 0 0 .373.046.766.069l1.14 3.12-1.6 4.798-2.661-7.918c.44-.023.836-.07.836-.07.393-.046.347-.625-.047-.602 0 0-1.184.093-1.948.093-.123 0-.267-.002-.42-.007a7.272 7.272 0 0 1 6.056-3.251c1.867 0 3.573.707 4.863 1.869l-.022-.001c-.718 0-1.227.625-1.227 1.297 0 .603.348 1.112.718 1.714.278.487.602 1.113.602 2.017 0 .625-.24 1.35-.556 2.362l-.729 2.436-2.642-7.857Zm2.682 9.702 2.218-6.412c.416-1.043.556-1.877.556-2.618 0-.225-.013-.437-.036-.636a7.224 7.224 0 0 1 .846 3.4 7.275 7.275 0 0 1-3.584 6.266Z"/><path fill="#fff" d="M1.41 78c-.453 0-.884-.223-1.148-.6a1.456 1.456 0 0 1-.186-1.299l1.217-3.585a.252.252 0 0 0-.06-.258l-.71-.7a1.091 1.091 0 0 1-.322-.772v-5.784c0-.3.125-.588.34-.791l2.698-2.53a.593.593 0 0 0 .19-.422.622.622 0 0 0-.16-.434l-.366-.396a10.471 10.471 0 0 1-2.698-7.037c0-2.779 1.065-5.388 2.996-7.348a10.05 10.05 0 0 1 7.225-3.04c2.736 0 5.298 1.08 7.225 3.04.397.403.767.85 1.096 1.322a.6.6 0 0 0 .495.261c.151 0 .29-.057.393-.169C22.385 44.626 26.179 43 30.049 43c8.04 0 14.586 6.656 14.586 14.835 0 4.55-2.018 8.79-5.54 11.625a.61.61 0 0 0-.2.688c.03.093.166.396.551.396h4.236c.223 0 .45.058.635.185.692.48.858 1.302.499 1.948l-1.425 2.571a.265.265 0 0 0-.03.12v1.552c0 .596-.472 1.076-1.058 1.076H1.41V78Z"/><path fill="#E26F56" d="M3.682 72.029 2.5 75.452h.775l.255-.78h1.235l.254.78h.775l-1.18-3.423H3.68Zm.031 2.078.422-1.296h.026l.42 1.296h-.868ZM8.932 74.182h-.03L7.424 72.03H6.79v3.423h.724v-2.154h.025l1.489 2.154h.626V72.03h-.721v2.153ZM12.976 74.182h-.03l-1.478-2.153h-.635v3.423h.724v-2.154h.024l1.49 2.154h.625V72.03h-.72v2.153ZM15.6 72.029h-.724v3.423h.724V72.03ZM18.257 74.63h-.031l-.827-2.601h-.804l1.181 3.423h.933l1.18-3.423h-.802l-.83 2.6ZM21.608 74.038h1.464v-.596h-1.464v-.816h1.582v-.597h-2.306v3.423h2.313v-.596h-1.59v-.818ZM26.355 74.109a.955.955 0 0 0 .426-.375c.097-.163.147-.359.147-.587 0-.227-.048-.422-.145-.59a.974.974 0 0 0-.419-.39 1.467 1.467 0 0 0-.662-.137h-1.35v3.423h.723v-1.214h.528l.649 1.214h.8l-.728-1.332c.01-.004.022-.007.032-.012Zm-1.28-1.488h.487c.14 0 .255.02.347.06.091.041.16.101.205.179a.572.572 0 0 1 .068.287.537.537 0 0 1-.068.283.418.418 0 0 1-.204.17.908.908 0 0 1-.344.057h-.491V72.62v.001ZM30.33 73.807c-.092-.081-.2-.15-.325-.205a2.181 2.181 0 0 0-.41-.134l-.308-.073a1.781 1.781 0 0 1-.21-.061.8.8 0 0 1-.174-.085.398.398 0 0 1-.118-.119.272.272 0 0 1-.04-.16c0-.074.022-.14.065-.197a.423.423 0 0 1 .187-.136.81.81 0 0 1 .299-.05c.174 0 .312.038.413.112.1.075.159.18.172.314h.694a.966.966 0 0 0-.164-.538 1.054 1.054 0 0 0-.444-.363 1.58 1.58 0 0 0-.666-.13c-.254 0-.472.044-.668.13-.196.086-.35.208-.462.363a.89.89 0 0 0-.166.543c-.001.254.082.455.249.604.166.148.395.259.683.329l.373.093c.126.03.23.064.317.1a.523.523 0 0 1 .197.134.29.29 0 0 1 .068.194.342.342 0 0 1-.076.22.497.497 0 0 1-.211.148.869.869 0 0 1-.32.053.93.93 0 0 1-.336-.057.528.528 0 0 1-.235-.172.519.519 0 0 1-.1-.287h-.7c.007.247.066.453.18.62.115.167.274.293.479.376.204.084.445.127.721.127.277 0 .517-.042.715-.126.197-.084.349-.203.454-.356a.952.952 0 0 0 .16-.544.857.857 0 0 0-.291-.667h-.002ZM32.604 72.029l-1.181 3.423h.775l.254-.78h1.236l.253.78h.776l-1.18-3.423h-.934.001Zm.032 2.078.421-1.296h.027l.42 1.296h-.869.001ZM37.717 74.109a.954.954 0 0 0 .425-.375 1.12 1.12 0 0 0 .147-.587c0-.227-.048-.422-.144-.59a.974.974 0 0 0-.42-.39 1.468 1.468 0 0 0-.662-.137h-1.35v3.423h.724v-1.214h.528l.648 1.214h.8l-.728-1.332.033-.012h-.001Zm-1.281-1.488h.487c.14 0 .255.02.347.06.092.041.161.101.205.179a.572.572 0 0 1 .068.287.538.538 0 0 1-.068.283.419.419 0 0 1-.204.17.907.907 0 0 1-.344.057h-.491V72.62v.001ZM40.667 73.504h-.034l-.78-1.475h-.81l1.248 2.213v1.21h.718v-1.21l1.248-2.213h-.81l-.78 1.475ZM29.853 45.5c-4.904 0-9.153 2.86-11.167 7a8.132 8.132 0 0 0-2.299-4.61l-.008-.01c-3.17-3.169-8.328-3.169-11.497.002A8.073 8.073 0 0 0 2.5 53.63c0 2.058.76 3.999 2.146 5.503l.63-.58a7.222 7.222 0 0 1-1.92-4.923c0-1.943.756-3.77 2.13-5.143 2.837-2.836 7.452-2.836 10.286-.002l.009.008a7.275 7.275 0 0 1 2.114 5.624c-.17 2.595-1.636 4.227-2.723 5.228l-4.184 3.853-2.156 1.986H6.937l3.577-3.294c1.263-1.163 2.527-2.326 3.789-3.49 1.003-.923 2.173-2.255 2.312-4.367a5.993 5.993 0 0 0-1.741-4.632 5.997 5.997 0 0 0-8.472 0 5.95 5.95 0 0 0-1.751 4.237c0 1.513.556 2.94 1.572 4.047l.63-.58a5.14 5.14 0 0 1 .155-7.098 5.14 5.14 0 0 1 7.262 0 5.136 5.136 0 0 1 1.492 3.97c-.119 1.81-1.152 2.98-2.038 3.796l-3.788 3.489-4.261 3.922H3.764l3.741-3.444 5.341-4.918c.755-.695 1.538-1.588 1.627-2.935a3.853 3.853 0 0 0-3.842-4.106c-1.029 0-1.996.4-2.723 1.128a3.855 3.855 0 0 0-.112 5.328l.629-.579a2.998 2.998 0 0 1 .088-4.143 2.996 2.996 0 0 1 5.106 2.317c-.04.617-.233 1.33-1.353 2.362l-5.34 4.918-4.426 4.07v.857h17.986c.399.458.83.887 1.291 1.283H2.5v.856h20.395c.755.513 1.568.945 2.43 1.284H2.5v.855h27.353c6.842 0 12.409-5.566 12.409-12.408S36.695 45.5 29.853 45.5ZM10.095 65.183l1.472-1.356 4.185-3.853c.536-.494 1.156-1.13 1.693-1.941a12.345 12.345 0 0 0 2.36 7.15h-9.71Zm19.758 4.279c-6.37 0-11.553-5.183-11.553-11.553 0-6.37 5.183-11.553 11.553-11.553 6.37 0 11.553 5.182 11.553 11.553 0 6.37-5.182 11.553-11.553 11.553Z"/><path fill="#E26F56" d="M29.853 47.64c-5.663 0-10.27 4.606-10.27 10.269 0 5.662 4.607 10.269 10.27 10.269 5.663 0 10.27-4.607 10.27-10.27 0-5.662-4.607-10.269-10.27-10.269Zm0 19.682c-5.19 0-9.413-4.223-9.413-9.413s4.223-9.414 9.413-9.414 9.414 4.224 9.414 9.414c0 5.19-4.224 9.413-9.414 9.413Z"/><path fill="#E26F56" d="M29.853 49.779c-4.482 0-8.13 3.647-8.13 8.13 0 4.482 3.648 8.13 8.13 8.13 4.483 0 8.13-3.648 8.13-8.13 0-4.483-3.647-8.13-8.13-8.13Zm-7.274 8.13c0-1.042.222-2.033.618-2.93l3.451 9.458a7.283 7.283 0 0 1-4.07-6.528h.001Zm7.274 7.274a7.26 7.26 0 0 1-2.056-.298l2.184-6.346 2.246 6.155a.578.578 0 0 0 .039.076 7.246 7.246 0 0 1-2.414.414l.001-.001Zm1.007-10.711c.44-.023.836-.07.836-.07.394-.046.348-.625-.046-.602 0 0-1.183.093-1.948.093-.718 0-1.925-.093-1.925-.093-.395-.023-.44.58-.046.603 0 0 .373.046.766.069l1.14 3.12-1.6 4.797-2.661-7.917c.44-.023.836-.07.836-.07.393-.046.347-.625-.047-.602 0 0-1.184.093-1.948.093-.123 0-.267-.002-.42-.007a7.272 7.272 0 0 1 6.056-3.251c1.867 0 3.573.707 4.863 1.869l-.022-.001c-.718 0-1.227.625-1.227 1.297 0 .603.348 1.112.718 1.714.278.487.602 1.113.602 2.017 0 .625-.24 1.35-.556 2.362l-.729 2.436-2.642-7.857Zm2.682 9.702 2.218-6.413c.416-1.042.556-1.876.556-2.617 0-.225-.013-.437-.036-.636a7.224 7.224 0 0 1 .846 3.4 7.275 7.275 0 0 1-3.584 6.266Z"/><path fill="#fff" d="M1.41 121c-.453 0-.884-.223-1.148-.6a1.456 1.456 0 0 1-.186-1.299l1.217-3.585a.252.252 0 0 0-.06-.258l-.71-.699a1.093 1.093 0 0 1-.322-.773v-5.784c0-.299.125-.588.34-.791l2.698-2.529a.595.595 0 0 0 .19-.423.622.622 0 0 0-.16-.434l-.366-.396a10.472 10.472 0 0 1-2.698-7.037c0-2.779 1.065-5.388 2.996-7.348a10.05 10.05 0 0 1 7.225-3.04c2.736 0 5.298 1.08 7.225 3.04.397.403.767.85 1.096 1.322a.6.6 0 0 0 .495.261c.151 0 .29-.057.393-.169C22.385 87.626 26.179 86 30.049 86c8.04 0 14.586 6.656 14.586 14.835 0 4.55-2.018 8.789-5.54 11.625a.61.61 0 0 0-.2.688c.03.093.166.396.551.396h4.236c.223 0 .45.058.635.185.692.48.858 1.303.499 1.948l-1.425 2.571a.267.267 0 0 0-.03.119v1.553c0 .596-.472 1.076-1.058 1.076H1.41V121Z"/><path fill="#000" d="M3.682 115.029 2.5 118.452h.775l.255-.78h1.235l.254.78h.775l-1.18-3.423H3.68Zm.031 2.078.422-1.296h.026l.42 1.296h-.868ZM8.932 117.182h-.03l-1.478-2.153H6.79v3.423h.724v-2.154h.025l1.489 2.154h.626v-3.423h-.721v2.153ZM12.976 117.182h-.03l-1.478-2.153h-.635v3.423h.724v-2.154h.024l1.49 2.154h.625v-3.423h-.72v2.153ZM15.6 115.029h-.724v3.423h.724v-3.423ZM18.257 117.63h-.031l-.827-2.601h-.804l1.181 3.423h.933l1.18-3.423h-.802l-.83 2.601ZM21.608 117.038h1.464v-.596h-1.464v-.816h1.582v-.597h-2.306v3.423h2.313v-.596h-1.59v-.818ZM26.355 117.109a.963.963 0 0 0 .426-.375c.097-.163.147-.359.147-.587 0-.227-.048-.422-.145-.59a.968.968 0 0 0-.419-.389 1.462 1.462 0 0 0-.662-.138h-1.35v3.423h.723v-1.214h.528l.649 1.214h.8l-.728-1.332c.01-.004.022-.007.032-.012Zm-1.28-1.488h.487c.14 0 .255.021.347.061.091.04.16.1.205.178a.572.572 0 0 1 .068.287.538.538 0 0 1-.068.283.415.415 0 0 1-.204.17.9.9 0 0 1-.344.057h-.491v-1.037.001ZM30.33 116.807a1.266 1.266 0 0 0-.325-.205 2.196 2.196 0 0 0-.41-.134l-.308-.073a1.762 1.762 0 0 1-.21-.061.775.775 0 0 1-.174-.086.384.384 0 0 1-.118-.118.272.272 0 0 1-.04-.161.32.32 0 0 1 .065-.196.414.414 0 0 1 .187-.136.799.799 0 0 1 .299-.05c.174 0 .312.038.413.112.1.075.159.18.172.314h.694a.964.964 0 0 0-.164-.538 1.051 1.051 0 0 0-.444-.363 1.585 1.585 0 0 0-.666-.13c-.254 0-.472.044-.668.13-.196.086-.35.208-.462.363a.89.89 0 0 0-.166.543c-.001.254.082.455.249.604.166.148.395.259.683.329l.373.093c.126.03.23.064.317.1a.528.528 0 0 1 .197.134.29.29 0 0 1 .068.194.342.342 0 0 1-.076.219.492.492 0 0 1-.211.149.867.867 0 0 1-.32.053.94.94 0 0 1-.336-.057.533.533 0 0 1-.235-.172.518.518 0 0 1-.1-.287h-.7c.007.247.066.453.18.62.115.167.274.292.479.376.204.084.445.127.721.127.277 0 .517-.042.715-.126.197-.084.349-.203.454-.356a.95.95 0 0 0 .16-.544.86.86 0 0 0-.291-.667h-.002ZM32.604 115.029l-1.181 3.423h.775l.254-.78h1.236l.253.78h.776l-1.18-3.423h-.934.001Zm.032 2.078.421-1.296h.027l.42 1.296h-.869.001ZM37.717 117.109a.962.962 0 0 0 .425-.375c.098-.163.147-.359.147-.587 0-.227-.048-.422-.144-.59a.968.968 0 0 0-.42-.389 1.462 1.462 0 0 0-.662-.138h-1.35v3.423h.724v-1.214h.528l.648 1.214h.8l-.728-1.332.033-.012h-.001Zm-1.281-1.488h.487c.14 0 .255.021.347.061.092.04.161.1.205.178a.572.572 0 0 1 .068.287.539.539 0 0 1-.068.283.416.416 0 0 1-.204.17.899.899 0 0 1-.344.057h-.491v-1.037.001ZM40.667 116.503h-.034l-.78-1.474h-.81l1.248 2.213v1.21h.718v-1.21l1.248-2.213h-.81l-.78 1.474ZM29.853 88.5c-4.904 0-9.153 2.86-11.167 7a8.132 8.132 0 0 0-2.299-4.61l-.008-.01c-3.17-3.169-8.328-3.169-11.497.002A8.073 8.073 0 0 0 2.5 96.63c0 2.058.76 3.999 2.146 5.503l.63-.58a7.221 7.221 0 0 1-1.92-4.923c0-1.943.756-3.77 2.13-5.143 2.837-2.836 7.452-2.836 10.286-.002l.009.008a7.275 7.275 0 0 1 2.114 5.624c-.17 2.594-1.636 4.226-2.723 5.228l-4.184 3.853-2.156 1.986H6.937l3.577-3.294 3.789-3.489c1.003-.924 2.173-2.256 2.312-4.368a5.993 5.993 0 0 0-1.741-4.632 5.997 5.997 0 0 0-8.472 0 5.95 5.95 0 0 0-1.751 4.237c0 1.513.556 2.94 1.572 4.047l.63-.58a5.14 5.14 0 0 1 .155-7.098 5.14 5.14 0 0 1 7.262 0 5.136 5.136 0 0 1 1.492 3.97c-.119 1.81-1.152 2.98-2.038 3.796l-3.788 3.489-4.261 3.923H3.764l3.741-3.445 5.341-4.918c.755-.695 1.538-1.588 1.627-2.935a3.853 3.853 0 0 0-3.842-4.106c-1.029 0-1.996.4-2.723 1.128a3.855 3.855 0 0 0-.112 5.328l.629-.579a2.998 2.998 0 0 1 .088-4.143 2.996 2.996 0 0 1 5.106 2.317c-.04.617-.233 1.33-1.353 2.362l-5.34 4.918-4.426 4.071v.856h17.986c.399.458.83.887 1.291 1.283H2.5v.856h20.395c.755.513 1.568.945 2.43 1.284H2.5v.855h27.353c6.842 0 12.409-5.566 12.409-12.408S36.695 88.5 29.853 88.5Zm-19.758 19.683 1.472-1.356 4.185-3.853c.536-.494 1.156-1.13 1.693-1.941a12.347 12.347 0 0 0 2.36 7.15h-9.71Zm19.758 4.279c-6.37 0-11.553-5.183-11.553-11.553 0-6.37 5.183-11.553 11.553-11.553 6.37 0 11.553 5.182 11.553 11.553 0 6.37-5.182 11.553-11.553 11.553Z"/><path fill="#000" d="M29.853 90.64c-5.663 0-10.27 4.606-10.27 10.269 0 5.662 4.607 10.269 10.27 10.269 5.663 0 10.27-4.607 10.27-10.269 0-5.663-4.607-10.27-10.27-10.27Zm0 19.682c-5.19 0-9.413-4.223-9.413-9.413s4.223-9.414 9.413-9.414 9.414 4.224 9.414 9.414c0 5.19-4.224 9.413-9.414 9.413Z"/><path fill="#000" d="M29.853 92.779c-4.482 0-8.13 3.647-8.13 8.13 0 4.482 3.648 8.13 8.13 8.13 4.483 0 8.13-3.648 8.13-8.13 0-4.483-3.647-8.13-8.13-8.13Zm-7.274 8.13c0-1.042.222-2.033.618-2.93l3.451 9.458a7.283 7.283 0 0 1-4.07-6.528h.001Zm7.274 7.274a7.242 7.242 0 0 1-2.056-.298l2.184-6.346 2.246 6.155a.552.552 0 0 0 .039.076 7.252 7.252 0 0 1-2.414.414l.001-.001Zm1.007-10.711c.44-.023.836-.07.836-.07.394-.046.348-.625-.046-.602 0 0-1.183.093-1.948.093-.718 0-1.925-.093-1.925-.093-.395-.023-.44.58-.046.603 0 0 .373.046.766.069l1.14 3.12-1.6 4.798-2.661-7.918c.44-.023.836-.07.836-.07.393-.046.347-.625-.047-.602 0 0-1.184.093-1.948.093-.123 0-.267-.002-.42-.007a7.272 7.272 0 0 1 6.056-3.251c1.867 0 3.573.707 4.863 1.869l-.022-.001c-.718 0-1.227.625-1.227 1.297 0 .603.348 1.112.718 1.714.278.487.602 1.113.602 2.016 0 .626-.24 1.352-.556 2.363l-.729 2.436-2.642-7.857Zm2.682 9.702 2.218-6.412c.416-1.043.556-1.877.556-2.618 0-.225-.013-.437-.036-.636a7.224 7.224 0 0 1 .846 3.401 7.275 7.275 0 0 1-3.584 6.265Z"/><path fill="#fff" d="M62.5 72.017v-6.808c0-.276.115-.54.314-.727l2.488-2.328a1 1 0 0 0 .053-1.399l-.115-.128a10.527 10.527 0 0 1-2.74-7.115c0-2.81 1.075-5.449 3.031-7.43a10.2 10.2 0 0 1 7.318-3.074 10.2 10.2 0 0 1 7.317 3.074c.318.322.612.664.888 1.026a.96.96 0 0 0 1.443.093C85.24 44.547 88.95 43 92.723 43c8.267 0 14.968 6.925 14.773 15.361C107.301 66.798 100.519 73 92.451 73H63.472a.981.981 0 0 1-.972-.987v.004Z"/><g clip-path="url(#a)"><path fill="#3858E9" d="M98.504 57.856c.42-1.05.56-1.89.56-2.637 0-.271-.017-.523-.048-.757.062.114.122.232.179.35a.449.449 0 0 1 .041-.21c.06-.132.155-.307.208-.482-.598-.395-1.02-1.043-1.426-1.61-.166-.234-.493-.271-.843-.246.12.096.238.195.352.3-.032-.002-.063-.007-.096-.007-.723 0-1.236.63-1.236 1.307 0 .607.35 1.12.723 1.727.28.49.607 1.12.607 2.031 0 .63-.242 1.361-.56 2.38l-.735 2.454-2.661-7.915c.443-.023.842-.07.842-.07.397-.046.35-.63-.046-.607 0 0-1.193.094-1.963.094-.724 0-1.94-.094-1.94-.094-.397-.023-.443.584-.046.607 0 0 .376.047.773.07l1.147 3.143-1.611 4.833-2.681-7.976c.444-.023.842-.07.842-.07.397-.046.35-.63-.047-.607 0 0-1.192.094-1.962.094-.138 0-.301-.003-.474-.008.055-.085.112-.167.171-.248-.177-.02-.353-.043-.53-.053-.095.39-.337.672-.511 1.053-.12.259-.015.485.129.704.052-.138.108-.274.167-.409l3.512 9.623c-.05-.024-.099-.05-.148-.075.027.108.062.21.118.293.123.179.351.207.547.255.241.058.49.143.738.085a.831.831 0 0 0 .142-.048 6.522 6.522 0 0 1-.264-.072l2.21-6.42 2.263 6.2a.67.67 0 0 0 .052.102c-.047.017-.096.032-.145.048.174.126.38.23.568.204.099-.014.207-.094.301-.132.125-.05.281-.067.398-.126.223-.111.232-.357.313-.585a2.48 2.48 0 0 1 .051-.131 8.03 8.03 0 0 1-.23.14l2.25-6.502ZM92.554 69.638H65v.862h27.554v-.862Z"/><path fill="#E26F56" d="M85.666 67.484H65v.862h20.666v-.862Z"/><path fill="#3858E9" d="M83.428 65.331H65v.862h18.428v-.862Z"/><path fill="#E26F56" d="M92.554 68.345c-5.704 0-10.344-4.64-10.344-10.345 0-5.704 4.64-10.345 10.344-10.345 5.705 0 10.345 4.64 10.345 10.345 0 5.704-4.64 10.345-10.345 10.345Zm0-19.828c-5.228 0-9.483 4.255-9.483 9.483 0 5.229 4.255 9.483 9.483 9.483 5.229 0 9.483-4.254 9.483-9.483 0-5.228-4.254-9.483-9.483-9.483Z"/><path fill="#3858E9" d="M92.554 66.19c-4.515 0-8.19-3.674-8.19-8.19 0-4.515 3.675-8.19 8.19-8.19 4.516 0 8.19 3.675 8.19 8.19 0 4.516-3.674 8.19-8.19 8.19Zm0-15.517c-4.04 0-7.327 3.287-7.327 7.327s3.287 7.328 7.327 7.328S99.882 62.04 99.882 58c0-4.04-3.287-7.327-7.328-7.327Z"/><path fill="#3858E9" d="M92.554 45.5c-4.941 0-9.221 2.882-11.249 7.053a8.186 8.186 0 0 0-2.315-4.642l-.009-.008c-3.193-3.194-8.39-3.194-11.582 0A8.133 8.133 0 0 0 65 53.693c0 2.187.77 4.039 2.173 5.556l.635-.584a7.274 7.274 0 0 1-1.947-4.972c0-1.957.762-3.797 2.147-5.18 2.857-2.858 7.506-2.858 10.361-.003l.009.009a7.328 7.328 0 0 1 2.13 5.665c-.173 2.613-1.648 4.257-2.743 5.266l-4.216 3.882-2.171 2h1.272l1.483-1.366 4.215-3.882c.54-.497 1.165-1.137 1.706-1.955v.002a12.672 12.672 0 0 0 .16 1.882c.966 5.939 6.13 10.486 12.338 10.486 6.892 0 12.5-5.608 12.5-12.5S99.447 45.5 92.554 45.5Zm0 24.138c-6.417 0-11.638-5.22-11.638-11.638 0-6.417 5.221-11.638 11.638-11.638 6.418 0 11.638 5.22 11.638 11.638 0 6.417-5.22 11.638-11.638 11.638Z"/><path fill="#3858E9" d="M75.933 50.95a3.854 3.854 0 0 0-2.743-1.137c-1.037 0-2.01.404-2.743 1.137a3.883 3.883 0 0 0-.102 5.379l.633-.584a3.02 3.02 0 0 1 .078-4.185c1.15-1.15 3.09-1.177 4.267 0 .615.615.935 1.465.877 2.334-.04.621-.234 1.34-1.363 2.379l-5.38 4.954L65 65.331h1.272l3.77-3.47 5.38-4.954c.76-.7 1.549-1.6 1.638-2.957a3.882 3.882 0 0 0-1.127-3Z"/><path fill="#E26F56" d="M77.464 49.433a6.041 6.041 0 0 0-8.534 0 5.994 5.994 0 0 0-1.765 4.268 5.99 5.99 0 0 0 1.595 4.088l.635-.583a5.178 5.178 0 0 1 .145-7.162 5.178 5.178 0 0 1 7.315 0 5.174 5.174 0 0 1 1.504 3.999c-.12 1.822-1.16 3-2.053 3.823l-3.816 3.515-4.293 3.951h1.273l3.603-3.318L76.89 58.5c1.01-.931 2.189-2.273 2.329-4.4a6.038 6.038 0 0 0-1.754-4.666h-.001Z"/></g><path fill="#fff" d="M62.5 29.017v-6.808c0-.276.115-.54.314-.727l2.488-2.328a1 1 0 0 0 .053-1.399l-.115-.128a10.527 10.527 0 0 1-2.74-7.115c0-2.81 1.075-5.449 3.031-7.43A10.2 10.2 0 0 1 72.85.008a10.2 10.2 0 0 1 7.317 3.074c.318.322.612.664.888 1.026a.96.96 0 0 0 1.443.093C85.24 1.547 88.95 0 92.723 0c8.267 0 14.968 6.925 14.773 15.361C107.301 23.798 100.519 30 92.451 30H63.472a.981.981 0 0 1-.972-.987v.004Z"/><path fill="#3858E9" d="M98.504 14.856c.42-1.05.56-1.89.56-2.637 0-.27-.017-.522-.048-.757.063.115.122.232.179.35a.45.45 0 0 1 .041-.21c.06-.132.155-.307.208-.481-.598-.396-1.02-1.043-1.426-1.612-.166-.233-.493-.27-.843-.245.12.096.238.195.352.3-.032-.002-.063-.006-.096-.006-.723 0-1.236.63-1.236 1.307 0 .607.35 1.12.723 1.726.28.49.607 1.121.607 2.031 0 .63-.242 1.362-.56 2.38l-.735 2.454-2.661-7.915c.443-.023.842-.07.842-.07.397-.046.35-.63-.046-.606 0 0-1.193.094-1.963.094-.724 0-1.94-.094-1.94-.094-.397-.024-.443.583-.046.607 0 0 .376.046.773.07l1.147 3.143-1.611 4.832-2.681-7.976c.444-.023.842-.07.842-.07.397-.046.35-.63-.047-.606 0 0-1.192.094-1.962.094-.138 0-.301-.004-.474-.009.055-.084.112-.166.171-.248-.177-.02-.353-.043-.53-.053-.095.39-.337.673-.511 1.054-.12.258-.015.484.13.703a7.64 7.64 0 0 1 .166-.409l3.512 9.624c-.05-.024-.099-.05-.148-.075.027.107.062.21.118.292.123.18.351.208.547.255.241.058.49.143.738.085a.839.839 0 0 0 .142-.048 6.69 6.69 0 0 1-.264-.072l2.21-6.42 2.263 6.2c.014.037.032.07.052.102-.047.018-.096.032-.145.048.174.127.38.23.568.204.099-.014.207-.094.301-.132.125-.05.281-.067.399-.125.222-.112.23-.357.313-.586.015-.044.032-.088.05-.13a7.675 7.675 0 0 1-.23.14l2.25-6.503ZM92.554 26.638H65v.862h27.554v-.862ZM85.666 24.485H65v.862h20.666v-.863ZM83.428 22.331H65v.862h18.428v-.862Z"/><path fill="#3858E9" d="M92.554 25.345c-5.704 0-10.344-4.64-10.344-10.345 0-5.704 4.64-10.345 10.344-10.345C98.26 4.655 102.9 9.295 102.9 15c0 5.704-4.64 10.345-10.345 10.345Zm0-19.828c-5.228 0-9.482 4.255-9.482 9.483 0 5.229 4.254 9.483 9.482 9.483 5.229 0 9.483-4.255 9.483-9.483 0-5.228-4.254-9.483-9.483-9.483Z"/><path fill="#3858E9" d="M92.554 23.19c-4.515 0-8.19-3.675-8.19-8.19s3.675-8.19 8.19-8.19c4.516 0 8.19 3.675 8.19 8.19s-3.674 8.19-8.19 8.19Zm0-15.518c-4.04 0-7.327 3.288-7.327 7.328 0 4.04 3.287 7.328 7.327 7.328S99.882 19.04 99.882 15c0-4.04-3.287-7.328-7.328-7.328Z"/><path fill="#3858E9" d="M92.554 2.5c-4.941 0-9.221 2.882-11.249 7.053A8.186 8.186 0 0 0 78.99 4.91l-.009-.008c-3.193-3.194-8.39-3.194-11.582 0A8.133 8.133 0 0 0 65 10.693c0 2.187.77 4.039 2.173 5.556l.635-.584a7.274 7.274 0 0 1-1.947-4.972c0-1.957.762-3.797 2.147-5.18 2.857-2.858 7.506-2.858 10.361-.003l.009.009a7.328 7.328 0 0 1 2.13 5.665c-.173 2.613-1.648 4.257-2.743 5.266l-4.216 3.882-2.171 2h1.272l1.483-1.366 4.215-3.882c.54-.497 1.165-1.137 1.706-1.955v.002a12.672 12.672 0 0 0 .16 1.882c.966 5.939 6.13 10.486 12.338 10.486 6.892 0 12.5-5.608 12.5-12.5S99.447 2.5 92.554 2.5Zm0 24.138c-6.417 0-11.638-5.22-11.638-11.638 0-6.417 5.221-11.638 11.638-11.638 6.418 0 11.638 5.22 11.638 11.638 0 6.417-5.22 11.638-11.638 11.638Z"/><path fill="#3858E9" d="M75.933 7.95a3.854 3.854 0 0 0-2.743-1.136c-1.037 0-2.01.403-2.743 1.136a3.883 3.883 0 0 0-.102 5.38l.633-.584a3.02 3.02 0 0 1 .078-4.186c1.15-1.149 3.09-1.176 4.267 0 .615.615.935 1.466.877 2.334-.04.621-.234 1.34-1.363 2.38l-5.38 4.954L65 22.33h1.272l3.77-3.47 5.38-4.954c.76-.7 1.549-1.6 1.638-2.957a3.884 3.884 0 0 0-1.127-3Z"/><path fill="#3858E9" d="M77.464 6.434a6.041 6.041 0 0 0-8.534 0 5.994 5.994 0 0 0-1.765 4.267 5.99 5.99 0 0 0 1.595 4.089l.635-.584a5.178 5.178 0 0 1 .145-7.162 5.178 5.178 0 0 1 7.315 0 5.174 5.174 0 0 1 1.504 4c-.12 1.822-1.16 3-2.053 3.822l-3.816 3.515-4.293 3.952h1.273l3.603-3.318L76.89 15.5c1.01-.931 2.188-2.272 2.329-4.4a6.037 6.037 0 0 0-1.754-4.666h-.001Z"/><path fill="#fff" d="M62.5 158.017v-6.808c0-.276.115-.541.314-.727l2.488-2.328a1 1 0 0 0 .053-1.399l-.115-.128a10.526 10.526 0 0 1-2.74-7.115c0-2.81 1.075-5.449 3.031-7.43a10.2 10.2 0 0 1 7.318-3.074 10.2 10.2 0 0 1 7.317 3.074c.318.322.612.664.888 1.026a.96.96 0 0 0 1.443.093C85.24 130.547 88.95 129 92.723 129c8.267 0 14.968 6.925 14.773 15.361-.195 8.437-6.977 14.639-15.045 14.639H63.472a.981.981 0 0 1-.972-.987v.004Z"/><path fill="#000" d="M98.504 143.856c.42-1.05.56-1.89.56-2.637 0-.271-.017-.522-.048-.757.063.115.122.232.179.351a.449.449 0 0 1 .041-.21c.06-.133.155-.308.208-.482-.598-.396-1.02-1.043-1.426-1.612-.166-.233-.493-.27-.843-.245.12.096.238.195.352.3-.032-.002-.063-.006-.096-.006-.723 0-1.236.63-1.236 1.307 0 .607.35 1.119.723 1.726.28.491.607 1.121.607 2.031 0 .631-.242 1.362-.56 2.381l-.735 2.453-2.661-7.915c.443-.023.842-.069.842-.069.397-.047.35-.631-.046-.607 0 0-1.193.094-1.963.094-.724 0-1.94-.094-1.94-.094-.397-.024-.443.583-.046.607 0 0 .376.046.773.069l1.147 3.143-1.611 4.833-2.681-7.976c.444-.023.842-.069.842-.069.397-.047.35-.631-.047-.607 0 0-1.192.094-1.962.094-.138 0-.301-.004-.474-.009.055-.084.112-.166.171-.248-.177-.019-.353-.043-.53-.053-.095.39-.337.673-.511 1.054-.12.258-.015.484.13.703a7.79 7.79 0 0 1 .166-.409l3.512 9.624c-.05-.024-.099-.05-.148-.075.027.107.062.21.118.292.123.179.351.208.547.255.241.058.49.143.738.085a.804.804 0 0 0 .142-.048 5.789 5.789 0 0 1-.264-.072l2.21-6.42 2.263 6.201a.68.68 0 0 0 .052.102c-.047.017-.096.031-.145.047.174.127.38.23.568.204.099-.014.207-.094.301-.132.125-.051.281-.067.399-.126.222-.111.23-.356.313-.585.015-.044.032-.088.05-.131a9.176 9.176 0 0 1-.23.141l2.25-6.503ZM92.554 155.638H65v.862h27.554v-.862ZM85.666 153.484H65v.863h20.666v-.863ZM83.428 151.331H65v.862h18.428v-.862Z"/><path fill="#000" d="M92.554 154.345c-5.704 0-10.344-4.641-10.344-10.345 0-5.704 4.64-10.345 10.344-10.345 5.705 0 10.345 4.641 10.345 10.345 0 5.704-4.64 10.345-10.345 10.345Zm0-19.828c-5.228 0-9.482 4.255-9.482 9.483 0 5.228 4.254 9.483 9.482 9.483 5.229 0 9.483-4.255 9.483-9.483 0-5.228-4.254-9.483-9.483-9.483Z"/><path fill="#000" d="M92.554 152.19c-4.515 0-8.19-3.674-8.19-8.19s3.675-8.19 8.19-8.19c4.516 0 8.19 3.674 8.19 8.19s-3.674 8.19-8.19 8.19Zm0-15.518c-4.04 0-7.327 3.287-7.327 7.328s3.287 7.328 7.327 7.328 7.328-3.287 7.328-7.328-3.287-7.328-7.328-7.328Z"/><path fill="#000" d="M92.554 131.5c-4.941 0-9.221 2.882-11.249 7.053a8.186 8.186 0 0 0-2.315-4.642l-.009-.008c-3.193-3.194-8.39-3.194-11.582 0a8.131 8.131 0 0 0-2.399 5.79c0 2.187.77 4.039 2.173 5.556l.635-.584a7.276 7.276 0 0 1-1.947-4.972c0-1.957.762-3.797 2.147-5.181 2.857-2.857 7.506-2.857 10.361-.002l.009.009a7.328 7.328 0 0 1 2.13 5.665c-.173 2.613-1.648 4.257-2.743 5.266l-4.216 3.882-2.171 2h1.272l1.483-1.366 4.215-3.882c.54-.497 1.165-1.137 1.706-1.955v.002a12.67 12.67 0 0 0 .16 1.882c.966 5.939 6.13 10.486 12.338 10.486 6.892 0 12.5-5.608 12.5-12.5S99.447 131.5 92.554 131.5Zm0 24.138c-6.417 0-11.638-5.221-11.638-11.638s5.221-11.638 11.638-11.638c6.418 0 11.638 5.221 11.638 11.638s-5.22 11.638-11.638 11.638Z"/><path fill="#000" d="M75.933 136.95a3.853 3.853 0 0 0-2.743-1.136c-1.037 0-2.01.403-2.743 1.136a3.883 3.883 0 0 0-.102 5.379l.633-.583a3.021 3.021 0 0 1 .078-4.186c1.15-1.149 3.09-1.176 4.267 0 .615.615.935 1.466.877 2.334-.04.622-.234 1.34-1.363 2.379l-5.38 4.955L65 151.331h1.272l3.77-3.47 5.38-4.954c.76-.7 1.549-1.599 1.638-2.957a3.885 3.885 0 0 0-1.127-3Z"/><path fill="#000" d="M77.464 135.434a6.04 6.04 0 0 0-8.534 0 5.993 5.993 0 0 0-1.765 4.267c0 1.531.565 2.972 1.595 4.089l.635-.584a5.178 5.178 0 0 1 .145-7.162 5.178 5.178 0 0 1 7.315 0 5.173 5.173 0 0 1 1.504 3.999c-.12 1.823-1.16 3.001-2.053 3.823l-3.816 3.515-4.293 3.952h1.273l3.603-3.318 3.817-3.515c1.01-.931 2.188-2.272 2.329-4.4a6.04 6.04 0 0 0-1.754-4.666h-.001ZM62.5 115.017v-6.808c0-.276.115-.541.314-.727l2.488-2.328a1 1 0 0 0 .053-1.399l-.115-.128a10.527 10.527 0 0 1-2.74-7.115c0-2.81 1.075-5.448 3.031-7.43a10.2 10.2 0 0 1 7.318-3.074 10.2 10.2 0 0 1 7.317 3.074c.318.322.612.664.888 1.026a.96.96 0 0 0 1.443.093C85.24 87.547 88.95 86 92.723 86c8.267 0 14.968 6.925 14.773 15.361-.195 8.437-6.977 14.639-15.045 14.639H63.472a.981.981 0 0 1-.972-.987v.004Z"/><g clip-path="url(#b)"><path fill="#fff" d="M98.504 100.856c.42-1.05.56-1.89.56-2.637 0-.271-.017-.523-.048-.757.062.114.122.232.179.35a.449.449 0 0 1 .041-.21c.06-.132.155-.307.208-.482-.598-.395-1.02-1.043-1.426-1.61-.166-.234-.493-.272-.843-.247.12.097.238.196.352.3-.032-.001-.063-.005-.096-.005-.723 0-1.236.63-1.236 1.306 0 .607.35 1.12.723 1.727.28.49.607 1.12.607 2.031 0 .63-.242 1.361-.56 2.38l-.735 2.454-2.661-7.915c.443-.023.842-.07.842-.07.397-.046.35-.63-.046-.607 0 0-1.193.094-1.963.094-.724 0-1.94-.094-1.94-.094-.397-.023-.443.584-.046.607 0 0 .376.047.773.07l1.147 3.143-1.611 4.833-2.681-7.976c.444-.023.842-.07.842-.07.397-.046.35-.63-.047-.607 0 0-1.192.094-1.962.094-.138 0-.301-.003-.474-.008.055-.085.112-.167.171-.249-.177-.018-.353-.042-.53-.052-.095.39-.337.672-.511 1.053-.12.259-.015.485.129.704.052-.138.108-.274.167-.409l3.512 9.623c-.05-.024-.099-.05-.148-.075a.905.905 0 0 0 .118.293c.123.179.351.207.547.255.241.058.49.143.738.085a.805.805 0 0 0 .142-.048 7.46 7.46 0 0 1-.264-.072l2.21-6.42 2.263 6.201a.68.68 0 0 0 .052.101c-.047.018-.096.032-.145.048.174.126.38.23.568.204.099-.014.207-.094.301-.132.125-.051.281-.067.398-.126.223-.111.232-.357.313-.585.016-.044.033-.088.051-.131a7.021 7.021 0 0 1-.23.14l2.25-6.502Z"/><path fill="#E26F56" d="M92.554 112.638H65v.862h27.554v-.862Z"/><path fill="#33F078" d="M85.666 110.484H65v.862h20.666v-.862Z"/><path fill="#fff" d="M83.428 108.331H65v.862h18.428v-.862Z"/><path fill="#33F078" d="M92.554 111.345c-5.704 0-10.344-4.641-10.344-10.345 0-5.704 4.64-10.345 10.344-10.345 5.705 0 10.345 4.64 10.345 10.345 0 5.704-4.64 10.345-10.345 10.345Zm0-19.828c-5.228 0-9.483 4.255-9.483 9.483 0 5.229 4.255 9.483 9.483 9.483 5.229 0 9.483-4.254 9.483-9.483 0-5.228-4.254-9.483-9.483-9.483Z"/><path fill="#fff" d="M92.554 109.19c-4.515 0-8.19-3.674-8.19-8.19 0-4.515 3.675-8.19 8.19-8.19 4.516 0 8.19 3.675 8.19 8.19 0 4.516-3.674 8.19-8.19 8.19Zm0-15.517c-4.04 0-7.327 3.287-7.327 7.327 0 4.041 3.287 7.328 7.327 7.328s7.328-3.287 7.328-7.328c0-4.04-3.287-7.327-7.328-7.327Z"/><path fill="#E26F56" d="M92.554 88.5c-4.941 0-9.221 2.882-11.249 7.053a8.186 8.186 0 0 0-2.315-4.642l-.009-.008c-3.193-3.194-8.39-3.194-11.582 0A8.133 8.133 0 0 0 65 96.693c0 2.187.77 4.039 2.173 5.556l.635-.584a7.275 7.275 0 0 1-1.947-4.972c0-1.957.762-3.797 2.147-5.18 2.857-2.858 7.506-2.858 10.361-.003l.009.009a7.328 7.328 0 0 1 2.13 5.665c-.173 2.613-1.648 4.257-2.743 5.266l-4.216 3.882-2.171 2h1.272l1.483-1.366 4.215-3.882c.54-.497 1.165-1.137 1.706-1.955v.002a12.67 12.67 0 0 0 .16 1.882c.966 5.939 6.13 10.486 12.338 10.486 6.892 0 12.5-5.608 12.5-12.5S99.447 88.5 92.554 88.5Zm0 24.138c-6.417 0-11.638-5.221-11.638-11.638s5.221-11.638 11.638-11.638c6.418 0 11.638 5.22 11.638 11.638 0 6.417-5.22 11.638-11.638 11.638Z"/><path fill="#fff" d="M75.933 93.95a3.854 3.854 0 0 0-2.743-1.136c-1.037 0-2.01.403-2.743 1.136a3.883 3.883 0 0 0-.102 5.379l.633-.584a3.02 3.02 0 0 1 .078-4.185c1.15-1.15 3.09-1.177 4.267 0 .615.615.935 1.465.877 2.334-.04.621-.234 1.34-1.363 2.379a13253.46 13253.46 0 0 1-5.38 4.954L65 108.331h1.272l3.77-3.47 5.38-4.954c.76-.7 1.549-1.6 1.638-2.957a3.882 3.882 0 0 0-1.127-3Z"/><path fill="#33F078" d="M77.464 92.433a6.041 6.041 0 0 0-8.534 0 5.994 5.994 0 0 0-1.765 4.268c0 1.53.565 2.972 1.595 4.088l.635-.583a5.178 5.178 0 0 1 .145-7.162 5.178 5.178 0 0 1 7.315 0 5.174 5.174 0 0 1 1.504 3.999c-.12 1.822-1.16 3.001-2.053 3.823l-3.816 3.515-4.293 3.952h1.273l3.603-3.319 3.817-3.514c1.01-.931 2.189-2.273 2.329-4.4a6.038 6.038 0 0 0-1.754-4.666h-.001Z"/></g><defs><clipPath id="a"><path fill="#fff" d="M65 45.5h40.054v25H65z"/></clipPath><clipPath id="b"><path fill="#fff" d="M65 88.5h40.054v25H65z"/></clipPath></defs></svg>