<svg xmlns="http://www.w3.org/2000/svg" width="100" height="25" fill="none"><path fill="#fff" d="M10.095 2.606a9.436 9.436 0 0 1 5.305 1.62A9.544 9.544 0 0 1 18.838 8.4a9.432 9.432 0 0 1 .745 3.694 9.435 9.435 0 0 1-1.62 5.305 9.543 9.543 0 0 1-4.175 3.438 9.432 9.432 0 0 1-3.694.745 9.435 9.435 0 0 1-5.305-1.62 9.54 9.54 0 0 1-3.438-4.175 9.433 9.433 0 0 1-.745-3.694 9.436 9.436 0 0 1 1.62-5.305A9.54 9.54 0 0 1 6.4 3.351a9.433 9.433 0 0 1 3.694-.745Zm0-.606C4.52 2 0 6.52 0 12.095c0 5.574 4.52 10.094 10.095 10.094 5.574 0 10.094-4.52 10.094-10.095C20.189 6.52 15.67 2 10.094 2Z"/><path fill="#fff" d="M1.683 12.094a8.414 8.414 0 0 0 4.74 7.57L2.413 8.67a8.372 8.372 0 0 0-.729 3.424Zm14.091-.425c0-1.04-.373-1.76-.693-2.32-.426-.693-.826-1.28-.826-1.973 0-.773.586-1.493 1.412-1.493.038 0 .072.004.11.007a8.38 8.38 0 0 0-5.682-2.21 8.403 8.403 0 0 0-7.029 3.792c.198.006.384.01.541.01.88 0 2.242-.107 2.242-.107.454-.026.507.64.054.694 0 0-.456.053-.962.08l3.063 9.111 1.84-5.52-1.31-3.591c-.453-.027-.882-.08-.882-.08-.453-.027-.4-.72.054-.694 0 0 1.388.107 2.215.107.88 0 2.242-.107 2.242-.107.454-.026.508.64.054.694 0 0-.456.053-.962.08l3.04 9.043.868-2.75c.385-1.202.611-2.054.611-2.773Zm-5.531 1.16-2.524 7.334a8.4 8.4 0 0 0 5.17-.134.78.78 0 0 1-.061-.116l-2.586-7.084h.001Zm7.234-4.771c.036.268.056.555.056.865 0 .853-.16 1.813-.64 3.013l-2.57 7.428a8.408 8.408 0 0 0 4.183-7.27 8.367 8.367 0 0 0-1.03-4.036h.001Zm38.797 1.233h-4.016v.426c1.256 0 1.459.27 1.459 1.862v2.872c0 1.593-.202 1.884-1.459 1.884-.964-.134-1.614-.65-2.512-1.638l-1.032-1.121c1.39-.247 2.13-1.121 2.13-2.11 0-1.233-1.054-2.175-3.028-2.175h-3.948v.426c1.256 0 1.459.27 1.459 1.862v2.872c0 1.593-.202 1.884-1.459 1.884v.427h4.465v-.427c-1.256 0-1.459-.291-1.459-1.884v-.808h.381l2.49 3.118h6.528c3.207 0 4.599-1.704 4.599-3.746 0-2.043-1.39-3.724-4.6-3.724h.002Zm-9.4 3.656V9.964h.92c1.01 0 1.458.695 1.458 1.503 0 .807-.448 1.48-1.458 1.48h-.92Zm9.467 3.119h-.158c-.807 0-.92-.202-.92-1.234V9.964h1.077c2.333 0 2.76 1.704 2.76 3.028s-.427 3.074-2.76 3.074Zm-24.967-2.289L32.922 9.2c.448-1.323.247-1.704-1.189-1.704v-.448h4.218v.448c-1.413 0-1.75.336-2.311 1.974l-2.558 7.672h-.291l-2.288-7.021-2.334 7.021h-.291l-2.49-7.672c-.539-1.638-.898-1.974-2.199-1.974v-.448h4.98v.448c-1.323 0-1.683.314-1.211 1.704l1.503 4.577 2.265-6.73h.427l2.22 6.73h.001ZM39 17.052c-2.467 0-4.486-1.817-4.486-4.038 0-2.222 2.019-4.015 4.486-4.015 2.468 0 4.487 1.817 4.487 4.015 0 2.198-2.02 4.038-4.487 4.038Zm0-7.358c-2.063 0-2.781 1.861-2.781 3.32 0 1.458.718 3.32 2.781 3.32s2.805-1.84 2.805-3.32c0-1.48-.718-3.32-2.805-3.32Zm27.413 6.619v.448h-5.137v-.448c1.503 0 1.773-.382 1.773-2.625v-3.59c0-2.243-.27-2.601-1.773-2.601v-.449h4.643c2.311 0 3.59 1.19 3.59 2.783s-1.279 2.76-3.59 2.76h-1.278v1.098c0 2.244.268 2.625 1.772 2.625v-.002Zm-.493-8.458h-1.28v3.904h1.28c1.256 0 1.839-.875 1.839-1.93 0-1.053-.583-1.973-1.84-1.973Zm18.999 6.798-.113.404c-.201.74-.448 1.01-2.04 1.01h-.315c-1.166 0-1.368-.27-1.368-1.862v-1.032c1.75 0 1.885.156 1.885 1.323h.426v-3.342h-.426c0 1.166-.135 1.323-1.885 1.323V9.964h1.234c1.593 0 1.84.269 2.041 1.01l.112.425h.36l-.157-2.108h-6.595v.426c1.256 0 1.458.27 1.458 1.862v2.872c0 1.456-.172 1.824-1.162 1.876-.941-.144-1.588-.657-2.472-1.63l-1.032-1.121c1.391-.247 2.131-1.121 2.131-2.11 0-1.233-1.054-2.175-3.028-2.175h-3.948v.426c1.256 0 1.459.27 1.459 1.862v2.872c0 1.593-.202 1.884-1.459 1.884v.427h4.465v-.427c-1.256 0-1.459-.291-1.459-1.884v-.808h.382l2.49 3.118h9.219l.135-2.109h-.337l-.001.001Zm-11.89-1.705V9.965h.92c1.01 0 1.459.695 1.459 1.503 0 .807-.448 1.48-1.459 1.48h-.92Zm16.444 4.104c-.897 0-1.683-.471-2.019-.762a1.612 1.612 0 0 0-.359.762h-.426v-3.095h.448c.18 1.48 1.212 2.355 2.535 2.355.718 0 1.3-.404 1.3-1.077 0-.582-.516-1.032-1.434-1.458l-1.28-.606c-.897-.426-1.57-1.166-1.57-2.153 0-1.077 1.01-1.996 2.4-1.996.74 0 1.368.268 1.75.582.112-.09.223-.336.291-.605h.427v2.647h-.472c-.157-1.055-.74-1.93-1.929-1.93-.628 0-1.211.359-1.211.92 0 .56.471.897 1.547 1.39l1.234.606c1.077.515 1.503 1.346 1.503 2.019 0 1.413-1.234 2.4-2.736 2.4l.001.001Zm6.782 0c-.897 0-1.682-.471-2.019-.762a1.612 1.612 0 0 0-.359.762h-.426v-3.095h.448c.18 1.48 1.212 2.355 2.535 2.355.718 0 1.301-.404 1.301-1.077 0-.582-.516-1.032-1.435-1.458l-1.28-.606c-.897-.426-1.57-1.166-1.57-2.153 0-1.077 1.01-1.996 2.4-1.996.74 0 1.369.268 1.75.582.112-.09.224-.336.292-.605h.426v2.647h-.471c-.158-1.055-.74-1.93-1.93-1.93-.627 0-1.211.359-1.211.92 0 .56.471.897 1.548 1.39l1.233.606c1.078.515 1.503 1.346 1.503 2.019 0 1.413-1.234 2.4-2.736 2.4l.001.001Z"/></svg>