<svg xmlns="http://www.w3.org/2000/svg" width="358" height="270" fill="none"><path fill="#fff" d="M10.64 238.76 0 269.56h6.98l2.29-7.02h11.12l2.28 7.03h6.97l-10.62-30.8h-8.4.02Zm.28 18.7 3.8-11.66h.23l3.78 11.66h-7.82.01ZM57.89 258.14h-.27l-13.3-19.38H38.6v30.8h6.52v-19.38h.22l13.4 19.39h5.63v-30.8H57.9v19.37ZM94.28 258.14h-.27l-13.3-19.38h-5.72v30.8h6.52v-19.38h.22l13.4 19.39h5.64v-30.8h-6.49v19.37ZM117.9 238.76h-6.51v30.8h6.51v-30.8ZM141.82 262.17h-.29l-7.44-23.4h-7.24l10.64 30.8h8.4l10.61-30.8h-7.22l-7.46 23.4ZM171.97 256.85h13.18v-5.37h-13.18v-7.34h14.24v-5.38h-20.76v30.8h20.82v-5.36h-14.3v-7.35ZM214.7 257.48a8.6 8.6 0 0 0 3.83-3.38 10.08 10.08 0 0 0 1.32-5.27c0-2.05-.43-3.8-1.3-5.32a8.76 8.76 0 0 0-3.77-3.5 13.2 13.2 0 0 0-5.96-1.24h-12.16v30.8h6.52v-10.92h4.75l5.84 10.93h7.2l-6.56-11.99.3-.11h-.01Zm-11.53-13.39h4.39c1.26 0 2.3.19 3.12.55.82.36 1.45.9 1.85 1.6.4.7.6 1.56.6 2.59 0 1.02-.2 1.86-.6 2.54-.41.68-1.03 1.2-1.84 1.53-.82.34-1.86.51-3.1.51h-4.42v-9.33.01ZM250.47 254.77c-.83-.74-1.8-1.35-2.92-1.85-1.13-.5-2.36-.9-3.7-1.2l-2.76-.67c-.67-.15-1.3-.33-1.9-.54a7.14 7.14 0 0 1-1.56-.77c-.45-.3-.8-.65-1.06-1.07-.27-.41-.38-.89-.36-1.44 0-.67.2-1.26.58-1.78a3.8 3.8 0 0 1 1.68-1.22 7.3 7.3 0 0 1 2.7-.45c1.56 0 2.8.34 3.7 1.01a3.8 3.8 0 0 1 1.55 2.83h6.25a8.7 8.7 0 0 0-1.47-4.85 9.5 9.5 0 0 0-4-3.26 14.21 14.21 0 0 0-5.99-1.17c-2.29 0-4.25.39-6.02 1.17a9.97 9.97 0 0 0-4.15 3.26 8 8 0 0 0-1.5 4.9c0 2.27.74 4.08 2.24 5.42a14.1 14.1 0 0 0 6.16 2.97l3.35.84c1.13.27 2.08.57 2.86.9.77.33 1.36.73 1.77 1.2.4.47.6 1.06.6 1.75 0 .74-.22 1.4-.67 1.97a4.48 4.48 0 0 1-1.9 1.34c-.82.32-1.78.48-2.89.48-1.1 0-2.12-.17-3.02-.52-.89-.34-1.59-.86-2.11-1.54a4.66 4.66 0 0 1-.9-2.59h-6.3c.06 2.22.59 4.08 1.62 5.58a9.4 9.4 0 0 0 4.3 3.39c1.85.75 4.01 1.14 6.5 1.14s4.65-.38 6.43-1.13a9.14 9.14 0 0 0 4.09-3.2 8.56 8.56 0 0 0 1.44-4.9 7.73 7.73 0 0 0-2.62-6h-.02ZM270.94 238.76l-10.64 30.8h6.98l2.29-7.02h11.12l2.28 7.03h6.98l-10.62-30.8h-8.4.01Zm.29 18.7L275 245.8h.24l3.78 11.66h-7.81ZM316.95 257.48a8.6 8.6 0 0 0 3.83-3.38 10.08 10.08 0 0 0 1.32-5.27c0-2.05-.43-3.8-1.3-5.32a8.76 8.76 0 0 0-3.77-3.5 13.2 13.2 0 0 0-5.96-1.24H298.9v30.8h6.52v-10.92h4.75l5.84 10.93h7.2l-6.55-11.99.29-.11Zm-11.53-13.39h4.4c1.25 0 2.29.19 3.11.55.82.36 1.45.9 1.85 1.6.4.7.6 1.56.6 2.59 0 1.02-.2 1.86-.6 2.54-.4.68-1.02 1.2-1.84 1.53-.82.34-1.86.51-3.1.51h-4.42v-9.33.01ZM343.5 252.03h-.3l-7.02-13.27h-7.3l11.24 19.92v10.89h6.46v-10.9l11.24-19.9h-7.3l-7.02 13.26ZM246.18 0c-44.14 0-82.38 25.75-100.5 63a73.19 73.19 0 0 0-20.7-41.5l-.07-.07C96.38-7.1 49.95-7.1 21.43 21.43A72.65 72.65 0 0 0 0 73.17c0 18.52 6.84 35.99 19.32 49.53l5.67-5.22A65 65 0 0 1 7.7 73.17c0-17.48 6.81-33.93 19.18-46.29 25.52-25.52 67.06-25.52 92.57-.02l.08.08a65.47 65.47 0 0 1 19.03 50.61c-1.54 23.35-14.73 38.04-24.5 47.05l-37.67 34.68-19.4 17.87H39.93l32.2-29.64 34.1-31.4c9.02-8.32 19.55-20.3 20.8-39.31a53.94 53.94 0 0 0-15.67-41.69 53.97 53.97 0 0 0-76.24 0 53.55 53.55 0 0 0-15.76 38.13c0 13.62 5 26.46 14.14 36.42l5.67-5.21a46.26 46.26 0 0 1 1.4-63.88 46.26 46.26 0 0 1 65.36 0 46.22 46.22 0 0 1 13.43 35.73c-1.07 16.28-10.37 26.8-18.34 34.15l-34.1 31.4-38.35 35.31h-17.2l33.68-31 48.07-44.26c6.79-6.26 13.84-14.29 14.64-26.42a34.68 34.68 0 0 0-34.58-36.95c-9.26 0-17.96 3.6-24.51 10.15a34.7 34.7 0 0 0-1.01 47.96l5.66-5.22a26.99 26.99 0 0 1 .8-37.28 26.96 26.96 0 0 1 45.96 20.85c-.37 5.55-2.1 11.97-12.19 21.25l-48.06 44.27L0 177.15v7.7h161.87c3.6 4.13 7.47 7.98 11.62 11.55H0v7.7h183.55c6.8 4.62 14.12 8.5 21.87 11.56H0v7.7h246.18c61.57 0 111.68-50.1 111.68-111.68C357.86 50.1 307.76 0 246.18 0ZM68.35 177.15l13.25-12.2 37.67-34.69c4.82-4.44 10.4-10.16 15.24-17.46.24 24 8.08 46.22 21.24 64.35h-87.4Zm177.83 38.5c-57.34 0-103.98-46.64-103.98-103.97C142.2 54.34 188.84 7.7 246.18 7.7c57.33 0 103.97 46.64 103.97 103.98 0 57.33-46.64 103.97-103.97 103.97Z"/><path fill="#fff" d="M246.18 19.25c-50.97 0-92.43 41.46-92.43 92.43 0 50.96 41.46 92.42 92.43 92.42 50.96 0 92.42-41.46 92.42-92.42 0-50.97-41.46-92.43-92.42-92.43Zm0 177.15c-46.72 0-84.72-38-84.72-84.72 0-46.71 38-84.72 84.72-84.72 46.71 0 84.72 38 84.72 84.72 0 46.71-38.01 84.72-84.72 84.72Z"/><path fill="#fff" d="M246.18 38.51c-40.34 0-73.17 32.83-73.17 73.17s32.83 73.17 73.17 73.17 73.17-32.83 73.17-73.17-32.83-73.17-73.17-73.17Zm-65.47 73.17c0-9.38 2-18.3 5.56-26.37l31.06 85.12a65.54 65.54 0 0 1-36.63-58.75h.01Zm65.47 65.47c-6.43 0-12.63-.95-18.51-2.69l19.66-57.11 20.21 55.4c.1.24.22.47.35.68a65.24 65.24 0 0 1-21.72 3.72Zm9.06-96.4c3.96-.21 7.53-.63 7.53-.63 3.54-.41 3.13-5.63-.42-5.42 0 0-10.65.84-17.54.84-6.46 0-17.32-.84-17.32-.84-3.55-.2-3.96 5.22-.41 5.42 0 0 3.35.42 6.9.63l10.25 28.08-14.4 43.18-23.95-71.26c3.97-.21 7.53-.63 7.53-.63 3.54-.41 3.12-5.63-.43-5.42 0 0-10.65.84-17.53.84-1.1 0-2.4-.02-3.78-.07a65.45 65.45 0 0 1 54.5-29.26 65.2 65.2 0 0 1 43.77 16.82h-.2c-6.45 0-11.04 5.63-11.04 11.67 0 5.42 3.13 10 6.47 15.43 2.5 4.38 5.42 10.01 5.42 18.14 0 5.63-2.17 12.17-5 21.27l-6.57 21.92-23.78-70.71Zm24.14 87.31 19.96-57.7c3.75-9.39 5-16.9 5-23.57 0-2.02-.11-3.92-.32-5.72a65 65 0 0 1 7.62 30.6 65.47 65.47 0 0 1-32.27 56.4h.01Z"/></svg>