<svg xmlns="http://www.w3.org/2000/svg" width="175" height="70" fill="none"><path fill="#3858E9" d="m2.8 61.9-2.8 8h1.8l.6-1.8h2.9l.6 1.8h1.8l-2.8-8H2.8Zm0 4.8 1-3 1 3h-2ZM23.1 67l-3.5-5.1h-1.5v8h1.7v-5l3.6 5h1.4v-8h-1.7v5ZM40.7 67l-3.5-5.1h-1.5v8h1.7v-5l3.5 5h1.5v-8h-1.7v5ZM55 61.9h-1.7v8H55v-8ZM69.3 68l-2-6.1h-1.9l2.8 8h2.2l2.7-8h-1.8l-2 6ZM85.3 66.6h3.4v-1.4h-3.4v-2H89V62h-5.4v8H89v-1.4h-3.7v-2ZM104.5 66.8c.4-.3.8-.5 1-1 .2-.3.3-.8.3-1.3s0-1-.3-1.4c-.2-.4-.6-.7-1-.9-.4-.2-1-.3-1.5-.3h-3.2v8h1.7V67h1.2l1.5 2.8h2l-1.8-3.1Zm-3-3.5h1.1l.8.1c.3.1.4.3.5.4l.2.7c0 .3 0 .5-.2.7a1 1 0 0 1-.5.4l-.8.1h-1.1v-2.4ZM121.9 66a3 3 0 0 0-.8-.4 5 5 0 0 0-1-.3l-.6-.2-.5-.2c-.2 0-.3 0-.4-.2a1 1 0 0 1-.3-.2c0-.1-.1-.3 0-.4v-.5l.5-.3.7-.1c.4 0 .7 0 1 .3.2.1.3.4.4.7h1.6a2.3 2.3 0 0 0-1.4-2.1c-.5-.2-1-.3-1.6-.3-.6 0-1.1 0-1.6.3-.4.2-.8.5-1 .8a2 2 0 0 0-.4 1.3c0 .6.2 1 .6 1.4.3.4.9.6 1.6.8l.8.2.8.2.4.3.2.5c0 .2 0 .4-.2.5l-.5.4a2 2 0 0 1-.7 0h-.8c-.3-.1-.4-.3-.6-.5l-.2-.6h-1.6c0 .6.1 1 .4 1.4.3.4.6.7 1.1.9.5.2 1 .3 1.7.3.6 0 1.2-.1 1.7-.3.4-.2.8-.5 1-.8.3-.4.4-.8.4-1.3 0-.3 0-.6-.2-.9a2 2 0 0 0-.5-.6ZM135.3 61.9l-2.7 8h1.8l.6-1.8h2.9l.6 1.8h1.8l-2.8-8h-2.2Zm.1 4.8 1-3 1 3h-2ZM155.4 66.8c.4-.3.8-.5 1-1 .2-.3.4-.8.4-1.3s-.2-1-.4-1.4c-.2-.4-.5-.7-1-.9-.4-.2-1-.3-1.5-.3h-3.2v8h1.7V67h1.3l1.5 2.8h1.8l-1.7-3.1h.1Zm-3-3.5h1.2l.8.1.5.4.1.7-.1.7a1 1 0 0 1-.5.4l-.8.1h-1.2v-2.4ZM172.3 61.9l-1.9 3.4-1.9-3.4h-1.9l3 5.2v2.8h1.6V67l3-5.2h-2ZM63.8 5a24 24 0 1 0 0 48 24 24 0 0 0 0-48Zm0 46a22 22 0 1 1 0-44 22 22 0 0 1 0 44Z"/><path fill="#3858E9" d="M63.8 10a19 19 0 1 0 0 38 19 19 0 0 0 0-38Zm-17 19c0-2.5.6-4.8 1.5-6.9l8 22A17 17 0 0 1 46.8 29Zm17 17a17 17 0 0 1-4.8-.8l5.1-14.8 5.3 14.4v.2a17 17 0 0 1-5.6 1Zm2.4-25 2-.2c.8-.1.7-1.5-.2-1.4l-4.5.2-4.5-.2c-1 0-1 1.3-.1 1.4l1.8.1 2.6 7.3-3.7 11.2L53.4 21l2-.1c.8-.1.7-1.5-.2-1.4l-4.5.2h-1a17 17 0 0 1 25.5-3.3c-1.8 0-3 1.5-3 3s.9 2.7 1.7 4a9 9 0 0 1 1.4 4.8c0 1.4-.5 3.1-1.3 5.5l-1.7 5.7-6.1-18.4Zm12.6 0a16.9 16.9 0 0 1-6.4 22.6l5.2-15a16.1 16.1 0 0 0 1.2-7.6ZM136 0h-2v58h2V0Z"/><path fill="#3858E9" d="M63.8 0a29 29 0 0 0-26 16.3A19 19 0 1 0 5 31.8l1.5-1.3A16.9 16.9 0 0 1 7 7a17 17 0 1 1 22.6 25.3l-9.8 9-5 4.6h-4.4l8.3-7.7 8.8-8.1a14 14 0 1 0-18.9-1.7l1.6-1.3a12 12 0 1 1 20.7-7.3 13 13 0 0 1-4.7 8.8l-8.8 8.2-10 9.1H3l8.8-8L24 26.4c1.8-1.6 3.6-3.7 3.8-6.8A9 9 0 1 0 12.4 25l1.4-1.4A7 7 0 1 1 26 19.4c0 1.5-.5 3.1-3.1 5.6L10.3 36.4 0 46v2h42l3 3H0v2h47.6a29 29 0 0 0 5.7 3H0v2h63.8a29 29 0 0 0 23.5-46h17.6v46h2V12h3v46h2V12h3v46h2V12h12v46h2V0H64Zm-46 46 3.4-3.2 9.7-9c1.3-1.2 2.7-2.7 4-4.6 0 6.3 2 12 5.5 16.7H17.7Zm46 10a27 27 0 1 1 0-54 27 27 0 0 1 0 54ZM129 10H85.7l-3-3H129v3Zm0-5H80a29 29 0 0 0-5.6-3H129v3ZM174.1 0h-2v58h2V0ZM169.1 0h-2v58h2V0ZM162.2 23h-21.3V0h-2v58h2V35h21.3v23h2V0h-2v23Zm0 10h-21.3v-3h21.3v3Zm0-5h-21.3v-3h21.3v3Z"/></svg>