<svg xmlns="http://www.w3.org/2000/svg" width="130" height="97" fill="none"><path fill="#3858E9" d="M3.9 85.4 0 96.4h2.5l.9-2.6h4l.8 2.5h2.6l-3.9-11H4Zm0 6.6 1.5-4h.1l1.3 4H4Zm17.1.3-4.9-7h-2v11h2.3v-6.8l5 6.8h2v-11H21v7Zm13.2 0-4.9-7h-2v11h2.3v-6.8l5 6.8h2v-11h-2.4v7Zm8.6-6.9h-2.3v11h2.3v-11Zm8.7 8.3-2.8-8.3h-2.6l3.8 11H53l3.9-11h-2.7l-2.7 8.3Zm11-1.9h4.8V90h-4.8v-2.6h5.1v-2h-7.5v11h7.6v-1.9h-5.2v-2.6ZM78 92c.6-.2 1-.6 1.4-1.2.3-.5.5-1.1.5-1.8 0-.8-.2-1.4-.5-2-.3-.5-.8-.9-1.4-1.2-.6-.3-1.3-.4-2.1-.4h-4.5v11h2.4v-4h1.7l2.2 4h2.6L77.9 92h.1Zm-4.2-4.7h1.6c.5 0 .8 0 1.1.2.3.1.6.3.7.6.2.2.2.5.2.9 0 .3 0 .6-.2.9-.1.2-.4.4-.7.5a3 3 0 0 1-1 .2h-1.7v-3.3ZM91 91a4 4 0 0 0-1-.6l-1.4-.4-1-.2a6 6 0 0 1-.7-.2l-.6-.3-.4-.4a.9.9 0 0 1 0-.5l.1-.6.6-.5 1-.1c.6 0 1 .1 1.4.3.3.3.5.6.5 1h2.3a3 3 0 0 0-.5-1.7c-.4-.5-.9-.9-1.5-1.1a5.4 5.4 0 0 0-4.4 0c-.6.2-1.1.6-1.5 1.1-.3.5-.5 1.1-.5 1.8 0 .8.3 1.4.8 1.9s1.3.8 2.2 1l1.3.3 1 .4c.3 0 .5.2.6.4l.3.6c0 .3-.1.5-.3.7l-.7.5-1 .2-1.1-.2c-.3-.1-.6-.3-.8-.6-.2-.2-.3-.5-.3-.9H83c0 .8.2 1.5.6 2 .4.5.9 1 1.5 1.2a6 6 0 0 0 2.4.4 5 5 0 0 0 2.3-.4c.7-.3 1.2-.7 1.5-1.1.4-.5.5-1.1.5-1.8 0-.4 0-.8-.2-1.2l-.7-1Zm7.4-5.6-3.8 11H97l.8-2.6h4l.9 2.5h2.5l-3.8-11h-3Zm.1 6.6 1.5-4 1.5 4.1h-2.9Zm16.6 0c.6-.2 1.1-.6 1.4-1.2.3-.5.5-1.1.5-1.8a3.3 3.3 0 0 0-1.8-3.2 5 5 0 0 0-2.2-.4h-4.4v11h2.4v-4h1.7l2.1 4h2.6L115 92h.1Zm-4.1-4.7h1.5c.5 0 .9 0 1.2.2.3.1.5.3.7.6l.2.9-.2.9-.7.5a3 3 0 0 1-1.1.2H111v-3.3Zm13.8 2.8h-.1l-2.6-4.7h-2.6l4 7v4h2.4v-4l4-7h-2.6l-2.5 4.7ZM89.4.5C73.4.5 59.5 9.7 53 22.9a25.8 25.8 0 0 0-7.5-14.8 27 27 0 0 0-37.6 0 25.6 25.6 0 0 0-.8 36l2-1.8A22.8 22.8 0 0 1 9.9 10C19 1 34 1 43.4 10a23 23 0 0 1 7 18 24.4 24.4 0 0 1-9 16.7L27.7 57.1l-7 6.4h-6.2l11.7-10.6 12.4-11.1A19 19 0 0 0 40.5 13a20 20 0 0 0-27.7 0 18.8 18.8 0 0 0-.6 26.5l2-1.9c-6-6.4-5.8-16.4.5-22.7a17 17 0 0 1 23.8 0c3.4 3.4 5.2 8 4.9 12.7-.4 5.8-3.8 9.6-6.7 12.2L24.3 50.9l-14 12.6H4.2l12.3-11 17.4-15.8c2.5-2.2 5-5 5.3-9.4.3-3.5-1-7-3.6-9.5a12.6 12.6 0 0 0-9-3.6c-3.3 0-6.4 1.3-8.8 3.6a12.1 12.1 0 0 0-.4 17l2-1.8a9.4 9.4 0 0 1 .4-13.3 10 10 0 0 1 13.8 0c2 2 3 4.7 2.9 7.5-.2 2-.8 4.2-4.5 7.5L14.5 50.5 0 63.5v2.7h58.8c1.3 1.5 2.7 2.9 4.2 4.1H0v2.8h66.7a41 41 0 0 0 8 4H0V80h89.4A40.2 40.2 0 0 0 130 40.2 40.2 40.2 0 0 0 89.4.5Zm-64.6 63 4.8-4.4 13.7-12.3c1.8-1.6 3.8-3.6 5.6-6.2a39 39 0 0 0 7.7 22.9H24.8Zm64.6 13.7a37.4 37.4 0 0 1-37.7-37c0-20.4 16.9-37 37.7-37a37.4 37.4 0 0 1 37.8 37c0 20.4-17 37-37.8 37Z"/><path fill="#3858E9" d="M89.4 7.3a33.3 33.3 0 0 0-33.5 33c0 18 15 32.8 33.5 32.8A33.3 33.3 0 0 0 123 40.2c0-18.1-15-32.9-33.6-32.9Zm0 63c-17 0-30.7-13.5-30.7-30A30.5 30.5 0 0 1 89.4 10c17 0 30.8 13.5 30.8 30.1a30.5 30.5 0 0 1-30.8 30.1Z"/><path fill="#3858E9" d="M89.4 14.2a26.3 26.3 0 0 0-26.6 26c0 14.4 12 26 26.6 26a26.3 26.3 0 0 0 26.6-26c0-14.3-12-26-26.6-26Zm-23.8 26c0-3.3.8-6.5 2-9.4L79 61.1a23.3 23.3 0 0 1-13.4-20.9Zm23.8 23.3c-2.3 0-4.6-.4-6.7-1l7.1-20.3L97.2 62l.1.3c-2.5.8-5.1 1.3-7.9 1.3Zm3.3-34.3c1.5 0 2.8-.2 2.8-.2 1.2-.2 1-2-.2-2 0 0-3.9.4-6.4.4-2.3 0-6.3-.3-6.3-.3-1.2-.1-1.4 1.8-.1 1.9l2.5.2 3.7 10-5.2 15.3-8.7-25.3c1.4 0 2.7-.2 2.7-.2 1.3-.2 1.2-2-.1-2 0 0-3.9.4-6.4.4h-1.4a24 24 0 0 1 35.7-4.5 4 4 0 0 0-4 4.2c0 1.9 1 3.5 2.3 5.4.9 1.6 2 3.6 2 6.5 0 2-.8 4.3-1.9 7.6l-2.3 7.8-8.7-25.2Zm8.8 31 7.2-20.5a21.7 21.7 0 0 0 1.7-10.4 23.2 23.2 0 0 1-9 31Z"/></svg>