<svg xmlns="http://www.w3.org/2000/svg" width="223" height="101" fill="none"><g clip-path="url(#a)"><path fill="#E26F56" d="M211.607 80.27c.672-1.68.896-3.025.896-4.22a9.31 9.31 0 0 0-.078-1.21c.1.183.196.37.287.56a.706.706 0 0 1 .066-.336c.095-.212.248-.492.332-.77-.957-.634-1.631-1.67-2.281-2.579-.266-.373-.789-.433-1.349-.393.192.155.381.313.563.48-.051-.003-.101-.01-.153-.01-1.158 0-1.978 1.009-1.978 2.092 0 .97.56 1.791 1.157 2.762.448.785.971 1.793.971 3.25 0 1.008-.388 2.178-.897 3.808l-1.175 3.926-4.258-12.664a24.19 24.19 0 0 0 1.348-.111c.634-.075.56-1.009-.075-.971 0 0-1.907.15-3.14.15-1.158 0-3.102-.15-3.102-.15-.636-.038-.711.933-.075.97 0 0 .602.075 1.236.112l1.836 5.03-2.578 7.732-4.29-12.762a23.981 23.981 0 0 0 1.348-.111c.634-.075.56-1.009-.076-.971 0 0-1.908.15-3.139.15-.221 0-.482-.006-.759-.014.088-.135.181-.266.275-.397-.283-.03-.566-.068-.849-.084-.151.623-.539 1.076-.818 1.685-.19.414-.023.775.207 1.126.083-.22.173-.439.268-.654l5.619 15.397c-.08-.038-.158-.08-.237-.12.043.173.099.337.189.468.196.287.561.332.874.408.387.093.784.23 1.181.137.079-.018.153-.046.228-.078a10.47 10.47 0 0 1-.422-.115l3.535-10.272 3.62 9.921c.024.058.053.112.085.163-.076.028-.155.051-.232.076.278.203.607.368.909.327.157-.022.331-.15.481-.211.2-.082.45-.108.637-.202.356-.178.37-.57.501-.936.025-.07.053-.14.081-.21a12.46 12.46 0 0 1-.368.225l3.599-10.404Z"/><path fill="#3858E9" d="M202.087 99.121H158v1.379h44.087v-1.379Z"/><path fill="#33F078" d="M191.066 95.675H158v1.38h33.066v-1.38Z"/><path fill="#E26F56" d="M187.486 92.23H158v1.379h29.486v-1.38Z"/><path fill="#33F078" d="M202.087 97.052c-9.127 0-16.552-7.425-16.552-16.552 0-9.127 7.425-16.552 16.552-16.552 9.127 0 16.552 7.425 16.552 16.552 0 9.127-7.425 16.552-16.552 16.552Zm0-31.724c-8.366 0-15.173 6.806-15.173 15.172 0 8.365 6.807 15.172 15.173 15.172 8.365 0 15.172-6.806 15.172-15.172s-6.807-15.172-15.172-15.172Z"/><path fill="#E26F56" d="M202.087 93.603c-7.225 0-13.104-5.878-13.104-13.103s5.879-13.103 13.104-13.103S215.19 73.275 215.19 80.5s-5.878 13.103-13.103 13.103Zm0-24.827c-6.465 0-11.724 5.26-11.724 11.724 0 6.465 5.259 11.724 11.724 11.724s11.724-5.26 11.724-11.724c0-6.465-5.259-11.724-11.724-11.724Z"/><path fill="#3858E9" d="M202.087 60.5c-7.906 0-14.755 4.611-17.999 11.284a13.09 13.09 0 0 0-3.705-7.426l-.013-.014c-5.109-5.109-13.424-5.109-18.531 0A13.013 13.013 0 0 0 158 73.61c0 3.5 1.232 6.462 3.477 8.89l1.015-.936a11.637 11.637 0 0 1-3.114-7.954c0-3.131 1.219-6.076 3.434-8.29 4.571-4.57 12.01-4.57 16.578-.002l.014.013a11.725 11.725 0 0 1 3.408 9.064c-.275 4.182-2.637 6.812-4.389 8.426l-6.744 6.211-3.475 3.2h2.036l2.372-2.185 6.745-6.21c.865-.797 1.864-1.822 2.73-3.13v.004a19.81 19.81 0 0 0 .255 2.997l.001.014c1.545 9.502 9.809 16.778 19.74 16.778 11.027 0 20-8.973 20-20 0-11.028-8.969-19.999-19.996-19.999Zm0 38.62c-10.268 0-18.621-8.352-18.621-18.62s8.353-18.62 18.621-18.62c10.267 0 18.621 8.352 18.621 18.62s-8.354 18.62-18.621 18.62Z"/><path fill="#E26F56" d="M175.492 69.22a6.165 6.165 0 0 0-4.389-1.818 6.169 6.169 0 0 0-4.389 1.818 6.213 6.213 0 0 0-.162 8.607l1.014-.934a4.832 4.832 0 0 1 .124-6.696c1.84-1.839 4.944-1.883 6.827 0a4.828 4.828 0 0 1 1.403 3.734c-.065.994-.375 2.143-2.181 3.806-2.869 2.643-5.738 5.286-8.608 7.927L158 92.23h2.036l6.03-5.552c2.869-2.643 5.74-5.284 8.608-7.927 1.217-1.12 2.479-2.558 2.623-4.73a6.21 6.21 0 0 0-1.805-4.8Z"/><path fill="#33F078" d="M177.942 66.794c-3.764-3.764-9.89-3.764-13.654 0a9.593 9.593 0 0 0-2.823 6.827c0 2.45.903 4.756 2.552 6.543l1.015-.934c-2.991-3.243-2.915-8.313.233-11.46 3.226-3.226 8.477-3.227 11.703 0a8.277 8.277 0 0 1 2.406 6.399c-.192 2.916-1.857 4.801-3.284 6.117l-6.107 5.624-6.867 6.322h2.036l5.765-5.308 6.106-5.624c1.617-1.49 3.503-3.636 3.727-7.04a9.657 9.657 0 0 0-2.807-7.465l-.001-.001Z"/></g><g clip-path="url(#b)"><path fill="#33F078" d="M132.607 80.27c.672-1.68.896-3.025.896-4.22a9.31 9.31 0 0 0-.078-1.21c.1.183.196.37.287.56a.706.706 0 0 1 .066-.336c.095-.212.248-.492.332-.77-.957-.634-1.631-1.67-2.281-2.579-.266-.373-.789-.433-1.349-.393.192.155.381.313.563.48-.051-.003-.101-.01-.153-.01-1.158 0-1.978 1.009-1.978 2.092 0 .97.56 1.791 1.157 2.762.448.785.971 1.793.971 3.25 0 1.008-.388 2.178-.897 3.808l-1.175 3.926-4.258-12.664a24.005 24.005 0 0 0 1.348-.111c.634-.075.56-1.009-.075-.971 0 0-1.907.15-3.14.15-1.158 0-3.102-.15-3.102-.15-.636-.038-.711.933-.075.97 0 0 .602.075 1.236.112l1.836 5.03-2.578 7.732-4.29-12.762a23.798 23.798 0 0 0 1.348-.111c.634-.075.56-1.009-.076-.971 0 0-1.908.15-3.139.15-.221 0-.482-.006-.759-.014.088-.135.181-.266.275-.397-.283-.03-.566-.068-.849-.084-.151.623-.539 1.076-.818 1.685-.19.414-.023.775.207 1.126.083-.22.173-.439.268-.654l5.619 15.397c-.08-.038-.158-.08-.237-.12.043.173.099.337.189.468.196.287.561.332.874.408.387.093.784.23 1.181.137.079-.018.153-.046.228-.078a10.47 10.47 0 0 1-.422-.115l3.535-10.272 3.62 9.921c.024.058.053.112.085.163-.076.028-.155.051-.232.076.278.203.607.368.909.327.157-.022.331-.15.481-.211.2-.082.45-.108.637-.202.356-.178.37-.57.501-.936.025-.07.053-.14.081-.21a12.46 12.46 0 0 1-.368.225l3.599-10.404Zm-9.52 18.851H79v1.379h44.087v-1.379Z"/><path fill="#3858E9" d="M112.066 95.675H79v1.38h33.066v-1.38Z"/><path fill="#33F078" d="M108.486 92.23H79v1.379h29.486v-1.38Z"/><path fill="#3858E9" d="M123.087 97.052c-9.127 0-16.552-7.425-16.552-16.552 0-9.127 7.425-16.552 16.552-16.552 9.127 0 16.552 7.425 16.552 16.552 0 9.127-7.425 16.552-16.552 16.552Zm0-31.724c-8.366 0-15.173 6.806-15.173 15.172 0 8.365 6.807 15.172 15.173 15.172 8.365 0 15.172-6.806 15.172-15.172s-6.807-15.172-15.172-15.172Z"/><path fill="#33F078" d="M123.087 93.603c-7.225 0-13.104-5.878-13.104-13.103s5.879-13.103 13.104-13.103S136.19 73.275 136.19 80.5s-5.878 13.103-13.103 13.103Zm0-24.827c-6.465 0-11.724 5.26-11.724 11.724 0 6.465 5.259 11.724 11.724 11.724s11.724-5.26 11.724-11.724c0-6.465-5.259-11.724-11.724-11.724Z"/><path fill="#33F078" d="M123.087 60.5c-7.906 0-14.755 4.611-17.999 11.284a13.09 13.09 0 0 0-3.705-7.426l-.013-.014c-5.11-5.109-13.424-5.109-18.531 0A13.014 13.014 0 0 0 79 73.61c0 3.5 1.232 6.462 3.477 8.89l1.015-.936a11.637 11.637 0 0 1-3.114-7.954c0-3.131 1.22-6.076 3.434-8.29 4.571-4.57 12.01-4.57 16.578-.002l.014.013a11.725 11.725 0 0 1 3.408 9.064c-.275 4.182-2.637 6.812-4.388 8.426l-6.745 6.211-3.475 3.2h2.036l2.372-2.185 6.745-6.21c.865-.797 1.864-1.822 2.73-3.13v.004a19.81 19.81 0 0 0 .255 2.997l.001.014c1.545 9.502 9.809 16.778 19.74 16.778 11.027 0 20-8.973 20-20 0-11.028-8.969-19.999-19.996-19.999Zm0 38.62c-10.268 0-18.621-8.352-18.621-18.62s8.353-18.62 18.621-18.62c10.267 0 18.621 8.352 18.621 18.62s-8.354 18.62-18.621 18.62Z"/><path fill="#33F078" d="M96.492 69.22a6.166 6.166 0 0 0-4.389-1.818 6.166 6.166 0 0 0-4.388 1.818 6.213 6.213 0 0 0-.163 8.607l1.013-.934a4.832 4.832 0 0 1 .125-6.696c1.84-1.839 4.945-1.883 6.827 0a4.828 4.828 0 0 1 1.403 3.734c-.065.994-.375 2.143-2.18 3.806-2.87 2.643-5.739 5.286-8.609 7.927L79 92.23h2.036l6.03-5.552c2.87-2.643 5.74-5.284 8.608-7.927 1.217-1.12 2.48-2.558 2.623-4.73a6.21 6.21 0 0 0-1.805-4.8Z"/><path fill="#3858E9" d="M98.942 66.794c-3.764-3.764-9.89-3.764-13.654 0a9.59 9.59 0 0 0-2.823 6.827c0 2.45.903 4.756 2.552 6.543l1.015-.934c-2.99-3.243-2.915-8.313.233-11.46 3.226-3.226 8.477-3.227 11.703 0a8.279 8.279 0 0 1 2.406 6.399c-.192 2.916-1.857 4.801-3.284 6.117l-6.106 5.624-6.868 6.322h2.036l5.765-5.308 6.106-5.624c1.617-1.49 3.503-3.636 3.727-7.04a9.659 9.659 0 0 0-2.806-7.465l-.002-.001Z"/></g><g clip-path="url(#c)"><path fill="#E26F56" d="M53.607 80.27c.672-1.68.897-3.025.897-4.22 0-.433-.03-.835-.08-1.21.102.183.197.37.288.56a.72.72 0 0 1 .066-.336c.095-.212.248-.492.332-.77-.957-.634-1.631-1.67-2.281-2.579-.266-.373-.789-.433-1.349-.393.192.155.38.313.563.48-.051-.003-.1-.01-.153-.01-1.157 0-1.978 1.009-1.978 2.092 0 .97.56 1.791 1.157 2.762.448.785.971 1.793.971 3.25 0 1.008-.387 2.178-.896 3.808l-1.176 3.926-4.258-12.664c.71-.037 1.348-.111 1.348-.111.635-.075.56-1.009-.075-.971 0 0-1.907.15-3.14.15-1.157 0-3.102-.15-3.102-.15-.636-.038-.71.933-.075.97 0 0 .602.075 1.236.112l1.836 5.03-2.578 7.732-4.29-12.762c.71-.037 1.348-.111 1.348-.111.634-.075.56-1.009-.076-.971 0 0-1.908.15-3.14.15-.22 0-.48-.006-.758-.014.089-.135.18-.266.275-.397-.283-.03-.566-.068-.849-.084-.151.623-.539 1.076-.818 1.685-.19.414-.023.775.207 1.126.083-.22.173-.439.268-.654l5.62 15.397c-.08-.038-.16-.08-.238-.12.043.173.1.337.189.468.196.287.561.332.874.408.387.093.784.23 1.181.137.079-.018.153-.046.228-.078a10.608 10.608 0 0 1-.422-.115l3.535-10.272 3.62 9.921c.024.058.053.112.085.163-.076.028-.155.051-.232.076.279.203.607.368.909.327.157-.022.33-.15.481-.211.2-.082.45-.108.638-.202.355-.178.37-.57.5-.936.025-.07.053-.14.082-.21-.122.077-.245.152-.369.225l3.599-10.404Zm-9.52 18.851H0v1.379h44.087v-1.379Z"/><path fill="#3858E9" d="M33.066 95.675H0v1.38h33.066v-1.38Z"/><path fill="#E26F56" d="M29.485 92.23H0v1.379h29.485v-1.38Z"/><path fill="#3858E9" d="M44.087 97.052c-9.127 0-16.552-7.425-16.552-16.552 0-9.127 7.425-16.552 16.552-16.552 9.127 0 16.552 7.425 16.552 16.552 0 9.127-7.425 16.552-16.552 16.552Zm0-31.724c-8.366 0-15.173 6.806-15.173 15.172 0 8.365 6.807 15.172 15.173 15.172 8.365 0 15.172-6.806 15.172-15.172s-6.807-15.172-15.172-15.172Z"/><path fill="#E26F56" d="M44.087 93.603c-7.225 0-13.104-5.878-13.104-13.103s5.879-13.103 13.104-13.103S57.19 73.275 57.19 80.5s-5.878 13.103-13.103 13.103Zm0-24.827c-6.465 0-11.724 5.26-11.724 11.724 0 6.465 5.259 11.724 11.724 11.724S55.81 86.964 55.81 80.5c0-6.465-5.26-11.724-11.724-11.724Z"/><path fill="#E26F56" d="M44.087 60.5c-7.906 0-14.755 4.611-17.999 11.284a13.096 13.096 0 0 0-3.705-7.426l-.013-.014c-5.11-5.109-13.424-5.109-18.531 0A13.014 13.014 0 0 0 0 73.61c0 3.5 1.232 6.462 3.477 8.89l1.015-.936a11.637 11.637 0 0 1-3.114-7.954c0-3.131 1.22-6.076 3.434-8.29 4.571-4.57 12.01-4.57 16.578-.002l.014.013a11.725 11.725 0 0 1 3.408 9.064c-.275 4.182-2.637 6.812-4.389 8.426l-6.744 6.211-3.475 3.2h2.036l2.372-2.185 6.745-6.21c.865-.797 1.864-1.822 2.73-3.13v.004a20.231 20.231 0 0 0 .256 3.01c1.545 9.503 9.809 16.779 19.74 16.779 11.027 0 20-8.973 20-20 0-11.028-8.968-19.999-19.996-19.999Zm0 38.62c-10.268 0-18.62-8.352-18.62-18.62s8.352-18.62 18.62-18.62c10.267 0 18.62 8.352 18.62 18.62s-8.352 18.62-18.62 18.62Z"/><path fill="#E26F56" d="M17.492 69.22a6.166 6.166 0 0 0-4.389-1.818 6.166 6.166 0 0 0-4.389 1.818 6.213 6.213 0 0 0-.162 8.607l1.014-.934a4.832 4.832 0 0 1 .124-6.696c1.84-1.839 4.944-1.883 6.827 0a4.828 4.828 0 0 1 1.403 3.734c-.065.994-.375 2.143-2.18 3.806l-8.61 7.928L0 92.23h2.036l6.03-5.552c2.87-2.643 5.74-5.284 8.608-7.927 1.217-1.12 2.48-2.558 2.623-4.73a6.21 6.21 0 0 0-1.805-4.8Z"/><path fill="#3858E9" d="M19.942 66.794c-3.764-3.764-9.89-3.764-13.654 0a9.59 9.59 0 0 0-2.823 6.827c0 2.45.903 4.756 2.552 6.543l1.015-.934c-2.99-3.243-2.915-8.313.233-11.46 3.226-3.226 8.477-3.227 11.703 0a8.278 8.278 0 0 1 2.406 6.399c-.192 2.916-1.857 4.801-3.284 6.117-2.035 1.875-4.07 3.75-6.107 5.624l-6.867 6.322h2.036l5.765-5.308 6.106-5.624c1.617-1.49 3.503-3.636 3.727-7.04a9.66 9.66 0 0 0-2.806-7.465l-.002-.001Z"/></g><g clip-path="url(#d)"><path fill="#3858E9" d="M211.607 20.27c.672-1.68.896-3.025.896-4.22a9.31 9.31 0 0 0-.078-1.21c.1.183.196.37.287.56a.706.706 0 0 1 .066-.336c.095-.212.248-.492.332-.77-.957-.634-1.631-1.67-2.281-2.579-.266-.373-.789-.433-1.349-.393.192.155.381.313.563.48-.051-.002-.101-.01-.153-.01-1.158 0-1.978 1.009-1.978 2.092 0 .97.56 1.791 1.157 2.762.448.785.971 1.793.971 3.25 0 1.008-.388 2.178-.897 3.808l-1.175 3.926-4.258-12.664a24.19 24.19 0 0 0 1.348-.111c.634-.075.56-1.009-.075-.971 0 0-1.907.15-3.14.15-1.158 0-3.102-.15-3.102-.15-.636-.038-.711.933-.075.97 0 0 .602.075 1.236.112l1.836 5.03-2.578 7.732-4.29-12.762a23.981 23.981 0 0 0 1.348-.111c.634-.075.56-1.009-.076-.971 0 0-1.908.15-3.139.15-.221 0-.482-.006-.759-.014.088-.135.181-.266.275-.397-.283-.03-.566-.068-.849-.084-.151.623-.539 1.076-.818 1.685-.19.414-.023.775.207 1.126.083-.22.173-.439.268-.654l5.619 15.397c-.08-.038-.158-.08-.237-.12.043.173.099.337.189.468.196.287.561.332.874.408.387.093.784.23 1.181.137.079-.018.153-.046.228-.078a10.47 10.47 0 0 1-.422-.115l3.535-10.272 3.62 9.921c.024.058.053.112.085.163-.076.028-.155.051-.232.076.278.203.607.368.909.327.157-.022.331-.15.481-.211.2-.082.45-.108.637-.202.356-.178.37-.57.501-.936.025-.07.053-.14.081-.21a12.46 12.46 0 0 1-.368.225l3.599-10.404Z"/><path fill="#E26F56" d="M202.087 39.121H158v1.38h44.087v-1.38Z"/><path fill="#33F078" d="M191.066 35.675H158v1.38h33.066v-1.38Z"/><path fill="#3858E9" d="M187.486 32.23H158v1.379h29.486v-1.38Z"/><path fill="#33F078" d="M202.087 37.052c-9.127 0-16.552-7.425-16.552-16.552 0-9.127 7.425-16.552 16.552-16.552 9.127 0 16.552 7.425 16.552 16.552 0 9.127-7.425 16.552-16.552 16.552Zm0-31.724c-8.366 0-15.173 6.806-15.173 15.172s6.807 15.172 15.173 15.172c8.365 0 15.172-6.806 15.172-15.172s-6.807-15.172-15.172-15.172Z"/><path fill="#3858E9" d="M202.087 33.603c-7.225 0-13.104-5.878-13.104-13.103s5.879-13.104 13.104-13.104 13.103 5.88 13.103 13.104c0 7.225-5.878 13.103-13.103 13.103Zm0-24.827c-6.465 0-11.724 5.26-11.724 11.724 0 6.465 5.259 11.724 11.724 11.724s11.724-5.26 11.724-11.724c0-6.465-5.259-11.724-11.724-11.724Z"/><path fill="#E26F56" d="M202.087.5c-7.906 0-14.755 4.611-17.999 11.284a13.09 13.09 0 0 0-3.705-7.426l-.013-.014c-5.109-5.109-13.424-5.109-18.531 0A13.013 13.013 0 0 0 158 13.61c0 3.5 1.232 6.462 3.477 8.89l1.015-.935a11.637 11.637 0 0 1-3.114-7.955c0-3.131 1.219-6.076 3.434-8.29 4.571-4.57 12.01-4.57 16.578-.002l.014.013a11.725 11.725 0 0 1 3.408 9.064c-.275 4.182-2.637 6.812-4.389 8.426l-6.744 6.211-3.475 3.2h2.036l2.372-2.185 6.745-6.21c.865-.797 1.864-1.821 2.73-3.13v.004a19.81 19.81 0 0 0 .255 2.997l.001.014c1.545 9.502 9.809 16.778 19.74 16.778 11.027 0 20-8.973 20-20 0-11.03-8.969-20-19.996-20Zm0 38.62c-10.268 0-18.621-8.352-18.621-18.62s8.353-18.62 18.621-18.62c10.267 0 18.621 8.352 18.621 18.62s-8.354 18.62-18.621 18.62Z"/><path fill="#3858E9" d="M175.492 9.22a6.165 6.165 0 0 0-4.389-1.818 6.169 6.169 0 0 0-4.389 1.818 6.213 6.213 0 0 0-.162 8.607l1.014-.934a4.832 4.832 0 0 1 .124-6.696c1.84-1.839 4.944-1.883 6.827 0a4.828 4.828 0 0 1 1.403 3.734c-.065.994-.375 2.143-2.181 3.807-2.869 2.642-5.738 5.285-8.608 7.926L158 32.23h2.036l6.03-5.552c2.869-2.643 5.74-5.284 8.608-7.927 1.217-1.12 2.479-2.558 2.623-4.73a6.21 6.21 0 0 0-1.805-4.8Z"/><path fill="#33F078" d="M177.942 6.794c-3.764-3.764-9.89-3.764-13.654 0a9.593 9.593 0 0 0-2.823 6.827 9.58 9.58 0 0 0 2.552 6.542l1.015-.933c-2.991-3.243-2.915-8.313.233-11.46 3.226-3.226 8.477-3.227 11.703 0a8.278 8.278 0 0 1 2.406 6.399c-.192 2.916-1.857 4.801-3.284 6.117l-6.107 5.624-6.867 6.322h2.036l5.765-5.308 6.106-5.624c1.617-1.49 3.503-3.636 3.727-7.04a9.657 9.657 0 0 0-2.807-7.465l-.001-.001Z"/></g><g clip-path="url(#e)"><path fill="#3858E9" d="M132.607 20.27c.672-1.68.896-3.025.896-4.22a9.31 9.31 0 0 0-.078-1.21c.1.183.196.37.287.56a.706.706 0 0 1 .066-.336c.095-.212.248-.492.332-.77-.957-.634-1.631-1.67-2.281-2.579-.266-.373-.789-.433-1.349-.393.192.155.381.313.563.48-.051-.002-.101-.01-.153-.01-1.158 0-1.978 1.009-1.978 2.092 0 .97.56 1.791 1.157 2.762.448.785.971 1.793.971 3.25 0 1.008-.388 2.178-.897 3.808l-1.175 3.926-4.258-12.664a24.19 24.19 0 0 0 1.348-.111c.634-.075.56-1.009-.075-.971 0 0-1.907.15-3.14.15-1.158 0-3.102-.15-3.102-.15-.636-.038-.711.933-.075.97 0 0 .602.075 1.236.112l1.836 5.03-2.578 7.732-4.29-12.762a23.798 23.798 0 0 0 1.348-.111c.634-.075.56-1.009-.076-.971 0 0-1.908.15-3.139.15-.221 0-.482-.006-.759-.014.088-.135.181-.266.275-.397-.283-.03-.566-.068-.849-.084-.151.623-.539 1.076-.818 1.685-.19.414-.023.775.207 1.126.083-.22.173-.439.268-.654l5.619 15.397c-.08-.038-.158-.08-.237-.12.043.173.099.337.189.468.196.287.561.332.874.408.387.093.784.23 1.181.137.079-.018.153-.046.228-.078a10.47 10.47 0 0 1-.422-.115l3.535-10.272 3.62 9.921c.024.058.053.112.085.163-.076.028-.155.051-.232.076.278.203.607.368.909.327.157-.022.331-.15.481-.211.2-.082.45-.108.637-.202.356-.178.37-.57.501-.936.025-.07.053-.14.081-.21a12.46 12.46 0 0 1-.368.225l3.599-10.404Zm-9.52 18.851H79v1.38h44.087v-1.38Z"/><path fill="#33F078" d="M112.066 35.675H79v1.38h33.066v-1.38Z"/><path fill="#3858E9" d="M108.486 32.23H79v1.379h29.486v-1.38Z"/><path fill="#33F078" d="M123.087 37.052c-9.127 0-16.552-7.425-16.552-16.552 0-9.127 7.425-16.552 16.552-16.552 9.127 0 16.552 7.425 16.552 16.552 0 9.127-7.425 16.552-16.552 16.552Zm0-31.724c-8.366 0-15.173 6.806-15.173 15.172s6.807 15.172 15.173 15.172c8.365 0 15.172-6.806 15.172-15.172s-6.807-15.172-15.172-15.172Z"/><path fill="#3858E9" d="M123.087 33.603c-7.225 0-13.104-5.878-13.104-13.103s5.879-13.104 13.104-13.104 13.103 5.88 13.103 13.104c0 7.225-5.878 13.103-13.103 13.103Zm0-24.827c-6.465 0-11.724 5.26-11.724 11.724 0 6.465 5.259 11.724 11.724 11.724s11.724-5.26 11.724-11.724c0-6.465-5.259-11.724-11.724-11.724Z"/><path fill="#3858E9" d="M123.087.5c-7.906 0-14.755 4.611-17.999 11.284a13.09 13.09 0 0 0-3.705-7.426l-.013-.014c-5.11-5.109-13.424-5.109-18.531 0A13.014 13.014 0 0 0 79 13.61c0 3.5 1.232 6.462 3.477 8.89l1.015-.935a11.638 11.638 0 0 1-3.114-7.955c0-3.131 1.22-6.076 3.434-8.29C88.383.75 95.822.75 100.39 5.317l.014.013a11.725 11.725 0 0 1 3.408 9.064c-.275 4.182-2.637 6.812-4.388 8.426l-6.745 6.211-3.475 3.2h2.036l2.372-2.185 6.745-6.21c.865-.797 1.864-1.821 2.73-3.13v.004a19.81 19.81 0 0 0 .255 2.997l.001.014c1.545 9.502 9.809 16.778 19.74 16.778 11.027 0 20-8.973 20-20C143.083 9.47 134.114.5 123.087.5Zm0 38.62c-10.268 0-18.621-8.352-18.621-18.62s8.353-18.62 18.621-18.62c10.267 0 18.621 8.352 18.621 18.62s-8.354 18.62-18.621 18.62Z"/><path fill="#3858E9" d="M96.492 9.22a6.166 6.166 0 0 0-4.389-1.818 6.166 6.166 0 0 0-4.388 1.818 6.213 6.213 0 0 0-.163 8.607l1.013-.934a4.832 4.832 0 0 1 .125-6.696c1.84-1.839 4.945-1.883 6.827 0a4.828 4.828 0 0 1 1.403 3.734c-.065.994-.375 2.143-2.18 3.807l-8.609 7.926L79 32.23h2.036l6.03-5.552c2.87-2.643 5.74-5.284 8.608-7.927 1.217-1.12 2.48-2.558 2.622-4.73a6.21 6.21 0 0 0-1.804-4.8Z"/><path fill="#33F078" d="M98.942 6.794c-3.764-3.764-9.89-3.764-13.654 0a9.59 9.59 0 0 0-2.823 6.827 9.58 9.58 0 0 0 2.552 6.542l1.015-.933c-2.99-3.243-2.915-8.313.233-11.46 3.226-3.226 8.477-3.227 11.703 0a8.28 8.28 0 0 1 2.406 6.399c-.192 2.916-1.857 4.801-3.284 6.117l-6.106 5.624-6.868 6.322h2.036l5.765-5.308 6.106-5.624c1.617-1.49 3.503-3.636 3.727-7.04a9.659 9.659 0 0 0-2.806-7.465l-.002-.001Z"/></g><g clip-path="url(#f)"><path fill="#3858E9" d="M53.607 20.27c.672-1.68.897-3.025.897-4.22 0-.433-.03-.835-.08-1.21.102.183.197.37.288.56a.718.718 0 0 1 .066-.336c.095-.212.248-.492.332-.77-.957-.634-1.631-1.67-2.281-2.579-.266-.373-.789-.433-1.349-.393.192.155.38.313.563.48-.051-.002-.1-.01-.153-.01-1.157 0-1.978 1.009-1.978 2.092 0 .97.56 1.791 1.157 2.762.448.785.971 1.793.971 3.25 0 1.008-.387 2.178-.896 3.808l-1.176 3.926-4.258-12.664c.71-.037 1.348-.111 1.348-.111.635-.075.56-1.009-.075-.971 0 0-1.907.15-3.14.15-1.157 0-3.102-.15-3.102-.15-.636-.038-.71.933-.075.97 0 0 .602.075 1.236.112l1.836 5.03-2.578 7.732-4.29-12.762c.71-.037 1.348-.111 1.348-.111.634-.075.56-1.009-.076-.971 0 0-1.908.15-3.14.15-.22 0-.48-.006-.758-.014.089-.135.18-.266.275-.397-.283-.03-.566-.068-.849-.084-.151.623-.539 1.076-.818 1.685-.19.414-.023.775.207 1.126.083-.22.173-.439.268-.654l5.62 15.397c-.08-.038-.16-.08-.238-.12.043.173.1.337.189.468.196.287.561.332.874.408.387.093.784.23 1.181.137.079-.018.153-.046.228-.078a10.608 10.608 0 0 1-.422-.115l3.535-10.272 3.62 9.921c.024.058.053.112.085.163-.076.028-.155.051-.232.076.279.203.607.368.909.327.157-.022.33-.15.481-.211.2-.082.45-.108.638-.202.355-.178.37-.57.5-.936.025-.07.053-.14.082-.21-.122.077-.245.152-.369.225l3.599-10.404Zm-9.52 18.851H0v1.38h44.087v-1.38Z"/><path fill="#E26F56" d="M33.066 35.675H0v1.38h33.066v-1.38Z"/><path fill="#3858E9" d="M29.485 32.23H0v1.379h29.485v-1.38Z"/><path fill="#E26F56" d="M44.087 37.052c-9.127 0-16.552-7.425-16.552-16.552 0-9.127 7.425-16.552 16.552-16.552 9.127 0 16.552 7.425 16.552 16.552 0 9.127-7.425 16.552-16.552 16.552Zm0-31.724c-8.366 0-15.173 6.806-15.173 15.172s6.807 15.172 15.173 15.172c8.365 0 15.172-6.806 15.172-15.172S52.452 5.328 44.087 5.328Z"/><path fill="#3858E9" d="M44.087 33.603c-7.225 0-13.104-5.878-13.104-13.103S36.862 7.396 44.087 7.396 57.19 13.276 57.19 20.5c0 7.225-5.878 13.103-13.103 13.103Zm0-24.827c-6.465 0-11.724 5.26-11.724 11.724 0 6.465 5.259 11.724 11.724 11.724S55.81 26.964 55.81 20.5c0-6.465-5.26-11.724-11.724-11.724Z"/><path fill="#3858E9" d="M44.087.5C36.18.5 29.332 5.111 26.088 11.784a13.096 13.096 0 0 0-3.705-7.426l-.013-.014c-5.11-5.109-13.424-5.109-18.531 0A13.013 13.013 0 0 0 0 13.61c0 3.5 1.232 6.462 3.477 8.89l1.015-.935a11.638 11.638 0 0 1-3.114-7.955c0-3.131 1.22-6.076 3.434-8.29C9.383.75 16.822.75 21.39 5.317l.014.013a11.725 11.725 0 0 1 3.408 9.064c-.275 4.182-2.637 6.812-4.389 8.426l-6.744 6.211-3.475 3.2h2.036l2.372-2.185 6.745-6.21c.865-.797 1.864-1.821 2.73-3.13v.004a20.231 20.231 0 0 0 .256 3.01c1.545 9.503 9.809 16.779 19.74 16.779 11.027 0 20-8.973 20-20C64.083 9.47 55.115.5 44.087.5Zm0 38.62c-10.268 0-18.62-8.352-18.62-18.62s8.352-18.62 18.62-18.62c10.267 0 18.62 8.352 18.62 18.62s-8.352 18.62-18.62 18.62Z"/><path fill="#3858E9" d="M17.492 9.22a6.166 6.166 0 0 0-4.389-1.818A6.166 6.166 0 0 0 8.714 9.22a6.213 6.213 0 0 0-.162 8.607l1.014-.934a4.832 4.832 0 0 1 .124-6.696c1.84-1.839 4.944-1.883 6.827 0a4.828 4.828 0 0 1 1.403 3.734c-.065.994-.375 2.143-2.18 3.807l-8.61 7.925L0 32.23h2.036l6.03-5.552c2.87-2.643 5.74-5.284 8.608-7.927 1.217-1.12 2.48-2.558 2.623-4.73a6.21 6.21 0 0 0-1.805-4.8Z"/><path fill="#E26F56" d="M19.942 6.794c-3.764-3.764-9.89-3.764-13.654 0a9.59 9.59 0 0 0-2.823 6.827 9.58 9.58 0 0 0 2.552 6.542l1.015-.933c-2.99-3.243-2.915-8.313.233-11.46 3.226-3.226 8.477-3.227 11.703 0a8.278 8.278 0 0 1 2.406 6.399c-.192 2.916-1.857 4.801-3.284 6.117-2.035 1.875-4.07 3.75-6.107 5.624l-6.867 6.322h2.036l5.765-5.308 6.106-5.624c1.617-1.49 3.503-3.636 3.727-7.04a9.66 9.66 0 0 0-2.806-7.465l-.002-.001Z"/></g><defs><clipPath id="a"><path fill="#fff" d="M158 60.5h64.087v40H158z"/></clipPath><clipPath id="b"><path fill="#fff" d="M79 60.5h64.087v40H79z"/></clipPath><clipPath id="c"><path fill="#fff" d="M0 60.5h64.087v40H0z"/></clipPath><clipPath id="d"><path fill="#fff" d="M158 .5h64.087v40H158z"/></clipPath><clipPath id="e"><path fill="#fff" d="M79 .5h64.087v40H79z"/></clipPath><clipPath id="f"><path fill="#fff" d="M0 .5h64.087v40H0z"/></clipPath></defs></svg>